G04*
G04 #@! TF.GenerationSoftware,Altium Limited,Altium Designer,22.1.2 (22)*
G04*
G04 Layer_Physical_Order=2*
G04 Layer_Color=16711680*
%FSLAX25Y25*%
%MOIN*%
G70*
G04*
G04 #@! TF.SameCoordinates,7045D635-A460-453C-9C4B-A6245008308B*
G04*
G04*
G04 #@! TF.FilePolarity,Positive*
G04*
G01*
G75*
%ADD10C,0.02000*%
%ADD17C,0.07100*%
%ADD23C,0.06299*%
%ADD24C,0.05600*%
%ADD25R,0.06299X0.06299*%
%ADD26C,0.09100*%
%ADD27C,0.05000*%
G36*
X83250Y20885D02*
X83258Y20635D01*
X83283Y20397D01*
X83323Y20172D01*
X83380Y19960D01*
X83453Y19760D01*
X83543Y19573D01*
X83648Y19399D01*
X83770Y19237D01*
X83908Y19088D01*
X84063Y18951D01*
X80580Y18601D01*
X80708Y18767D01*
X80821Y18941D01*
X80922Y19124D01*
X81009Y19317D01*
X81083Y19519D01*
X81143Y19730D01*
X81190Y19950D01*
X81223Y20179D01*
X81243Y20417D01*
X81250Y20665D01*
X83250Y20885D01*
D02*
G37*
G36*
X81250Y54615D02*
X81242Y54865D01*
X81217Y55103D01*
X81177Y55328D01*
X81120Y55540D01*
X81047Y55740D01*
X80957Y55927D01*
X80852Y56101D01*
X80730Y56263D01*
X80592Y56412D01*
X80437Y56549D01*
X83920Y56899D01*
X83793Y56733D01*
X83679Y56559D01*
X83578Y56376D01*
X83491Y56183D01*
X83417Y55981D01*
X83357Y55770D01*
X83310Y55550D01*
X83277Y55321D01*
X83257Y55082D01*
X83250Y54835D01*
X81250Y54615D01*
D02*
G37*
D10*
X82000Y58500D02*
X82250Y58250D01*
Y17250D02*
Y58250D01*
Y17250D02*
X82500Y17000D01*
Y17672D01*
X82000Y57688D02*
Y58500D01*
D17*
X52685Y75500D02*
D03*
X33000D02*
D03*
D23*
X95000Y70000D02*
D03*
Y60000D02*
D03*
Y40000D02*
D03*
Y50000D02*
D03*
D24*
X56343Y28500D02*
D03*
X46500D02*
D03*
X38626D02*
D03*
X28784D02*
D03*
D25*
X95000Y30000D02*
D03*
D26*
X68429Y17831D02*
D03*
X16697D02*
D03*
D27*
X82500Y17000D02*
D03*
X82000Y58500D02*
D03*
M02*
