G04*
G04 #@! TF.GenerationSoftware,Altium Limited,Altium Designer,22.1.2 (22)*
G04*
G04 Layer_Physical_Order=1*
G04 Layer_Color=255*
%FSLAX25Y25*%
%MOIN*%
G70*
G04*
G04 #@! TF.SameCoordinates,7045D635-A460-453C-9C4B-A6245008308B*
G04*
G04*
G04 #@! TF.FilePolarity,Positive*
G04*
G01*
G75*
%ADD10C,0.02000*%
%ADD15R,0.03347X0.05315*%
%ADD17C,0.07100*%
%ADD23C,0.06299*%
%ADD24C,0.05600*%
%ADD25R,0.06299X0.06299*%
%ADD26C,0.09100*%
%ADD27C,0.05000*%
G36*
X35827Y77703D02*
X36121Y77450D01*
X36417Y77228D01*
X36714Y77035D01*
X37013Y76871D01*
X37314Y76738D01*
X37617Y76634D01*
X37922Y76559D01*
X38228Y76515D01*
X38536Y76500D01*
Y74500D01*
X38228Y74485D01*
X37922Y74441D01*
X37617Y74366D01*
X37314Y74262D01*
X37013Y74129D01*
X36714Y73965D01*
X36417Y73772D01*
X36121Y73550D01*
X35827Y73297D01*
X35535Y73015D01*
Y77985D01*
X35827Y77703D01*
D02*
G37*
G36*
X56242Y75059D02*
X56271Y74672D01*
X56323Y74306D01*
X56396Y73959D01*
X56493Y73632D01*
X56611Y73325D01*
X56751Y73037D01*
X56914Y72769D01*
X57099Y72521D01*
X57307Y72292D01*
X55893Y70878D01*
X55664Y71086D01*
X55416Y71271D01*
X55148Y71434D01*
X54861Y71574D01*
X54553Y71693D01*
X54226Y71789D01*
X53879Y71862D01*
X53513Y71914D01*
X53127Y71943D01*
X52720Y71950D01*
X56235Y75464D01*
X56242Y75059D01*
D02*
G37*
G36*
X61591Y43000D02*
X61571Y43190D01*
X61511Y43360D01*
X61411Y43510D01*
X61271Y43640D01*
X61091Y43750D01*
X60871Y43840D01*
X60611Y43910D01*
X60311Y43960D01*
X59971Y43990D01*
X59591Y44000D01*
Y46000D01*
X59971Y46010D01*
X60311Y46040D01*
X60611Y46090D01*
X60871Y46160D01*
X61091Y46250D01*
X61271Y46360D01*
X61411Y46490D01*
X61511Y46640D01*
X61571Y46810D01*
X61591Y47000D01*
Y43000D01*
D02*
G37*
G36*
X64789Y45028D02*
X64734Y44846D01*
X64735Y44634D01*
X64793Y44394D01*
X64907Y44125D01*
X65078Y43828D01*
X65306Y43503D01*
X65590Y43148D01*
X66327Y42355D01*
X64913Y40940D01*
X64502Y41337D01*
X63765Y41962D01*
X63440Y42190D01*
X63142Y42360D01*
X62874Y42475D01*
X62634Y42533D01*
X62422Y42534D01*
X62239Y42478D01*
X62085Y42366D01*
X64901Y45183D01*
X64789Y45028D01*
D02*
G37*
G36*
X32528Y30830D02*
X32346Y30635D01*
X32184Y30432D01*
X32041Y30221D01*
X31917Y30002D01*
X31813Y29776D01*
X31728Y29542D01*
X31663Y29300D01*
X31617Y29050D01*
X31590Y28793D01*
X31583Y28528D01*
X28811Y31300D01*
X29076Y31307D01*
X29334Y31333D01*
X29583Y31379D01*
X29825Y31444D01*
X30059Y31529D01*
X30285Y31633D01*
X30504Y31757D01*
X30715Y31900D01*
X30918Y32063D01*
X31114Y32244D01*
X32528Y30830D01*
D02*
G37*
G36*
X58535Y30278D02*
X58736Y30114D01*
X58944Y29970D01*
X59162Y29846D01*
X59387Y29740D01*
X59621Y29654D01*
X59863Y29586D01*
X60113Y29538D01*
X60372Y29510D01*
X60638Y29500D01*
Y27500D01*
X60372Y27490D01*
X60113Y27462D01*
X59863Y27414D01*
X59621Y27346D01*
X59387Y27260D01*
X59162Y27154D01*
X58944Y27030D01*
X58736Y26886D01*
X58535Y26722D01*
X58343Y26540D01*
Y30460D01*
X58535Y30278D01*
D02*
G37*
G36*
X80526Y20388D02*
X80708Y20217D01*
X80892Y20065D01*
X81079Y19931D01*
X81269Y19815D01*
X81463Y19717D01*
X81659Y19637D01*
X81859Y19575D01*
X82061Y19532D01*
X82266Y19507D01*
X82475Y19500D01*
X80000Y17025D01*
X79993Y17233D01*
X79968Y17439D01*
X79925Y17641D01*
X79863Y17841D01*
X79783Y18037D01*
X79685Y18231D01*
X79569Y18421D01*
X79435Y18608D01*
X79283Y18792D01*
X79112Y18974D01*
X80526Y20388D01*
D02*
G37*
G36*
X89862Y31000D02*
X90245Y31010D01*
X90587Y31040D01*
X90889Y31090D01*
X91150Y31160D01*
X91371Y31250D01*
X91553Y31360D01*
X91693Y31490D01*
X91794Y31640D01*
X91854Y31810D01*
X91874Y32000D01*
Y28000D01*
X91854Y28190D01*
X91794Y28360D01*
X91693Y28510D01*
X91553Y28640D01*
X91371Y28750D01*
X91150Y28840D01*
X90889Y28910D01*
X90587Y28960D01*
X90245Y28990D01*
X89862Y29000D01*
Y31000D01*
D02*
G37*
G36*
X68087Y49060D02*
X68497Y48664D01*
X69232Y48041D01*
X69558Y47815D01*
X69855Y47646D01*
X70123Y47532D01*
X70364Y47476D01*
X70576D01*
X70760Y47532D01*
X70915Y47646D01*
X68087Y44817D01*
X68200Y44973D01*
X68256Y45156D01*
Y45369D01*
X68200Y45609D01*
X68087Y45878D01*
X67917Y46175D01*
X67691Y46500D01*
X67408Y46854D01*
X66673Y47646D01*
X68087Y49060D01*
D02*
G37*
G36*
X78209Y59500D02*
X78457Y59508D01*
X78696Y59530D01*
X78923Y59567D01*
X79140Y59620D01*
X79346Y59688D01*
X79541Y59770D01*
X79725Y59868D01*
X79899Y59980D01*
X80062Y60107D01*
X80215Y60250D01*
Y56750D01*
X80062Y56893D01*
X79899Y57020D01*
X79725Y57133D01*
X79541Y57230D01*
X79346Y57313D01*
X79140Y57380D01*
X78923Y57433D01*
X78696Y57470D01*
X78457Y57493D01*
X78209Y57500D01*
Y59500D01*
D02*
G37*
G36*
X85541Y59876D02*
X85370Y59698D01*
X85070Y59335D01*
X84940Y59150D01*
X84824Y58963D01*
X84722Y58773D01*
X84633Y58582D01*
X84558Y58388D01*
X84496Y58192D01*
X84448Y57994D01*
X82555Y60938D01*
X82753Y60904D01*
X82949Y60893D01*
X83144Y60905D01*
X83337Y60940D01*
X83529Y60998D01*
X83719Y61078D01*
X83908Y61182D01*
X84095Y61308D01*
X84281Y61457D01*
X84465Y61629D01*
X85541Y59876D01*
D02*
G37*
G36*
X90635Y67799D02*
X90824Y68002D01*
X90999Y68221D01*
X91159Y68453D01*
X91306Y68701D01*
X91438Y68964D01*
X91557Y69241D01*
X91661Y69533D01*
X91752Y69841D01*
X91828Y70162D01*
X91890Y70499D01*
X94439Y66901D01*
X94127Y66945D01*
X93825Y66962D01*
X93534Y66952D01*
X93254Y66915D01*
X92984Y66852D01*
X92725Y66761D01*
X92476Y66644D01*
X92238Y66499D01*
X92011Y66328D01*
X91794Y66129D01*
X90635Y67799D01*
D02*
G37*
D10*
X82750Y58500D02*
X94250Y70000D01*
X82000Y58500D02*
X82750D01*
X94250Y70000D02*
X95000D01*
X52685Y75500D02*
X69685Y58500D01*
X71000Y28500D02*
X82500Y17000D01*
X56343Y28500D02*
X71000D01*
X69685Y58500D02*
X82000D01*
X40232Y75500D02*
X69748Y45984D01*
Y45000D02*
Y45984D01*
X33000Y75500D02*
X40232D01*
X45283Y45000D02*
X63252D01*
X28784Y28500D02*
X45283Y45000D01*
X63252Y44016D02*
X77268Y30000D01*
X95000D01*
X63252Y44016D02*
Y45000D01*
D15*
D03*
X69748D02*
D03*
D17*
X52685Y75500D02*
D03*
X33000D02*
D03*
D23*
X95000Y70000D02*
D03*
Y60000D02*
D03*
Y40000D02*
D03*
Y50000D02*
D03*
D24*
X56343Y28500D02*
D03*
X46500D02*
D03*
X38626D02*
D03*
X28784D02*
D03*
D25*
X95000Y30000D02*
D03*
D26*
X68429Y17831D02*
D03*
X16697D02*
D03*
D27*
X82500Y17000D02*
D03*
X82000Y58500D02*
D03*
M02*
