G04*
G04 #@! TF.GenerationSoftware,Altium Limited,Altium Designer,22.1.2 (22)*
G04*
G04 Layer_Color=65535*
%FSLAX25Y25*%
%MOIN*%
G70*
G04*
G04 #@! TF.SameCoordinates,7045D635-A460-453C-9C4B-A6245008308B*
G04*
G04*
G04 #@! TF.FilePolarity,Positive*
G04*
G01*
G75*
%ADD10C,0.02000*%
%ADD11C,0.00600*%
%ADD12C,0.00787*%
%ADD13C,0.01000*%
%ADD14C,0.00300*%
D10*
X17142Y75500D02*
G03*
X17142Y75500I-1500J0D01*
G01*
D11*
X22643Y58880D02*
Y89780D01*
Y58880D02*
X63042D01*
Y89780D01*
X22643D02*
X63042D01*
X42063Y31386D02*
Y32386D01*
X43063D01*
Y31386D02*
Y32386D01*
X42063Y31386D02*
X43063D01*
X16263Y23675D02*
Y32386D01*
X57682D02*
X68863D01*
Y-23114D02*
Y11987D01*
X16263Y-23114D02*
X68863D01*
X16263Y32386D02*
X27445D01*
X68863Y23675D02*
Y32386D01*
X16263Y-23114D02*
Y11987D01*
X47839Y32386D02*
X55004D01*
X39965D02*
X45161D01*
X30122D02*
X37287D01*
X79666Y76832D02*
X78999Y77499D01*
X77666D01*
X77000Y76832D01*
Y74166D01*
X77666Y73500D01*
X78999D01*
X79666Y74166D01*
Y75499D01*
X78333D01*
X80999Y73500D02*
Y77499D01*
X83665Y73500D01*
Y77499D01*
X84997D02*
Y73500D01*
X86997D01*
X87663Y74166D01*
Y76832D01*
X86997Y77499D01*
X84997D01*
X83666Y26999D02*
X81000D01*
Y24999D01*
X82333Y25666D01*
X82999D01*
X83666Y24999D01*
Y23666D01*
X82999Y23000D01*
X81666D01*
X81000Y23666D01*
X84999Y26999D02*
Y24333D01*
X86332Y23000D01*
X87665Y24333D01*
Y26999D01*
X75100Y85099D02*
Y82100D01*
X76600D01*
X77099Y82600D01*
Y83100D01*
X76600Y83600D01*
X75100D01*
X76600D01*
X77099Y84099D01*
Y84599D01*
X76600Y85099D01*
X75100D01*
X78599Y82100D02*
X79599D01*
X80098Y82600D01*
Y83600D01*
X79599Y84099D01*
X78599D01*
X78099Y83600D01*
Y82600D01*
X78599Y82100D01*
X81598Y84099D02*
X82598D01*
X83097Y83600D01*
Y82100D01*
X81598D01*
X81098Y82600D01*
X81598Y83100D01*
X83097D01*
X84097Y84099D02*
Y82100D01*
Y83100D01*
X84597Y83600D01*
X85097Y84099D01*
X85597D01*
X89095Y85099D02*
Y82100D01*
X87596D01*
X87096Y82600D01*
Y83600D01*
X87596Y84099D01*
X89095D01*
X93094D02*
X94094Y82100D01*
X95094Y84099D01*
X96093Y82100D02*
X97093D01*
X96593D01*
Y85099D01*
X96093Y84599D01*
X98592Y82100D02*
Y82600D01*
X99092D01*
Y82100D01*
X98592D01*
X101092Y84599D02*
X101591Y85099D01*
X102591D01*
X103091Y84599D01*
Y82600D01*
X102591Y82100D01*
X101591D01*
X101092Y82600D01*
Y84599D01*
X79599Y90599D02*
X78600D01*
X79100D01*
Y88100D01*
X78600Y87600D01*
X78100D01*
X77600Y88100D01*
X80599Y89599D02*
Y88100D01*
X81099Y87600D01*
X82598D01*
Y89599D01*
X83598Y87600D02*
Y89599D01*
X85098D01*
X85597Y89100D01*
Y87600D01*
X88596Y89599D02*
X87097D01*
X86597Y89100D01*
Y88100D01*
X87097Y87600D01*
X88596D01*
X90096Y90099D02*
Y89599D01*
X89596D01*
X90596D01*
X90096D01*
Y88100D01*
X90596Y87600D01*
X92095D02*
X93095D01*
X92595D01*
Y89599D01*
X92095D01*
X95094Y87600D02*
X96094D01*
X96594Y88100D01*
Y89100D01*
X96094Y89599D01*
X95094D01*
X94595Y89100D01*
Y88100D01*
X95094Y87600D01*
X97593D02*
Y89599D01*
X99093D01*
X99593Y89100D01*
Y87600D01*
D12*
X66106Y42736D02*
X66894D01*
X66106Y47264D02*
X66894D01*
X89705Y24409D02*
X100295D01*
X89705D02*
Y77020D01*
X100295D01*
Y24409D02*
Y77020D01*
D13*
X16185Y87999D02*
X14186D01*
X15185D01*
Y83001D01*
X14186Y82001D01*
X13186D01*
X12186Y83001D01*
X18184Y82001D02*
X20184D01*
X19184D01*
Y87999D01*
X18184Y86999D01*
X74501Y42001D02*
Y47999D01*
X77500D01*
X78500Y46999D01*
Y45000D01*
X77500Y44000D01*
X74501D01*
X76501D02*
X78500Y42001D01*
X80499D02*
X82499D01*
X81499D01*
Y47999D01*
X80499Y46999D01*
X97999Y13001D02*
X92001D01*
Y16000D01*
X93001Y17000D01*
X95000D01*
X96000Y16000D01*
Y13001D01*
X97999Y18999D02*
Y20999D01*
Y19999D01*
X92001D01*
X93001Y18999D01*
X18002Y36501D02*
Y42499D01*
X21001D01*
X22000Y41499D01*
Y39500D01*
X21001Y38500D01*
X18002D01*
X27998Y36501D02*
X24000D01*
X27998Y40500D01*
Y41499D01*
X26999Y42499D01*
X24999D01*
X24000Y41499D01*
D14*
X17534Y30165D02*
X20866Y26833D01*
X17534D02*
X20866Y30165D01*
X17534Y28499D02*
X20866D01*
X19200Y26833D02*
Y30165D01*
M02*
