G04*
G04 #@! TF.GenerationSoftware,Altium Limited,Altium Designer,22.2.1 (43)*
G04*
G04 Layer_Color=65535*
%FSLAX25Y25*%
%MOIN*%
G70*
G04*
G04 #@! TF.SameCoordinates,2AA56CA8-B71A-46B7-BD27-B25D333C2BD2*
G04*
G04*
G04 #@! TF.FilePolarity,Positive*
G04*
G01*
G75*
%ADD10C,0.00984*%
%ADD11C,0.01968*%
%ADD12C,0.00787*%
%ADD13C,0.01000*%
%ADD14C,0.00600*%
D10*
X65760Y76502D02*
G03*
X65760Y76502I-492J0D01*
G01*
D11*
X85555Y76462D02*
G03*
X85555Y76462I-984J0D01*
G01*
D12*
X137450Y3029D02*
X148040D01*
Y124210D01*
X137450D02*
X148040D01*
X137450Y3029D02*
Y124210D01*
X24606Y38336D02*
X25394D01*
X24606Y42864D02*
X25394D01*
X24854Y16836D02*
X25642D01*
X24854Y21364D02*
X25642D01*
X125236Y136206D02*
Y136994D01*
X129764Y136206D02*
Y136994D01*
X121264Y136206D02*
Y136994D01*
X116736Y136206D02*
Y136994D01*
X61764Y130206D02*
Y130994D01*
X57236Y130206D02*
Y130994D01*
X48736Y130206D02*
Y130994D01*
X53264Y130206D02*
Y130994D01*
X166736Y36954D02*
Y37742D01*
X171264Y36954D02*
Y37742D01*
X166736Y50706D02*
Y51494D01*
X171264Y50706D02*
Y51494D01*
X166736Y69206D02*
Y69994D01*
X171264Y69206D02*
Y69994D01*
X127606Y93836D02*
X128394D01*
X127606Y98364D02*
X128394D01*
X119764Y95706D02*
Y96494D01*
X115236Y95706D02*
Y96494D01*
X119764Y107706D02*
Y108494D01*
X115236Y107706D02*
Y108494D01*
X127606Y105836D02*
X128394D01*
X127606Y110364D02*
X128394D01*
X116236Y123206D02*
Y123994D01*
X120764Y123206D02*
Y123994D01*
X128106Y118836D02*
X128894D01*
X128106Y123364D02*
X128894D01*
X16264Y18706D02*
Y19494D01*
X11736Y18706D02*
Y19494D01*
X15764Y39706D02*
Y40494D01*
X11236Y39706D02*
Y40494D01*
X15264Y61706D02*
Y62494D01*
X10736Y61706D02*
Y62494D01*
X25106Y85364D02*
X25894D01*
X25106Y80836D02*
X25894D01*
X16764Y82958D02*
Y83746D01*
X12236Y82958D02*
Y83746D01*
X24606Y104364D02*
X25394D01*
X24606Y99836D02*
X25394D01*
X12236Y101454D02*
Y102242D01*
X16764Y101454D02*
Y102242D01*
X71764Y95706D02*
Y96494D01*
X67236Y95706D02*
Y96494D01*
X54106Y96836D02*
X54894D01*
X54106Y101364D02*
X54894D01*
X54106Y115836D02*
X54894D01*
X54106Y120364D02*
X54894D01*
X53606Y107336D02*
X54394D01*
X53606Y111864D02*
X54394D01*
X67236Y119706D02*
Y120494D01*
X71764Y119706D02*
Y120494D01*
Y107706D02*
Y108494D01*
X67236Y107706D02*
Y108494D01*
X81618Y18785D02*
Y79415D01*
Y18785D02*
X103382D01*
Y79415D01*
X81618D02*
X103382D01*
X36650Y3029D02*
Y124210D01*
X47240D01*
Y3029D02*
Y124210D01*
X36650Y3029D02*
X47240D01*
X24354Y63864D02*
X25142D01*
X24354Y59336D02*
X25142D01*
X156606Y37364D02*
X157394D01*
X156606Y32836D02*
X157394D01*
X156606Y53364D02*
X157394D01*
X156606Y48836D02*
X157394D01*
X156106Y70364D02*
X156894D01*
X156106Y65836D02*
X156894D01*
X156106Y86364D02*
X156894D01*
X156106Y81836D02*
X156894D01*
X165736Y87206D02*
Y87994D01*
X170264Y87206D02*
Y87994D01*
D13*
X64400Y7666D02*
Y11665D01*
X65733Y10332D01*
X67066Y11665D01*
Y7666D01*
X68399Y11665D02*
Y8333D01*
X69065Y7666D01*
X70398D01*
X71065Y8333D01*
Y11665D01*
X72397D02*
X75063Y7666D01*
Y11665D02*
X72397Y7666D01*
X76396Y7000D02*
X79062D01*
X80395Y11665D02*
Y7666D01*
X82394D01*
X83061Y8333D01*
Y8999D01*
Y9666D01*
X82394Y10332D01*
X80395D01*
X84394D02*
Y7666D01*
Y8999D01*
X85060Y9666D01*
X85726Y10332D01*
X86393D01*
X90392Y7666D02*
X89059D01*
X88392Y8333D01*
Y9666D01*
X89059Y10332D01*
X90392D01*
X91058Y9666D01*
Y8999D01*
X88392D01*
X93057Y10332D02*
X94390D01*
X95057Y9666D01*
Y7666D01*
X93057D01*
X92391Y8333D01*
X93057Y8999D01*
X95057D01*
X96390Y7666D02*
Y11665D01*
Y8999D02*
X98389Y10332D01*
X96390Y8999D02*
X98389Y7666D01*
X101055D02*
X102388D01*
X103054Y8333D01*
Y9666D01*
X102388Y10332D01*
X101055D01*
X100388Y9666D01*
Y8333D01*
X101055Y7666D01*
X104387Y10332D02*
Y8333D01*
X105053Y7666D01*
X107053D01*
Y10332D01*
X109052Y10999D02*
Y10332D01*
X108386D01*
X109719D01*
X109052D01*
Y8333D01*
X109719Y7666D01*
X111718Y7000D02*
X114384D01*
X115717Y10332D02*
X117050Y7666D01*
X118383Y10332D01*
X119715Y7666D02*
X121048D01*
X120382D01*
Y11665D01*
X119715Y10999D01*
X140068Y126401D02*
Y130399D01*
X142067D01*
X142734Y129733D01*
Y128400D01*
X142067Y127734D01*
X140068D01*
X146732Y126401D02*
X144067D01*
X146732Y129067D01*
Y129733D01*
X146066Y130399D01*
X144733D01*
X144067Y129733D01*
X37334Y126601D02*
Y130599D01*
X39334D01*
X40000Y129933D01*
Y128600D01*
X39334Y127934D01*
X37334D01*
X41333Y126601D02*
X42666D01*
X41999D01*
Y130599D01*
X41333Y129933D01*
X88334Y87099D02*
Y83767D01*
X89001Y83101D01*
X90334D01*
X91000Y83767D01*
Y87099D01*
X92333Y83101D02*
X93666D01*
X92999D01*
Y87099D01*
X92333Y86433D01*
X20602Y24401D02*
Y28399D01*
X22601D01*
X23267Y27733D01*
Y26400D01*
X22601Y25734D01*
X20602D01*
X21935D02*
X23267Y24401D01*
X24600D02*
X25933D01*
X25267D01*
Y28399D01*
X24600Y27733D01*
X27933Y28399D02*
X30598D01*
Y27733D01*
X27933Y25067D01*
Y24401D01*
X21202Y45401D02*
Y49399D01*
X23201D01*
X23867Y48733D01*
Y47400D01*
X23201Y46734D01*
X21202D01*
X22535D02*
X23867Y45401D01*
X25200D02*
X26533D01*
X25867D01*
Y49399D01*
X25200Y48733D01*
X31198Y49399D02*
X29866Y48733D01*
X28533Y47400D01*
Y46067D01*
X29199Y45401D01*
X30532D01*
X31198Y46067D01*
Y46734D01*
X30532Y47400D01*
X28533D01*
X20300Y68000D02*
Y71999D01*
X22299D01*
X22966Y71332D01*
Y69999D01*
X22299Y69333D01*
X20300D01*
X21633D02*
X22966Y68000D01*
X24299D02*
X25632D01*
X24965D01*
Y71999D01*
X24299Y71332D01*
X30297Y71999D02*
X27631D01*
Y69999D01*
X28964Y70666D01*
X29630D01*
X30297Y69999D01*
Y68666D01*
X29630Y68000D01*
X28297D01*
X27631Y68666D01*
X152600Y41500D02*
Y45499D01*
X154599D01*
X155266Y44832D01*
Y43499D01*
X154599Y42833D01*
X152600D01*
X153933D02*
X155266Y41500D01*
X156599D02*
X157932D01*
X157265D01*
Y45499D01*
X156599Y44832D01*
X161930Y41500D02*
Y45499D01*
X159931Y43499D01*
X162597D01*
X20254Y87601D02*
Y91599D01*
X22253D01*
X22919Y90933D01*
Y89600D01*
X22253Y88934D01*
X20254D01*
X21587D02*
X22919Y87601D01*
X24252D02*
X25585D01*
X24919D01*
Y91599D01*
X24252Y90933D01*
X27585D02*
X28251Y91599D01*
X29584D01*
X30250Y90933D01*
Y90266D01*
X29584Y89600D01*
X28918D01*
X29584D01*
X30250Y88934D01*
Y88267D01*
X29584Y87601D01*
X28251D01*
X27585Y88267D01*
X20502Y107601D02*
Y111599D01*
X22501D01*
X23167Y110933D01*
Y109600D01*
X22501Y108933D01*
X20502D01*
X21835D02*
X23167Y107601D01*
X24500D02*
X25833D01*
X25167D01*
Y111599D01*
X24500Y110933D01*
X30498Y107601D02*
X27833D01*
X30498Y110266D01*
Y110933D01*
X29832Y111599D01*
X28499D01*
X27833Y110933D01*
X152600Y57500D02*
Y61499D01*
X154599D01*
X155266Y60832D01*
Y59499D01*
X154599Y58833D01*
X152600D01*
X153933D02*
X155266Y57500D01*
X156599D02*
X157932D01*
X157265D01*
Y61499D01*
X156599Y60832D01*
X159931Y57500D02*
X161264D01*
X160597D01*
Y61499D01*
X159931Y60832D01*
X152100Y74500D02*
Y78499D01*
X154099D01*
X154766Y77832D01*
Y76499D01*
X154099Y75833D01*
X152100D01*
X153433D02*
X154766Y74500D01*
X156099D02*
X157432D01*
X156765D01*
Y78499D01*
X156099Y77832D01*
X159431D02*
X160097Y78499D01*
X161430D01*
X162097Y77832D01*
Y75166D01*
X161430Y74500D01*
X160097D01*
X159431Y75166D01*
Y77832D01*
X152100Y90500D02*
Y94499D01*
X154099D01*
X154766Y93832D01*
Y92499D01*
X154099Y91833D01*
X152100D01*
X153433D02*
X154766Y90500D01*
X156099Y91166D02*
X156765Y90500D01*
X158098D01*
X158765Y91166D01*
Y93832D01*
X158098Y94499D01*
X156765D01*
X156099Y93832D01*
Y93166D01*
X156765Y92499D01*
X158765D01*
X64999Y95268D02*
X61001D01*
Y97267D01*
X61667Y97934D01*
X63000D01*
X63666Y97267D01*
Y95268D01*
Y96601D02*
X64999Y97934D01*
X61667Y99266D02*
X61001Y99933D01*
Y101266D01*
X61667Y101932D01*
X62334D01*
X63000Y101266D01*
X63666Y101932D01*
X64333D01*
X64999Y101266D01*
Y99933D01*
X64333Y99266D01*
X63666D01*
X63000Y99933D01*
X62334Y99266D01*
X61667D01*
X63000Y99933D02*
Y101266D01*
X124668Y86801D02*
Y90799D01*
X126667D01*
X127333Y90133D01*
Y88800D01*
X126667Y88134D01*
X124668D01*
X126001D02*
X127333Y86801D01*
X128666Y90799D02*
X131332D01*
Y90133D01*
X128666Y87467D01*
Y86801D01*
X125168Y112601D02*
Y116599D01*
X127167D01*
X127833Y115933D01*
Y114600D01*
X127167Y113934D01*
X125168D01*
X126501D02*
X127833Y112601D01*
X131832Y116599D02*
X130499Y115933D01*
X129166Y114600D01*
Y113267D01*
X129833Y112601D01*
X131166D01*
X131832Y113267D01*
Y113934D01*
X131166Y114600D01*
X129166D01*
X64487Y106255D02*
X60488D01*
Y108255D01*
X61155Y108921D01*
X62487D01*
X63154Y108255D01*
Y106255D01*
Y107588D02*
X64487Y108921D01*
X60488Y112920D02*
Y110254D01*
X62487D01*
X61821Y111587D01*
Y112253D01*
X62487Y112920D01*
X63820D01*
X64487Y112253D01*
Y110920D01*
X63820Y110254D01*
X65199Y117268D02*
X61201D01*
Y119267D01*
X61867Y119933D01*
X63200D01*
X63866Y119267D01*
Y117268D01*
Y118601D02*
X65199Y119933D01*
Y123266D02*
X61201D01*
X63200Y121266D01*
Y123932D01*
X124668Y125601D02*
Y129599D01*
X126667D01*
X127333Y128933D01*
Y127600D01*
X126667Y126934D01*
X124668D01*
X126001D02*
X127333Y125601D01*
X128666Y128933D02*
X129333Y129599D01*
X130666D01*
X131332Y128933D01*
Y128267D01*
X130666Y127600D01*
X129999D01*
X130666D01*
X131332Y126934D01*
Y126267D01*
X130666Y125601D01*
X129333D01*
X128666Y126267D01*
X132668Y135601D02*
Y139599D01*
X134667D01*
X135334Y138933D01*
Y137600D01*
X134667Y136934D01*
X132668D01*
X134001D02*
X135334Y135601D01*
X139332D02*
X136667D01*
X139332Y138267D01*
Y138933D01*
X138666Y139599D01*
X137333D01*
X136667Y138933D01*
X48334Y137101D02*
Y141099D01*
X50334D01*
X51000Y140433D01*
Y139100D01*
X50334Y138434D01*
X48334D01*
X49667D02*
X51000Y137101D01*
X52333D02*
X53666D01*
X52999D01*
Y141099D01*
X52333Y140433D01*
X5167Y17267D02*
X4501Y16601D01*
Y15268D01*
X5167Y14602D01*
X7833D01*
X8499Y15268D01*
Y16601D01*
X7833Y17267D01*
X8499Y18600D02*
Y19933D01*
Y19267D01*
X4501D01*
X5167Y18600D01*
X4501Y21933D02*
Y24598D01*
X5167D01*
X7833Y21933D01*
X8499D01*
X4667Y38267D02*
X4001Y37601D01*
Y36268D01*
X4667Y35602D01*
X7333D01*
X7999Y36268D01*
Y37601D01*
X7333Y38267D01*
X7999Y39600D02*
Y40933D01*
Y40267D01*
X4001D01*
X4667Y39600D01*
X4001Y45598D02*
X4667Y44265D01*
X6000Y42933D01*
X7333D01*
X7999Y43599D01*
Y44932D01*
X7333Y45598D01*
X6667D01*
X6000Y44932D01*
Y42933D01*
X5067Y60067D02*
X4401Y59401D01*
Y58068D01*
X5067Y57402D01*
X7733D01*
X8399Y58068D01*
Y59401D01*
X7733Y60067D01*
X8399Y61400D02*
Y62733D01*
Y62067D01*
X4401D01*
X5067Y61400D01*
X4401Y67398D02*
Y64733D01*
X6400D01*
X5734Y66066D01*
Y66732D01*
X6400Y67398D01*
X7733D01*
X8399Y66732D01*
Y65399D01*
X7733Y64733D01*
X168267Y29133D02*
X167601Y29799D01*
X166268D01*
X165602Y29133D01*
Y26467D01*
X166268Y25801D01*
X167601D01*
X168267Y26467D01*
X169600Y25801D02*
X170933D01*
X170267D01*
Y29799D01*
X169600Y29133D01*
X174932Y25801D02*
Y29799D01*
X172933Y27800D01*
X175598D01*
X5167Y81267D02*
X4501Y80601D01*
Y79268D01*
X5167Y78602D01*
X7833D01*
X8499Y79268D01*
Y80601D01*
X7833Y81267D01*
X8499Y82600D02*
Y83933D01*
Y83267D01*
X4501D01*
X5167Y82600D01*
Y85933D02*
X4501Y86599D01*
Y87932D01*
X5167Y88598D01*
X5834D01*
X6500Y87932D01*
Y87265D01*
Y87932D01*
X7166Y88598D01*
X7833D01*
X8499Y87932D01*
Y86599D01*
X7833Y85933D01*
X5167Y99767D02*
X4501Y99101D01*
Y97768D01*
X5167Y97102D01*
X7833D01*
X8499Y97768D01*
Y99101D01*
X7833Y99767D01*
X8499Y101100D02*
Y102433D01*
Y101767D01*
X4501D01*
X5167Y101100D01*
X8499Y107098D02*
Y104433D01*
X5834Y107098D01*
X5167D01*
X4501Y106432D01*
Y105099D01*
X5167Y104433D01*
X168334Y61433D02*
X167667Y62099D01*
X166334D01*
X165668Y61433D01*
Y58767D01*
X166334Y58101D01*
X167667D01*
X168334Y58767D01*
X169667Y58101D02*
X171000D01*
X170333D01*
Y62099D01*
X169667Y61433D01*
X172999Y58101D02*
X174332D01*
X173665D01*
Y62099D01*
X172999Y61433D01*
X168667Y79933D02*
X168001Y80599D01*
X166668D01*
X166002Y79933D01*
Y77267D01*
X166668Y76601D01*
X168001D01*
X168667Y77267D01*
X170000Y76601D02*
X171333D01*
X170667D01*
Y80599D01*
X170000Y79933D01*
X173333D02*
X173999Y80599D01*
X175332D01*
X175998Y79933D01*
Y77267D01*
X175332Y76601D01*
X173999D01*
X173333Y77267D01*
Y79933D01*
X168266Y99332D02*
X167599Y99999D01*
X166267D01*
X165600Y99332D01*
Y96666D01*
X166267Y96000D01*
X167599D01*
X168266Y96666D01*
X169599D02*
X170265Y96000D01*
X171598D01*
X172265Y96666D01*
Y99332D01*
X171598Y99999D01*
X170265D01*
X169599Y99332D01*
Y98666D01*
X170265Y97999D01*
X172265D01*
X75167Y95934D02*
X74501Y95267D01*
Y93934D01*
X75167Y93268D01*
X77833D01*
X78499Y93934D01*
Y95267D01*
X77833Y95934D01*
X75167Y97267D02*
X74501Y97933D01*
Y99266D01*
X75167Y99932D01*
X75834D01*
X76500Y99266D01*
X77166Y99932D01*
X77833D01*
X78499Y99266D01*
Y97933D01*
X77833Y97267D01*
X77166D01*
X76500Y97933D01*
X75834Y97267D01*
X75167D01*
X76500Y97933D02*
Y99266D01*
X108733Y100333D02*
X108067Y100999D01*
X106734D01*
X106068Y100333D01*
Y97667D01*
X106734Y97001D01*
X108067D01*
X108733Y97667D01*
X110066Y100999D02*
X112732D01*
Y100333D01*
X110066Y97667D01*
Y97001D01*
X108733Y112933D02*
X108067Y113599D01*
X106734D01*
X106068Y112933D01*
Y110267D01*
X106734Y109601D01*
X108067D01*
X108733Y110267D01*
X112732Y113599D02*
X111399Y112933D01*
X110066Y111600D01*
Y110267D01*
X110733Y109601D01*
X112066D01*
X112732Y110267D01*
Y110933D01*
X112066Y111600D01*
X110066D01*
X75667Y107433D02*
X75001Y106767D01*
Y105434D01*
X75667Y104768D01*
X78333D01*
X78999Y105434D01*
Y106767D01*
X78333Y107433D01*
X75001Y111432D02*
Y108766D01*
X77000D01*
X76334Y110099D01*
Y110766D01*
X77000Y111432D01*
X78333D01*
X78999Y110766D01*
Y109433D01*
X78333Y108766D01*
X68334Y130433D02*
X67667Y131099D01*
X66334D01*
X65668Y130433D01*
Y127767D01*
X66334Y127101D01*
X67667D01*
X68334Y127767D01*
X71666Y127101D02*
Y131099D01*
X69666Y129100D01*
X72332D01*
X109134Y122733D02*
X108467Y123399D01*
X107134D01*
X106468Y122733D01*
Y120067D01*
X107134Y119401D01*
X108467D01*
X109134Y120067D01*
X110467Y122733D02*
X111133Y123399D01*
X112466D01*
X113132Y122733D01*
Y122066D01*
X112466Y121400D01*
X111799D01*
X112466D01*
X113132Y120733D01*
Y120067D01*
X112466Y119401D01*
X111133D01*
X110467Y120067D01*
X110134Y138533D02*
X109467Y139199D01*
X108134D01*
X107468Y138533D01*
Y135867D01*
X108134Y135201D01*
X109467D01*
X110134Y135867D01*
X114132Y135201D02*
X111467D01*
X114132Y137866D01*
Y138533D01*
X113466Y139199D01*
X112133D01*
X111467Y138533D01*
X60000Y140433D02*
X59334Y141099D01*
X58001D01*
X57334Y140433D01*
Y137767D01*
X58001Y137101D01*
X59334D01*
X60000Y137767D01*
X61333Y137101D02*
X62666D01*
X61999D01*
Y141099D01*
X61333Y140433D01*
D14*
X150000Y11000D02*
Y9667D01*
Y10334D01*
X153999D01*
X153332Y11000D01*
X150000Y5002D02*
Y7668D01*
X152666Y5002D01*
X153332D01*
X153999Y5668D01*
Y7001D01*
X153332Y7668D01*
X150000Y119000D02*
Y117667D01*
Y118333D01*
X153999D01*
X153332Y119000D01*
X34800Y118600D02*
Y119933D01*
Y119266D01*
X30801D01*
X31468Y118600D01*
X49200Y11000D02*
Y9667D01*
Y10334D01*
X53199D01*
X52532Y11000D01*
X49200Y5002D02*
Y7668D01*
X51866Y5002D01*
X52532D01*
X53199Y5668D01*
Y7001D01*
X52532Y7668D01*
M02*
