M48
;Layer_Color=9474304
;FILE_FORMAT=2:5
INCH,LZ
;TYPE=PLATED
T1F00S00C0.02800
T2F00S00C0.04331
%
T01
X00855Y00436
X01199Y00466
X0121Y00756
X01164Y00847
X01081Y0092852
Y0104852
X0113Y01282
X0135Y01291
X0161Y00596
X00199Y00531
T02
X0142745Y000862
Y001862
Y002862
Y003862
Y004862
Y005862
Y006862
Y007862
Y008862
Y009862
Y010862
Y011862
X0041945
Y010862
Y009862
Y008862
Y007862
Y006862
Y005862
Y004862
Y003862
Y002862
Y001862
Y000862
M30
