G04*
G04 #@! TF.GenerationSoftware,Altium Limited,Altium Designer,22.2.1 (43)*
G04*
G04 Layer_Physical_Order=1*
G04 Layer_Color=255*
%FSLAX25Y25*%
%MOIN*%
G70*
G04*
G04 #@! TF.SameCoordinates,2AA56CA8-B71A-46B7-BD27-B25D333C2BD2*
G04*
G04*
G04 #@! TF.FilePolarity,Positive*
G04*
G01*
G75*
%ADD13C,0.01000*%
%ADD15R,0.03347X0.05315*%
%ADD16R,0.05315X0.03347*%
G04:AMPARAMS|DCode=17|XSize=102.47mil|YSize=24.49mil|CornerRadius=12.25mil|HoleSize=0mil|Usage=FLASHONLY|Rotation=0.000|XOffset=0mil|YOffset=0mil|HoleType=Round|Shape=RoundedRectangle|*
%AMROUNDEDRECTD17*
21,1,0.10247,0.00000,0,0,0.0*
21,1,0.07798,0.02449,0,0,0.0*
1,1,0.02449,0.03899,0.00000*
1,1,0.02449,-0.03899,0.00000*
1,1,0.02449,-0.03899,0.00000*
1,1,0.02449,0.03899,0.00000*
%
%ADD17ROUNDEDRECTD17*%
%ADD18R,0.10247X0.02449*%
%ADD24C,0.06299*%
%ADD25R,0.06299X0.06299*%
%ADD26C,0.05000*%
G36*
X130144Y140753D02*
X130174Y140668D01*
X130225Y140593D01*
X130295Y140528D01*
X130386Y140473D01*
X130498Y140428D01*
X130629Y140393D01*
X130781Y140368D01*
X130953Y140353D01*
X131146Y140348D01*
Y139348D01*
X130953Y139343D01*
X130781Y139328D01*
X130629Y139303D01*
X130498Y139268D01*
X130386Y139223D01*
X130295Y139168D01*
X130225Y139103D01*
X130174Y139028D01*
X130144Y138943D01*
X130133Y138848D01*
Y140848D01*
X130144Y140753D01*
D02*
G37*
G36*
X118101Y138187D02*
X118008Y138228D01*
X117905Y138245D01*
X117790Y138237D01*
X117665Y138204D01*
X117529Y138145D01*
X117382Y138062D01*
X117225Y137954D01*
X117056Y137821D01*
X116877Y137663D01*
X116687Y137480D01*
X115647Y137855D01*
X115860Y138075D01*
X116191Y138462D01*
X116309Y138630D01*
X116396Y138780D01*
X116451Y138913D01*
X116474Y139028D01*
X116466Y139126D01*
X116426Y139206D01*
X116355Y139269D01*
X118101Y138187D01*
D02*
G37*
G36*
X124866Y132352D02*
X124856Y132447D01*
X124826Y132532D01*
X124775Y132607D01*
X124705Y132672D01*
X124613Y132727D01*
X124502Y132772D01*
X124371Y132807D01*
X124219Y132832D01*
X124047Y132847D01*
X123854Y132852D01*
Y133852D01*
X124047Y133857D01*
X124219Y133872D01*
X124371Y133897D01*
X124502Y133932D01*
X124613Y133977D01*
X124705Y134032D01*
X124775Y134097D01*
X124826Y134172D01*
X124856Y134257D01*
X124866Y134352D01*
Y132352D01*
D02*
G37*
G36*
X121644Y134257D02*
X121674Y134172D01*
X121725Y134097D01*
X121795Y134032D01*
X121887Y133977D01*
X121998Y133932D01*
X122129Y133897D01*
X122281Y133872D01*
X122453Y133857D01*
X122645Y133852D01*
Y132852D01*
X122453Y132847D01*
X122281Y132832D01*
X122129Y132807D01*
X121998Y132772D01*
X121887Y132727D01*
X121795Y132672D01*
X121725Y132607D01*
X121674Y132532D01*
X121644Y132447D01*
X121634Y132352D01*
Y134352D01*
X121644Y134257D01*
D02*
G37*
G36*
X130144Y133084D02*
X130175Y132999D01*
X130226Y132924D01*
X130297Y132859D01*
X130388Y132804D01*
X130500Y132759D01*
X130631Y132724D01*
X130782Y132699D01*
X130954Y132684D01*
X131146Y132679D01*
Y131679D01*
X130146Y131691D01*
X130133Y133179D01*
X130144Y133084D01*
D02*
G37*
G36*
X118101Y128986D02*
X118123Y128648D01*
X118133Y128594D01*
X118145Y128551D01*
X118158Y128521D01*
X118174Y128503D01*
X118191Y128497D01*
X117009D01*
X117026Y128503D01*
X117042Y128521D01*
X117055Y128551D01*
X117067Y128594D01*
X117077Y128648D01*
X117086Y128714D01*
X117096Y128883D01*
X117100Y129100D01*
X118100D01*
X118101Y128986D01*
D02*
G37*
G36*
X147871Y138166D02*
Y128394D01*
X147409Y128202D01*
X134681Y140929D01*
X134185Y141261D01*
X133600Y141377D01*
X131158D01*
Y142521D01*
X123843D01*
Y137175D01*
X131158D01*
Y138319D01*
X132966D01*
X145865Y125420D01*
Y122769D01*
X138595D01*
Y114470D01*
X145865D01*
Y113903D01*
X144411Y112449D01*
X144346Y112486D01*
X143291Y112769D01*
X142199D01*
X141143Y112486D01*
X140197Y111940D01*
X139424Y111168D01*
X138878Y110221D01*
X138595Y109166D01*
Y108073D01*
X138878Y107018D01*
X139424Y106072D01*
X140197Y105299D01*
X141143Y104753D01*
X142199Y104470D01*
X143291D01*
X144346Y104753D01*
X145293Y105299D01*
X146065Y106072D01*
X146612Y107018D01*
X146894Y108073D01*
Y109166D01*
X146612Y110221D01*
X146574Y110286D01*
X147409Y111121D01*
X147871Y110929D01*
Y78834D01*
X147394Y78357D01*
X146894Y78564D01*
Y79166D01*
X146612Y80221D01*
X146065Y81168D01*
X145293Y81940D01*
X144346Y82486D01*
X143291Y82769D01*
X142199D01*
X141143Y82486D01*
X141078Y82449D01*
X132777Y90750D01*
Y92443D01*
X133921D01*
Y99757D01*
X129529D01*
Y104443D01*
X130052D01*
X130167Y104271D01*
X134771Y99667D01*
Y95064D01*
X134887Y94479D01*
X135219Y93983D01*
X138915Y90286D01*
X138878Y90221D01*
X138595Y89166D01*
Y88073D01*
X138878Y87018D01*
X139424Y86072D01*
X140197Y85299D01*
X141143Y84753D01*
X142199Y84470D01*
X143291D01*
X144346Y84753D01*
X145293Y85299D01*
X146065Y86072D01*
X146612Y87018D01*
X146894Y88073D01*
Y89166D01*
X146612Y90221D01*
X146065Y91167D01*
X145293Y91940D01*
X144346Y92486D01*
X143291Y92769D01*
X142199D01*
X141143Y92486D01*
X141078Y92449D01*
X137829Y95698D01*
Y100300D01*
X137739Y100756D01*
X138172Y101029D01*
X138915Y100286D01*
X138878Y100221D01*
X138595Y99166D01*
Y98073D01*
X138878Y97018D01*
X139424Y96072D01*
X140197Y95299D01*
X141143Y94753D01*
X142199Y94470D01*
X143291D01*
X144346Y94753D01*
X145293Y95299D01*
X146065Y96072D01*
X146612Y97018D01*
X146894Y98073D01*
Y99166D01*
X146612Y100221D01*
X146065Y101168D01*
X145293Y101940D01*
X144346Y102486D01*
X143291Y102769D01*
X142199D01*
X141143Y102486D01*
X141078Y102449D01*
X137829Y105698D01*
Y113400D01*
X137713Y113985D01*
X137381Y114481D01*
X134753Y117110D01*
X134421Y117443D01*
X134421D01*
X134421Y117443D01*
Y124758D01*
X129075D01*
Y121940D01*
X128625Y121674D01*
X128586Y121665D01*
X128575Y121667D01*
X128301Y121722D01*
X128016Y121781D01*
X127925Y121782D01*
Y124758D01*
X122579D01*
X122158Y124948D01*
Y126348D01*
X119000D01*
Y124175D01*
X122158D01*
X122579Y123985D01*
Y123215D01*
X122158Y123025D01*
X114842D01*
Y117679D01*
X122158D01*
X122579Y117489D01*
Y117443D01*
X126471D01*
Y111758D01*
X123257D01*
X122585Y112429D01*
X122089Y112761D01*
X121504Y112877D01*
X121158D01*
Y114021D01*
X113842D01*
X113842Y114021D01*
Y114021D01*
X113410Y114200D01*
X110529Y117081D01*
Y125059D01*
X111029Y125296D01*
X111649Y124938D01*
X112500Y124711D01*
Y128200D01*
X113500D01*
Y124711D01*
X113867Y124809D01*
X113955Y124813D01*
X113965Y124818D01*
X113975Y124818D01*
X114445Y124946D01*
X114842Y124643D01*
Y124175D01*
X118000D01*
Y126848D01*
X118500D01*
Y127348D01*
X122158D01*
Y129521D01*
X119046D01*
X119013Y129685D01*
X118681Y130181D01*
X118646Y130217D01*
X118837Y130679D01*
X122658D01*
Y131823D01*
X123843D01*
Y130679D01*
X128525D01*
X128673Y130649D01*
X131288D01*
X131685Y130252D01*
X131500Y129561D01*
Y128639D01*
X131738Y127749D01*
X132199Y126951D01*
X132851Y126299D01*
X133649Y125838D01*
X134539Y125600D01*
X135461D01*
X136351Y125838D01*
X137149Y126299D01*
X137801Y126951D01*
X138261Y127749D01*
X138500Y128639D01*
Y129561D01*
X138261Y130451D01*
X137801Y131249D01*
X137149Y131901D01*
X136351Y132361D01*
X135461Y132600D01*
X134539D01*
X133848Y132415D01*
X133003Y133260D01*
X132507Y133592D01*
X131921Y133708D01*
X131158D01*
Y136025D01*
X123843D01*
Y134881D01*
X122658D01*
Y136025D01*
X117341D01*
X117150Y136487D01*
X117632Y136970D01*
X117710Y137038D01*
X117830Y137133D01*
X117891Y137175D01*
X118040D01*
X118071Y137168D01*
X118114Y137175D01*
X118500D01*
Y139348D01*
X115342D01*
Y139244D01*
X115337Y139203D01*
X115342Y139182D01*
Y139038D01*
X115151Y138814D01*
X113761Y137424D01*
X113429Y136928D01*
X113313Y136342D01*
Y131700D01*
X112539D01*
X111649Y131462D01*
X111029Y131104D01*
X110529Y131341D01*
Y138567D01*
X115633Y143671D01*
X142367D01*
X147871Y138166D01*
D02*
G37*
G36*
X115513Y128448D02*
X115594Y128217D01*
X115692Y128014D01*
X115807Y127837D01*
X115859Y127778D01*
X115866Y127848D01*
Y127770D01*
X115939Y127688D01*
X116088Y127565D01*
X116253Y127470D01*
X116436Y127402D01*
X116635Y127362D01*
X116850Y127348D01*
X116179Y126348D01*
X116043Y126342D01*
X115882Y126326D01*
X115866Y126324D01*
Y125848D01*
X115856Y125943D01*
X115826Y126028D01*
X115775Y126103D01*
X115705Y126168D01*
X115613Y126223D01*
X115510Y126265D01*
X115485Y126261D01*
X114991Y126152D01*
X113707Y125802D01*
X115448Y128707D01*
X115513Y128448D01*
D02*
G37*
G36*
X121144Y121229D02*
X121174Y121144D01*
X121225Y121068D01*
X121295Y121003D01*
X121387Y120947D01*
X121498Y120900D01*
X121629Y120864D01*
X121781Y120837D01*
X121953Y120821D01*
X122145Y120814D01*
Y119814D01*
X121953Y119811D01*
X121781Y119797D01*
X121629Y119774D01*
X121498Y119740D01*
X121387Y119697D01*
X121295Y119642D01*
X121225Y119578D01*
X121174Y119504D01*
X121144Y119419D01*
X121133Y119324D01*
Y121324D01*
X121144Y121229D01*
D02*
G37*
G36*
X123603Y120100D02*
Y119298D01*
X123593Y119394D01*
X123562Y119479D01*
X123512Y119554D01*
X123441Y119620D01*
X123350Y119676D01*
X123239Y119722D01*
X123107Y119758D01*
X122955Y119785D01*
X122783Y119802D01*
X122591Y119809D01*
Y120600D01*
X122591D01*
Y121600D01*
X122783Y121605D01*
X122955Y121620D01*
X123107Y121645D01*
X123238Y121680D01*
X123350Y121725D01*
X123441Y121780D01*
X123512Y121845D01*
X123562Y121920D01*
X123593Y122005D01*
X123603Y122100D01*
Y120100D01*
D02*
G37*
G36*
X126923Y121168D02*
X126953Y121083D01*
X127003Y121008D01*
X127073Y120942D01*
X127163Y120886D01*
X127273Y120840D01*
X127403Y120803D01*
X127553Y120777D01*
X127723Y120760D01*
X127913Y120753D01*
Y119753D01*
X127723Y119750D01*
X127553Y119737D01*
X127403Y119713D01*
X127273Y119680D01*
X127163Y119636D01*
X127073Y119582D01*
X127003Y119518D01*
X126953Y119443D01*
X126923Y119358D01*
X126913Y119263D01*
Y121264D01*
X126923Y121168D01*
D02*
G37*
G36*
X132250Y118461D02*
X132250Y118446D01*
X132248Y117952D01*
X131248D01*
X131246Y118466D01*
X132250D01*
X132250Y118461D01*
D02*
G37*
G36*
X114866Y110593D02*
X114859Y110642D01*
X114836Y110685D01*
X114797Y110723D01*
X114744Y110756D01*
X114675Y110784D01*
X114591Y110807D01*
X114491Y110825D01*
X114376Y110838D01*
X114100Y110848D01*
Y111848D01*
X114246Y111851D01*
X114491Y111871D01*
X114591Y111889D01*
X114675Y111912D01*
X114744Y111940D01*
X114797Y111973D01*
X114836Y112011D01*
X114859Y112054D01*
X114866Y112102D01*
Y110593D01*
D02*
G37*
G36*
X120144Y112253D02*
X120174Y112168D01*
X120225Y112093D01*
X120295Y112028D01*
X120387Y111973D01*
X120498Y111928D01*
X120629Y111893D01*
X120781Y111868D01*
X120953Y111853D01*
X121145Y111848D01*
Y110848D01*
X120953Y110843D01*
X120781Y110828D01*
X120629Y110803D01*
X120498Y110768D01*
X120387Y110723D01*
X120295Y110668D01*
X120225Y110603D01*
X120174Y110528D01*
X120144Y110443D01*
X120133Y110348D01*
Y112348D01*
X120144Y112253D01*
D02*
G37*
G36*
X130335Y117367D02*
X130667Y116871D01*
X134771Y112767D01*
Y105064D01*
X134861Y104609D01*
X134427Y104335D01*
X133921Y104842D01*
Y111758D01*
X129529D01*
Y117443D01*
X130320D01*
X130335Y117367D01*
D02*
G37*
G36*
X114866Y103852D02*
X114856Y103947D01*
X114826Y104032D01*
X114775Y104107D01*
X114705Y104172D01*
X114613Y104227D01*
X114502Y104272D01*
X114371Y104307D01*
X114219Y104332D01*
X114047Y104347D01*
X113855Y104352D01*
Y105352D01*
X114047Y105357D01*
X114219Y105372D01*
X114371Y105397D01*
X114502Y105432D01*
X114613Y105477D01*
X114705Y105532D01*
X114775Y105597D01*
X114826Y105672D01*
X114856Y105757D01*
X114866Y105852D01*
Y103852D01*
D02*
G37*
G36*
X110127Y106365D02*
X110595Y105965D01*
X110820Y105802D01*
X111039Y105665D01*
X111253Y105552D01*
X111460Y105464D01*
X111662Y105402D01*
X111859Y105365D01*
X112049Y105352D01*
Y104352D01*
X111859Y104340D01*
X111662Y104302D01*
X111460Y104239D01*
X111253Y104152D01*
X111039Y104040D01*
X110820Y103902D01*
X110595Y103740D01*
X110364Y103552D01*
X109885Y103102D01*
Y106602D01*
X110127Y106365D01*
D02*
G37*
G36*
X177400Y1600D02*
X3000D01*
Y147100D01*
X114281D01*
X114403Y146638D01*
X114395Y146600D01*
X113919Y146281D01*
X107919Y140281D01*
X107587Y139785D01*
X107471Y139200D01*
Y116448D01*
X107587Y115863D01*
X107919Y115367D01*
X113019Y110267D01*
X113515Y109935D01*
X113842Y109870D01*
Y108675D01*
X121158D01*
Y108878D01*
X121619Y109070D01*
X122079Y108610D01*
Y104443D01*
X126471D01*
Y99757D01*
X123257D01*
X122585Y100429D01*
X122089Y100761D01*
X121504Y100877D01*
X121158Y101224D01*
X121158Y102021D01*
X121158Y102521D01*
Y104352D01*
X117500D01*
Y104852D01*
X117000D01*
Y107525D01*
X113842D01*
Y106381D01*
X111969D01*
X111909Y106393D01*
X111810Y106424D01*
X111689Y106475D01*
X111548Y106549D01*
X111390Y106648D01*
X111226Y106766D01*
X110817Y107117D01*
X110599Y107330D01*
X110520Y107382D01*
X110249Y107653D01*
X109451Y108114D01*
X108600Y108342D01*
Y104852D01*
X108100D01*
Y104352D01*
X104611D01*
X104839Y103501D01*
X105299Y102703D01*
X105951Y102051D01*
X106749Y101591D01*
X107639Y101352D01*
X108080D01*
X108352Y100852D01*
X108319Y100802D01*
X108115Y100761D01*
X107619Y100429D01*
X102719Y95529D01*
X102387Y95033D01*
X102271Y94448D01*
Y57800D01*
X102387Y57215D01*
X102719Y56719D01*
X103919Y55519D01*
X104415Y55187D01*
X104910Y55089D01*
X104972Y54996D01*
X105708Y54504D01*
X106459Y54355D01*
Y53845D01*
X105708Y53696D01*
X104972Y53204D01*
X104480Y52468D01*
X104307Y51600D01*
X104480Y50732D01*
X104972Y49996D01*
X105708Y49504D01*
X106459Y49355D01*
Y48845D01*
X105708Y48696D01*
X104972Y48204D01*
X104480Y47468D01*
X104307Y46600D01*
X104480Y45732D01*
X104972Y44996D01*
X105708Y44504D01*
X106459Y44355D01*
Y43845D01*
X105708Y43696D01*
X104972Y43204D01*
X104480Y42468D01*
X104307Y41600D01*
X104480Y40732D01*
X104972Y39996D01*
X105708Y39504D01*
X106459Y39355D01*
Y38845D01*
X105708Y38696D01*
X104972Y38204D01*
X104480Y37468D01*
X104307Y36600D01*
X104480Y35732D01*
X104972Y34996D01*
X105708Y34504D01*
X106459Y34355D01*
Y33845D01*
X105708Y33696D01*
X104972Y33204D01*
X104480Y32468D01*
X104407Y32100D01*
X116542D01*
X116469Y32468D01*
X115977Y33204D01*
X115241Y33696D01*
X114490Y33845D01*
Y34355D01*
X115241Y34504D01*
X115977Y34996D01*
X116017Y35055D01*
X116195Y35071D01*
X124767D01*
X131500Y28337D01*
X131181Y27949D01*
X131085Y28013D01*
X130500Y28129D01*
X116159D01*
X116055Y28136D01*
X116020Y28140D01*
X115977Y28204D01*
X115241Y28696D01*
X114490Y28845D01*
Y29355D01*
X115241Y29504D01*
X115977Y29996D01*
X116469Y30732D01*
X116542Y31100D01*
X104407D01*
X104480Y30732D01*
X104972Y29996D01*
X105708Y29504D01*
X106459Y29355D01*
Y28845D01*
X105708Y28696D01*
X104972Y28204D01*
X104480Y27468D01*
X104307Y26600D01*
X104480Y25732D01*
X104972Y24996D01*
X105708Y24504D01*
X106459Y24355D01*
Y23845D01*
X105708Y23696D01*
X104972Y23204D01*
X104480Y22468D01*
X104307Y21600D01*
X104480Y20732D01*
X104972Y19996D01*
X105708Y19504D01*
X106576Y19332D01*
X114373D01*
X115241Y19504D01*
X115977Y19996D01*
X116017Y20055D01*
X116195Y20071D01*
X129131D01*
X138915Y10286D01*
X138878Y10221D01*
X138595Y9166D01*
Y8073D01*
X138878Y7018D01*
X139424Y6072D01*
X140197Y5299D01*
X141143Y4753D01*
X142199Y4470D01*
X143291D01*
X144346Y4753D01*
X145293Y5299D01*
X146065Y6072D01*
X146612Y7018D01*
X146894Y8073D01*
Y9166D01*
X146612Y10221D01*
X146065Y11168D01*
X145293Y11940D01*
X144346Y12486D01*
X143291Y12769D01*
X142199D01*
X141143Y12486D01*
X141078Y12449D01*
X130846Y22681D01*
X130350Y23013D01*
X129764Y23129D01*
X116159D01*
X116055Y23136D01*
X116020Y23140D01*
X115977Y23204D01*
X115241Y23696D01*
X114490Y23845D01*
Y24355D01*
X115241Y24504D01*
X115977Y24996D01*
X116017Y25055D01*
X116195Y25071D01*
X129867D01*
X137399Y17538D01*
X137895Y17207D01*
X138480Y17090D01*
X138859D01*
X138878Y17018D01*
X139424Y16072D01*
X140197Y15299D01*
X141143Y14753D01*
X142199Y14470D01*
X143291D01*
X144346Y14753D01*
X145293Y15299D01*
X146065Y16072D01*
X146612Y17018D01*
X146894Y18073D01*
Y19166D01*
X146612Y20221D01*
X146065Y21168D01*
X145362Y21871D01*
X145460Y22371D01*
X157900D01*
X158485Y22487D01*
X158981Y22819D01*
X161329Y25167D01*
X161661Y25663D01*
X161777Y26248D01*
Y31442D01*
X162921D01*
Y32571D01*
X165342D01*
Y31427D01*
X172658D01*
Y36773D01*
X165342D01*
Y35629D01*
X162921D01*
Y38758D01*
X163293Y39067D01*
X165342D01*
Y37923D01*
X168500D01*
Y40596D01*
Y43269D01*
X165342D01*
Y42125D01*
X159000D01*
X158920Y42110D01*
X158725Y42581D01*
X159081Y42819D01*
X161329Y45067D01*
X161661Y45563D01*
X161777Y46148D01*
Y46754D01*
X162239Y46946D01*
X162415Y46771D01*
X162911Y46439D01*
X163496Y46323D01*
X165342D01*
Y45179D01*
X170767D01*
X170958Y44717D01*
X169779Y43537D01*
X169737Y43502D01*
X169646Y43433D01*
X169562Y43378D01*
X169500Y43343D01*
Y42271D01*
X169527Y42275D01*
X169668Y42311D01*
X169809Y42362D01*
X169950Y42427D01*
X170091Y42506D01*
X170233Y42599D01*
X170376Y42707D01*
X170518Y42828D01*
X170661Y42964D01*
X172075D01*
X171994Y42880D01*
X171856Y42720D01*
X171800Y42645D01*
X171753Y42573D01*
X171714Y42503D01*
X171684Y42437D01*
X171663Y42374D01*
X171650Y42314D01*
X171645Y42257D01*
X169500Y42246D01*
Y41096D01*
X172658D01*
Y42088D01*
X172673Y42106D01*
X174281Y43715D01*
X174613Y44211D01*
X174729Y44796D01*
Y50148D01*
X174613Y50733D01*
X174281Y51229D01*
X172940Y52571D01*
X172999Y53212D01*
X173081Y53267D01*
X174281Y54467D01*
X174613Y54963D01*
X174729Y55548D01*
Y88648D01*
X174613Y89233D01*
X174281Y89729D01*
X172081Y91929D01*
X171658Y92213D01*
Y93521D01*
X168500D01*
Y90848D01*
Y88175D01*
X170671D01*
Y87025D01*
X164342D01*
Y85881D01*
X163952D01*
X163367Y85765D01*
X163164Y85629D01*
X162421D01*
Y87757D01*
X157075D01*
Y80443D01*
X158219D01*
Y76433D01*
X155419Y73633D01*
X155087Y73137D01*
X154971Y72552D01*
Y71758D01*
X150579D01*
Y66681D01*
X149277D01*
X148692Y66565D01*
X148196Y66233D01*
X144411Y62449D01*
X144346Y62486D01*
X143291Y62769D01*
X142199D01*
X141143Y62486D01*
X140197Y61940D01*
X139424Y61168D01*
X138878Y60221D01*
X138595Y59166D01*
Y58073D01*
X138878Y57018D01*
X139424Y56072D01*
X140167Y55329D01*
X140148Y55119D01*
X140071Y54829D01*
X138100D01*
X137515Y54713D01*
X137019Y54381D01*
X135766Y53129D01*
X116159D01*
X116055Y53136D01*
X116020Y53140D01*
X115977Y53204D01*
X115241Y53696D01*
X114490Y53845D01*
Y54355D01*
X115241Y54504D01*
X115977Y54996D01*
X116469Y55732D01*
X116642Y56600D01*
X116469Y57468D01*
X115977Y58204D01*
X115241Y58696D01*
X114490Y58845D01*
Y59355D01*
X115241Y59504D01*
X115977Y59996D01*
X116017Y60055D01*
X116195Y60071D01*
X121600D01*
X122185Y60187D01*
X122681Y60519D01*
X134604Y72441D01*
X140098D01*
X140227Y71958D01*
X140197Y71940D01*
X139424Y71167D01*
X138878Y70221D01*
X138595Y69166D01*
Y68073D01*
X138878Y67018D01*
X139424Y66072D01*
X140197Y65299D01*
X141143Y64753D01*
X142199Y64470D01*
X143291D01*
X144346Y64753D01*
X145293Y65299D01*
X146065Y66072D01*
X146612Y67018D01*
X146894Y68073D01*
Y69166D01*
X146612Y70221D01*
X146574Y70286D01*
X154333Y78045D01*
X154665Y78541D01*
X154781Y79127D01*
Y80443D01*
X155925D01*
Y87757D01*
X150929D01*
Y138800D01*
X150813Y139385D01*
X150481Y139881D01*
X144081Y146281D01*
X143605Y146600D01*
X143597Y146638D01*
X143719Y147100D01*
X177400D01*
Y1600D01*
D02*
G37*
G36*
X120144Y100253D02*
X120174Y100168D01*
X120225Y100093D01*
X120295Y100028D01*
X120387Y99973D01*
X120498Y99928D01*
X120629Y99893D01*
X120781Y99868D01*
X120953Y99853D01*
X121145Y99848D01*
Y98848D01*
X120953Y98843D01*
X120781Y98828D01*
X120629Y98803D01*
X120498Y98768D01*
X120387Y98723D01*
X120295Y98668D01*
X120225Y98603D01*
X120174Y98528D01*
X120144Y98443D01*
X120133Y98348D01*
Y100348D01*
X120144Y100253D01*
D02*
G37*
G36*
X114866Y98348D02*
X114856Y98443D01*
X114826Y98528D01*
X114775Y98603D01*
X114705Y98668D01*
X114613Y98723D01*
X114502Y98768D01*
X114371Y98803D01*
X114219Y98828D01*
X114047Y98843D01*
X113855Y98848D01*
Y99848D01*
X114047Y99853D01*
X114219Y99868D01*
X114371Y99893D01*
X114502Y99928D01*
X114613Y99973D01*
X114705Y100028D01*
X114775Y100093D01*
X114826Y100168D01*
X114856Y100253D01*
X114866Y100348D01*
Y98348D01*
D02*
G37*
G36*
X132153Y93456D02*
X132068Y93426D01*
X131993Y93375D01*
X131928Y93305D01*
X131873Y93213D01*
X131828Y93102D01*
X131793Y92971D01*
X131768Y92819D01*
X131753Y92647D01*
X131748Y92454D01*
X130748D01*
X130743Y92647D01*
X130728Y92819D01*
X130703Y92971D01*
X130668Y93102D01*
X130623Y93213D01*
X130568Y93305D01*
X130503Y93375D01*
X130428Y93426D01*
X130343Y93456D01*
X130248Y93467D01*
X132248D01*
X132153Y93456D01*
D02*
G37*
G36*
X114866Y91852D02*
X114856Y91947D01*
X114826Y92032D01*
X114775Y92107D01*
X114705Y92172D01*
X114613Y92227D01*
X114502Y92272D01*
X114371Y92307D01*
X114219Y92332D01*
X114047Y92347D01*
X113855Y92352D01*
Y93352D01*
X114047Y93357D01*
X114219Y93372D01*
X114371Y93397D01*
X114502Y93432D01*
X114613Y93477D01*
X114705Y93532D01*
X114775Y93597D01*
X114826Y93672D01*
X114856Y93757D01*
X114866Y93852D01*
Y91852D01*
D02*
G37*
G36*
X110127Y94365D02*
X110595Y93964D01*
X110820Y93802D01*
X111039Y93664D01*
X111253Y93552D01*
X111460Y93464D01*
X111662Y93402D01*
X111859Y93365D01*
X112049Y93352D01*
Y92352D01*
X111859Y92339D01*
X111662Y92302D01*
X111460Y92239D01*
X111253Y92152D01*
X111039Y92040D01*
X110820Y91902D01*
X110595Y91739D01*
X110364Y91552D01*
X109885Y91102D01*
Y94602D01*
X110127Y94365D01*
D02*
G37*
G36*
X113842Y96675D02*
X121158D01*
Y96878D01*
X121619Y97070D01*
X122079Y96610D01*
Y92443D01*
X126471D01*
Y73434D01*
X121167Y68129D01*
X116159D01*
X116055Y68136D01*
X116020Y68140D01*
X115977Y68204D01*
X115241Y68696D01*
X114490Y68845D01*
Y69355D01*
X115241Y69504D01*
X115977Y69996D01*
X116017Y70055D01*
X116195Y70071D01*
X119800D01*
X120385Y70187D01*
X120881Y70519D01*
X121316Y70953D01*
X121648Y71449D01*
X121764Y72035D01*
Y72181D01*
X122351Y72338D01*
X123149Y72799D01*
X123801Y73451D01*
X124261Y74249D01*
X124500Y75139D01*
Y76061D01*
X124261Y76951D01*
X123801Y77749D01*
X123149Y78401D01*
X122351Y78861D01*
X121461Y79100D01*
X120539D01*
X119649Y78861D01*
X118851Y78401D01*
X118429Y77979D01*
X117929Y78186D01*
Y81542D01*
X118549Y81899D01*
X119201Y82551D01*
X119661Y83349D01*
X119900Y84239D01*
Y85161D01*
X119661Y86051D01*
X119201Y86849D01*
X118549Y87501D01*
X117751Y87962D01*
X116861Y88200D01*
X115939D01*
X115049Y87962D01*
X114251Y87501D01*
X113599Y86849D01*
X113138Y86051D01*
X112900Y85161D01*
Y84239D01*
X113138Y83349D01*
X113599Y82551D01*
X114251Y81899D01*
X114871Y81542D01*
Y79163D01*
X114484Y78846D01*
X114373Y78868D01*
X106576D01*
X105829Y78720D01*
X105329Y78999D01*
Y90020D01*
X105791Y90211D01*
X105951Y90051D01*
X106749Y89591D01*
X107600Y89363D01*
Y92852D01*
X108600D01*
Y89363D01*
X109451Y89591D01*
X110249Y90051D01*
X110512Y90315D01*
X110584Y90359D01*
X111036Y90784D01*
X111215Y90930D01*
X111390Y91056D01*
X111548Y91155D01*
X111689Y91229D01*
X111810Y91280D01*
X111909Y91311D01*
X111969Y91323D01*
X113842D01*
Y90179D01*
X117000D01*
Y92852D01*
Y95525D01*
X113842D01*
Y94381D01*
X111969D01*
X111909Y94393D01*
X111810Y94424D01*
X111689Y94475D01*
X111548Y94549D01*
X111390Y94648D01*
X111226Y94766D01*
X110817Y95117D01*
X110599Y95330D01*
X110520Y95382D01*
X110249Y95653D01*
X109451Y96114D01*
X108561Y96352D01*
X108520D01*
X108329Y96814D01*
X109334Y97819D01*
X113842D01*
Y96675D01*
D02*
G37*
G36*
X172554Y90001D02*
X172846Y88294D01*
X172819Y88312D01*
X172794Y88307D01*
X172772Y88279D01*
X172753Y88228D01*
X172737Y88154D01*
X172702Y87629D01*
X172700Y87441D01*
X171700Y88441D01*
X171693Y88638D01*
X171672Y88829D01*
X171636Y89015D01*
X171587Y89194D01*
X171523Y89368D01*
X171445Y89535D01*
X171353Y89697D01*
X171247Y89853D01*
X171127Y90004D01*
X170993Y90148D01*
X172554Y90001D01*
D02*
G37*
G36*
X165366Y83352D02*
X165356Y83447D01*
X165326Y83532D01*
X165275Y83607D01*
X165205Y83672D01*
X165113Y83727D01*
X165002Y83772D01*
X164871Y83807D01*
X164719Y83832D01*
X164547Y83847D01*
X164355Y83852D01*
Y84852D01*
X164547Y84857D01*
X164719Y84872D01*
X164871Y84897D01*
X165002Y84932D01*
X165113Y84977D01*
X165205Y85032D01*
X165275Y85097D01*
X165326Y85172D01*
X165356Y85257D01*
X165366Y85352D01*
Y83352D01*
D02*
G37*
G36*
X161407Y85005D02*
X161438Y84920D01*
X161488Y84845D01*
X161559Y84780D01*
X161650Y84725D01*
X161762Y84680D01*
X161893Y84645D01*
X162045Y84620D01*
X162217Y84605D01*
X162409Y84600D01*
Y83600D01*
X162217Y83595D01*
X162045Y83580D01*
X161893Y83555D01*
X161762Y83520D01*
X161650Y83475D01*
X161559Y83420D01*
X161488Y83355D01*
X161438Y83280D01*
X161407Y83195D01*
X161397Y83100D01*
Y85100D01*
X161407Y85005D01*
D02*
G37*
G36*
X160653Y81456D02*
X160568Y81426D01*
X160493Y81375D01*
X160428Y81305D01*
X160373Y81213D01*
X160328Y81102D01*
X160293Y80971D01*
X160268Y80819D01*
X160253Y80647D01*
X160248Y80454D01*
X159248D01*
X159243Y80647D01*
X159228Y80819D01*
X159203Y80971D01*
X159168Y81102D01*
X159123Y81213D01*
X159068Y81305D01*
X159003Y81375D01*
X158928Y81426D01*
X158843Y81456D01*
X158748Y81467D01*
X160748D01*
X160653Y81456D01*
D02*
G37*
G36*
X154157D02*
X154072Y81426D01*
X153997Y81375D01*
X153932Y81305D01*
X153877Y81213D01*
X153832Y81102D01*
X153797Y80971D01*
X153772Y80819D01*
X153757Y80647D01*
X153752Y80454D01*
X152752D01*
X152747Y80647D01*
X152732Y80819D01*
X152707Y80971D01*
X152672Y81102D01*
X152627Y81213D01*
X152572Y81305D01*
X152507Y81375D01*
X152432Y81426D01*
X152347Y81456D01*
X152252Y81467D01*
X154252D01*
X154157Y81456D01*
D02*
G37*
G36*
X115287Y77340D02*
X115321Y77290D01*
X115377Y77245D01*
X115456Y77207D01*
X115557Y77174D01*
X115681Y77147D01*
X115827Y77127D01*
X115995Y77112D01*
X116400Y77100D01*
Y76100D01*
X116186Y76097D01*
X115681Y76053D01*
X115557Y76026D01*
X115456Y75993D01*
X115377Y75955D01*
X115321Y75910D01*
X115287Y75860D01*
X115276Y75804D01*
Y77396D01*
X115287Y77340D01*
D02*
G37*
G36*
X171639Y73392D02*
X171656Y73383D01*
X171685Y73375D01*
X171724Y73368D01*
X171775Y73362D01*
X171911Y73353D01*
X172200Y73348D01*
Y72348D01*
X172092Y72347D01*
X171685Y72321D01*
X171656Y72313D01*
X171639Y72304D01*
X171634Y72294D01*
Y73403D01*
X171639Y73392D01*
D02*
G37*
G36*
X130167Y89035D02*
X138915Y80286D01*
X138878Y80221D01*
X138595Y79166D01*
Y78073D01*
X138878Y77018D01*
X139424Y76072D01*
X139535Y75961D01*
X139343Y75499D01*
X133970D01*
X133385Y75383D01*
X132889Y75051D01*
X129842Y72005D01*
X129653Y72097D01*
X129430Y72300D01*
X129529Y72800D01*
Y89089D01*
X130029Y89240D01*
X130167Y89035D01*
D02*
G37*
G36*
X115069Y72497D02*
X115112Y72414D01*
X115183Y72340D01*
X115283Y72277D01*
X115411Y72223D01*
X115567Y72179D01*
X115753Y72144D01*
X115966Y72120D01*
X116208Y72105D01*
X116479Y72100D01*
Y71100D01*
X116208Y71095D01*
X115753Y71056D01*
X115567Y71021D01*
X115411Y70977D01*
X115283Y70923D01*
X115183Y70860D01*
X115112Y70786D01*
X115069Y70703D01*
X115055Y70609D01*
Y72591D01*
X115069Y72497D01*
D02*
G37*
G36*
X164342Y82189D02*
Y81679D01*
X170671D01*
Y75521D01*
X169500D01*
Y72848D01*
Y70175D01*
X171671D01*
Y69025D01*
X165342D01*
Y68476D01*
X164978Y68134D01*
X162421Y68292D01*
Y71758D01*
X158575D01*
X158368Y72258D01*
X160829Y74719D01*
X161161Y75215D01*
X161277Y75800D01*
Y80443D01*
X162421D01*
Y82571D01*
X163700D01*
X163842Y82599D01*
X164342Y82189D01*
D02*
G37*
G36*
X166367Y65514D02*
Y65352D01*
X166356Y65447D01*
X166326Y65532D01*
X166275Y65607D01*
X166205Y65672D01*
X166113Y65727D01*
X166002Y65772D01*
X165871Y65807D01*
X165719Y65832D01*
X165547Y65847D01*
X165355Y65852D01*
Y66852D01*
X165356Y66852D01*
Y67079D01*
X165548Y67072D01*
X165720Y67076D01*
X165872Y67092D01*
X166003Y67119D01*
X166114Y67157D01*
X166205Y67207D01*
X166276Y67268D01*
X166326Y67340D01*
X166356Y67423D01*
X166367Y67518D01*
Y65514D01*
D02*
G37*
G36*
X161407Y67729D02*
X161438Y67642D01*
X161488Y67564D01*
X161559Y67494D01*
X161650Y67434D01*
X161761Y67382D01*
X161892Y67339D01*
X162044Y67304D01*
X162215Y67279D01*
X162407Y67262D01*
Y66260D01*
X162215Y66267D01*
X162044Y66262D01*
X161892Y66247D01*
X161761Y66220D01*
X161650Y66181D01*
X161559Y66132D01*
X161488Y66071D01*
X161438Y65999D01*
X161407Y65915D01*
X161397Y65821D01*
Y67825D01*
X161407Y67729D01*
D02*
G37*
G36*
X115069Y67497D02*
X115112Y67414D01*
X115183Y67340D01*
X115283Y67277D01*
X115411Y67223D01*
X115567Y67178D01*
X115753Y67144D01*
X115966Y67120D01*
X116208Y67105D01*
X116479Y67100D01*
Y66100D01*
X116208Y66095D01*
X115753Y66056D01*
X115567Y66022D01*
X115411Y65977D01*
X115283Y65923D01*
X115183Y65860D01*
X115112Y65786D01*
X115069Y65703D01*
X115055Y65610D01*
Y67590D01*
X115069Y67497D01*
D02*
G37*
G36*
Y62497D02*
X115112Y62414D01*
X115183Y62340D01*
X115283Y62277D01*
X115411Y62223D01*
X115567Y62178D01*
X115753Y62144D01*
X115966Y62120D01*
X116208Y62105D01*
X116479Y62100D01*
Y61100D01*
X116208Y61095D01*
X115753Y61056D01*
X115567Y61022D01*
X115411Y60977D01*
X115283Y60923D01*
X115183Y60860D01*
X115112Y60786D01*
X115069Y60703D01*
X115055Y60610D01*
Y62590D01*
X115069Y62497D01*
D02*
G37*
G36*
X165342Y63679D02*
Y63679D01*
X171671D01*
Y57021D01*
X169500D01*
Y54348D01*
Y52687D01*
X171645D01*
X171600Y52680D01*
X171574Y52658D01*
X171568Y52623D01*
X171581Y52574D01*
X171614Y52510D01*
X171667Y52432D01*
X171740Y52340D01*
X171944Y52114D01*
X172075Y51980D01*
X170661D01*
X170520Y52114D01*
X170378Y52234D01*
X170237Y52340D01*
X170096Y52432D01*
X169954Y52510D01*
X169813Y52574D01*
X169671Y52623D01*
X169530Y52658D01*
X169500Y52663D01*
Y51596D01*
X169571Y51557D01*
X169652Y51504D01*
X169742Y51437D01*
X169783Y51402D01*
X170198Y50987D01*
X170007Y50525D01*
X165342D01*
Y49381D01*
X164129D01*
X162921Y50590D01*
Y54757D01*
X157575D01*
Y47442D01*
X158719D01*
Y46782D01*
X157367Y45429D01*
X146076D01*
X145885Y45891D01*
X146065Y46072D01*
X146612Y47018D01*
X146894Y48073D01*
Y49166D01*
X146892Y49174D01*
X147197Y49571D01*
X151079D01*
Y47442D01*
X156425D01*
Y54757D01*
X151727D01*
X151520Y55257D01*
X157223Y60961D01*
X157672Y60702D01*
X157500Y60061D01*
Y59139D01*
X157738Y58249D01*
X158199Y57451D01*
X158851Y56799D01*
X159649Y56339D01*
X160539Y56100D01*
X161461D01*
X162351Y56339D01*
X163149Y56799D01*
X163801Y57451D01*
X164261Y58249D01*
X164500Y59139D01*
Y60061D01*
X164261Y60951D01*
X163801Y61749D01*
X163306Y62243D01*
X164918Y63855D01*
X165342Y63679D01*
D02*
G37*
G36*
X154971Y64124D02*
Y63033D01*
X146766Y54829D01*
X145419D01*
X145341Y55119D01*
X145323Y55329D01*
X146065Y56072D01*
X146612Y57018D01*
X146894Y58073D01*
Y59166D01*
X146612Y60221D01*
X146574Y60286D01*
X149911Y63623D01*
X153252D01*
X153837Y63739D01*
X154333Y64071D01*
X154471Y64276D01*
X154971Y64124D01*
D02*
G37*
G36*
X115069Y52497D02*
X115112Y52414D01*
X115183Y52340D01*
X115283Y52277D01*
X115411Y52223D01*
X115567Y52179D01*
X115753Y52144D01*
X115966Y52120D01*
X116208Y52105D01*
X116479Y52100D01*
Y51100D01*
X116208Y51095D01*
X115753Y51056D01*
X115567Y51021D01*
X115411Y50977D01*
X115283Y50923D01*
X115183Y50860D01*
X115112Y50786D01*
X115069Y50703D01*
X115055Y50609D01*
Y52591D01*
X115069Y52497D01*
D02*
G37*
G36*
X152091Y50100D02*
X152081Y50195D01*
X152051Y50280D01*
X152001Y50355D01*
X151931Y50420D01*
X151841Y50475D01*
X151731Y50520D01*
X151601Y50555D01*
X151451Y50580D01*
X151281Y50595D01*
X151091Y50600D01*
Y51600D01*
X151281Y51605D01*
X151451Y51620D01*
X151601Y51645D01*
X151731Y51680D01*
X151841Y51725D01*
X151931Y51780D01*
X152001Y51845D01*
X152051Y51920D01*
X152081Y52005D01*
X152091Y52100D01*
Y50100D01*
D02*
G37*
G36*
X161153Y48456D02*
X161068Y48426D01*
X160993Y48375D01*
X160928Y48305D01*
X160873Y48213D01*
X160828Y48102D01*
X160793Y47971D01*
X160768Y47819D01*
X160753Y47647D01*
X160748Y47455D01*
X159748D01*
X159743Y47647D01*
X159728Y47819D01*
X159703Y47971D01*
X159668Y48102D01*
X159623Y48213D01*
X159568Y48305D01*
X159503Y48375D01*
X159428Y48426D01*
X159343Y48456D01*
X159248Y48467D01*
X161248D01*
X161153Y48456D01*
D02*
G37*
G36*
X118115Y44850D02*
X117873Y45088D01*
X117405Y45487D01*
X117180Y45650D01*
X116961Y45788D01*
X116747Y45900D01*
X116540Y45987D01*
X116338Y46050D01*
X116141Y46088D01*
X116129Y46088D01*
X115753Y46056D01*
X115567Y46022D01*
X115411Y45977D01*
X115283Y45923D01*
X115183Y45860D01*
X115112Y45786D01*
X115069Y45703D01*
X115055Y45610D01*
Y47591D01*
X115069Y47497D01*
X115112Y47414D01*
X115183Y47340D01*
X115283Y47277D01*
X115411Y47223D01*
X115567Y47179D01*
X115753Y47144D01*
X115966Y47120D01*
X116113Y47111D01*
X116141Y47113D01*
X116338Y47150D01*
X116540Y47212D01*
X116747Y47300D01*
X116961Y47412D01*
X117180Y47550D01*
X117405Y47712D01*
X117636Y47900D01*
X118115Y48350D01*
Y44850D01*
D02*
G37*
G36*
X166367Y46852D02*
X166356Y46947D01*
X166326Y47032D01*
X166275Y47107D01*
X166205Y47172D01*
X166113Y47227D01*
X166002Y47272D01*
X165871Y47307D01*
X165719Y47332D01*
X165547Y47347D01*
X165355Y47352D01*
Y48352D01*
X165547Y48357D01*
X165719Y48372D01*
X165871Y48397D01*
X166002Y48432D01*
X166113Y48477D01*
X166205Y48532D01*
X166275Y48597D01*
X166326Y48672D01*
X166356Y48757D01*
X166367Y48852D01*
Y46852D01*
D02*
G37*
G36*
X139565Y51309D02*
X139424Y51168D01*
X138878Y50221D01*
X138595Y49166D01*
Y48073D01*
X138878Y47018D01*
X139424Y46072D01*
X139605Y45891D01*
X139413Y45429D01*
X129200D01*
X128615Y45313D01*
X128119Y44981D01*
X126267Y43129D01*
X121889D01*
X121755Y43629D01*
X122049Y43799D01*
X122701Y44451D01*
X123161Y45249D01*
X123400Y46139D01*
Y47061D01*
X123161Y47951D01*
X122701Y48749D01*
X122049Y49401D01*
X121755Y49571D01*
X121889Y50071D01*
X136400D01*
X136985Y50187D01*
X137481Y50519D01*
X138733Y51771D01*
X139374D01*
X139565Y51309D01*
D02*
G37*
G36*
X115069Y42497D02*
X115112Y42414D01*
X115183Y42340D01*
X115283Y42277D01*
X115411Y42223D01*
X115567Y42178D01*
X115753Y42144D01*
X115966Y42120D01*
X116208Y42105D01*
X116479Y42100D01*
Y41100D01*
X116208Y41095D01*
X115753Y41056D01*
X115567Y41021D01*
X115411Y40977D01*
X115283Y40923D01*
X115183Y40860D01*
X115112Y40786D01*
X115069Y40703D01*
X115055Y40609D01*
Y42590D01*
X115069Y42497D01*
D02*
G37*
G36*
X166367Y39596D02*
X166356Y39691D01*
X166326Y39776D01*
X166275Y39851D01*
X166205Y39916D01*
X166113Y39971D01*
X166002Y40016D01*
X165871Y40051D01*
X165719Y40076D01*
X165547Y40091D01*
X165355Y40096D01*
Y41096D01*
X165547Y41101D01*
X165719Y41116D01*
X165871Y41141D01*
X166002Y41176D01*
X166113Y41221D01*
X166205Y41276D01*
X166275Y41341D01*
X166326Y41416D01*
X166356Y41501D01*
X166367Y41596D01*
Y39596D01*
D02*
G37*
G36*
X158275Y41916D02*
X157919Y41677D01*
X155919Y39677D01*
X155587Y39181D01*
X155503Y38758D01*
X151079D01*
Y36629D01*
X146911D01*
X146606Y37009D01*
X146612Y37018D01*
X146894Y38073D01*
Y39166D01*
X146612Y40221D01*
X146065Y41168D01*
X145362Y41871D01*
X145460Y42371D01*
X158000D01*
X158080Y42386D01*
X158275Y41916D01*
D02*
G37*
G36*
X115069Y37497D02*
X115112Y37414D01*
X115183Y37340D01*
X115283Y37277D01*
X115411Y37223D01*
X115567Y37179D01*
X115753Y37144D01*
X115966Y37120D01*
X116208Y37105D01*
X116479Y37100D01*
Y36100D01*
X116208Y36095D01*
X115753Y36056D01*
X115567Y36022D01*
X115411Y35977D01*
X115283Y35923D01*
X115183Y35860D01*
X115112Y35786D01*
X115069Y35703D01*
X115055Y35609D01*
Y37591D01*
X115069Y37497D01*
D02*
G37*
G36*
X152091Y34100D02*
X152081Y34195D01*
X152051Y34280D01*
X152001Y34355D01*
X151931Y34420D01*
X151841Y34475D01*
X151731Y34520D01*
X151601Y34555D01*
X151451Y34580D01*
X151281Y34595D01*
X151091Y34600D01*
Y35600D01*
X151281Y35605D01*
X151451Y35620D01*
X151601Y35645D01*
X151731Y35680D01*
X151841Y35725D01*
X151931Y35780D01*
X152001Y35845D01*
X152051Y35920D01*
X152081Y36005D01*
X152091Y36100D01*
Y34100D01*
D02*
G37*
G36*
X166367Y33100D02*
X166356Y33195D01*
X166326Y33280D01*
X166275Y33355D01*
X166205Y33420D01*
X166113Y33475D01*
X166002Y33520D01*
X165871Y33555D01*
X165719Y33580D01*
X165547Y33595D01*
X165355Y33600D01*
Y34600D01*
X165547Y34605D01*
X165719Y34620D01*
X165871Y34645D01*
X166002Y34680D01*
X166113Y34725D01*
X166205Y34780D01*
X166275Y34845D01*
X166326Y34920D01*
X166356Y35005D01*
X166367Y35100D01*
Y33100D01*
D02*
G37*
G36*
X161907Y35005D02*
X161938Y34920D01*
X161988Y34845D01*
X162059Y34780D01*
X162150Y34725D01*
X162262Y34680D01*
X162393Y34645D01*
X162545Y34620D01*
X162717Y34605D01*
X162909Y34600D01*
Y33600D01*
X162717Y33595D01*
X162545Y33580D01*
X162393Y33555D01*
X162262Y33520D01*
X162150Y33475D01*
X162059Y33420D01*
X161988Y33355D01*
X161938Y33280D01*
X161907Y33195D01*
X161897Y33100D01*
Y35100D01*
X161907Y35005D01*
D02*
G37*
G36*
X140127Y41871D02*
X139424Y41168D01*
X138878Y40221D01*
X138595Y39166D01*
Y38073D01*
X138878Y37018D01*
X139424Y36072D01*
X140197Y35299D01*
X141143Y34753D01*
X142199Y34470D01*
X143291D01*
X144346Y34753D01*
X144411Y34790D01*
X145183Y34019D01*
X145679Y33687D01*
X146264Y33571D01*
X151079D01*
Y32429D01*
X145025D01*
X144594Y32344D01*
X144346Y32486D01*
X143291Y32769D01*
X143245D01*
Y29120D01*
X146894D01*
Y29166D01*
X147052Y29371D01*
X157000D01*
X157585Y29487D01*
X158081Y29819D01*
X158219Y30024D01*
X158719Y29872D01*
Y26882D01*
X157266Y25429D01*
X146076D01*
X145885Y25891D01*
X146065Y26072D01*
X146612Y27018D01*
X146894Y28073D01*
Y28120D01*
X142745D01*
X138595D01*
Y28073D01*
X138878Y27018D01*
X139424Y26072D01*
X139605Y25891D01*
X139413Y25429D01*
X138733D01*
X126481Y37681D01*
X125985Y38013D01*
X125400Y38129D01*
X116159D01*
X116055Y38136D01*
X116020Y38140D01*
X115977Y38204D01*
X115241Y38696D01*
X114490Y38845D01*
Y39355D01*
X115241Y39504D01*
X115977Y39996D01*
X116017Y40055D01*
X116195Y40071D01*
X126900D01*
X127485Y40187D01*
X127981Y40519D01*
X129833Y42371D01*
X140029D01*
X140127Y41871D01*
D02*
G37*
G36*
X161153Y32456D02*
X161068Y32426D01*
X160993Y32375D01*
X160928Y32305D01*
X160873Y32214D01*
X160828Y32102D01*
X160793Y31971D01*
X160768Y31819D01*
X160753Y31647D01*
X160748Y31455D01*
X159748D01*
X159743Y31647D01*
X159728Y31819D01*
X159703Y31971D01*
X159668Y32102D01*
X159623Y32214D01*
X159568Y32305D01*
X159503Y32375D01*
X159428Y32426D01*
X159343Y32456D01*
X159248Y32467D01*
X161248D01*
X161153Y32456D01*
D02*
G37*
G36*
X115069Y27497D02*
X115112Y27414D01*
X115183Y27340D01*
X115283Y27277D01*
X115411Y27223D01*
X115567Y27178D01*
X115753Y27144D01*
X115966Y27120D01*
X116208Y27105D01*
X116479Y27100D01*
Y26100D01*
X116208Y26095D01*
X115753Y26056D01*
X115567Y26022D01*
X115411Y25977D01*
X115283Y25923D01*
X115183Y25860D01*
X115112Y25786D01*
X115069Y25703D01*
X115055Y25609D01*
Y27591D01*
X115069Y27497D01*
D02*
G37*
G36*
Y22497D02*
X115112Y22414D01*
X115183Y22340D01*
X115283Y22277D01*
X115411Y22223D01*
X115567Y22178D01*
X115753Y22144D01*
X115966Y22120D01*
X116208Y22105D01*
X116479Y22100D01*
Y21100D01*
X116208Y21095D01*
X115753Y21056D01*
X115567Y21022D01*
X115411Y20977D01*
X115283Y20923D01*
X115183Y20860D01*
X115112Y20786D01*
X115069Y20703D01*
X115055Y20609D01*
Y22591D01*
X115069Y22497D01*
D02*
G37*
%LPC*%
G36*
X122658Y142521D02*
X119500D01*
Y140348D01*
X122658D01*
Y142521D01*
D02*
G37*
G36*
X118500D02*
X115342D01*
Y140348D01*
X118500D01*
Y142521D01*
D02*
G37*
G36*
X122658Y139348D02*
X119500D01*
Y137175D01*
X122658D01*
Y139348D01*
D02*
G37*
G36*
X63157Y133348D02*
X60000D01*
Y131175D01*
X63157D01*
Y133348D01*
D02*
G37*
G36*
X59000D02*
X55843D01*
Y131175D01*
X59000D01*
Y133348D01*
D02*
G37*
G36*
X64052Y139629D02*
X55252D01*
X54667Y139513D01*
X54171Y139181D01*
X51510Y136521D01*
X47343D01*
Y131175D01*
X54658D01*
Y135343D01*
X55343Y136028D01*
X55843Y135820D01*
Y134348D01*
X63157D01*
Y136125D01*
X63657Y136332D01*
X78128Y121861D01*
Y114540D01*
X77666Y114349D01*
X74081Y117933D01*
X73585Y118265D01*
X73158Y118350D01*
Y119525D01*
X65842D01*
Y118381D01*
X64881D01*
X64081Y119181D01*
X63585Y119513D01*
X63000Y119629D01*
X60421D01*
Y121757D01*
X55075D01*
Y114443D01*
X60421D01*
Y116571D01*
X62366D01*
X63167Y115771D01*
X63663Y115439D01*
X64248Y115323D01*
X65842D01*
Y114179D01*
X65842D01*
Y114021D01*
X65842D01*
Y112877D01*
X64248D01*
X63663Y112761D01*
X63166Y112429D01*
X61854Y111117D01*
X59921D01*
Y113258D01*
X54575D01*
Y105942D01*
X59921D01*
Y108058D01*
X62487D01*
X63073Y108174D01*
X63569Y108506D01*
X64881Y109819D01*
X65842D01*
Y108675D01*
X70010D01*
X70698Y107987D01*
X70507Y107525D01*
X70000D01*
Y104852D01*
X69500D01*
Y104352D01*
X65842D01*
Y102521D01*
X65842Y102179D01*
X65842D01*
Y102021D01*
X65842D01*
Y100877D01*
X65000D01*
X64974Y100872D01*
X64948Y100876D01*
X60781Y100734D01*
X60421Y101082D01*
Y102758D01*
X55075D01*
Y95442D01*
X59243D01*
X60771Y93915D01*
Y66100D01*
X60887Y65515D01*
X61219Y65019D01*
X65719Y60519D01*
X66215Y60187D01*
X66800Y60071D01*
X68841D01*
X68945Y60064D01*
X68980Y60060D01*
X69023Y59996D01*
X69759Y59504D01*
X70510Y59355D01*
Y58845D01*
X69759Y58696D01*
X69023Y58204D01*
X68983Y58145D01*
X68805Y58129D01*
X63583D01*
X57329Y64384D01*
Y78900D01*
X57213Y79485D01*
X56881Y79981D01*
X52081Y84781D01*
X51585Y85113D01*
X51000Y85229D01*
X45130D01*
X44923Y85729D01*
X45265Y86072D01*
X45812Y87018D01*
X46094Y88073D01*
Y89166D01*
X45812Y90221D01*
X45774Y90286D01*
X49485Y93997D01*
X51252D01*
X51837Y94114D01*
X52333Y94445D01*
X52665Y94942D01*
X52765Y95442D01*
X53925D01*
Y102758D01*
X48953D01*
X48746Y103258D01*
X50059Y104571D01*
X50752D01*
X51337Y104687D01*
X51833Y105019D01*
X52165Y105515D01*
X52250Y105942D01*
X53425D01*
Y113258D01*
X48503D01*
X48144Y113258D01*
X48129Y113275D01*
X48129Y113499D01*
Y114067D01*
X48217Y114154D01*
X48579Y114443D01*
Y114443D01*
X48579Y114443D01*
X53925D01*
Y121757D01*
X48579D01*
Y118546D01*
X48415Y118513D01*
X47919Y118181D01*
X46556Y116819D01*
X46094Y117011D01*
Y120606D01*
X49081Y123593D01*
X49413Y124090D01*
X49529Y124675D01*
Y124679D01*
X54658D01*
Y125823D01*
X55843D01*
Y124679D01*
X63157D01*
Y130025D01*
X55843D01*
Y128881D01*
X54658D01*
Y130025D01*
X47343D01*
Y128717D01*
X46919Y128433D01*
X46587Y127937D01*
X46471Y127352D01*
Y125308D01*
X43931Y122769D01*
X37795D01*
Y114470D01*
X45071D01*
Y113908D01*
X43611Y112449D01*
X43547Y112486D01*
X42491Y112769D01*
X41399D01*
X40343Y112486D01*
X39397Y111940D01*
X38624Y111168D01*
X38078Y110221D01*
X37795Y109166D01*
Y108073D01*
X38078Y107018D01*
X38624Y106072D01*
X39397Y105299D01*
X40343Y104753D01*
X41399Y104470D01*
X42491D01*
X43547Y104753D01*
X44493Y105299D01*
X45265Y106072D01*
X45812Y107018D01*
X46094Y108073D01*
Y109166D01*
X45812Y110221D01*
X45774Y110286D01*
X47579Y112091D01*
X47983Y111973D01*
X48079Y111903D01*
Y106916D01*
X43611Y102449D01*
X43547Y102486D01*
X42491Y102769D01*
X41399D01*
X40343Y102486D01*
X39397Y101940D01*
X39287Y101830D01*
X38825Y102021D01*
Y102100D01*
X38708Y102685D01*
X38377Y103181D01*
X34177Y107381D01*
X33680Y107713D01*
X33095Y107829D01*
X22952D01*
X22367Y107713D01*
X21871Y107381D01*
X20671Y106181D01*
X20387Y105757D01*
X19079D01*
Y101590D01*
X18585Y101096D01*
X18158Y101273D01*
Y101273D01*
X10842D01*
Y95927D01*
X18158D01*
Y97071D01*
X18252D01*
X18837Y97187D01*
X19333Y97519D01*
X20257Y98443D01*
X24425D01*
Y104771D01*
X25575D01*
Y98443D01*
X26719D01*
Y92316D01*
X26835Y91731D01*
X27167Y91235D01*
X31144Y87257D01*
X30937Y86757D01*
X26075D01*
Y79443D01*
X27219D01*
Y74100D01*
X27335Y73515D01*
X27667Y73019D01*
X33147Y67538D01*
X33643Y67207D01*
X34228Y67090D01*
X38059D01*
X38078Y67018D01*
X38624Y66072D01*
X39367Y65329D01*
X39349Y65119D01*
X39271Y64829D01*
X34534D01*
X29481Y69881D01*
X28985Y70213D01*
X28400Y70329D01*
X15633D01*
X11829Y74133D01*
Y77431D01*
X14000D01*
Y80104D01*
Y82777D01*
X11829D01*
Y83927D01*
X18158D01*
Y84378D01*
X18619Y84570D01*
X19579Y83610D01*
Y79443D01*
X24925D01*
Y86757D01*
X20757D01*
X19833Y87681D01*
X19337Y88013D01*
X18752Y88129D01*
X18158D01*
Y89273D01*
X10842D01*
Y87764D01*
X10719Y87681D01*
X9219Y86181D01*
X8887Y85685D01*
X8771Y85100D01*
Y73500D01*
X8887Y72915D01*
X9219Y72419D01*
X13154Y68483D01*
X12963Y68021D01*
X9342D01*
Y65094D01*
X7761Y63513D01*
X7430Y63017D01*
X7313Y62432D01*
Y54843D01*
X7430Y54258D01*
X7761Y53762D01*
X9504Y52019D01*
X10001Y51687D01*
X10586Y51571D01*
X16741D01*
X17099Y50951D01*
X17721Y50329D01*
X17709Y50194D01*
X17565Y49829D01*
X11500D01*
X10915Y49713D01*
X10419Y49381D01*
X8219Y47181D01*
X7887Y46685D01*
X7771Y46100D01*
Y38100D01*
X7887Y37515D01*
X8219Y37019D01*
X9467Y35771D01*
X9843Y35519D01*
Y34179D01*
X13000D01*
Y36852D01*
X13500D01*
Y37352D01*
X17157D01*
Y39032D01*
X17654Y39529D01*
X17857Y39529D01*
X17867Y39519D01*
X18363Y39187D01*
X18948Y39071D01*
X19079D01*
Y36942D01*
X24425D01*
Y44258D01*
X24425Y44258D01*
X24425D01*
X24542Y44728D01*
X31885Y52071D01*
X38820D01*
X39027Y51571D01*
X38624Y51168D01*
X38078Y50221D01*
X38059Y50149D01*
X33568D01*
X32982Y50033D01*
X32486Y49701D01*
X27167Y44381D01*
X27084Y44258D01*
X25575D01*
Y36942D01*
X29626D01*
X29818Y36481D01*
X20919Y27581D01*
X20587Y27085D01*
X20471Y26500D01*
Y22758D01*
X19327D01*
Y22137D01*
X18865Y21946D01*
X17658Y23153D01*
Y25021D01*
X10343D01*
Y19675D01*
X16810D01*
X17460Y19025D01*
X17253Y18525D01*
X14500D01*
Y16352D01*
X17658D01*
Y18121D01*
X18158Y18328D01*
X18467Y18019D01*
X18963Y17687D01*
X19327Y17615D01*
Y15442D01*
X24673D01*
Y22758D01*
X23529D01*
Y25866D01*
X37442Y39779D01*
X37890Y39520D01*
X37795Y39166D01*
Y38073D01*
X38078Y37018D01*
X38115Y36953D01*
X27415Y26252D01*
X27083Y25756D01*
X26967Y25171D01*
Y22758D01*
X25823D01*
Y15442D01*
X31169D01*
Y22758D01*
X30025D01*
Y24537D01*
X40278Y34790D01*
X40343Y34753D01*
X41399Y34470D01*
X42491D01*
X43547Y34753D01*
X44493Y35299D01*
X45265Y36072D01*
X45812Y37018D01*
X46094Y38073D01*
Y39166D01*
X45812Y40221D01*
X45265Y41168D01*
X45155Y41278D01*
X45346Y41740D01*
X45967D01*
X52188Y35519D01*
X52684Y35187D01*
X53269Y35071D01*
X68841D01*
X68945Y35064D01*
X68980Y35060D01*
X69023Y34996D01*
X69759Y34504D01*
X70510Y34355D01*
Y33845D01*
X69759Y33696D01*
X69023Y33204D01*
X68983Y33145D01*
X68805Y33129D01*
X44925D01*
X44340Y33013D01*
X43844Y32681D01*
X43611Y32449D01*
X43547Y32486D01*
X42491Y32769D01*
X41399D01*
X40343Y32486D01*
X39397Y31940D01*
X38624Y31168D01*
X38078Y30221D01*
X37795Y29166D01*
Y28073D01*
X38078Y27018D01*
X38624Y26072D01*
X39397Y25299D01*
X40343Y24753D01*
X41399Y24470D01*
X42491D01*
X43547Y24753D01*
X44493Y25299D01*
X45265Y26072D01*
X45812Y27018D01*
X46094Y28073D01*
Y29166D01*
X45958Y29674D01*
X46263Y30071D01*
X68841D01*
X68945Y30064D01*
X68980Y30060D01*
X69023Y29996D01*
X69759Y29504D01*
X70510Y29355D01*
Y28845D01*
X69759Y28696D01*
X69023Y28204D01*
X68983Y28145D01*
X68805Y28129D01*
X49925D01*
X49340Y28013D01*
X48844Y27681D01*
X43611Y22449D01*
X43547Y22486D01*
X42491Y22769D01*
X41399D01*
X40343Y22486D01*
X39397Y21940D01*
X38624Y21168D01*
X38078Y20221D01*
X37795Y19166D01*
Y18073D01*
X38078Y17018D01*
X38624Y16072D01*
X39397Y15299D01*
X40343Y14753D01*
X41399Y14470D01*
X42491D01*
X43547Y14753D01*
X44493Y15299D01*
X45265Y16072D01*
X45812Y17018D01*
X46094Y18073D01*
Y19166D01*
X45812Y20221D01*
X45774Y20286D01*
X50559Y25071D01*
X68841D01*
X68945Y25064D01*
X68980Y25060D01*
X69023Y24996D01*
X69759Y24504D01*
X70510Y24355D01*
Y23845D01*
X69759Y23696D01*
X69023Y23204D01*
X68531Y22468D01*
X68458Y22100D01*
X80593D01*
X80520Y22468D01*
X80028Y23204D01*
X79293Y23696D01*
X78541Y23845D01*
Y24355D01*
X79293Y24504D01*
X80028Y24996D01*
X80520Y25732D01*
X80693Y26600D01*
X80520Y27468D01*
X80028Y28204D01*
X79293Y28696D01*
X78541Y28845D01*
Y29355D01*
X79293Y29504D01*
X80028Y29996D01*
X80520Y30732D01*
X80693Y31600D01*
X80520Y32468D01*
X80028Y33204D01*
X79293Y33696D01*
X78541Y33845D01*
Y34355D01*
X79293Y34504D01*
X80028Y34996D01*
X80520Y35732D01*
X80693Y36600D01*
X80520Y37468D01*
X80028Y38204D01*
X79293Y38696D01*
X78541Y38845D01*
Y39355D01*
X79293Y39504D01*
X80028Y39996D01*
X80520Y40732D01*
X80693Y41600D01*
X80520Y42468D01*
X80028Y43204D01*
X79293Y43696D01*
X78541Y43845D01*
Y44355D01*
X79293Y44504D01*
X80028Y44996D01*
X80068Y45055D01*
X80246Y45071D01*
X81848D01*
X82170Y44696D01*
X82000Y44061D01*
Y43139D01*
X82239Y42249D01*
X82699Y41451D01*
X83351Y40799D01*
X84149Y40339D01*
X85039Y40100D01*
X85961D01*
X86851Y40339D01*
X87649Y40799D01*
X88301Y41451D01*
X88762Y42249D01*
X89000Y43139D01*
Y44061D01*
X88762Y44951D01*
X88301Y45749D01*
X87649Y46401D01*
X86851Y46861D01*
X85961Y47100D01*
X85039D01*
X84348Y46915D01*
X83581Y47681D01*
X83085Y48013D01*
X82500Y48129D01*
X80210D01*
X80107Y48136D01*
X80071Y48140D01*
X80028Y48204D01*
X79293Y48696D01*
X78541Y48845D01*
Y49355D01*
X79293Y49504D01*
X80028Y49996D01*
X80520Y50732D01*
X80693Y51600D01*
X80520Y52468D01*
X80028Y53204D01*
X79293Y53696D01*
X78541Y53845D01*
Y54355D01*
X79293Y54504D01*
X80028Y54996D01*
X80520Y55732D01*
X80693Y56600D01*
X80520Y57468D01*
X80028Y58204D01*
X79293Y58696D01*
X78541Y58845D01*
Y59355D01*
X79293Y59504D01*
X80028Y59996D01*
X80520Y60732D01*
X80693Y61600D01*
X80520Y62468D01*
X80028Y63204D01*
X79293Y63696D01*
X78541Y63845D01*
Y64355D01*
X79293Y64504D01*
X80028Y64996D01*
X80520Y65732D01*
X80693Y66600D01*
X80520Y67468D01*
X80028Y68204D01*
X79293Y68696D01*
X78541Y68845D01*
Y69355D01*
X79293Y69504D01*
X80028Y69996D01*
X80520Y70732D01*
X80693Y71600D01*
X80520Y72468D01*
X80028Y73204D01*
X79293Y73696D01*
X78425Y73868D01*
X70660D01*
X70616Y73877D01*
X70794Y74375D01*
X80649D01*
Y78825D01*
X77568D01*
X77291Y79241D01*
X79852Y85350D01*
X79852Y85353D01*
X79854Y85356D01*
X79912Y85645D01*
X79971Y85935D01*
X79970Y85938D01*
X79971Y85941D01*
Y87890D01*
X80739Y88659D01*
X81071Y89155D01*
X81187Y89740D01*
Y122494D01*
X81071Y123080D01*
X80739Y123576D01*
X65133Y139181D01*
X64637Y139513D01*
X64052Y139629D01*
D02*
G37*
G36*
X73158Y126021D02*
X70000D01*
Y123848D01*
X73158D01*
Y126021D01*
D02*
G37*
G36*
X69000D02*
X65842D01*
Y123848D01*
X69000D01*
Y126021D01*
D02*
G37*
G36*
X73158Y122848D02*
X70000D01*
Y120675D01*
X73158D01*
Y122848D01*
D02*
G37*
G36*
X69000D02*
X65842D01*
Y120675D01*
X69000D01*
Y122848D01*
D02*
G37*
G36*
X18158Y107769D02*
X15000D01*
Y105596D01*
X18158D01*
Y107769D01*
D02*
G37*
G36*
X14000D02*
X10842D01*
Y105596D01*
X14000D01*
Y107769D01*
D02*
G37*
G36*
X121158Y107525D02*
X118000D01*
Y105352D01*
X121158D01*
Y107525D01*
D02*
G37*
G36*
X107600Y108342D02*
X106749Y108114D01*
X105951Y107653D01*
X105299Y107001D01*
X104839Y106203D01*
X104611Y105352D01*
X107600D01*
Y108342D01*
D02*
G37*
G36*
X69000Y107525D02*
X65842D01*
Y105352D01*
X69000D01*
Y107525D01*
D02*
G37*
G36*
X18158Y104596D02*
X15000D01*
Y102423D01*
X18158D01*
Y104596D01*
D02*
G37*
G36*
X14000D02*
X10842D01*
Y102423D01*
X14000D01*
Y104596D01*
D02*
G37*
G36*
X167500Y93521D02*
X164342D01*
Y91348D01*
X167500D01*
Y93521D01*
D02*
G37*
G36*
Y90348D02*
X164342D01*
Y88175D01*
X167500D01*
Y90348D01*
D02*
G37*
G36*
X18158Y82777D02*
X15000D01*
Y80604D01*
X18158D01*
Y82777D01*
D02*
G37*
G36*
Y79604D02*
X15000D01*
Y77431D01*
X18158D01*
Y79604D01*
D02*
G37*
G36*
X172658Y40096D02*
X169500D01*
Y37923D01*
X172658D01*
Y40096D01*
D02*
G37*
G36*
X17157Y36352D02*
X14000D01*
Y34179D01*
X17157D01*
Y36352D01*
D02*
G37*
G36*
X80593Y21100D02*
X75026D01*
Y19332D01*
X78425D01*
X79293Y19504D01*
X80028Y19996D01*
X80520Y20732D01*
X80593Y21100D01*
D02*
G37*
G36*
X74026D02*
X68458D01*
X68531Y20732D01*
X69023Y19996D01*
X69759Y19504D01*
X70627Y19332D01*
X74026D01*
Y21100D01*
D02*
G37*
G36*
X13500Y18525D02*
X10343D01*
Y16352D01*
X13500D01*
Y18525D01*
D02*
G37*
G36*
X17658Y15352D02*
X14500D01*
Y13179D01*
X17658D01*
Y15352D01*
D02*
G37*
G36*
X13500D02*
X10343D01*
Y13179D01*
X13500D01*
Y15352D01*
D02*
G37*
G36*
X42491Y12769D02*
X42445D01*
Y9120D01*
X46094D01*
Y9166D01*
X45812Y10221D01*
X45265Y11168D01*
X44493Y11940D01*
X43547Y12486D01*
X42491Y12769D01*
D02*
G37*
G36*
X41445D02*
X41399D01*
X40343Y12486D01*
X39397Y11940D01*
X38624Y11168D01*
X38078Y10221D01*
X37795Y9166D01*
Y9120D01*
X41445D01*
Y12769D01*
D02*
G37*
G36*
X46094Y8120D02*
X42445D01*
Y4470D01*
X42491D01*
X43547Y4753D01*
X44493Y5299D01*
X45265Y6072D01*
X45812Y7018D01*
X46094Y8073D01*
Y8120D01*
D02*
G37*
G36*
X41445D02*
X37795D01*
Y8073D01*
X38078Y7018D01*
X38624Y6072D01*
X39397Y5299D01*
X40343Y4753D01*
X41399Y4470D01*
X41445D01*
Y8120D01*
D02*
G37*
%LPD*%
G36*
X56867Y126352D02*
X56856Y126447D01*
X56826Y126532D01*
X56775Y126607D01*
X56705Y126672D01*
X56613Y126727D01*
X56502Y126772D01*
X56371Y126807D01*
X56219Y126832D01*
X56047Y126847D01*
X55854Y126852D01*
Y127852D01*
X56047Y127857D01*
X56219Y127872D01*
X56371Y127897D01*
X56502Y127932D01*
X56613Y127977D01*
X56705Y128032D01*
X56775Y128097D01*
X56826Y128172D01*
X56856Y128257D01*
X56867Y128352D01*
Y126352D01*
D02*
G37*
G36*
X53644Y128257D02*
X53674Y128172D01*
X53725Y128097D01*
X53795Y128032D01*
X53886Y127977D01*
X53998Y127932D01*
X54129Y127897D01*
X54281Y127872D01*
X54453Y127857D01*
X54646Y127852D01*
Y126852D01*
X54453Y126847D01*
X54281Y126832D01*
X54129Y126807D01*
X53998Y126772D01*
X53886Y126727D01*
X53795Y126672D01*
X53725Y126607D01*
X53674Y126532D01*
X53644Y126447D01*
X53633Y126352D01*
Y128352D01*
X53644Y128257D01*
D02*
G37*
G36*
X59419Y119005D02*
X59449Y118920D01*
X59499Y118845D01*
X59569Y118780D01*
X59659Y118725D01*
X59769Y118680D01*
X59899Y118645D01*
X60049Y118620D01*
X60219Y118605D01*
X60409Y118600D01*
Y117600D01*
X60219Y117595D01*
X60049Y117580D01*
X59899Y117555D01*
X59769Y117520D01*
X59659Y117475D01*
X59569Y117420D01*
X59499Y117355D01*
X59449Y117280D01*
X59419Y117195D01*
X59409Y117100D01*
Y119100D01*
X59419Y119005D01*
D02*
G37*
G36*
X49603Y116509D02*
X49597Y116526D01*
X49579Y116542D01*
X49549Y116556D01*
X49506Y116567D01*
X49452Y116577D01*
X49386Y116586D01*
X49217Y116596D01*
X49000Y116600D01*
Y117600D01*
X49115Y117601D01*
X49452Y117623D01*
X49506Y117633D01*
X49549Y117645D01*
X49579Y117658D01*
X49597Y117674D01*
X49603Y117691D01*
Y116509D01*
D02*
G37*
G36*
X72142Y117639D02*
X72168Y117579D01*
X72211Y117526D01*
X72272Y117480D01*
X72350Y117441D01*
X72445Y117409D01*
X72558Y117384D01*
X72688Y117366D01*
X72835Y117356D01*
X73000Y117352D01*
Y116352D01*
X72835Y116349D01*
X72558Y116320D01*
X72445Y116295D01*
X72350Y116263D01*
X72272Y116224D01*
X72211Y116178D01*
X72168Y116125D01*
X72142Y116065D01*
X72133Y115998D01*
Y117707D01*
X72142Y117639D01*
D02*
G37*
G36*
X66866Y115852D02*
X66856Y115947D01*
X66826Y116032D01*
X66775Y116107D01*
X66705Y116172D01*
X66614Y116227D01*
X66502Y116272D01*
X66371Y116307D01*
X66219Y116332D01*
X66047Y116347D01*
X65855Y116352D01*
Y117352D01*
X66047Y117357D01*
X66219Y117372D01*
X66371Y117397D01*
X66502Y117432D01*
X66614Y117477D01*
X66705Y117532D01*
X66775Y117597D01*
X66826Y117672D01*
X66856Y117757D01*
X66866Y117852D01*
Y115852D01*
D02*
G37*
G36*
Y110348D02*
X66856Y110443D01*
X66826Y110528D01*
X66775Y110603D01*
X66705Y110668D01*
X66614Y110723D01*
X66502Y110768D01*
X66371Y110803D01*
X66219Y110828D01*
X66047Y110843D01*
X65855Y110848D01*
Y111848D01*
X66047Y111853D01*
X66219Y111868D01*
X66371Y111893D01*
X66502Y111928D01*
X66614Y111973D01*
X66705Y112028D01*
X66775Y112093D01*
X66826Y112168D01*
X66856Y112253D01*
X66866Y112348D01*
Y110348D01*
D02*
G37*
G36*
X58919Y110492D02*
X58949Y110407D01*
X58999Y110332D01*
X59069Y110267D01*
X59159Y110212D01*
X59269Y110167D01*
X59399Y110132D01*
X59549Y110107D01*
X59719Y110092D01*
X59909Y110087D01*
Y109087D01*
X59719Y109082D01*
X59549Y109067D01*
X59399Y109042D01*
X59269Y109007D01*
X59159Y108962D01*
X59069Y108907D01*
X58999Y108842D01*
X58949Y108767D01*
X58919Y108682D01*
X58909Y108587D01*
Y110587D01*
X58919Y110492D01*
D02*
G37*
G36*
X51539Y106958D02*
X51479Y106932D01*
X51426Y106888D01*
X51380Y106828D01*
X51341Y106750D01*
X51309Y106655D01*
X51284Y106542D01*
X51266Y106412D01*
X51256Y106265D01*
X51252Y106100D01*
X50252D01*
X50248Y106265D01*
X50220Y106542D01*
X50195Y106655D01*
X50163Y106750D01*
X50124Y106828D01*
X50078Y106888D01*
X50025Y106932D01*
X49965Y106958D01*
X49898Y106966D01*
X51607D01*
X51539Y106958D01*
D02*
G37*
G36*
X29153Y99456D02*
X29068Y99426D01*
X28993Y99375D01*
X28928Y99305D01*
X28873Y99213D01*
X28828Y99102D01*
X28793Y98971D01*
X28768Y98819D01*
X28753Y98647D01*
X28748Y98454D01*
X27748D01*
X27743Y98647D01*
X27728Y98819D01*
X27703Y98971D01*
X27668Y99102D01*
X27623Y99213D01*
X27568Y99305D01*
X27503Y99375D01*
X27428Y99426D01*
X27343Y99456D01*
X27248Y99467D01*
X29248D01*
X29153Y99456D01*
D02*
G37*
G36*
X66866Y98348D02*
X66856Y98443D01*
X66826Y98528D01*
X66775Y98603D01*
X66705Y98668D01*
X66614Y98723D01*
X66502Y98768D01*
X66371Y98803D01*
X66219Y98828D01*
X66047Y98843D01*
X65855Y98848D01*
Y99848D01*
X66047Y99853D01*
X66219Y99868D01*
X66371Y99893D01*
X66502Y99928D01*
X66614Y99973D01*
X66705Y100028D01*
X66775Y100093D01*
X66826Y100168D01*
X66856Y100253D01*
X66866Y100348D01*
Y98348D01*
D02*
G37*
G36*
X17144Y99505D02*
X17174Y99420D01*
X17225Y99345D01*
X17295Y99280D01*
X17387Y99225D01*
X17498Y99180D01*
X17629Y99145D01*
X17781Y99120D01*
X17953Y99105D01*
X18146Y99100D01*
Y98100D01*
X17953Y98095D01*
X17781Y98080D01*
X17629Y98055D01*
X17498Y98020D01*
X17387Y97975D01*
X17295Y97920D01*
X17225Y97855D01*
X17174Y97780D01*
X17144Y97695D01*
X17133Y97600D01*
Y99600D01*
X17144Y99505D01*
D02*
G37*
G36*
X59419Y100063D02*
X59449Y99979D01*
X59499Y99905D01*
X59569Y99843D01*
X59659Y99791D01*
X59769Y99749D01*
X59899Y99719D01*
X60049Y99699D01*
X60219Y99690D01*
X60409Y99691D01*
Y98691D01*
X60219Y98679D01*
X60049Y98658D01*
X59899Y98628D01*
X59769Y98589D01*
X59659Y98540D01*
X59569Y98482D01*
X59499Y98414D01*
X59485Y98393D01*
X59522Y98287D01*
X59586Y98146D01*
X59664Y98005D01*
X59756Y97863D01*
X59862Y97722D01*
X59982Y97580D01*
X60116Y97439D01*
Y96025D01*
X59982Y96156D01*
X59664Y96433D01*
X59586Y96486D01*
X59522Y96519D01*
X59473Y96532D01*
X59438Y96526D01*
X59416Y96500D01*
X59409Y96455D01*
Y98156D01*
Y100157D01*
X59419Y100063D01*
D02*
G37*
G36*
X52099Y96457D02*
X52026Y96429D01*
X51962Y96382D01*
X51906Y96316D01*
X51859Y96232D01*
X51820Y96128D01*
X51790Y96006D01*
X51769Y95865D01*
X51756Y95705D01*
X51752Y95527D01*
X50752D01*
X50748Y95705D01*
X50735Y95865D01*
X50713Y96006D01*
X50684Y96128D01*
X50645Y96232D01*
X50598Y96316D01*
X50542Y96382D01*
X50478Y96429D01*
X50406Y96457D01*
X50324Y96466D01*
X52180D01*
X52099Y96457D01*
D02*
G37*
G36*
X48579Y102384D02*
Y97002D01*
X48267Y96940D01*
X47771Y96608D01*
X43611Y92449D01*
X43547Y92486D01*
X42491Y92769D01*
X41399D01*
X40343Y92486D01*
X39397Y91940D01*
X39287Y91830D01*
X38825Y92021D01*
Y95218D01*
X39287Y95409D01*
X39397Y95299D01*
X40343Y94753D01*
X41399Y94470D01*
X42491D01*
X43547Y94753D01*
X44493Y95299D01*
X45265Y96072D01*
X45812Y97018D01*
X46094Y98073D01*
Y99166D01*
X45812Y100221D01*
X45774Y100286D01*
X48079Y102591D01*
X48579Y102384D01*
D02*
G37*
G36*
X72853Y94498D02*
X72654Y94292D01*
X72342Y93924D01*
X72227Y93761D01*
X72141Y93612D01*
X72084Y93478D01*
X72054Y93358D01*
X72052Y93252D01*
X72079Y93161D01*
X72133Y93083D01*
X70747Y94501D01*
X70823Y94445D01*
X70913Y94418D01*
X71019Y94418D01*
X71138Y94448D01*
X71272Y94505D01*
X71421Y94591D01*
X71584Y94706D01*
X71762Y94849D01*
X72161Y95220D01*
X72853Y94498D01*
D02*
G37*
G36*
X35766Y101467D02*
Y87615D01*
X35304Y87423D01*
X29777Y92950D01*
Y98443D01*
X30921D01*
Y104771D01*
X32462D01*
X35766Y101467D01*
D02*
G37*
G36*
X17144Y87505D02*
X17174Y87420D01*
X17225Y87345D01*
X17295Y87280D01*
X17387Y87225D01*
X17498Y87180D01*
X17629Y87145D01*
X17781Y87120D01*
X17953Y87105D01*
X18146Y87100D01*
Y86100D01*
X17953Y86095D01*
X17781Y86080D01*
X17629Y86055D01*
X17498Y86020D01*
X17387Y85975D01*
X17295Y85920D01*
X17225Y85855D01*
X17174Y85780D01*
X17144Y85695D01*
X17133Y85600D01*
Y87600D01*
X17144Y87505D01*
D02*
G37*
G36*
X65842Y96675D02*
X71453D01*
X71660Y96175D01*
X71254Y95769D01*
X71094Y95621D01*
X70976Y95525D01*
X70000D01*
Y92852D01*
Y90179D01*
X72705D01*
X72799Y89679D01*
X64291Y81172D01*
X63829Y81363D01*
Y94548D01*
X63713Y95133D01*
X63381Y95629D01*
X61763Y97248D01*
X61946Y97713D01*
X65026Y97819D01*
X65842D01*
Y96675D01*
D02*
G37*
G36*
X29653Y80456D02*
X29568Y80426D01*
X29493Y80375D01*
X29428Y80305D01*
X29373Y80213D01*
X29328Y80102D01*
X29293Y79971D01*
X29268Y79819D01*
X29253Y79647D01*
X29248Y79454D01*
X28248D01*
X28243Y79647D01*
X28228Y79819D01*
X28203Y79971D01*
X28168Y80102D01*
X28123Y80213D01*
X28068Y80305D01*
X28003Y80375D01*
X27928Y80426D01*
X27843Y80456D01*
X27748Y80467D01*
X29748D01*
X29653Y80456D01*
D02*
G37*
G36*
X75894Y78557D02*
X75844Y78399D01*
X75812Y78259D01*
X75800Y78137D01*
X75806Y78034D01*
X75831Y77950D01*
X75874Y77885D01*
X75937Y77838D01*
X76018Y77810D01*
X76118Y77801D01*
X73950D01*
X74056Y77810D01*
X74159Y77838D01*
X74259Y77885D01*
X74356Y77950D01*
X74450Y78034D01*
X74542Y78137D01*
X74630Y78259D01*
X74716Y78399D01*
X74799Y78557D01*
X74878Y78735D01*
X75963D01*
X75894Y78557D01*
D02*
G37*
G36*
X70310Y72781D02*
X69437Y71435D01*
X69481Y71523D01*
X69493Y71607D01*
X69474Y71685D01*
X69423Y71759D01*
X69342Y71828D01*
X69229Y71892D01*
X69085Y71951D01*
X68910Y72005D01*
X68704Y72055D01*
X68467Y72099D01*
X69409Y72956D01*
X70310Y72781D01*
D02*
G37*
G36*
X69945Y65610D02*
X69931Y65703D01*
X69888Y65786D01*
X69817Y65860D01*
X69717Y65923D01*
X69589Y65977D01*
X69433Y66022D01*
X69247Y66056D01*
X69034Y66080D01*
X68792Y66095D01*
X68521Y66100D01*
Y67100D01*
X68792Y67105D01*
X69247Y67144D01*
X69433Y67178D01*
X69589Y67223D01*
X69717Y67277D01*
X69817Y67340D01*
X69888Y67414D01*
X69931Y67497D01*
X69945Y67590D01*
Y65610D01*
D02*
G37*
G36*
X15644Y66253D02*
X15674Y66168D01*
X15725Y66093D01*
X15795Y66028D01*
X15887Y65973D01*
X15998Y65928D01*
X16129Y65893D01*
X16281Y65868D01*
X16453Y65853D01*
X16646Y65848D01*
Y64848D01*
X16453Y64843D01*
X16281Y64828D01*
X16129Y64803D01*
X15998Y64768D01*
X15887Y64723D01*
X15795Y64668D01*
X15725Y64603D01*
X15674Y64528D01*
X15644Y64443D01*
X15633Y64348D01*
Y66348D01*
X15644Y66253D01*
D02*
G37*
G36*
X38115Y80286D02*
X38078Y80221D01*
X37795Y79166D01*
Y78073D01*
X38078Y77018D01*
X38624Y76072D01*
X39397Y75299D01*
X40343Y74753D01*
X41399Y74470D01*
X42491D01*
X43547Y74753D01*
X44493Y75299D01*
X45265Y76072D01*
X45812Y77018D01*
X46094Y78073D01*
Y79166D01*
X45812Y80221D01*
X45265Y81168D01*
X44762Y81671D01*
X44969Y82171D01*
X50366D01*
X54271Y78267D01*
Y64199D01*
X53771Y63992D01*
X53381Y64381D01*
X52885Y64713D01*
X52300Y64829D01*
X44619D01*
X44541Y65119D01*
X44523Y65329D01*
X45265Y66072D01*
X45812Y67018D01*
X46094Y68073D01*
Y69166D01*
X45812Y70221D01*
X45265Y71167D01*
X44493Y71940D01*
X43547Y72486D01*
X42491Y72769D01*
X41399D01*
X40343Y72486D01*
X39397Y71940D01*
X38624Y71167D01*
X38078Y70221D01*
X38059Y70149D01*
X34862D01*
X30277Y74734D01*
Y79443D01*
X31421D01*
Y86273D01*
X31921Y86480D01*
X38115Y80286D01*
D02*
G37*
G36*
X19266Y64544D02*
X19584Y64267D01*
X19662Y64214D01*
X19726Y64181D01*
X19775Y64168D01*
X19811Y64174D01*
X19832Y64200D01*
X19839Y64245D01*
Y61847D01*
X19832Y61988D01*
X19811Y62130D01*
X19775Y62271D01*
X19726Y62413D01*
X19662Y62554D01*
X19584Y62695D01*
X19492Y62837D01*
X19386Y62978D01*
X19266Y63120D01*
X19132Y63261D01*
Y64675D01*
X19266Y64544D01*
D02*
G37*
G36*
X69945Y60610D02*
X69931Y60703D01*
X69888Y60786D01*
X69817Y60860D01*
X69717Y60923D01*
X69589Y60977D01*
X69433Y61022D01*
X69247Y61056D01*
X69034Y61080D01*
X68792Y61095D01*
X68521Y61100D01*
Y62100D01*
X68792Y62105D01*
X69247Y62144D01*
X69433Y62178D01*
X69589Y62223D01*
X69717Y62277D01*
X69817Y62340D01*
X69888Y62414D01*
X69931Y62497D01*
X69945Y62590D01*
Y60610D01*
D02*
G37*
G36*
X29318Y65719D02*
X29126Y65258D01*
X25323D01*
Y59025D01*
X25258Y58972D01*
X24173D01*
Y65258D01*
X20005D01*
X18833Y66429D01*
X18337Y66761D01*
X18289Y66771D01*
X18338Y67271D01*
X27766D01*
X29318Y65719D01*
D02*
G37*
G36*
X29653Y61213D02*
X29675Y61073D01*
X29711Y60932D01*
X29762Y60791D01*
X29827Y60650D01*
X29906Y60509D01*
X29999Y60367D01*
X30107Y60224D01*
X30228Y60082D01*
X30364Y59939D01*
Y58525D01*
X30280Y58606D01*
X30120Y58744D01*
X30045Y58800D01*
X29973Y58847D01*
X29903Y58886D01*
X29837Y58916D01*
X29774Y58937D01*
X29714Y58950D01*
X29657Y58955D01*
X29645Y61353D01*
X29653Y61213D01*
D02*
G37*
G36*
X15644Y59757D02*
X15674Y59672D01*
X15725Y59597D01*
X15795Y59532D01*
X15887Y59477D01*
X15998Y59432D01*
X16129Y59397D01*
X16281Y59372D01*
X16453Y59357D01*
X16646Y59352D01*
Y58352D01*
X16453Y58347D01*
X16281Y58332D01*
X16129Y58307D01*
X15998Y58272D01*
X15887Y58227D01*
X15795Y58172D01*
X15725Y58107D01*
X15674Y58032D01*
X15644Y57947D01*
X15633Y57852D01*
Y59852D01*
X15644Y59757D01*
D02*
G37*
G36*
X69945Y55610D02*
X69931Y55703D01*
X69888Y55786D01*
X69817Y55860D01*
X69717Y55923D01*
X69589Y55977D01*
X69433Y56021D01*
X69247Y56056D01*
X69034Y56080D01*
X68792Y56095D01*
X68521Y56100D01*
Y57100D01*
X68792Y57105D01*
X69247Y57144D01*
X69433Y57178D01*
X69589Y57223D01*
X69717Y57277D01*
X69817Y57340D01*
X69888Y57414D01*
X69931Y57497D01*
X69945Y57591D01*
Y55610D01*
D02*
G37*
G36*
X57846Y55591D02*
X57654Y55129D01*
X45030D01*
X44823Y55629D01*
X45265Y56072D01*
X45812Y57018D01*
X46094Y58073D01*
Y59166D01*
X45812Y60221D01*
X45265Y61168D01*
X45124Y61309D01*
X45316Y61771D01*
X51666D01*
X57846Y55591D01*
D02*
G37*
G36*
X69945Y50609D02*
X69931Y50703D01*
X69888Y50786D01*
X69817Y50860D01*
X69717Y50923D01*
X69589Y50977D01*
X69433Y51021D01*
X69247Y51056D01*
X69034Y51080D01*
X68792Y51095D01*
X68521Y51100D01*
Y52100D01*
X68792Y52105D01*
X69247Y52144D01*
X69433Y52179D01*
X69589Y52223D01*
X69717Y52277D01*
X69817Y52340D01*
X69888Y52414D01*
X69931Y52497D01*
X69945Y52591D01*
Y50609D01*
D02*
G37*
G36*
X79120Y47497D02*
X79163Y47414D01*
X79234Y47340D01*
X79334Y47277D01*
X79462Y47223D01*
X79619Y47179D01*
X79804Y47144D01*
X80017Y47120D01*
X80259Y47105D01*
X80530Y47100D01*
Y46100D01*
X80259Y46095D01*
X79804Y46056D01*
X79619Y46022D01*
X79462Y45977D01*
X79334Y45923D01*
X79234Y45860D01*
X79163Y45786D01*
X79120Y45703D01*
X79106Y45610D01*
Y47591D01*
X79120Y47497D01*
D02*
G37*
G36*
X22255Y43935D02*
X22284Y43658D01*
X22309Y43545D01*
X22341Y43450D01*
X22380Y43372D01*
X22426Y43312D01*
X22479Y43268D01*
X22539Y43242D01*
X22606Y43233D01*
X20898D01*
X20965Y43242D01*
X21025Y43268D01*
X21078Y43312D01*
X21124Y43372D01*
X21163Y43450D01*
X21195Y43545D01*
X21220Y43658D01*
X21238Y43788D01*
X21248Y43935D01*
X21252Y44100D01*
X22252D01*
X22255Y43935D01*
D02*
G37*
G36*
X29506Y57927D02*
X29895Y57538D01*
X30391Y57207D01*
X30976Y57090D01*
X38059D01*
X38078Y57018D01*
X38624Y56072D01*
X39067Y55629D01*
X38860Y55129D01*
X31252D01*
X30667Y55013D01*
X30171Y54681D01*
X20671Y45181D01*
X20339Y44685D01*
X20254Y44258D01*
X19079D01*
Y43285D01*
X18617Y43094D01*
X17281Y44429D01*
X17157Y44512D01*
Y46021D01*
X12216D01*
X12001Y46506D01*
X12212Y46771D01*
X20800D01*
X21385Y46887D01*
X21881Y47219D01*
X27681Y53019D01*
X28013Y53515D01*
X28129Y54100D01*
Y56100D01*
X28013Y56685D01*
X27681Y57181D01*
X27382Y57481D01*
X27574Y57942D01*
X29488D01*
X29506Y57927D01*
D02*
G37*
G36*
X69663Y43251D02*
X70005Y42965D01*
X70157Y42862D01*
X70295Y42786D01*
X70420Y42737D01*
X70533Y42715D01*
X70632Y42720D01*
X70718Y42752D01*
X70791Y42811D01*
X69449Y41351D01*
X69502Y41429D01*
X69528Y41521D01*
X69528Y41625D01*
X69500Y41743D01*
X69447Y41873D01*
X69366Y42016D01*
X69259Y42172D01*
X69125Y42340D01*
X68964Y42522D01*
X68777Y42716D01*
X69473Y43435D01*
X69663Y43251D01*
D02*
G37*
G36*
X20091Y39600D02*
X20081Y39695D01*
X20051Y39780D01*
X20001Y39855D01*
X19931Y39920D01*
X19841Y39975D01*
X19731Y40020D01*
X19601Y40055D01*
X19451Y40080D01*
X19281Y40095D01*
X19091Y40100D01*
Y41100D01*
X19281Y41105D01*
X19451Y41120D01*
X19601Y41145D01*
X19731Y41180D01*
X19841Y41225D01*
X19931Y41280D01*
X20001Y41345D01*
X20051Y41420D01*
X20081Y41505D01*
X20091Y41600D01*
Y39600D01*
D02*
G37*
G36*
X68275Y41763D02*
X68343Y41685D01*
X68369Y41653D01*
X68358Y41600D01*
X68531Y40732D01*
X69023Y39996D01*
X69759Y39504D01*
X70510Y39355D01*
Y38845D01*
X69759Y38696D01*
X69023Y38204D01*
X68983Y38145D01*
X68805Y38129D01*
X53903D01*
X47681Y44351D01*
X47185Y44682D01*
X46600Y44799D01*
X44592D01*
X44462Y45282D01*
X44493Y45299D01*
X45265Y46072D01*
X45812Y47018D01*
X46094Y48073D01*
Y49166D01*
X45812Y50221D01*
X45265Y51168D01*
X44862Y51571D01*
X45069Y52071D01*
X57967D01*
X68275Y41763D01*
D02*
G37*
G36*
X38078Y47018D02*
X38624Y46072D01*
X39397Y45299D01*
X39427Y45282D01*
X39298Y44799D01*
X38769D01*
X38184Y44682D01*
X37688Y44351D01*
X31383Y38046D01*
X30921Y38237D01*
Y43810D01*
X34201Y47090D01*
X38059D01*
X38078Y47018D01*
D02*
G37*
G36*
X69945Y35609D02*
X69931Y35703D01*
X69888Y35786D01*
X69817Y35860D01*
X69717Y35923D01*
X69589Y35977D01*
X69433Y36022D01*
X69247Y36056D01*
X69034Y36080D01*
X68792Y36095D01*
X68521Y36100D01*
Y37100D01*
X68792Y37105D01*
X69247Y37144D01*
X69433Y37179D01*
X69589Y37223D01*
X69717Y37277D01*
X69817Y37340D01*
X69888Y37414D01*
X69931Y37497D01*
X69945Y37591D01*
Y35609D01*
D02*
G37*
G36*
Y30610D02*
X69931Y30703D01*
X69888Y30786D01*
X69817Y30860D01*
X69717Y30923D01*
X69589Y30977D01*
X69433Y31021D01*
X69247Y31056D01*
X69034Y31080D01*
X68792Y31095D01*
X68521Y31100D01*
Y32100D01*
X68792Y32105D01*
X69247Y32144D01*
X69433Y32179D01*
X69589Y32223D01*
X69717Y32277D01*
X69817Y32340D01*
X69888Y32414D01*
X69931Y32497D01*
X69945Y32590D01*
Y30610D01*
D02*
G37*
G36*
Y25609D02*
X69931Y25703D01*
X69888Y25786D01*
X69817Y25860D01*
X69717Y25923D01*
X69589Y25977D01*
X69433Y26022D01*
X69247Y26056D01*
X69034Y26080D01*
X68792Y26095D01*
X68521Y26100D01*
Y27100D01*
X68792Y27105D01*
X69247Y27144D01*
X69433Y27178D01*
X69589Y27223D01*
X69717Y27277D01*
X69817Y27340D01*
X69888Y27414D01*
X69931Y27497D01*
X69945Y27591D01*
Y25609D01*
D02*
G37*
G36*
X29001Y22553D02*
X29016Y22381D01*
X29041Y22229D01*
X29076Y22098D01*
X29121Y21986D01*
X29176Y21895D01*
X29241Y21825D01*
X29316Y21774D01*
X29401Y21744D01*
X29496Y21734D01*
X27496D01*
X27591Y21744D01*
X27676Y21774D01*
X27751Y21825D01*
X27816Y21895D01*
X27871Y21986D01*
X27916Y22098D01*
X27951Y22229D01*
X27976Y22381D01*
X27991Y22553D01*
X27996Y22746D01*
X28996D01*
X29001Y22553D01*
D02*
G37*
G36*
X22505D02*
X22520Y22381D01*
X22545Y22229D01*
X22580Y22098D01*
X22625Y21986D01*
X22680Y21895D01*
X22745Y21825D01*
X22820Y21774D01*
X22905Y21744D01*
X23000Y21734D01*
X21000D01*
X21095Y21744D01*
X21180Y21774D01*
X21255Y21825D01*
X21320Y21895D01*
X21375Y21986D01*
X21420Y22098D01*
X21455Y22229D01*
X21480Y22381D01*
X21495Y22553D01*
X21500Y22746D01*
X22500D01*
X22505Y22553D01*
D02*
G37*
G36*
X20339Y18309D02*
X20331Y18364D01*
X20307Y18414D01*
X20268Y18458D01*
X20212Y18495D01*
X20141Y18527D01*
X20054Y18553D01*
X19951Y18574D01*
X19833Y18588D01*
X19698Y18597D01*
X19548Y18600D01*
Y19600D01*
X19698Y19603D01*
X19951Y19626D01*
X20054Y19647D01*
X20141Y19673D01*
X20212Y19705D01*
X20268Y19742D01*
X20307Y19786D01*
X20331Y19836D01*
X20339Y19891D01*
Y18309D01*
D02*
G37*
%LPC*%
G36*
X69000Y95525D02*
X65842D01*
Y93352D01*
X69000D01*
Y95525D01*
D02*
G37*
G36*
Y92352D02*
X65842D01*
Y90179D01*
X69000D01*
Y92352D01*
D02*
G37*
G36*
X121158Y95525D02*
X118000D01*
Y93352D01*
X121158D01*
Y95525D01*
D02*
G37*
G36*
Y92352D02*
X118000D01*
Y90179D01*
X121158D01*
Y92352D01*
D02*
G37*
G36*
X168500Y75521D02*
X165342D01*
Y73348D01*
X168500D01*
Y75521D01*
D02*
G37*
G36*
Y72348D02*
X165342D01*
Y70175D01*
X168500D01*
Y72348D01*
D02*
G37*
G36*
Y57021D02*
X165342D01*
Y54848D01*
X168500D01*
Y57021D01*
D02*
G37*
G36*
Y53848D02*
X165342D01*
Y51675D01*
X168500D01*
Y53848D01*
D02*
G37*
G36*
X142245Y32769D02*
X142199D01*
X141143Y32486D01*
X140197Y31940D01*
X139424Y31168D01*
X138878Y30221D01*
X138595Y29166D01*
Y29120D01*
X142245D01*
Y32769D01*
D02*
G37*
%LPD*%
D13*
X8843Y54843D02*
X10586Y53100D01*
X8843Y62432D02*
X10586Y64175D01*
X11827D01*
X10586Y53100D02*
X19900D01*
X11827Y64175D02*
X13000Y65348D01*
X8843Y54843D02*
Y62432D01*
X128673Y132179D02*
X131921D01*
X135000Y129100D01*
X127500Y133352D02*
X128673Y132179D01*
X120235Y72035D02*
Y74835D01*
X121000Y75600D01*
X119800Y71600D02*
X120235Y72035D01*
X142745Y38620D02*
X146264Y35100D01*
X153752D01*
X142745Y48620D02*
X145225Y51100D01*
X153752D01*
X149277Y65152D02*
X153252D01*
X142745Y58620D02*
X149277Y65152D01*
X153252D02*
Y68100D01*
X27996Y61600D02*
X30976Y58620D01*
X41945D01*
X28496Y19100D02*
Y25171D01*
X41945Y38620D01*
X28248Y92316D02*
Y102100D01*
Y92316D02*
X41945Y78620D01*
Y98620D02*
X49425Y106100D01*
X50752D01*
Y109600D01*
X127500Y139848D02*
X133600D01*
X147394Y126054D01*
Y113269D02*
Y126054D01*
X142745Y108620D02*
X147394Y113269D01*
X74526Y76600D02*
X78441Y85941D01*
Y88524D01*
X79658Y89740D01*
Y122494D01*
X64052Y138100D02*
X79658Y122494D01*
X55252Y138100D02*
X64052D01*
X51000Y133848D02*
X55252Y138100D01*
X19548Y19100D02*
X22000D01*
X16300Y22348D02*
X19548Y19100D01*
X14000Y22348D02*
X16300D01*
X22000Y19100D02*
Y26500D01*
X38769Y43269D01*
X46600D01*
X53269Y36600D01*
X74526D01*
X21752Y40600D02*
Y44100D01*
X31252Y53600D01*
X58600D01*
X70600Y41600D01*
X74526D01*
X18948Y40600D02*
X21752D01*
X16200Y43348D02*
X18948Y40600D01*
X13500Y43348D02*
X16200D01*
X13000Y65348D02*
X17752D01*
X21500Y61600D01*
X74526Y46600D02*
X82500D01*
X85500Y43600D01*
X160248Y34100D02*
X169000D01*
X160248D02*
Y35100D01*
Y26248D02*
Y34100D01*
X110474Y36600D02*
X125400D01*
X138100Y23900D01*
X157900D01*
X160248Y26248D01*
X14500Y86600D02*
X18752D01*
X22252Y83100D01*
X11800Y86600D02*
X14500D01*
X10300Y85100D02*
X11800Y86600D01*
X10300Y73500D02*
Y85100D01*
Y73500D02*
X15000Y68800D01*
X28400D01*
X33900Y63300D01*
X52300D01*
X64000Y51600D01*
X74526D01*
X14500Y98600D02*
X18252D01*
X21752Y102100D01*
Y105100D01*
X22952Y106300D01*
X33095D01*
X37295Y102100D01*
Y86105D02*
Y102100D01*
Y86105D02*
X39700Y83700D01*
X51000D01*
X55800Y78900D01*
Y63750D02*
Y78900D01*
Y63750D02*
X62950Y56600D01*
X74526D01*
X110474Y41600D02*
X126900D01*
X129200Y43900D01*
X158000D01*
X160248Y46148D01*
Y51100D01*
X163496Y47852D02*
X169000D01*
X160248Y51100D02*
X163496Y47852D01*
X110474Y46600D02*
X119900D01*
X161000Y59600D02*
Y62100D01*
X165252Y66352D01*
X169000D01*
X159748Y68100D02*
X161000Y66848D01*
X169000Y66352D01*
X110474Y51600D02*
X136400D01*
X138100Y53300D01*
X147400D01*
X156500Y62400D01*
Y72552D01*
X159748Y75800D01*
Y84100D01*
X163700D01*
X163952Y84352D01*
X168000D01*
X66800Y61600D02*
X74526D01*
X62300Y66100D02*
X66800Y61600D01*
X62300Y66100D02*
Y94548D01*
X57748Y99100D02*
X62300Y94548D01*
X65000Y99348D02*
X69500D01*
X57748Y99100D02*
X65000Y99348D01*
X117500D02*
X121504D01*
X124752Y96100D01*
X108700Y99348D02*
X117500D01*
X103800Y94448D02*
X108700Y99348D01*
X103800Y57800D02*
Y94448D01*
Y57800D02*
X105000Y56600D01*
X110474D01*
X117500Y111348D02*
X121504D01*
X124752Y108100D01*
X110474Y61600D02*
X121600D01*
X133970Y73970D01*
X145170D01*
X149400Y78200D01*
Y138800D01*
X143000Y145200D02*
X149400Y138800D01*
X115000Y145200D02*
X143000D01*
X109000Y139200D02*
X115000Y145200D01*
X109000Y116448D02*
Y139200D01*
Y116448D02*
X114100Y111348D01*
X117500D01*
X57248Y109587D02*
X62487D01*
X69500Y111348D02*
X75658Y105190D01*
Y93787D02*
Y105190D01*
X74394Y92524D02*
X75658Y93787D01*
X74394Y89111D02*
Y92524D01*
X64300Y79017D02*
X74394Y89111D01*
X64300Y69300D02*
Y79017D01*
Y69300D02*
X67000Y66600D01*
X74526D01*
X57248Y109587D02*
Y109600D01*
X62487Y109587D02*
X64248Y111348D01*
X69500D01*
Y116852D02*
X73000D01*
X77658Y112194D01*
Y91787D02*
Y112194D01*
X76394Y90524D02*
X77658Y91787D01*
X76394Y87100D02*
Y90524D01*
X67900Y78606D02*
X76394Y87100D01*
X67900Y72700D02*
Y78606D01*
Y72700D02*
X74526Y71600D01*
X57748Y118100D02*
X63000D01*
X64248Y116852D01*
X69500D01*
X125243Y120281D02*
X128000Y120252D01*
X118500Y120352D02*
X125243Y120281D01*
X110474Y66600D02*
X121800D01*
X128000Y72800D01*
Y120252D01*
X122248Y121100D02*
X125252D01*
X121500Y120352D02*
X122248Y121100D01*
X118500Y120352D02*
X121500D01*
X110474Y71600D02*
X119800D01*
X119000Y133352D02*
X127500D01*
X28748Y74100D02*
Y83100D01*
Y74100D02*
X34228Y68620D01*
X41945D01*
X33568Y48620D02*
X41945D01*
X28248Y43300D02*
X33568Y48620D01*
X28248Y40600D02*
Y43300D01*
X131248Y90116D02*
Y96100D01*
Y90116D02*
X142745Y78620D01*
X131248Y105352D02*
Y108100D01*
Y105352D02*
X136300Y100300D01*
Y95064D02*
Y100300D01*
Y95064D02*
X142745Y88620D01*
X131748Y117952D02*
Y121100D01*
Y117952D02*
X136300Y113400D01*
Y105064D02*
Y113400D01*
Y105064D02*
X142745Y98620D01*
X41945Y88620D02*
X48852Y95527D01*
X51252D01*
Y99100D01*
X142745Y68620D02*
X153252Y79127D01*
Y84100D01*
X49000Y117100D02*
X51252D01*
X41945Y108620D02*
X46600Y113275D01*
Y114700D01*
X49000Y117100D01*
X51252D02*
Y118100D01*
X114352Y126848D02*
X117600D01*
Y129100D01*
X172200Y89648D02*
X173200Y88648D01*
X71900Y102900D02*
Y104852D01*
X169000Y54348D02*
X172000D01*
X173200Y55548D01*
Y88648D01*
X168000Y90848D02*
X171000D01*
X169000Y72848D02*
X172200D01*
Y89648D01*
X171000Y90848D02*
X172200Y89648D01*
X113000Y128200D02*
X114352Y126848D01*
X108100Y104852D02*
X117500D01*
X108100Y92852D02*
X117500D01*
X13000Y58852D02*
X16890D01*
X18300Y57442D01*
X25258D01*
X26600Y56100D01*
Y54100D02*
Y56100D01*
X20800Y48300D02*
X26600Y54100D01*
X11500Y48300D02*
X20800D01*
X9300Y46100D02*
X11500Y48300D01*
X9300Y38100D02*
Y46100D01*
Y38100D02*
X10548Y36852D01*
X13500D01*
X117600Y126848D02*
X118500D01*
X116521Y130179D02*
X117600Y129100D01*
X114842Y130179D02*
X116521D01*
X114842D02*
Y136342D01*
X118348Y139848D01*
X119000D01*
X69500Y104852D02*
X71900D01*
Y102900D02*
X73258D01*
X73658Y102500D01*
Y96010D02*
Y102500D01*
X70500Y92852D02*
X73658Y96010D01*
X69500Y92852D02*
X70500D01*
X142745Y28620D02*
X145025Y30900D01*
X157000D01*
Y38596D01*
X159000Y40596D01*
X169000D01*
X173200Y44796D01*
Y50148D01*
X169000Y54348D02*
X173200Y50148D01*
X110474Y21600D02*
X129764D01*
X142745Y8620D01*
X110474Y26600D02*
X130500D01*
X138480Y18620D01*
X142745D01*
X41945D02*
X49925Y26600D01*
X74526D01*
X41945Y28620D02*
X44925Y31600D01*
X74526D01*
X48000Y124675D02*
Y127352D01*
X41945Y118620D02*
X48000Y124675D01*
Y127352D02*
X51000D01*
X59500D01*
X110474Y76600D02*
X116400D01*
Y84700D01*
D15*
X28248Y40600D02*
D03*
X21752D02*
D03*
X28496Y19100D02*
D03*
X22000D02*
D03*
X131248Y96100D02*
D03*
X124752D02*
D03*
X131248Y108100D02*
D03*
X124752D02*
D03*
X131748Y121100D02*
D03*
X125252D02*
D03*
X22252Y83100D02*
D03*
X28748D02*
D03*
X21752Y102100D02*
D03*
X28248D02*
D03*
X57748Y99100D02*
D03*
X51252D02*
D03*
X57748Y118100D02*
D03*
X51252D02*
D03*
X57248Y109600D02*
D03*
X50752D02*
D03*
X21500Y61600D02*
D03*
X27996D02*
D03*
X153752Y35100D02*
D03*
X160248D02*
D03*
X153752Y51100D02*
D03*
X160248D02*
D03*
X153252Y68100D02*
D03*
X159748D02*
D03*
X153252Y84100D02*
D03*
X159748D02*
D03*
D16*
X127500Y133352D02*
D03*
Y139848D02*
D03*
X119000D02*
D03*
Y133352D02*
D03*
X59500Y133848D02*
D03*
Y127352D02*
D03*
X51000D02*
D03*
Y133848D02*
D03*
X169000Y34100D02*
D03*
Y40596D02*
D03*
Y47852D02*
D03*
Y54348D02*
D03*
Y66352D02*
D03*
Y72848D02*
D03*
X117500Y99348D02*
D03*
Y92852D02*
D03*
Y111348D02*
D03*
Y104852D02*
D03*
X118500Y120352D02*
D03*
Y126848D02*
D03*
X14000Y22348D02*
D03*
Y15852D02*
D03*
X13500Y43348D02*
D03*
Y36852D02*
D03*
X13000Y65348D02*
D03*
Y58852D02*
D03*
X14500Y86600D02*
D03*
Y80104D02*
D03*
Y98600D02*
D03*
Y105096D02*
D03*
X69500Y99348D02*
D03*
Y92852D02*
D03*
Y116852D02*
D03*
Y123348D02*
D03*
Y111348D02*
D03*
Y104852D02*
D03*
X168000Y84352D02*
D03*
Y90848D02*
D03*
D17*
X110474Y76600D02*
D03*
Y71600D02*
D03*
Y66600D02*
D03*
Y61600D02*
D03*
Y56600D02*
D03*
Y51600D02*
D03*
Y46600D02*
D03*
Y41600D02*
D03*
Y36600D02*
D03*
Y31600D02*
D03*
Y26600D02*
D03*
Y21600D02*
D03*
X74526D02*
D03*
Y26600D02*
D03*
Y31600D02*
D03*
Y36600D02*
D03*
Y41600D02*
D03*
Y46600D02*
D03*
Y51600D02*
D03*
Y56600D02*
D03*
Y61600D02*
D03*
Y66600D02*
D03*
Y71600D02*
D03*
D18*
Y76600D02*
D03*
D24*
X142745Y8620D02*
D03*
Y18620D02*
D03*
Y28620D02*
D03*
Y48620D02*
D03*
Y58620D02*
D03*
Y78620D02*
D03*
Y98620D02*
D03*
Y108620D02*
D03*
Y88620D02*
D03*
Y68620D02*
D03*
Y38620D02*
D03*
X41945D02*
D03*
Y68620D02*
D03*
Y88620D02*
D03*
Y108620D02*
D03*
Y98620D02*
D03*
Y78620D02*
D03*
Y58620D02*
D03*
Y48620D02*
D03*
Y28620D02*
D03*
Y18620D02*
D03*
Y8620D02*
D03*
D25*
X142745Y118620D02*
D03*
X41945D02*
D03*
D26*
X135000Y129100D02*
D03*
X121000Y75600D02*
D03*
X85500Y43600D02*
D03*
X19900Y53100D02*
D03*
X119900Y46600D02*
D03*
X161000Y59600D02*
D03*
X113000Y128200D02*
D03*
X108100Y104852D02*
D03*
Y92852D02*
D03*
X116400Y84700D02*
D03*
M02*
