G04*
G04 #@! TF.GenerationSoftware,Altium Limited,Altium Designer,22.2.1 (43)*
G04*
G04 Layer_Color=16711935*
%FSLAX25Y25*%
%MOIN*%
G70*
G04*
G04 #@! TF.SameCoordinates,2AA56CA8-B71A-46B7-BD27-B25D333C2BD2*
G04*
G04*
G04 #@! TF.FilePolarity,Positive*
G04*
G01*
G75*
%ADD28C,0.00394*%
D28*
X147745Y3620D02*
Y123620D01*
X137745Y3620D02*
Y123620D01*
X147745D01*
X137745Y3620D02*
X147745D01*
X29331Y37746D02*
Y43454D01*
X20669Y37746D02*
Y43454D01*
Y37746D02*
X29331D01*
X20669Y43454D02*
X29331D01*
X29579Y16246D02*
Y21954D01*
X20917Y16246D02*
Y21954D01*
Y16246D02*
X29579D01*
X20917Y21954D02*
X29579D01*
X124646Y132269D02*
X130354D01*
X124646Y140931D02*
X130354D01*
X124646Y132269D02*
Y140931D01*
X130354Y132269D02*
Y140931D01*
X116146D02*
X121854D01*
X116146Y132269D02*
X121854D01*
Y140931D01*
X116146Y132269D02*
Y140931D01*
X56646Y134931D02*
X62354D01*
X56646Y126269D02*
X62354D01*
Y134931D01*
X56646Y126269D02*
Y134931D01*
X48146Y126269D02*
X53854D01*
X48146Y134931D02*
X53854D01*
X48146Y126269D02*
Y134931D01*
X53854Y126269D02*
Y134931D01*
X166146Y33017D02*
Y41679D01*
X171854Y33017D02*
Y41679D01*
X166146Y33017D02*
X171854D01*
X166146Y41679D02*
X171854D01*
X166146Y46769D02*
Y55431D01*
X171854Y46769D02*
Y55431D01*
X166146Y46769D02*
X171854D01*
X166146Y55431D02*
X171854D01*
X166146Y65269D02*
Y73931D01*
X171854Y65269D02*
Y73931D01*
X166146Y65269D02*
X171854D01*
X166146Y73931D02*
X171854D01*
X123669Y93246D02*
X132331D01*
X123669Y98954D02*
X132331D01*
Y93246D02*
Y98954D01*
X123669Y93246D02*
Y98954D01*
X120354Y91769D02*
Y100431D01*
X114646Y91769D02*
Y100431D01*
X120354D01*
X114646Y91769D02*
X120354D01*
Y103769D02*
Y112431D01*
X114646Y103769D02*
Y112431D01*
X120354D01*
X114646Y103769D02*
X120354D01*
X123669Y105246D02*
X132331D01*
X123669Y110954D02*
X132331D01*
Y105246D02*
Y110954D01*
X123669Y105246D02*
Y110954D01*
X115646Y119269D02*
Y127931D01*
X121354Y119269D02*
Y127931D01*
X115646Y119269D02*
X121354D01*
X115646Y127931D02*
X121354D01*
X124169Y118246D02*
X132831D01*
X124169Y123954D02*
X132831D01*
Y118246D02*
Y123954D01*
X124169Y118246D02*
Y123954D01*
X16854Y14769D02*
Y23431D01*
X11146Y14769D02*
Y23431D01*
X16854D01*
X11146Y14769D02*
X16854D01*
X16354Y35769D02*
Y44431D01*
X10646Y35769D02*
Y44431D01*
X16354D01*
X10646Y35769D02*
X16354D01*
X15854Y57769D02*
Y66431D01*
X10146Y57769D02*
Y66431D01*
X15854D01*
X10146Y57769D02*
X15854D01*
X21169Y85954D02*
X29831D01*
X21169Y80246D02*
X29831D01*
X21169D02*
Y85954D01*
X29831Y80246D02*
Y85954D01*
X17354Y79021D02*
Y87683D01*
X11646Y79021D02*
Y87683D01*
X17354D01*
X11646Y79021D02*
X17354D01*
X20669Y104954D02*
X29331D01*
X20669Y99246D02*
X29331D01*
X20669D02*
Y104954D01*
X29331Y99246D02*
Y104954D01*
X11646Y97517D02*
Y106179D01*
X17354Y97517D02*
Y106179D01*
X11646Y97517D02*
X17354D01*
X11646Y106179D02*
X17354D01*
X72354Y91769D02*
Y100431D01*
X66646Y91769D02*
Y100431D01*
X72354D01*
X66646Y91769D02*
X72354D01*
X50169Y96246D02*
X58831D01*
X50169Y101954D02*
X58831D01*
Y96246D02*
Y101954D01*
X50169Y96246D02*
Y101954D01*
Y115246D02*
X58831D01*
X50169Y120954D02*
X58831D01*
Y115246D02*
Y120954D01*
X50169Y115246D02*
Y120954D01*
X49669Y106746D02*
X58331D01*
X49669Y112454D02*
X58331D01*
Y106746D02*
Y112454D01*
X49669Y106746D02*
Y112454D01*
X66646Y115769D02*
Y124431D01*
X72354Y115769D02*
Y124431D01*
X66646Y115769D02*
X72354D01*
X66646Y124431D02*
X72354D01*
Y103769D02*
Y112431D01*
X66646Y103769D02*
Y112431D01*
X72354D01*
X66646Y103769D02*
X72354D01*
X36945Y3620D02*
X46945D01*
X36945Y123620D02*
X46945D01*
X36945Y3620D02*
Y123620D01*
X46945Y3620D02*
Y123620D01*
X20417Y64454D02*
X29079D01*
X20417Y58746D02*
X29079D01*
X20417D02*
Y64454D01*
X29079Y58746D02*
Y64454D01*
X152669Y37954D02*
X161331D01*
X152669Y32246D02*
X161331D01*
X152669D02*
Y37954D01*
X161331Y32246D02*
Y37954D01*
X152669Y53954D02*
X161331D01*
X152669Y48246D02*
X161331D01*
X152669D02*
Y53954D01*
X161331Y48246D02*
Y53954D01*
X152169Y70954D02*
X160831D01*
X152169Y65246D02*
X160831D01*
X152169D02*
Y70954D01*
X160831Y65246D02*
Y70954D01*
X152169Y86954D02*
X160831D01*
X152169Y81246D02*
X160831D01*
X152169D02*
Y86954D01*
X160831Y81246D02*
Y86954D01*
X165146Y83269D02*
Y91931D01*
X170854Y83269D02*
Y91931D01*
X165146Y83269D02*
X170854D01*
X165146Y91931D02*
X170854D01*
M02*
