G04*
G04 #@! TF.GenerationSoftware,Altium Limited,Altium Designer,22.2.1 (43)*
G04*
G04 Layer_Color=8388736*
%FSLAX25Y25*%
%MOIN*%
G70*
G04*
G04 #@! TF.SameCoordinates,A442F040-2D2B-445B-BC8B-0DACE6EA8BBB*
G04*
G04*
G04 #@! TF.FilePolarity,Negative*
G04*
G01*
G75*
%ADD21R,0.06417X0.08584*%
%ADD25R,0.05750X0.02100*%
G04:AMPARAMS|DCode=26|XSize=102.47mil|YSize=24.49mil|CornerRadius=12.25mil|HoleSize=0mil|Usage=FLASHONLY|Rotation=0.000|XOffset=0mil|YOffset=0mil|HoleType=Round|Shape=RoundedRectangle|*
%AMROUNDEDRECTD26*
21,1,0.10247,0.00000,0,0,0.0*
21,1,0.07798,0.02449,0,0,0.0*
1,1,0.02449,0.03899,0.00000*
1,1,0.02449,-0.03899,0.00000*
1,1,0.02449,-0.03899,0.00000*
1,1,0.02449,0.03899,0.00000*
%
%ADD26ROUNDEDRECTD26*%
%ADD27R,0.10247X0.02449*%
%ADD28R,0.05400X0.03000*%
%ADD29R,0.07800X0.11000*%
%ADD30R,0.07107X0.02410*%
G04:AMPARAMS|DCode=31|XSize=71.07mil|YSize=24.1mil|CornerRadius=12.05mil|HoleSize=0mil|Usage=FLASHONLY|Rotation=0.000|XOffset=0mil|YOffset=0mil|HoleType=Round|Shape=RoundedRectangle|*
%AMROUNDEDRECTD31*
21,1,0.07107,0.00000,0,0,0.0*
21,1,0.04697,0.02410,0,0,0.0*
1,1,0.02410,0.02349,0.00000*
1,1,0.02410,-0.02349,0.00000*
1,1,0.02410,-0.02349,0.00000*
1,1,0.02410,0.02349,0.00000*
%
%ADD31ROUNDEDRECTD31*%
G04:AMPARAMS|DCode=34|XSize=59.46mil|YSize=16.23mil|CornerRadius=8.11mil|HoleSize=0mil|Usage=FLASHONLY|Rotation=90.000|XOffset=0mil|YOffset=0mil|HoleType=Round|Shape=RoundedRectangle|*
%AMROUNDEDRECTD34*
21,1,0.05946,0.00000,0,0,90.0*
21,1,0.04324,0.01623,0,0,90.0*
1,1,0.01623,0.00000,0.02162*
1,1,0.01623,0.00000,-0.02162*
1,1,0.01623,0.00000,-0.02162*
1,1,0.01623,0.00000,0.02162*
%
%ADD34ROUNDEDRECTD34*%
%ADD35R,0.01623X0.05946*%
G04:AMPARAMS|DCode=36|XSize=70.11mil|YSize=24.1mil|CornerRadius=12.05mil|HoleSize=0mil|Usage=FLASHONLY|Rotation=90.000|XOffset=0mil|YOffset=0mil|HoleType=Round|Shape=RoundedRectangle|*
%AMROUNDEDRECTD36*
21,1,0.07011,0.00000,0,0,90.0*
21,1,0.04601,0.02410,0,0,90.0*
1,1,0.02410,0.00000,0.02301*
1,1,0.02410,0.00000,-0.02301*
1,1,0.02410,0.00000,-0.02301*
1,1,0.02410,0.00000,0.02301*
%
%ADD36ROUNDEDRECTD36*%
%ADD37R,0.02410X0.07011*%
%ADD39R,0.02275X0.05269*%
G04:AMPARAMS|DCode=40|XSize=52.69mil|YSize=22.75mil|CornerRadius=11.38mil|HoleSize=0mil|Usage=FLASHONLY|Rotation=90.000|XOffset=0mil|YOffset=0mil|HoleType=Round|Shape=RoundedRectangle|*
%AMROUNDEDRECTD40*
21,1,0.05269,0.00000,0,0,90.0*
21,1,0.02993,0.02275,0,0,90.0*
1,1,0.02275,0.00000,0.01497*
1,1,0.02275,0.00000,-0.01497*
1,1,0.02275,0.00000,-0.01497*
1,1,0.02275,0.00000,0.01497*
%
%ADD40ROUNDEDRECTD40*%
G04:AMPARAMS|DCode=41|XSize=70.11mil|YSize=24.1mil|CornerRadius=12.05mil|HoleSize=0mil|Usage=FLASHONLY|Rotation=180.000|XOffset=0mil|YOffset=0mil|HoleType=Round|Shape=RoundedRectangle|*
%AMROUNDEDRECTD41*
21,1,0.07011,0.00000,0,0,180.0*
21,1,0.04601,0.02410,0,0,180.0*
1,1,0.02410,-0.02301,0.00000*
1,1,0.02410,0.02301,0.00000*
1,1,0.02410,0.02301,0.00000*
1,1,0.02410,-0.02301,0.00000*
%
%ADD41ROUNDEDRECTD41*%
%ADD42R,0.07011X0.02410*%
%ADD43R,0.04353X0.06299*%
%ADD44R,0.01100X0.05250*%
%ADD45R,0.06115X0.04147*%
%ADD46R,0.06115X0.11824*%
%ADD47R,0.13595X0.04934*%
%ADD48R,0.04147X0.06115*%
%ADD49O,0.03162X0.09461*%
%ADD50R,0.04540X0.07493*%
%ADD51R,0.22453X0.27572*%
%ADD52R,0.04934X0.13595*%
%ADD53C,0.15300*%
%ADD54C,0.07099*%
%ADD55R,0.07099X0.07099*%
%ADD56C,0.06700*%
%ADD57C,0.06400*%
%ADD58C,0.09900*%
%ADD59C,0.08800*%
%ADD60C,0.05000*%
%ADD61R,0.05918X0.05918*%
%ADD62C,0.05918*%
%ADD63C,0.08200*%
%ADD64C,0.15800*%
%ADD65C,0.11200*%
%ADD66C,0.05800*%
D21*
X645154Y227920D02*
D03*
Y213296D02*
D03*
X645233Y322692D02*
D03*
Y308069D02*
D03*
X602241Y119058D02*
D03*
Y133681D02*
D03*
X110970Y429192D02*
D03*
Y443815D02*
D03*
X110985Y183610D02*
D03*
Y198234D02*
D03*
X110989Y306515D02*
D03*
Y321139D02*
D03*
X645206Y403004D02*
D03*
Y417627D02*
D03*
D25*
X611752Y195817D02*
D03*
Y190817D02*
D03*
Y185817D02*
D03*
Y180817D02*
D03*
X633202D02*
D03*
Y185817D02*
D03*
Y190817D02*
D03*
Y195817D02*
D03*
X611831Y290589D02*
D03*
Y285589D02*
D03*
Y280589D02*
D03*
Y275589D02*
D03*
X633281D02*
D03*
Y280589D02*
D03*
Y285589D02*
D03*
Y290589D02*
D03*
X554195Y92069D02*
D03*
Y87069D02*
D03*
Y82069D02*
D03*
Y77069D02*
D03*
X532745D02*
D03*
Y82069D02*
D03*
Y87069D02*
D03*
Y92069D02*
D03*
X58929Y164672D02*
D03*
Y159672D02*
D03*
Y154672D02*
D03*
Y149672D02*
D03*
X37479D02*
D03*
Y154672D02*
D03*
Y159672D02*
D03*
Y164672D02*
D03*
X58913Y410254D02*
D03*
Y405254D02*
D03*
Y400254D02*
D03*
Y395254D02*
D03*
X37464D02*
D03*
Y400254D02*
D03*
Y405254D02*
D03*
Y410254D02*
D03*
X58932Y287578D02*
D03*
Y282577D02*
D03*
Y277577D02*
D03*
Y272578D02*
D03*
X37482D02*
D03*
Y277577D02*
D03*
Y282577D02*
D03*
Y287578D02*
D03*
X633254Y385524D02*
D03*
Y380524D02*
D03*
Y375524D02*
D03*
Y370524D02*
D03*
X611804D02*
D03*
Y375524D02*
D03*
Y380524D02*
D03*
Y385524D02*
D03*
D26*
X302721Y152747D02*
D03*
Y147747D02*
D03*
Y142747D02*
D03*
Y137747D02*
D03*
Y132747D02*
D03*
Y127747D02*
D03*
Y122747D02*
D03*
Y117747D02*
D03*
Y112747D02*
D03*
Y107747D02*
D03*
Y102747D02*
D03*
Y97747D02*
D03*
X266772D02*
D03*
Y102747D02*
D03*
Y107747D02*
D03*
Y112747D02*
D03*
Y117747D02*
D03*
Y122747D02*
D03*
Y127747D02*
D03*
Y132747D02*
D03*
Y137747D02*
D03*
Y142747D02*
D03*
Y147747D02*
D03*
D27*
Y152747D02*
D03*
D28*
X464898Y296012D02*
D03*
X453298D02*
D03*
D29*
X423038Y286047D02*
D03*
X439038D02*
D03*
D30*
X441848Y266599D02*
D03*
D31*
Y262859D02*
D03*
Y259119D02*
D03*
X450907D02*
D03*
Y266599D02*
D03*
D34*
X624290Y93491D02*
D03*
X626849D02*
D03*
X629408D02*
D03*
Y86397D02*
D03*
X626849D02*
D03*
X134929Y388188D02*
D03*
X137487D02*
D03*
X140047D02*
D03*
Y381094D02*
D03*
X137487D02*
D03*
X134943Y142606D02*
D03*
X137502D02*
D03*
X140061D02*
D03*
Y135513D02*
D03*
X137502D02*
D03*
X134947Y265512D02*
D03*
X137506D02*
D03*
X140065D02*
D03*
Y258418D02*
D03*
X137506D02*
D03*
D35*
X624290Y86397D02*
D03*
X134929Y381094D02*
D03*
X134943Y135513D02*
D03*
X134947Y258418D02*
D03*
D36*
X524368Y244573D02*
D03*
X528108Y237425D02*
D03*
X154770Y437678D02*
D03*
X158510Y430531D02*
D03*
X154784Y192096D02*
D03*
X158524Y184949D02*
D03*
X154788Y315002D02*
D03*
X158528Y307854D02*
D03*
D37*
X520627Y237425D02*
D03*
X151029Y430531D02*
D03*
X151044Y184949D02*
D03*
X151048Y307854D02*
D03*
D39*
X237667Y276365D02*
D03*
D40*
X241407D02*
D03*
X245147D02*
D03*
Y285154D02*
D03*
X237667D02*
D03*
D41*
X362350Y287456D02*
D03*
X369498Y291196D02*
D03*
D42*
Y283716D02*
D03*
D43*
X320134Y245209D02*
D03*
X309088D02*
D03*
D44*
X310699Y259390D02*
D03*
X312668D02*
D03*
X314636D02*
D03*
X316605D02*
D03*
X318573D02*
D03*
Y276840D02*
D03*
X316605D02*
D03*
X314636D02*
D03*
X312668D02*
D03*
X310699D02*
D03*
D45*
X566725Y88220D02*
D03*
Y94716D02*
D03*
X627582Y232533D02*
D03*
Y226037D02*
D03*
X627606Y217969D02*
D03*
Y211473D02*
D03*
X627661Y327306D02*
D03*
Y320810D02*
D03*
X627685Y312741D02*
D03*
Y306245D02*
D03*
X477163Y275365D02*
D03*
Y281861D02*
D03*
X429009Y261438D02*
D03*
Y267934D02*
D03*
X472034Y261332D02*
D03*
Y267828D02*
D03*
X481459Y261302D02*
D03*
Y267798D02*
D03*
X577531Y88128D02*
D03*
Y94624D02*
D03*
X463013Y275471D02*
D03*
Y281967D02*
D03*
X462883Y261438D02*
D03*
Y267935D02*
D03*
X577491Y74994D02*
D03*
Y81490D02*
D03*
X623918Y69001D02*
D03*
Y75497D02*
D03*
X631660Y69001D02*
D03*
Y75497D02*
D03*
X504955Y249022D02*
D03*
Y255518D02*
D03*
X505311Y235728D02*
D03*
Y242225D02*
D03*
X493548Y249146D02*
D03*
Y255642D02*
D03*
X493560Y235966D02*
D03*
Y242462D02*
D03*
X135380Y444490D02*
D03*
Y450986D02*
D03*
X79321Y405335D02*
D03*
Y411831D02*
D03*
X69798Y405141D02*
D03*
Y411637D02*
D03*
X79224Y392023D02*
D03*
Y398519D02*
D03*
X125290Y444490D02*
D03*
Y450986D02*
D03*
X135108Y355490D02*
D03*
Y361986D02*
D03*
X149081Y355624D02*
D03*
Y362120D02*
D03*
X125290Y431389D02*
D03*
Y437885D02*
D03*
X135681Y430937D02*
D03*
Y437433D02*
D03*
X125305Y185807D02*
D03*
Y192303D02*
D03*
X149096Y110042D02*
D03*
Y116538D02*
D03*
X135123Y109909D02*
D03*
Y116405D02*
D03*
X125305Y198909D02*
D03*
Y205405D02*
D03*
X79239Y146441D02*
D03*
Y152937D02*
D03*
X69813Y159559D02*
D03*
Y166056D02*
D03*
X79336Y159754D02*
D03*
Y166250D02*
D03*
X135696Y185355D02*
D03*
Y191851D02*
D03*
X135395Y198909D02*
D03*
Y205405D02*
D03*
X135399Y321814D02*
D03*
Y328310D02*
D03*
X135700Y308260D02*
D03*
Y314756D02*
D03*
X79340Y282659D02*
D03*
Y289155D02*
D03*
X69817Y282465D02*
D03*
Y288961D02*
D03*
X79243Y269346D02*
D03*
Y275842D02*
D03*
X125309Y321814D02*
D03*
Y328310D02*
D03*
X135127Y232814D02*
D03*
Y239310D02*
D03*
X149100Y232947D02*
D03*
Y239443D02*
D03*
X125309Y308712D02*
D03*
Y315208D02*
D03*
X627658Y401180D02*
D03*
Y407676D02*
D03*
X627634Y415744D02*
D03*
Y422240D02*
D03*
X229777Y277146D02*
D03*
Y283642D02*
D03*
D46*
X97063Y281625D02*
D03*
X108677D02*
D03*
X589979Y230176D02*
D03*
X578365D02*
D03*
X590058Y324949D02*
D03*
X578444D02*
D03*
X97059Y158720D02*
D03*
X108674D02*
D03*
X595747Y93306D02*
D03*
X607361D02*
D03*
X97044Y404302D02*
D03*
X108659D02*
D03*
X578417Y419884D02*
D03*
X590031D02*
D03*
D47*
X610960Y234370D02*
D03*
Y211536D02*
D03*
X611038Y329143D02*
D03*
Y306308D02*
D03*
X611012Y424078D02*
D03*
Y401243D02*
D03*
D48*
X649790Y200873D02*
D03*
X643294D02*
D03*
X649868Y295646D02*
D03*
X643372D02*
D03*
X643345Y390581D02*
D03*
X649841D02*
D03*
X244535Y264820D02*
D03*
X251031D02*
D03*
X238289Y264760D02*
D03*
X231793D02*
D03*
X352359Y245209D02*
D03*
X345863D02*
D03*
X370376Y245209D02*
D03*
X363880D02*
D03*
X352104Y267929D02*
D03*
X345608D02*
D03*
X369750Y267994D02*
D03*
X363254D02*
D03*
X352188Y254028D02*
D03*
X345692D02*
D03*
X370118Y254295D02*
D03*
X363622D02*
D03*
X308960Y293613D02*
D03*
X315456D02*
D03*
X321483Y293615D02*
D03*
X327979D02*
D03*
X308906Y303410D02*
D03*
X315402D02*
D03*
X321500Y303488D02*
D03*
X327996D02*
D03*
D49*
X577308Y197628D02*
D03*
X582307D02*
D03*
X587308D02*
D03*
X592308D02*
D03*
X577308Y216526D02*
D03*
X582307D02*
D03*
X587308D02*
D03*
X592308D02*
D03*
X577386Y292401D02*
D03*
X582386D02*
D03*
X587386D02*
D03*
X592386D02*
D03*
X577386Y311299D02*
D03*
X582386D02*
D03*
X587386D02*
D03*
X592386D02*
D03*
X609797Y79304D02*
D03*
X604797D02*
D03*
X599797D02*
D03*
X594797D02*
D03*
X609797Y60406D02*
D03*
X604797D02*
D03*
X599797D02*
D03*
X594797D02*
D03*
X111353Y389878D02*
D03*
X106353D02*
D03*
X101353D02*
D03*
X96353D02*
D03*
X111353Y370980D02*
D03*
X106353D02*
D03*
X101353D02*
D03*
X96353D02*
D03*
X111368Y144296D02*
D03*
X106368D02*
D03*
X101368D02*
D03*
X96368D02*
D03*
X111368Y125398D02*
D03*
X106368D02*
D03*
X101368D02*
D03*
X96368D02*
D03*
X111372Y267201D02*
D03*
X106372D02*
D03*
X101372D02*
D03*
X96372D02*
D03*
X111372Y248303D02*
D03*
X106372D02*
D03*
X101372D02*
D03*
X96372D02*
D03*
X592359Y406233D02*
D03*
X587359D02*
D03*
X582359D02*
D03*
X577359D02*
D03*
X592359Y387336D02*
D03*
X587359D02*
D03*
X582359D02*
D03*
X577359D02*
D03*
D50*
X651430Y80110D02*
D03*
X669461D02*
D03*
X159177Y126120D02*
D03*
X177209D02*
D03*
X159162Y371702D02*
D03*
X177194D02*
D03*
X159181Y249025D02*
D03*
X177213D02*
D03*
D51*
X660445Y106094D02*
D03*
X168193Y152104D02*
D03*
X168178Y397686D02*
D03*
X168197Y275009D02*
D03*
D52*
X147550Y409573D02*
D03*
X124716D02*
D03*
X147565Y163991D02*
D03*
X124731D02*
D03*
X147569Y286896D02*
D03*
X124734D02*
D03*
D53*
X50000Y460013D02*
D03*
Y47500D02*
D03*
X650000D02*
D03*
Y460013D02*
D03*
D54*
X18892Y127309D02*
D03*
Y147309D02*
D03*
Y157309D02*
D03*
Y137309D02*
D03*
X19752Y253663D02*
D03*
Y273663D02*
D03*
Y283663D02*
D03*
Y263663D02*
D03*
X18657Y376225D02*
D03*
Y396225D02*
D03*
Y406225D02*
D03*
Y386225D02*
D03*
X336176Y104766D02*
D03*
Y134766D02*
D03*
Y154766D02*
D03*
Y174766D02*
D03*
Y164766D02*
D03*
Y144766D02*
D03*
Y124766D02*
D03*
Y114766D02*
D03*
Y94766D02*
D03*
Y84766D02*
D03*
Y74766D02*
D03*
X235385D02*
D03*
Y84766D02*
D03*
Y94766D02*
D03*
Y114766D02*
D03*
Y124766D02*
D03*
Y144766D02*
D03*
Y164766D02*
D03*
Y174766D02*
D03*
Y154766D02*
D03*
Y134766D02*
D03*
Y104766D02*
D03*
X479666Y185097D02*
D03*
Y175097D02*
D03*
Y145097D02*
D03*
Y135097D02*
D03*
Y125097D02*
D03*
Y105097D02*
D03*
Y95097D02*
D03*
Y75097D02*
D03*
Y55097D02*
D03*
Y45097D02*
D03*
Y65097D02*
D03*
Y85097D02*
D03*
Y115097D02*
D03*
Y155097D02*
D03*
Y165097D02*
D03*
X399717Y155097D02*
D03*
Y125097D02*
D03*
Y105097D02*
D03*
Y85097D02*
D03*
Y95097D02*
D03*
Y115097D02*
D03*
Y135097D02*
D03*
Y145097D02*
D03*
Y165097D02*
D03*
Y175097D02*
D03*
Y185097D02*
D03*
D55*
X18892Y167309D02*
D03*
X19752Y293663D02*
D03*
X18657Y416225D02*
D03*
X336176Y184766D02*
D03*
X235385D02*
D03*
X479666Y35097D02*
D03*
X399717Y75097D02*
D03*
D56*
X56529Y428041D02*
D03*
X66529D02*
D03*
X76529D02*
D03*
X674505Y198037D02*
D03*
Y208036D02*
D03*
Y218037D02*
D03*
X674584Y292809D02*
D03*
Y302809D02*
D03*
Y312809D02*
D03*
X550085Y128184D02*
D03*
X560085D02*
D03*
X570085D02*
D03*
X56813Y196045D02*
D03*
X66813D02*
D03*
X76813D02*
D03*
X56817Y318950D02*
D03*
X66817D02*
D03*
X76816D02*
D03*
X674557Y407744D02*
D03*
Y397744D02*
D03*
Y387744D02*
D03*
D57*
X682137Y83864D02*
D03*
Y93707D02*
D03*
Y101581D02*
D03*
Y111424D02*
D03*
D58*
X692806Y71778D02*
D03*
Y123510D02*
D03*
D59*
X14967Y75444D02*
D03*
X299969Y232445D02*
D03*
X543354Y241621D02*
D03*
X25243Y437067D02*
D03*
X28001Y197949D02*
D03*
X26161Y320550D02*
D03*
X216351Y233769D02*
D03*
D60*
X524376Y289675D02*
D03*
Y279833D02*
D03*
D61*
X248891Y301352D02*
D03*
X250672Y246291D02*
D03*
D62*
X241018Y301352D02*
D03*
X242798Y246291D02*
D03*
D63*
X236059Y378058D02*
D03*
X520559D02*
D03*
D64*
X487559Y409058D02*
D03*
X270059Y347058D02*
D03*
D65*
X520559D02*
D03*
D66*
X262240Y199546D02*
D03*
X549850Y177444D02*
D03*
X550161Y189307D02*
D03*
X282241Y129370D02*
D03*
X70284Y248242D02*
D03*
X205065Y133127D02*
D03*
X222346Y212127D02*
D03*
X195932Y313389D02*
D03*
X357789Y261259D02*
D03*
X486734Y248984D02*
D03*
X120250Y297300D02*
D03*
X132595Y296989D02*
D03*
X587925Y55685D02*
D03*
X570586Y191512D02*
D03*
X571299Y286310D02*
D03*
X573206Y380411D02*
D03*
X89741Y120099D02*
D03*
X90334Y243000D02*
D03*
X91124Y365900D02*
D03*
X190700Y162446D02*
D03*
X130900Y219251D02*
D03*
X196000Y158246D02*
D03*
X170000Y191546D02*
D03*
X230700Y212346D02*
D03*
X340900Y212646D02*
D03*
X602000Y245546D02*
D03*
X401100Y202246D02*
D03*
X402056Y230646D02*
D03*
X592359Y358505D02*
D03*
X589200Y262546D02*
D03*
X397076Y218846D02*
D03*
X280000Y63046D02*
D03*
X67100Y62346D02*
D03*
X41900Y367946D02*
D03*
X679500Y144446D02*
D03*
X303793Y279456D02*
D03*
M02*
