G04*
G04 #@! TF.GenerationSoftware,Altium Limited,Altium Designer,22.2.1 (43)*
G04*
G04 Layer_Color=16711935*
%FSLAX25Y25*%
%MOIN*%
G70*
G04*
G04 #@! TF.SameCoordinates,A442F040-2D2B-445B-BC8B-0DACE6EA8BBB*
G04*
G04*
G04 #@! TF.FilePolarity,Positive*
G04*
G01*
G75*
%ADD14C,0.00787*%
G36*
X118218Y422400D02*
X103722D01*
Y450607D01*
X118218D01*
Y422400D01*
D02*
G37*
G36*
X652454Y396211D02*
X637958D01*
Y424419D01*
X652454D01*
Y396211D01*
D02*
G37*
G36*
X99779Y403513D02*
X64289D01*
Y390454D01*
X32089D01*
Y415054D01*
X33279D01*
Y447013D01*
X99779D01*
Y403513D01*
D02*
G37*
G36*
X638629Y365724D02*
X606429D01*
Y390324D01*
X638629D01*
Y365724D01*
D02*
G37*
G36*
X696307Y364494D02*
X652807D01*
Y430994D01*
X696307D01*
Y364494D01*
D02*
G37*
G36*
X543009Y323907D02*
X213609D01*
Y431208D01*
X543009D01*
Y323907D01*
D02*
G37*
G36*
X652481Y301277D02*
X637985D01*
Y329485D01*
X652481D01*
Y301277D01*
D02*
G37*
G36*
X118237Y299723D02*
X103741D01*
Y327931D01*
X118237D01*
Y299723D01*
D02*
G37*
G36*
X100066Y294422D02*
X33566D01*
Y337922D01*
X100066D01*
Y294422D01*
D02*
G37*
G36*
X468348Y291912D02*
X449848D01*
Y300112D01*
X468348D01*
Y291912D01*
D02*
G37*
G36*
X445438Y273847D02*
X416638D01*
Y298247D01*
X445438D01*
Y273847D01*
D02*
G37*
G36*
X638656Y270789D02*
X606456D01*
Y295389D01*
X638656D01*
Y270789D01*
D02*
G37*
G36*
X696334Y269559D02*
X652834D01*
Y336059D01*
X696334D01*
Y269559D01*
D02*
G37*
G36*
X64307Y267777D02*
X32107D01*
Y292377D01*
X64307D01*
Y267777D01*
D02*
G37*
G36*
X550276Y258854D02*
X498476D01*
Y310654D01*
X550276D01*
Y258854D01*
D02*
G37*
G36*
X323236Y254265D02*
X306036D01*
Y281965D01*
X323236D01*
Y254265D01*
D02*
G37*
G36*
X323810Y240560D02*
X305412D01*
Y249859D01*
X323810D01*
Y240560D01*
D02*
G37*
G36*
X652402Y206504D02*
X637906D01*
Y234712D01*
X652402D01*
Y206504D01*
D02*
G37*
G36*
X118233Y176818D02*
X103737D01*
Y205026D01*
X118233D01*
Y176818D01*
D02*
G37*
G36*
X638577Y176017D02*
X606377D01*
Y200617D01*
X638577D01*
Y176017D01*
D02*
G37*
G36*
X696255Y174786D02*
X652755D01*
Y241286D01*
X696255D01*
Y174786D01*
D02*
G37*
G36*
X100063Y171517D02*
X33563D01*
Y215017D01*
X100063D01*
Y171517D01*
D02*
G37*
G36*
X64303Y144872D02*
X32103D01*
Y169472D01*
X64303D01*
Y144872D01*
D02*
G37*
G36*
X609489Y112266D02*
X594993D01*
Y140473D01*
X609489D01*
Y112266D01*
D02*
G37*
G36*
X593335Y103656D02*
X526835D01*
Y147156D01*
X593335D01*
Y103656D01*
D02*
G37*
G36*
X559570Y72269D02*
X527370D01*
Y96869D01*
X559570D01*
Y72269D01*
D02*
G37*
G36*
X698856Y124944D02*
X734751D01*
Y70344D01*
X698856D01*
Y65728D01*
X686756D01*
Y70344D01*
X677251D01*
Y124944D01*
X686756D01*
Y129560D01*
X698856D01*
Y124944D01*
D02*
G37*
G36*
X136680Y149600D02*
X136700Y149593D01*
X136730Y149585D01*
X136761Y149570D01*
X136803Y149554D01*
X136846Y149539D01*
X136892Y149516D01*
X136995Y149466D01*
X137099Y149397D01*
X137199Y149320D01*
X137245Y149274D01*
X137287Y149224D01*
X137291Y149220D01*
X137295Y149212D01*
X137306Y149197D01*
X137322Y149174D01*
X137337Y149147D01*
X137356Y149116D01*
X137376Y149082D01*
X137395Y149040D01*
X137414Y148994D01*
X137433Y148944D01*
X137452Y148886D01*
X137468Y148828D01*
X137495Y148702D01*
X137498Y148633D01*
X137502Y148560D01*
Y148521D01*
X137498Y148491D01*
Y148456D01*
X137495Y148418D01*
X137487Y148372D01*
X137483Y148325D01*
X137460Y148218D01*
X137433Y148107D01*
X137391Y147999D01*
X137368Y147945D01*
X137337Y147895D01*
X137333Y147891D01*
X137329Y147884D01*
X137318Y147872D01*
X137306Y147853D01*
X137268Y147807D01*
X137214Y147753D01*
X137149Y147688D01*
X137065Y147626D01*
X136969Y147561D01*
X136857Y147508D01*
X136853D01*
X136842Y147504D01*
X136826Y147496D01*
X136803Y147488D01*
X136773Y147477D01*
X136738Y147465D01*
X136700Y147454D01*
X136654Y147442D01*
X136608Y147431D01*
X136554Y147419D01*
X136439Y147396D01*
X136316Y147381D01*
X136181Y147377D01*
X136178D01*
X136162D01*
X136143D01*
X136116Y147381D01*
X136082D01*
X136039Y147385D01*
X135997Y147388D01*
X135947Y147396D01*
X135840Y147415D01*
X135724Y147438D01*
X135605Y147477D01*
X135494Y147527D01*
X135490D01*
X135482Y147534D01*
X135467Y147542D01*
X135444Y147554D01*
X135421Y147569D01*
X135394Y147588D01*
X135329Y147638D01*
X135256Y147696D01*
X135183Y147769D01*
X135110Y147857D01*
X135048Y147953D01*
Y147957D01*
X135041Y147964D01*
X135033Y147980D01*
X135026Y148003D01*
X135014Y148026D01*
X134999Y148057D01*
X134987Y148095D01*
X134972Y148133D01*
X134956Y148176D01*
X134945Y148222D01*
X134918Y148325D01*
X134903Y148441D01*
X134895Y148564D01*
Y148602D01*
X134899Y148629D01*
X134903Y148660D01*
X134906Y148698D01*
X134910Y148740D01*
X134918Y148786D01*
X134941Y148886D01*
X134976Y148994D01*
X134999Y149047D01*
X135026Y149101D01*
X135056Y149151D01*
X135091Y149201D01*
X135095Y149205D01*
X135099Y149212D01*
X135110Y149224D01*
X135125Y149243D01*
X135144Y149262D01*
X135171Y149289D01*
X135198Y149316D01*
X135229Y149343D01*
X135267Y149374D01*
X135306Y149401D01*
X135352Y149431D01*
X135402Y149462D01*
X135452Y149489D01*
X135509Y149516D01*
X135632Y149562D01*
X135709Y149232D01*
X135705D01*
X135697Y149228D01*
X135682Y149224D01*
X135663Y149216D01*
X135640Y149205D01*
X135613Y149193D01*
X135555Y149166D01*
X135490Y149132D01*
X135421Y149086D01*
X135360Y149036D01*
X135306Y148974D01*
X135302Y148967D01*
X135287Y148944D01*
X135267Y148909D01*
X135240Y148859D01*
X135217Y148802D01*
X135198Y148729D01*
X135183Y148648D01*
X135179Y148556D01*
Y148529D01*
X135183Y148510D01*
Y148483D01*
X135187Y148456D01*
X135198Y148387D01*
X135214Y148310D01*
X135240Y148229D01*
X135275Y148149D01*
X135321Y148072D01*
Y148068D01*
X135329Y148064D01*
X135348Y148041D01*
X135379Y148007D01*
X135421Y147964D01*
X135475Y147922D01*
X135536Y147876D01*
X135613Y147834D01*
X135697Y147799D01*
X135701D01*
X135709Y147795D01*
X135721Y147792D01*
X135740Y147788D01*
X135759Y147780D01*
X135786Y147776D01*
X135847Y147761D01*
X135920Y147746D01*
X136001Y147734D01*
X136089Y147726D01*
X136181Y147722D01*
X136185D01*
X136197D01*
X136212D01*
X136235D01*
X136262Y147726D01*
X136296D01*
X136331Y147730D01*
X136370Y147734D01*
X136458Y147746D01*
X136554Y147761D01*
X136650Y147784D01*
X136742Y147815D01*
X136746D01*
X136753Y147819D01*
X136765Y147826D01*
X136780Y147834D01*
X136826Y147853D01*
X136876Y147884D01*
X136938Y147926D01*
X136995Y147976D01*
X137053Y148033D01*
X137103Y148103D01*
Y148107D01*
X137107Y148110D01*
X137115Y148122D01*
X137122Y148137D01*
X137137Y148179D01*
X137161Y148233D01*
X137180Y148295D01*
X137199Y148368D01*
X137214Y148448D01*
X137218Y148533D01*
Y148560D01*
X137214Y148579D01*
Y148602D01*
X137210Y148633D01*
X137199Y148698D01*
X137180Y148771D01*
X137149Y148852D01*
X137111Y148928D01*
X137057Y149005D01*
X137053Y149009D01*
X137049Y149013D01*
X137026Y149036D01*
X136988Y149070D01*
X136938Y149113D01*
X136869Y149155D01*
X136788Y149201D01*
X136688Y149239D01*
X136577Y149270D01*
X136661Y149604D01*
X136665D01*
X136680Y149600D01*
D02*
G37*
G36*
X136769Y147035D02*
X136800Y147031D01*
X136830Y147028D01*
X136869Y147020D01*
X136907Y147008D01*
X136995Y146981D01*
X137045Y146962D01*
X137091Y146935D01*
X137137Y146908D01*
X137184Y146878D01*
X137230Y146839D01*
X137276Y146797D01*
X137280Y146793D01*
X137287Y146785D01*
X137295Y146774D01*
X137310Y146755D01*
X137329Y146732D01*
X137349Y146701D01*
X137368Y146667D01*
X137387Y146632D01*
X137410Y146590D01*
X137429Y146544D01*
X137449Y146494D01*
X137468Y146440D01*
X137483Y146382D01*
X137491Y146321D01*
X137498Y146256D01*
X137502Y146190D01*
Y146160D01*
X137498Y146137D01*
X137495Y146106D01*
X137491Y146075D01*
X137487Y146037D01*
X137479Y145998D01*
X137456Y145910D01*
X137418Y145818D01*
X137399Y145772D01*
X137372Y145729D01*
X137341Y145684D01*
X137306Y145641D01*
X137303Y145637D01*
X137299Y145633D01*
X137287Y145622D01*
X137272Y145607D01*
X137249Y145591D01*
X137226Y145572D01*
X137199Y145549D01*
X137168Y145530D01*
X137091Y145484D01*
X137003Y145445D01*
X136903Y145411D01*
X136849Y145399D01*
X136792Y145392D01*
X136750Y145703D01*
X136753D01*
X136761Y145706D01*
X136776D01*
X136792Y145714D01*
X136838Y145726D01*
X136896Y145745D01*
X136957Y145768D01*
X137022Y145799D01*
X137080Y145837D01*
X137130Y145879D01*
X137134Y145887D01*
X137149Y145902D01*
X137164Y145929D01*
X137187Y145968D01*
X137207Y146010D01*
X137226Y146064D01*
X137241Y146125D01*
X137245Y146190D01*
Y146213D01*
X137241Y146229D01*
X137237Y146267D01*
X137226Y146317D01*
X137207Y146379D01*
X137184Y146440D01*
X137145Y146501D01*
X137095Y146559D01*
X137088Y146567D01*
X137068Y146582D01*
X137038Y146605D01*
X136992Y146636D01*
X136938Y146663D01*
X136872Y146686D01*
X136800Y146701D01*
X136719Y146709D01*
X136715D01*
X136711D01*
X136700D01*
X136684Y146705D01*
X136646Y146701D01*
X136596Y146690D01*
X136542Y146674D01*
X136481Y146647D01*
X136423Y146613D01*
X136370Y146567D01*
X136362Y146559D01*
X136346Y146544D01*
X136327Y146513D01*
X136300Y146471D01*
X136274Y146421D01*
X136254Y146359D01*
X136239Y146294D01*
X136231Y146217D01*
Y146183D01*
X136235Y146156D01*
X136239Y146125D01*
X136243Y146087D01*
X136250Y146044D01*
X136262Y145998D01*
X135989Y146033D01*
Y146052D01*
X135993Y146068D01*
Y146117D01*
X135989Y146152D01*
X135982Y146202D01*
X135970Y146256D01*
X135951Y146313D01*
X135928Y146375D01*
X135893Y146436D01*
X135889Y146444D01*
X135874Y146463D01*
X135847Y146486D01*
X135813Y146517D01*
X135770Y146547D01*
X135717Y146571D01*
X135651Y146590D01*
X135575Y146597D01*
X135571D01*
X135567D01*
X135548D01*
X135517Y146590D01*
X135475Y146582D01*
X135433Y146571D01*
X135386Y146547D01*
X135336Y146521D01*
X135294Y146482D01*
X135291Y146478D01*
X135275Y146463D01*
X135256Y146436D01*
X135237Y146402D01*
X135214Y146359D01*
X135198Y146309D01*
X135183Y146252D01*
X135179Y146186D01*
Y146156D01*
X135187Y146121D01*
X135195Y146083D01*
X135206Y146033D01*
X135229Y145983D01*
X135256Y145933D01*
X135294Y145883D01*
X135298Y145879D01*
X135313Y145864D01*
X135340Y145845D01*
X135379Y145822D01*
X135425Y145795D01*
X135482Y145772D01*
X135552Y145749D01*
X135632Y145733D01*
X135578Y145422D01*
X135575D01*
X135563Y145426D01*
X135548Y145430D01*
X135529Y145434D01*
X135502Y145442D01*
X135471Y145449D01*
X135402Y145476D01*
X135325Y145507D01*
X135244Y145553D01*
X135168Y145607D01*
X135099Y145676D01*
X135095Y145680D01*
X135091Y145684D01*
X135083Y145695D01*
X135072Y145714D01*
X135060Y145733D01*
X135045Y145756D01*
X135010Y145814D01*
X134979Y145887D01*
X134952Y145975D01*
X134933Y146071D01*
X134926Y146125D01*
Y146213D01*
X134930Y146252D01*
X134937Y146302D01*
X134949Y146359D01*
X134964Y146425D01*
X134987Y146490D01*
X135018Y146555D01*
Y146559D01*
X135022Y146563D01*
X135033Y146586D01*
X135052Y146617D01*
X135079Y146655D01*
X135114Y146697D01*
X135156Y146743D01*
X135206Y146785D01*
X135260Y146824D01*
X135267Y146828D01*
X135287Y146839D01*
X135317Y146855D01*
X135356Y146870D01*
X135406Y146885D01*
X135459Y146901D01*
X135517Y146912D01*
X135582Y146916D01*
X135590D01*
X135609D01*
X135640Y146912D01*
X135678Y146905D01*
X135724Y146893D01*
X135774Y146878D01*
X135828Y146859D01*
X135878Y146828D01*
X135886Y146824D01*
X135901Y146812D01*
X135924Y146789D01*
X135955Y146763D01*
X135989Y146724D01*
X136024Y146682D01*
X136062Y146628D01*
X136093Y146567D01*
Y146571D01*
X136097Y146578D01*
Y146590D01*
X136105Y146605D01*
X136116Y146643D01*
X136139Y146693D01*
X136166Y146747D01*
X136204Y146805D01*
X136250Y146862D01*
X136308Y146912D01*
X136316Y146916D01*
X136339Y146932D01*
X136373Y146951D01*
X136419Y146977D01*
X136477Y147001D01*
X136546Y147020D01*
X136627Y147035D01*
X136715Y147039D01*
X136719D01*
X136730D01*
X136746D01*
X136769Y147035D01*
D02*
G37*
G36*
X136327Y145069D02*
X136370D01*
X136419Y145065D01*
X136473Y145061D01*
X136588Y145050D01*
X136707Y145035D01*
X136826Y145011D01*
X136880Y144996D01*
X136934Y144981D01*
X136938D01*
X136945Y144977D01*
X136961Y144973D01*
X136980Y144965D01*
X137003Y144954D01*
X137026Y144942D01*
X137088Y144912D01*
X137157Y144873D01*
X137226Y144827D01*
X137295Y144773D01*
X137356Y144708D01*
Y144704D01*
X137364Y144700D01*
X137368Y144689D01*
X137379Y144677D01*
X137402Y144635D01*
X137429Y144585D01*
X137456Y144516D01*
X137479Y144439D01*
X137495Y144351D01*
X137502Y144251D01*
Y144217D01*
X137498Y144190D01*
X137495Y144159D01*
X137487Y144124D01*
X137479Y144086D01*
X137472Y144044D01*
X137441Y143952D01*
X137418Y143902D01*
X137395Y143856D01*
X137364Y143806D01*
X137329Y143760D01*
X137291Y143717D01*
X137245Y143675D01*
X137241Y143671D01*
X137230Y143664D01*
X137210Y143652D01*
X137184Y143637D01*
X137149Y143618D01*
X137107Y143598D01*
X137057Y143575D01*
X136995Y143552D01*
X136930Y143529D01*
X136853Y143506D01*
X136769Y143487D01*
X136677Y143468D01*
X136573Y143452D01*
X136466Y143441D01*
X136343Y143433D01*
X136216Y143429D01*
X136212D01*
X136197D01*
X136174D01*
X136143D01*
X136105Y143433D01*
X136062D01*
X136012Y143437D01*
X135959Y143441D01*
X135843Y143452D01*
X135724Y143468D01*
X135605Y143487D01*
X135552Y143502D01*
X135498Y143518D01*
X135494D01*
X135486Y143522D01*
X135471Y143529D01*
X135452Y143537D01*
X135429Y143545D01*
X135402Y143556D01*
X135340Y143587D01*
X135271Y143625D01*
X135202Y143671D01*
X135137Y143725D01*
X135075Y143790D01*
Y143794D01*
X135068Y143798D01*
X135060Y143809D01*
X135052Y143825D01*
X135029Y143863D01*
X134999Y143917D01*
X134972Y143982D01*
X134949Y144063D01*
X134933Y144151D01*
X134926Y144251D01*
Y144286D01*
X134930Y144324D01*
X134937Y144370D01*
X134945Y144424D01*
X134960Y144485D01*
X134983Y144547D01*
X135010Y144604D01*
X135014Y144612D01*
X135026Y144631D01*
X135045Y144658D01*
X135068Y144697D01*
X135102Y144735D01*
X135144Y144777D01*
X135191Y144819D01*
X135244Y144858D01*
X135252Y144862D01*
X135271Y144873D01*
X135306Y144892D01*
X135348Y144915D01*
X135402Y144939D01*
X135467Y144965D01*
X135540Y144992D01*
X135621Y145015D01*
X135625D01*
X135632Y145019D01*
X135644D01*
X135663Y145023D01*
X135682Y145031D01*
X135709Y145035D01*
X135744Y145038D01*
X135778Y145046D01*
X135820Y145050D01*
X135863Y145054D01*
X135913Y145061D01*
X135966Y145065D01*
X136024Y145069D01*
X136082D01*
X136216Y145073D01*
X136220D01*
X136235D01*
X136258D01*
X136289D01*
X136327Y145069D01*
D02*
G37*
G36*
X137460Y141429D02*
X137456D01*
X137441D01*
X137418D01*
X137391Y141433D01*
X137360Y141436D01*
X137326Y141440D01*
X137287Y141452D01*
X137249Y141463D01*
X137245D01*
X137241Y141467D01*
X137218Y141475D01*
X137187Y141490D01*
X137141Y141513D01*
X137091Y141540D01*
X137034Y141578D01*
X136976Y141617D01*
X136915Y141667D01*
X136911D01*
X136907Y141674D01*
X136884Y141694D01*
X136849Y141724D01*
X136803Y141771D01*
X136750Y141828D01*
X136684Y141897D01*
X136611Y141982D01*
X136531Y142074D01*
X136527Y142078D01*
X136515Y142093D01*
X136500Y142112D01*
X136473Y142139D01*
X136446Y142174D01*
X136412Y142212D01*
X136339Y142297D01*
X136250Y142389D01*
X136162Y142481D01*
X136120Y142527D01*
X136078Y142565D01*
X136035Y142600D01*
X135997Y142631D01*
X135993D01*
X135989Y142638D01*
X135978Y142646D01*
X135962Y142654D01*
X135924Y142677D01*
X135874Y142704D01*
X135817Y142730D01*
X135755Y142754D01*
X135686Y142769D01*
X135621Y142777D01*
X135617D01*
X135613D01*
X135590Y142773D01*
X135555Y142769D01*
X135513Y142761D01*
X135463Y142742D01*
X135413Y142719D01*
X135360Y142688D01*
X135310Y142642D01*
X135306Y142634D01*
X135291Y142619D01*
X135271Y142588D01*
X135244Y142550D01*
X135221Y142500D01*
X135202Y142443D01*
X135187Y142373D01*
X135183Y142297D01*
Y142274D01*
X135187Y142258D01*
X135191Y142220D01*
X135198Y142170D01*
X135217Y142112D01*
X135240Y142051D01*
X135275Y141993D01*
X135321Y141939D01*
X135329Y141936D01*
X135344Y141920D01*
X135375Y141897D01*
X135417Y141874D01*
X135471Y141847D01*
X135532Y141828D01*
X135605Y141813D01*
X135690Y141805D01*
X135655Y141486D01*
X135651D01*
X135640D01*
X135621Y141490D01*
X135598Y141494D01*
X135567Y141502D01*
X135532Y141506D01*
X135456Y141529D01*
X135367Y141559D01*
X135279Y141602D01*
X135191Y141659D01*
X135152Y141690D01*
X135114Y141728D01*
X135110Y141732D01*
X135106Y141740D01*
X135095Y141751D01*
X135083Y141767D01*
X135072Y141790D01*
X135052Y141817D01*
X135037Y141847D01*
X135018Y141882D01*
X135002Y141920D01*
X134983Y141963D01*
X134968Y142012D01*
X134956Y142062D01*
X134933Y142177D01*
X134930Y142239D01*
X134926Y142304D01*
Y142339D01*
X134930Y142366D01*
X134933Y142396D01*
X134937Y142431D01*
X134941Y142469D01*
X134952Y142512D01*
X134976Y142604D01*
X135010Y142700D01*
X135033Y142750D01*
X135060Y142796D01*
X135095Y142838D01*
X135129Y142880D01*
X135133Y142884D01*
X135137Y142888D01*
X135148Y142900D01*
X135164Y142915D01*
X135187Y142930D01*
X135210Y142949D01*
X135267Y142988D01*
X135340Y143026D01*
X135425Y143061D01*
X135521Y143088D01*
X135575Y143091D01*
X135628Y143095D01*
X135636D01*
X135655D01*
X135686Y143091D01*
X135724Y143088D01*
X135770Y143080D01*
X135820Y143068D01*
X135874Y143053D01*
X135928Y143030D01*
X135936Y143026D01*
X135955Y143018D01*
X135982Y143003D01*
X136020Y142980D01*
X136066Y142953D01*
X136120Y142919D01*
X136174Y142873D01*
X136235Y142823D01*
X136243Y142815D01*
X136266Y142796D01*
X136300Y142761D01*
X136323Y142738D01*
X136350Y142711D01*
X136381Y142681D01*
X136416Y142642D01*
X136450Y142604D01*
X136492Y142562D01*
X136535Y142516D01*
X136581Y142462D01*
X136627Y142408D01*
X136680Y142347D01*
X136684Y142343D01*
X136692Y142335D01*
X136704Y142320D01*
X136719Y142300D01*
X136757Y142254D01*
X136807Y142197D01*
X136861Y142139D01*
X136915Y142078D01*
X136961Y142028D01*
X136980Y142009D01*
X136999Y141989D01*
X137003Y141985D01*
X137015Y141978D01*
X137030Y141963D01*
X137053Y141943D01*
X137103Y141901D01*
X137164Y141859D01*
Y143099D01*
X137460D01*
Y141429D01*
D02*
G37*
G36*
X136492Y141037D02*
X136527D01*
X136569Y141033D01*
X136615Y141029D01*
X136711Y141018D01*
X136811Y141003D01*
X136911Y140983D01*
X136999Y140953D01*
X137003D01*
X137011Y140949D01*
X137022Y140945D01*
X137038Y140937D01*
X137076Y140914D01*
X137130Y140884D01*
X137187Y140841D01*
X137249Y140787D01*
X137306Y140718D01*
X137364Y140642D01*
Y140638D01*
X137372Y140630D01*
X137376Y140619D01*
X137387Y140599D01*
X137395Y140580D01*
X137406Y140553D01*
X137422Y140519D01*
X137433Y140484D01*
X137445Y140446D01*
X137460Y140400D01*
X137472Y140354D01*
X137479Y140300D01*
X137495Y140185D01*
X137502Y140054D01*
Y140020D01*
X137498Y139996D01*
Y139966D01*
X137495Y139931D01*
X137491Y139893D01*
X137487Y139850D01*
X137472Y139758D01*
X137452Y139662D01*
X137422Y139562D01*
X137383Y139474D01*
Y139470D01*
X137376Y139463D01*
X137372Y139455D01*
X137360Y139440D01*
X137333Y139397D01*
X137291Y139351D01*
X137241Y139298D01*
X137184Y139248D01*
X137111Y139198D01*
X137030Y139155D01*
X137026D01*
X137019Y139152D01*
X137007Y139148D01*
X136988Y139140D01*
X136965Y139132D01*
X136934Y139125D01*
X136899Y139117D01*
X136861Y139109D01*
X136819Y139098D01*
X136773Y139090D01*
X136719Y139083D01*
X136665Y139075D01*
X136604Y139067D01*
X136538Y139063D01*
X136469Y139059D01*
X136396D01*
X134937D01*
Y139394D01*
X136396D01*
X136400D01*
X136412D01*
X136427D01*
X136450D01*
X136477D01*
X136508Y139397D01*
X136581Y139401D01*
X136658Y139409D01*
X136738Y139417D01*
X136815Y139432D01*
X136849Y139440D01*
X136880Y139451D01*
X136888Y139455D01*
X136907Y139463D01*
X136934Y139478D01*
X136969Y139501D01*
X137007Y139528D01*
X137049Y139566D01*
X137088Y139609D01*
X137122Y139662D01*
X137126Y139670D01*
X137134Y139689D01*
X137149Y139720D01*
X137161Y139762D01*
X137176Y139816D01*
X137191Y139877D01*
X137199Y139946D01*
X137203Y140023D01*
Y140058D01*
X137199Y140085D01*
Y140115D01*
X137195Y140150D01*
X137184Y140227D01*
X137161Y140315D01*
X137134Y140400D01*
X137091Y140480D01*
X137068Y140519D01*
X137038Y140549D01*
X137034D01*
X137030Y140557D01*
X137019Y140565D01*
X137003Y140572D01*
X136984Y140588D01*
X136961Y140599D01*
X136930Y140615D01*
X136896Y140630D01*
X136853Y140642D01*
X136807Y140657D01*
X136757Y140672D01*
X136696Y140684D01*
X136631Y140691D01*
X136562Y140699D01*
X136481Y140707D01*
X136396D01*
X134937D01*
Y141041D01*
X136396D01*
X136400D01*
X136412D01*
X136431D01*
X136458D01*
X136492Y141037D01*
D02*
G37*
G36*
X154703Y199067D02*
X154723Y199060D01*
X154753Y199052D01*
X154784Y199037D01*
X154826Y199021D01*
X154869Y199006D01*
X154915Y198983D01*
X155018Y198933D01*
X155122Y198864D01*
X155222Y198787D01*
X155268Y198741D01*
X155310Y198691D01*
X155314Y198687D01*
X155318Y198679D01*
X155330Y198664D01*
X155345Y198641D01*
X155360Y198614D01*
X155379Y198583D01*
X155399Y198549D01*
X155418Y198507D01*
X155437Y198460D01*
X155456Y198411D01*
X155475Y198353D01*
X155491Y198295D01*
X155518Y198169D01*
X155522Y198100D01*
X155525Y198027D01*
Y197988D01*
X155522Y197958D01*
Y197923D01*
X155518Y197885D01*
X155510Y197838D01*
X155506Y197792D01*
X155483Y197685D01*
X155456Y197573D01*
X155414Y197466D01*
X155391Y197412D01*
X155360Y197362D01*
X155356Y197359D01*
X155352Y197351D01*
X155341Y197339D01*
X155330Y197320D01*
X155291Y197274D01*
X155237Y197220D01*
X155172Y197155D01*
X155088Y197093D01*
X154992Y197028D01*
X154880Y196975D01*
X154876D01*
X154865Y196971D01*
X154850Y196963D01*
X154826Y196955D01*
X154796Y196944D01*
X154761Y196932D01*
X154723Y196921D01*
X154677Y196909D01*
X154631Y196898D01*
X154577Y196886D01*
X154462Y196863D01*
X154339Y196848D01*
X154204Y196844D01*
X154200D01*
X154185D01*
X154166D01*
X154139Y196848D01*
X154104D01*
X154062Y196852D01*
X154020Y196855D01*
X153970Y196863D01*
X153863Y196882D01*
X153747Y196905D01*
X153628Y196944D01*
X153517Y196994D01*
X153513D01*
X153506Y197001D01*
X153490Y197009D01*
X153467Y197020D01*
X153444Y197036D01*
X153417Y197055D01*
X153352Y197105D01*
X153279Y197163D01*
X153206Y197236D01*
X153133Y197324D01*
X153072Y197420D01*
Y197424D01*
X153064Y197431D01*
X153056Y197447D01*
X153049Y197470D01*
X153037Y197493D01*
X153022Y197524D01*
X153010Y197562D01*
X152995Y197600D01*
X152979Y197643D01*
X152968Y197689D01*
X152941Y197792D01*
X152926Y197908D01*
X152918Y198030D01*
Y198069D01*
X152922Y198096D01*
X152926Y198126D01*
X152929Y198165D01*
X152933Y198207D01*
X152941Y198253D01*
X152964Y198353D01*
X152999Y198460D01*
X153022Y198514D01*
X153049Y198568D01*
X153079Y198618D01*
X153114Y198668D01*
X153118Y198672D01*
X153121Y198679D01*
X153133Y198691D01*
X153148Y198710D01*
X153168Y198729D01*
X153194Y198756D01*
X153221Y198783D01*
X153252Y198810D01*
X153290Y198841D01*
X153329Y198868D01*
X153375Y198898D01*
X153425Y198929D01*
X153475Y198956D01*
X153532Y198983D01*
X153655Y199029D01*
X153732Y198699D01*
X153728D01*
X153720Y198695D01*
X153705Y198691D01*
X153686Y198683D01*
X153663Y198672D01*
X153636Y198660D01*
X153578Y198633D01*
X153513Y198599D01*
X153444Y198553D01*
X153383Y198503D01*
X153329Y198441D01*
X153325Y198434D01*
X153310Y198411D01*
X153290Y198376D01*
X153264Y198326D01*
X153241Y198268D01*
X153221Y198196D01*
X153206Y198115D01*
X153202Y198023D01*
Y197996D01*
X153206Y197977D01*
Y197950D01*
X153210Y197923D01*
X153221Y197854D01*
X153237Y197777D01*
X153264Y197696D01*
X153298Y197616D01*
X153344Y197539D01*
Y197535D01*
X153352Y197531D01*
X153371Y197508D01*
X153402Y197474D01*
X153444Y197431D01*
X153498Y197389D01*
X153559Y197343D01*
X153636Y197301D01*
X153720Y197266D01*
X153724D01*
X153732Y197263D01*
X153744Y197259D01*
X153763Y197255D01*
X153782Y197247D01*
X153809Y197243D01*
X153870Y197228D01*
X153943Y197213D01*
X154024Y197201D01*
X154112Y197193D01*
X154204Y197189D01*
X154208D01*
X154220D01*
X154235D01*
X154258D01*
X154285Y197193D01*
X154320D01*
X154354Y197197D01*
X154393Y197201D01*
X154481Y197213D01*
X154577Y197228D01*
X154673Y197251D01*
X154765Y197282D01*
X154769D01*
X154777Y197285D01*
X154788Y197293D01*
X154803Y197301D01*
X154850Y197320D01*
X154899Y197351D01*
X154961Y197393D01*
X155018Y197443D01*
X155076Y197501D01*
X155126Y197570D01*
Y197573D01*
X155130Y197577D01*
X155138Y197589D01*
X155145Y197604D01*
X155160Y197646D01*
X155183Y197700D01*
X155203Y197762D01*
X155222Y197835D01*
X155237Y197915D01*
X155241Y198000D01*
Y198027D01*
X155237Y198046D01*
Y198069D01*
X155234Y198100D01*
X155222Y198165D01*
X155203Y198238D01*
X155172Y198319D01*
X155134Y198395D01*
X155080Y198472D01*
X155076Y198476D01*
X155072Y198480D01*
X155049Y198503D01*
X155011Y198537D01*
X154961Y198580D01*
X154892Y198622D01*
X154811Y198668D01*
X154711Y198706D01*
X154600Y198737D01*
X154684Y199071D01*
X154688D01*
X154703Y199067D01*
D02*
G37*
G36*
X155483Y194813D02*
X155479D01*
X155464D01*
X155441D01*
X155414Y194816D01*
X155383Y194820D01*
X155349Y194824D01*
X155310Y194836D01*
X155272Y194847D01*
X155268D01*
X155264Y194851D01*
X155241Y194859D01*
X155210Y194874D01*
X155164Y194897D01*
X155114Y194924D01*
X155057Y194962D01*
X154999Y195001D01*
X154938Y195051D01*
X154934D01*
X154930Y195058D01*
X154907Y195078D01*
X154873Y195108D01*
X154826Y195154D01*
X154773Y195212D01*
X154707Y195281D01*
X154634Y195366D01*
X154554Y195458D01*
X154550Y195461D01*
X154538Y195477D01*
X154523Y195496D01*
X154496Y195523D01*
X154469Y195557D01*
X154435Y195596D01*
X154362Y195680D01*
X154273Y195773D01*
X154185Y195865D01*
X154143Y195911D01*
X154101Y195949D01*
X154058Y195984D01*
X154020Y196014D01*
X154016D01*
X154012Y196022D01*
X154001Y196030D01*
X153986Y196037D01*
X153947Y196061D01*
X153897Y196087D01*
X153840Y196114D01*
X153778Y196137D01*
X153709Y196153D01*
X153644Y196160D01*
X153640D01*
X153636D01*
X153613Y196157D01*
X153578Y196153D01*
X153536Y196145D01*
X153486Y196126D01*
X153436Y196103D01*
X153383Y196072D01*
X153333Y196026D01*
X153329Y196018D01*
X153314Y196003D01*
X153294Y195972D01*
X153267Y195934D01*
X153244Y195884D01*
X153225Y195826D01*
X153210Y195757D01*
X153206Y195680D01*
Y195657D01*
X153210Y195642D01*
X153214Y195604D01*
X153221Y195554D01*
X153241Y195496D01*
X153264Y195435D01*
X153298Y195377D01*
X153344Y195323D01*
X153352Y195319D01*
X153367Y195304D01*
X153398Y195281D01*
X153440Y195258D01*
X153494Y195231D01*
X153555Y195212D01*
X153628Y195196D01*
X153713Y195189D01*
X153678Y194870D01*
X153674D01*
X153663D01*
X153644Y194874D01*
X153621Y194878D01*
X153590Y194886D01*
X153555Y194889D01*
X153479Y194912D01*
X153390Y194943D01*
X153302Y194985D01*
X153214Y195043D01*
X153175Y195074D01*
X153137Y195112D01*
X153133Y195116D01*
X153129Y195124D01*
X153118Y195135D01*
X153106Y195150D01*
X153095Y195174D01*
X153075Y195200D01*
X153060Y195231D01*
X153041Y195266D01*
X153025Y195304D01*
X153006Y195346D01*
X152991Y195396D01*
X152979Y195446D01*
X152956Y195561D01*
X152953Y195623D01*
X152949Y195688D01*
Y195723D01*
X152953Y195749D01*
X152956Y195780D01*
X152960Y195815D01*
X152964Y195853D01*
X152975Y195895D01*
X152999Y195988D01*
X153033Y196084D01*
X153056Y196133D01*
X153083Y196180D01*
X153118Y196222D01*
X153152Y196264D01*
X153156Y196268D01*
X153160Y196272D01*
X153171Y196283D01*
X153187Y196299D01*
X153210Y196314D01*
X153233Y196333D01*
X153290Y196372D01*
X153363Y196410D01*
X153448Y196444D01*
X153544Y196471D01*
X153598Y196475D01*
X153651Y196479D01*
X153659D01*
X153678D01*
X153709Y196475D01*
X153747Y196471D01*
X153794Y196464D01*
X153843Y196452D01*
X153897Y196437D01*
X153951Y196414D01*
X153959Y196410D01*
X153978Y196402D01*
X154005Y196387D01*
X154043Y196364D01*
X154089Y196337D01*
X154143Y196302D01*
X154197Y196256D01*
X154258Y196206D01*
X154266Y196199D01*
X154289Y196180D01*
X154323Y196145D01*
X154346Y196122D01*
X154373Y196095D01*
X154404Y196064D01*
X154439Y196026D01*
X154473Y195988D01*
X154515Y195945D01*
X154558Y195899D01*
X154604Y195845D01*
X154650Y195792D01*
X154703Y195730D01*
X154707Y195727D01*
X154715Y195719D01*
X154727Y195703D01*
X154742Y195684D01*
X154780Y195638D01*
X154830Y195580D01*
X154884Y195523D01*
X154938Y195461D01*
X154984Y195412D01*
X155003Y195392D01*
X155022Y195373D01*
X155026Y195369D01*
X155038Y195362D01*
X155053Y195346D01*
X155076Y195327D01*
X155126Y195285D01*
X155187Y195243D01*
Y196483D01*
X155483D01*
Y194813D01*
D02*
G37*
G36*
X154350Y194536D02*
X154393D01*
X154442Y194532D01*
X154496Y194528D01*
X154611Y194517D01*
X154730Y194501D01*
X154850Y194478D01*
X154903Y194463D01*
X154957Y194448D01*
X154961D01*
X154969Y194444D01*
X154984Y194440D01*
X155003Y194432D01*
X155026Y194421D01*
X155049Y194409D01*
X155111Y194379D01*
X155180Y194340D01*
X155249Y194294D01*
X155318Y194240D01*
X155379Y194175D01*
Y194171D01*
X155387Y194167D01*
X155391Y194156D01*
X155402Y194144D01*
X155426Y194102D01*
X155452Y194052D01*
X155479Y193983D01*
X155502Y193906D01*
X155518Y193818D01*
X155525Y193718D01*
Y193684D01*
X155522Y193657D01*
X155518Y193626D01*
X155510Y193591D01*
X155502Y193553D01*
X155495Y193511D01*
X155464Y193419D01*
X155441Y193369D01*
X155418Y193323D01*
X155387Y193273D01*
X155352Y193227D01*
X155314Y193184D01*
X155268Y193142D01*
X155264Y193138D01*
X155253Y193131D01*
X155234Y193119D01*
X155207Y193104D01*
X155172Y193085D01*
X155130Y193065D01*
X155080Y193042D01*
X155018Y193019D01*
X154953Y192996D01*
X154876Y192973D01*
X154792Y192954D01*
X154700Y192935D01*
X154596Y192919D01*
X154489Y192908D01*
X154366Y192900D01*
X154239Y192896D01*
X154235D01*
X154220D01*
X154197D01*
X154166D01*
X154128Y192900D01*
X154085D01*
X154035Y192904D01*
X153982Y192908D01*
X153866Y192919D01*
X153747Y192935D01*
X153628Y192954D01*
X153575Y192969D01*
X153521Y192985D01*
X153517D01*
X153509Y192989D01*
X153494Y192996D01*
X153475Y193004D01*
X153452Y193012D01*
X153425Y193023D01*
X153363Y193054D01*
X153294Y193092D01*
X153225Y193138D01*
X153160Y193192D01*
X153098Y193257D01*
Y193261D01*
X153091Y193265D01*
X153083Y193277D01*
X153075Y193292D01*
X153052Y193330D01*
X153022Y193384D01*
X152995Y193449D01*
X152972Y193530D01*
X152956Y193618D01*
X152949Y193718D01*
Y193753D01*
X152953Y193791D01*
X152960Y193837D01*
X152968Y193891D01*
X152983Y193952D01*
X153006Y194014D01*
X153033Y194071D01*
X153037Y194079D01*
X153049Y194098D01*
X153068Y194125D01*
X153091Y194164D01*
X153125Y194202D01*
X153168Y194244D01*
X153214Y194287D01*
X153267Y194325D01*
X153275Y194329D01*
X153294Y194340D01*
X153329Y194359D01*
X153371Y194383D01*
X153425Y194405D01*
X153490Y194432D01*
X153563Y194459D01*
X153644Y194482D01*
X153648D01*
X153655Y194486D01*
X153667D01*
X153686Y194490D01*
X153705Y194498D01*
X153732Y194501D01*
X153767Y194505D01*
X153801Y194513D01*
X153843Y194517D01*
X153886Y194521D01*
X153936Y194528D01*
X153989Y194532D01*
X154047Y194536D01*
X154104D01*
X154239Y194540D01*
X154243D01*
X154258D01*
X154281D01*
X154312D01*
X154350Y194536D01*
D02*
G37*
G36*
X155483Y190896D02*
X155479D01*
X155464D01*
X155441D01*
X155414Y190900D01*
X155383Y190903D01*
X155349Y190907D01*
X155310Y190919D01*
X155272Y190930D01*
X155268D01*
X155264Y190934D01*
X155241Y190942D01*
X155210Y190957D01*
X155164Y190980D01*
X155114Y191007D01*
X155057Y191045D01*
X154999Y191084D01*
X154938Y191134D01*
X154934D01*
X154930Y191141D01*
X154907Y191161D01*
X154873Y191191D01*
X154826Y191237D01*
X154773Y191295D01*
X154707Y191364D01*
X154634Y191449D01*
X154554Y191541D01*
X154550Y191545D01*
X154538Y191560D01*
X154523Y191579D01*
X154496Y191606D01*
X154469Y191641D01*
X154435Y191679D01*
X154362Y191764D01*
X154273Y191856D01*
X154185Y191948D01*
X154143Y191994D01*
X154101Y192032D01*
X154058Y192067D01*
X154020Y192098D01*
X154016D01*
X154012Y192105D01*
X154001Y192113D01*
X153986Y192121D01*
X153947Y192144D01*
X153897Y192171D01*
X153840Y192198D01*
X153778Y192220D01*
X153709Y192236D01*
X153644Y192244D01*
X153640D01*
X153636D01*
X153613Y192240D01*
X153578Y192236D01*
X153536Y192228D01*
X153486Y192209D01*
X153436Y192186D01*
X153383Y192155D01*
X153333Y192109D01*
X153329Y192102D01*
X153314Y192086D01*
X153294Y192055D01*
X153267Y192017D01*
X153244Y191967D01*
X153225Y191910D01*
X153210Y191840D01*
X153206Y191764D01*
Y191741D01*
X153210Y191725D01*
X153214Y191687D01*
X153221Y191637D01*
X153241Y191579D01*
X153264Y191518D01*
X153298Y191460D01*
X153344Y191407D01*
X153352Y191403D01*
X153367Y191387D01*
X153398Y191364D01*
X153440Y191341D01*
X153494Y191314D01*
X153555Y191295D01*
X153628Y191280D01*
X153713Y191272D01*
X153678Y190953D01*
X153674D01*
X153663D01*
X153644Y190957D01*
X153621Y190961D01*
X153590Y190969D01*
X153555Y190972D01*
X153479Y190996D01*
X153390Y191026D01*
X153302Y191068D01*
X153214Y191126D01*
X153175Y191157D01*
X153137Y191195D01*
X153133Y191199D01*
X153129Y191207D01*
X153118Y191218D01*
X153106Y191234D01*
X153095Y191257D01*
X153075Y191284D01*
X153060Y191314D01*
X153041Y191349D01*
X153025Y191387D01*
X153006Y191429D01*
X152991Y191479D01*
X152979Y191529D01*
X152956Y191645D01*
X152953Y191706D01*
X152949Y191771D01*
Y191806D01*
X152953Y191833D01*
X152956Y191863D01*
X152960Y191898D01*
X152964Y191936D01*
X152975Y191979D01*
X152999Y192071D01*
X153033Y192167D01*
X153056Y192217D01*
X153083Y192263D01*
X153118Y192305D01*
X153152Y192347D01*
X153156Y192351D01*
X153160Y192355D01*
X153171Y192367D01*
X153187Y192382D01*
X153210Y192397D01*
X153233Y192416D01*
X153290Y192455D01*
X153363Y192493D01*
X153448Y192528D01*
X153544Y192555D01*
X153598Y192559D01*
X153651Y192562D01*
X153659D01*
X153678D01*
X153709Y192559D01*
X153747Y192555D01*
X153794Y192547D01*
X153843Y192535D01*
X153897Y192520D01*
X153951Y192497D01*
X153959Y192493D01*
X153978Y192485D01*
X154005Y192470D01*
X154043Y192447D01*
X154089Y192420D01*
X154143Y192386D01*
X154197Y192340D01*
X154258Y192290D01*
X154266Y192282D01*
X154289Y192263D01*
X154323Y192228D01*
X154346Y192205D01*
X154373Y192178D01*
X154404Y192148D01*
X154439Y192109D01*
X154473Y192071D01*
X154515Y192028D01*
X154558Y191982D01*
X154604Y191929D01*
X154650Y191875D01*
X154703Y191814D01*
X154707Y191810D01*
X154715Y191802D01*
X154727Y191787D01*
X154742Y191767D01*
X154780Y191721D01*
X154830Y191664D01*
X154884Y191606D01*
X154938Y191545D01*
X154984Y191495D01*
X155003Y191476D01*
X155022Y191456D01*
X155026Y191453D01*
X155038Y191445D01*
X155053Y191429D01*
X155076Y191410D01*
X155126Y191368D01*
X155187Y191326D01*
Y192566D01*
X155483D01*
Y190896D01*
D02*
G37*
G36*
X154281Y190600D02*
X154312D01*
X154381Y190596D01*
X154458Y190588D01*
X154546Y190573D01*
X154634Y190558D01*
X154719Y190535D01*
X154723D01*
X154730Y190531D01*
X154742Y190527D01*
X154757Y190523D01*
X154796Y190508D01*
X154850Y190489D01*
X154907Y190466D01*
X154969Y190435D01*
X155030Y190400D01*
X155088Y190362D01*
X155095Y190358D01*
X155111Y190343D01*
X155138Y190324D01*
X155172Y190293D01*
X155207Y190262D01*
X155245Y190220D01*
X155283Y190178D01*
X155318Y190132D01*
X155322Y190128D01*
X155330Y190109D01*
X155345Y190082D01*
X155364Y190047D01*
X155383Y190005D01*
X155402Y189955D01*
X155422Y189897D01*
X155441Y189832D01*
Y189824D01*
X155448Y189801D01*
X155452Y189767D01*
X155460Y189717D01*
X155468Y189659D01*
X155475Y189590D01*
X155479Y189513D01*
X155483Y189429D01*
Y188523D01*
X152960D01*
Y189490D01*
X152964Y189556D01*
X152968Y189625D01*
X152975Y189701D01*
X152987Y189775D01*
X152999Y189836D01*
Y189840D01*
X153002Y189847D01*
Y189855D01*
X153010Y189871D01*
X153022Y189913D01*
X153041Y189963D01*
X153064Y190020D01*
X153095Y190082D01*
X153133Y190143D01*
X153179Y190205D01*
Y190208D01*
X153187Y190212D01*
X153210Y190239D01*
X153248Y190274D01*
X153298Y190316D01*
X153359Y190366D01*
X153433Y190416D01*
X153517Y190462D01*
X153613Y190504D01*
X153617D01*
X153624Y190508D01*
X153640Y190512D01*
X153659Y190519D01*
X153682Y190527D01*
X153713Y190535D01*
X153747Y190546D01*
X153786Y190554D01*
X153828Y190562D01*
X153874Y190573D01*
X153974Y190588D01*
X154085Y190600D01*
X154208Y190604D01*
X154212D01*
X154220D01*
X154235D01*
X154258D01*
X154281Y190600D01*
D02*
G37*
G36*
X286728Y126352D02*
Y126349D01*
Y126337D01*
Y126318D01*
Y126291D01*
X286724Y126256D01*
Y126222D01*
X286720Y126180D01*
X286716Y126134D01*
X286705Y126038D01*
X286689Y125938D01*
X286670Y125838D01*
X286639Y125750D01*
Y125746D01*
X286635Y125738D01*
X286632Y125726D01*
X286624Y125711D01*
X286601Y125673D01*
X286570Y125619D01*
X286528Y125561D01*
X286474Y125500D01*
X286405Y125442D01*
X286328Y125385D01*
X286325D01*
X286317Y125377D01*
X286305Y125373D01*
X286286Y125362D01*
X286267Y125354D01*
X286240Y125343D01*
X286205Y125327D01*
X286171Y125316D01*
X286133Y125304D01*
X286086Y125289D01*
X286040Y125277D01*
X285986Y125270D01*
X285871Y125254D01*
X285741Y125247D01*
X285706D01*
X285683Y125250D01*
X285652D01*
X285618Y125254D01*
X285579Y125258D01*
X285537Y125262D01*
X285445Y125277D01*
X285349Y125296D01*
X285249Y125327D01*
X285161Y125366D01*
X285157D01*
X285149Y125373D01*
X285142Y125377D01*
X285126Y125389D01*
X285084Y125416D01*
X285038Y125458D01*
X284984Y125508D01*
X284934Y125565D01*
X284885Y125638D01*
X284842Y125719D01*
Y125723D01*
X284838Y125730D01*
X284835Y125742D01*
X284827Y125761D01*
X284819Y125784D01*
X284811Y125815D01*
X284804Y125849D01*
X284796Y125888D01*
X284785Y125930D01*
X284777Y125976D01*
X284769Y126030D01*
X284762Y126084D01*
X284754Y126145D01*
X284750Y126210D01*
X284746Y126279D01*
Y126352D01*
Y127812D01*
X285080D01*
Y126352D01*
Y126349D01*
Y126337D01*
Y126322D01*
Y126299D01*
Y126272D01*
X285084Y126241D01*
X285088Y126168D01*
X285096Y126091D01*
X285103Y126011D01*
X285119Y125934D01*
X285126Y125899D01*
X285138Y125869D01*
X285142Y125861D01*
X285149Y125842D01*
X285165Y125815D01*
X285188Y125780D01*
X285215Y125742D01*
X285253Y125700D01*
X285295Y125661D01*
X285349Y125627D01*
X285357Y125623D01*
X285376Y125615D01*
X285407Y125600D01*
X285449Y125588D01*
X285503Y125573D01*
X285564Y125558D01*
X285633Y125550D01*
X285710Y125546D01*
X285745D01*
X285771Y125550D01*
X285802D01*
X285837Y125554D01*
X285914Y125565D01*
X286002Y125588D01*
X286086Y125615D01*
X286167Y125657D01*
X286205Y125680D01*
X286236Y125711D01*
Y125715D01*
X286244Y125719D01*
X286251Y125730D01*
X286259Y125746D01*
X286275Y125765D01*
X286286Y125788D01*
X286301Y125819D01*
X286317Y125853D01*
X286328Y125896D01*
X286344Y125942D01*
X286359Y125991D01*
X286371Y126053D01*
X286378Y126118D01*
X286386Y126187D01*
X286394Y126268D01*
Y126352D01*
Y127812D01*
X286728D01*
Y126352D01*
D02*
G37*
G36*
X288325Y125289D02*
X288014D01*
Y127262D01*
X288010Y127259D01*
X287995Y127243D01*
X287968Y127224D01*
X287933Y127197D01*
X287891Y127163D01*
X287841Y127128D01*
X287784Y127086D01*
X287718Y127048D01*
X287715D01*
X287711Y127044D01*
X287688Y127028D01*
X287653Y127009D01*
X287611Y126986D01*
X287561Y126959D01*
X287507Y126936D01*
X287450Y126909D01*
X287396Y126886D01*
Y127190D01*
X287400D01*
X287407Y127193D01*
X287423Y127201D01*
X287438Y127213D01*
X287461Y127224D01*
X287488Y127236D01*
X287549Y127270D01*
X287619Y127312D01*
X287695Y127362D01*
X287772Y127420D01*
X287845Y127481D01*
X287849Y127485D01*
X287853Y127489D01*
X287876Y127512D01*
X287910Y127547D01*
X287953Y127589D01*
X287999Y127643D01*
X288045Y127700D01*
X288087Y127762D01*
X288122Y127823D01*
X288325D01*
Y125289D01*
D02*
G37*
G36*
X291969Y127819D02*
X292015Y127812D01*
X292069Y127804D01*
X292130Y127789D01*
X292192Y127766D01*
X292250Y127739D01*
X292257Y127735D01*
X292277Y127723D01*
X292303Y127704D01*
X292342Y127681D01*
X292380Y127647D01*
X292422Y127604D01*
X292465Y127558D01*
X292503Y127504D01*
X292507Y127497D01*
X292518Y127478D01*
X292538Y127443D01*
X292561Y127401D01*
X292584Y127347D01*
X292611Y127282D01*
X292637Y127209D01*
X292660Y127128D01*
Y127124D01*
X292664Y127117D01*
Y127105D01*
X292668Y127086D01*
X292676Y127067D01*
X292680Y127040D01*
X292684Y127005D01*
X292691Y126971D01*
X292695Y126928D01*
X292699Y126886D01*
X292707Y126836D01*
X292710Y126783D01*
X292714Y126725D01*
Y126667D01*
X292718Y126533D01*
Y126529D01*
Y126514D01*
Y126491D01*
Y126460D01*
X292714Y126422D01*
Y126379D01*
X292710Y126329D01*
X292707Y126276D01*
X292695Y126160D01*
X292680Y126041D01*
X292657Y125922D01*
X292641Y125869D01*
X292626Y125815D01*
Y125811D01*
X292622Y125803D01*
X292618Y125788D01*
X292611Y125769D01*
X292599Y125746D01*
X292587Y125723D01*
X292557Y125661D01*
X292518Y125592D01*
X292472Y125523D01*
X292419Y125454D01*
X292353Y125392D01*
X292349D01*
X292346Y125385D01*
X292334Y125381D01*
X292323Y125369D01*
X292280Y125346D01*
X292230Y125320D01*
X292161Y125293D01*
X292085Y125270D01*
X291996Y125254D01*
X291896Y125247D01*
X291862D01*
X291835Y125250D01*
X291804Y125254D01*
X291770Y125262D01*
X291731Y125270D01*
X291689Y125277D01*
X291597Y125308D01*
X291547Y125331D01*
X291501Y125354D01*
X291451Y125385D01*
X291405Y125419D01*
X291363Y125458D01*
X291320Y125504D01*
X291317Y125508D01*
X291309Y125519D01*
X291297Y125538D01*
X291282Y125565D01*
X291263Y125600D01*
X291244Y125642D01*
X291220Y125692D01*
X291197Y125753D01*
X291174Y125819D01*
X291151Y125896D01*
X291132Y125980D01*
X291113Y126072D01*
X291098Y126176D01*
X291086Y126283D01*
X291078Y126406D01*
X291074Y126533D01*
Y126537D01*
Y126552D01*
Y126575D01*
Y126606D01*
X291078Y126644D01*
Y126687D01*
X291082Y126736D01*
X291086Y126790D01*
X291098Y126905D01*
X291113Y127024D01*
X291132Y127144D01*
X291147Y127197D01*
X291163Y127251D01*
Y127255D01*
X291167Y127262D01*
X291174Y127278D01*
X291182Y127297D01*
X291190Y127320D01*
X291201Y127347D01*
X291232Y127408D01*
X291270Y127478D01*
X291317Y127547D01*
X291370Y127612D01*
X291436Y127673D01*
X291439D01*
X291443Y127681D01*
X291455Y127689D01*
X291470Y127697D01*
X291509Y127719D01*
X291562Y127750D01*
X291628Y127777D01*
X291708Y127800D01*
X291796Y127815D01*
X291896Y127823D01*
X291931D01*
X291969Y127819D01*
D02*
G37*
G36*
X290011D02*
X290057Y127812D01*
X290111Y127804D01*
X290172Y127789D01*
X290234Y127766D01*
X290291Y127739D01*
X290299Y127735D01*
X290318Y127723D01*
X290345Y127704D01*
X290383Y127681D01*
X290422Y127647D01*
X290464Y127604D01*
X290506Y127558D01*
X290545Y127504D01*
X290548Y127497D01*
X290560Y127478D01*
X290579Y127443D01*
X290602Y127401D01*
X290625Y127347D01*
X290652Y127282D01*
X290679Y127209D01*
X290702Y127128D01*
Y127124D01*
X290706Y127117D01*
Y127105D01*
X290710Y127086D01*
X290717Y127067D01*
X290721Y127040D01*
X290725Y127005D01*
X290733Y126971D01*
X290737Y126928D01*
X290740Y126886D01*
X290748Y126836D01*
X290752Y126783D01*
X290756Y126725D01*
Y126667D01*
X290760Y126533D01*
Y126529D01*
Y126514D01*
Y126491D01*
Y126460D01*
X290756Y126422D01*
Y126379D01*
X290752Y126329D01*
X290748Y126276D01*
X290737Y126160D01*
X290721Y126041D01*
X290698Y125922D01*
X290683Y125869D01*
X290668Y125815D01*
Y125811D01*
X290664Y125803D01*
X290660Y125788D01*
X290652Y125769D01*
X290641Y125746D01*
X290629Y125723D01*
X290598Y125661D01*
X290560Y125592D01*
X290514Y125523D01*
X290460Y125454D01*
X290395Y125392D01*
X290391D01*
X290387Y125385D01*
X290376Y125381D01*
X290364Y125369D01*
X290322Y125346D01*
X290272Y125320D01*
X290203Y125293D01*
X290126Y125270D01*
X290038Y125254D01*
X289938Y125247D01*
X289903D01*
X289877Y125250D01*
X289846Y125254D01*
X289811Y125262D01*
X289773Y125270D01*
X289731Y125277D01*
X289638Y125308D01*
X289588Y125331D01*
X289542Y125354D01*
X289493Y125385D01*
X289446Y125419D01*
X289404Y125458D01*
X289362Y125504D01*
X289358Y125508D01*
X289350Y125519D01*
X289339Y125538D01*
X289323Y125565D01*
X289304Y125600D01*
X289285Y125642D01*
X289262Y125692D01*
X289239Y125753D01*
X289216Y125819D01*
X289193Y125896D01*
X289174Y125980D01*
X289155Y126072D01*
X289139Y126176D01*
X289128Y126283D01*
X289120Y126406D01*
X289116Y126533D01*
Y126537D01*
Y126552D01*
Y126575D01*
Y126606D01*
X289120Y126644D01*
Y126687D01*
X289124Y126736D01*
X289128Y126790D01*
X289139Y126905D01*
X289155Y127024D01*
X289174Y127144D01*
X289189Y127197D01*
X289205Y127251D01*
Y127255D01*
X289208Y127262D01*
X289216Y127278D01*
X289224Y127297D01*
X289231Y127320D01*
X289243Y127347D01*
X289274Y127408D01*
X289312Y127478D01*
X289358Y127547D01*
X289412Y127612D01*
X289477Y127673D01*
X289481D01*
X289485Y127681D01*
X289496Y127689D01*
X289512Y127697D01*
X289550Y127719D01*
X289604Y127750D01*
X289669Y127777D01*
X289750Y127800D01*
X289838Y127815D01*
X289938Y127823D01*
X289972D01*
X290011Y127819D01*
D02*
G37*
G36*
X448359Y263223D02*
Y263220D01*
Y263208D01*
Y263189D01*
Y263162D01*
X448355Y263127D01*
Y263093D01*
X448351Y263051D01*
X448347Y263004D01*
X448336Y262909D01*
X448320Y262809D01*
X448301Y262709D01*
X448271Y262620D01*
Y262617D01*
X448267Y262609D01*
X448263Y262597D01*
X448255Y262582D01*
X448232Y262544D01*
X448202Y262490D01*
X448159Y262432D01*
X448105Y262371D01*
X448036Y262313D01*
X447960Y262256D01*
X447956D01*
X447948Y262248D01*
X447936Y262244D01*
X447917Y262233D01*
X447898Y262225D01*
X447871Y262213D01*
X447837Y262198D01*
X447802Y262187D01*
X447764Y262175D01*
X447718Y262160D01*
X447672Y262148D01*
X447618Y262140D01*
X447503Y262125D01*
X447372Y262118D01*
X447337D01*
X447314Y262121D01*
X447284D01*
X447249Y262125D01*
X447211Y262129D01*
X447168Y262133D01*
X447076Y262148D01*
X446980Y262167D01*
X446880Y262198D01*
X446792Y262236D01*
X446788D01*
X446781Y262244D01*
X446773Y262248D01*
X446758Y262260D01*
X446715Y262286D01*
X446669Y262329D01*
X446616Y262379D01*
X446566Y262436D01*
X446516Y262509D01*
X446474Y262590D01*
Y262594D01*
X446470Y262601D01*
X446466Y262613D01*
X446458Y262632D01*
X446450Y262655D01*
X446443Y262686D01*
X446435Y262720D01*
X446427Y262759D01*
X446416Y262801D01*
X446408Y262847D01*
X446400Y262901D01*
X446393Y262955D01*
X446385Y263016D01*
X446381Y263081D01*
X446378Y263150D01*
Y263223D01*
Y264683D01*
X446711D01*
Y263223D01*
Y263220D01*
Y263208D01*
Y263193D01*
Y263170D01*
Y263143D01*
X446715Y263112D01*
X446719Y263039D01*
X446727Y262962D01*
X446735Y262882D01*
X446750Y262805D01*
X446758Y262770D01*
X446769Y262740D01*
X446773Y262732D01*
X446781Y262713D01*
X446796Y262686D01*
X446819Y262651D01*
X446846Y262613D01*
X446884Y262571D01*
X446927Y262532D01*
X446980Y262498D01*
X446988Y262494D01*
X447007Y262486D01*
X447038Y262471D01*
X447080Y262459D01*
X447134Y262444D01*
X447195Y262428D01*
X447264Y262421D01*
X447341Y262417D01*
X447376D01*
X447403Y262421D01*
X447434D01*
X447468Y262425D01*
X447545Y262436D01*
X447633Y262459D01*
X447718Y262486D01*
X447798Y262528D01*
X447837Y262551D01*
X447867Y262582D01*
Y262586D01*
X447875Y262590D01*
X447883Y262601D01*
X447890Y262617D01*
X447906Y262636D01*
X447917Y262659D01*
X447933Y262690D01*
X447948Y262724D01*
X447960Y262766D01*
X447975Y262812D01*
X447990Y262862D01*
X448002Y262924D01*
X448009Y262989D01*
X448017Y263058D01*
X448025Y263139D01*
Y263223D01*
Y264683D01*
X448359D01*
Y263223D01*
D02*
G37*
G36*
X450340Y264349D02*
X449334D01*
X449196Y263669D01*
X449200Y263673D01*
X449207Y263677D01*
X449219Y263684D01*
X449234Y263696D01*
X449258Y263707D01*
X449281Y263719D01*
X449342Y263750D01*
X449411Y263780D01*
X449492Y263803D01*
X449580Y263822D01*
X449672Y263830D01*
X449703D01*
X449726Y263826D01*
X449757Y263822D01*
X449787Y263819D01*
X449826Y263811D01*
X449864Y263803D01*
X449953Y263773D01*
X449999Y263757D01*
X450045Y263734D01*
X450095Y263707D01*
X450141Y263677D01*
X450187Y263642D01*
X450229Y263600D01*
X450233Y263596D01*
X450241Y263588D01*
X450252Y263577D01*
X450264Y263558D01*
X450283Y263534D01*
X450302Y263508D01*
X450321Y263477D01*
X450344Y263442D01*
X450367Y263400D01*
X450386Y263358D01*
X450406Y263308D01*
X450425Y263258D01*
X450436Y263200D01*
X450448Y263143D01*
X450456Y263077D01*
X450459Y263012D01*
Y263008D01*
Y262997D01*
Y262978D01*
X450456Y262955D01*
X450452Y262924D01*
X450448Y262889D01*
X450444Y262851D01*
X450436Y262809D01*
X450410Y262717D01*
X450375Y262620D01*
X450352Y262567D01*
X450325Y262517D01*
X450294Y262467D01*
X450260Y262421D01*
X450256Y262417D01*
X450248Y262409D01*
X450233Y262394D01*
X450214Y262375D01*
X450191Y262352D01*
X450160Y262325D01*
X450125Y262298D01*
X450083Y262271D01*
X450041Y262240D01*
X449991Y262213D01*
X449933Y262187D01*
X449876Y262164D01*
X449810Y262144D01*
X449745Y262129D01*
X449672Y262121D01*
X449595Y262118D01*
X449561D01*
X449538Y262121D01*
X449511Y262125D01*
X449476Y262129D01*
X449438Y262133D01*
X449396Y262140D01*
X449307Y262164D01*
X449215Y262198D01*
X449169Y262221D01*
X449123Y262248D01*
X449077Y262275D01*
X449035Y262310D01*
X449031Y262313D01*
X449027Y262317D01*
X449016Y262329D01*
X449000Y262344D01*
X448985Y262363D01*
X448966Y262386D01*
X448946Y262413D01*
X448923Y262444D01*
X448881Y262517D01*
X448839Y262605D01*
X448808Y262705D01*
X448797Y262763D01*
X448789Y262820D01*
X449115Y262843D01*
Y262839D01*
Y262832D01*
X449119Y262820D01*
X449123Y262805D01*
X449135Y262763D01*
X449150Y262709D01*
X449169Y262651D01*
X449200Y262594D01*
X449234Y262536D01*
X449281Y262486D01*
X449288Y262482D01*
X449303Y262467D01*
X449330Y262452D01*
X449369Y262428D01*
X449415Y262409D01*
X449469Y262390D01*
X449530Y262375D01*
X449595Y262371D01*
X449618D01*
X449634Y262375D01*
X449676Y262379D01*
X449730Y262390D01*
X449787Y262413D01*
X449853Y262440D01*
X449914Y262482D01*
X449945Y262505D01*
X449975Y262536D01*
Y262540D01*
X449983Y262544D01*
X449999Y262567D01*
X450026Y262605D01*
X450052Y262655D01*
X450079Y262720D01*
X450106Y262797D01*
X450121Y262885D01*
X450129Y262985D01*
Y262989D01*
Y262997D01*
Y263012D01*
X450125Y263028D01*
Y263051D01*
X450121Y263077D01*
X450110Y263139D01*
X450095Y263204D01*
X450068Y263273D01*
X450029Y263342D01*
X449979Y263404D01*
X449972Y263412D01*
X449953Y263427D01*
X449922Y263454D01*
X449876Y263481D01*
X449822Y263508D01*
X449753Y263534D01*
X449676Y263550D01*
X449591Y263558D01*
X449565D01*
X449538Y263554D01*
X449499Y263550D01*
X449457Y263538D01*
X449411Y263527D01*
X449365Y263508D01*
X449319Y263485D01*
X449315Y263481D01*
X449300Y263473D01*
X449277Y263458D01*
X449250Y263438D01*
X449223Y263412D01*
X449192Y263381D01*
X449161Y263346D01*
X449135Y263308D01*
X448843Y263350D01*
X449088Y264644D01*
X450340D01*
Y264349D01*
D02*
G37*
G36*
X453601Y264690D02*
X453647Y264683D01*
X453700Y264675D01*
X453762Y264660D01*
X453823Y264636D01*
X453881Y264610D01*
X453889Y264606D01*
X453908Y264594D01*
X453935Y264575D01*
X453973Y264552D01*
X454011Y264517D01*
X454054Y264475D01*
X454096Y264429D01*
X454134Y264375D01*
X454138Y264368D01*
X454150Y264349D01*
X454169Y264314D01*
X454192Y264272D01*
X454215Y264218D01*
X454242Y264153D01*
X454269Y264080D01*
X454292Y263999D01*
Y263995D01*
X454295Y263988D01*
Y263976D01*
X454299Y263957D01*
X454307Y263938D01*
X454311Y263911D01*
X454315Y263876D01*
X454322Y263842D01*
X454326Y263799D01*
X454330Y263757D01*
X454338Y263707D01*
X454342Y263653D01*
X454346Y263596D01*
Y263538D01*
X454349Y263404D01*
Y263400D01*
Y263385D01*
Y263362D01*
Y263331D01*
X454346Y263293D01*
Y263250D01*
X454342Y263200D01*
X454338Y263147D01*
X454326Y263031D01*
X454311Y262912D01*
X454288Y262793D01*
X454273Y262740D01*
X454257Y262686D01*
Y262682D01*
X454253Y262674D01*
X454249Y262659D01*
X454242Y262640D01*
X454230Y262617D01*
X454219Y262594D01*
X454188Y262532D01*
X454150Y262463D01*
X454104Y262394D01*
X454050Y262325D01*
X453984Y262263D01*
X453981D01*
X453977Y262256D01*
X453965Y262252D01*
X453954Y262240D01*
X453911Y262217D01*
X453862Y262190D01*
X453792Y262164D01*
X453716Y262140D01*
X453627Y262125D01*
X453527Y262118D01*
X453493D01*
X453466Y262121D01*
X453435Y262125D01*
X453401Y262133D01*
X453362Y262140D01*
X453320Y262148D01*
X453228Y262179D01*
X453178Y262202D01*
X453132Y262225D01*
X453082Y262256D01*
X453036Y262290D01*
X452994Y262329D01*
X452951Y262375D01*
X452948Y262379D01*
X452940Y262390D01*
X452928Y262409D01*
X452913Y262436D01*
X452894Y262471D01*
X452875Y262513D01*
X452852Y262563D01*
X452829Y262624D01*
X452806Y262690D01*
X452783Y262766D01*
X452763Y262851D01*
X452744Y262943D01*
X452729Y263047D01*
X452717Y263154D01*
X452710Y263277D01*
X452706Y263404D01*
Y263408D01*
Y263423D01*
Y263446D01*
Y263477D01*
X452710Y263515D01*
Y263558D01*
X452713Y263607D01*
X452717Y263661D01*
X452729Y263776D01*
X452744Y263895D01*
X452763Y264014D01*
X452779Y264068D01*
X452794Y264122D01*
Y264126D01*
X452798Y264134D01*
X452806Y264149D01*
X452813Y264168D01*
X452821Y264191D01*
X452833Y264218D01*
X452863Y264279D01*
X452902Y264349D01*
X452948Y264418D01*
X453001Y264483D01*
X453067Y264544D01*
X453071D01*
X453074Y264552D01*
X453086Y264560D01*
X453101Y264567D01*
X453140Y264590D01*
X453194Y264621D01*
X453259Y264648D01*
X453339Y264671D01*
X453428Y264686D01*
X453527Y264694D01*
X453562D01*
X453601Y264690D01*
D02*
G37*
G36*
X451642D02*
X451688Y264683D01*
X451742Y264675D01*
X451803Y264660D01*
X451865Y264636D01*
X451922Y264610D01*
X451930Y264606D01*
X451949Y264594D01*
X451976Y264575D01*
X452015Y264552D01*
X452053Y264517D01*
X452095Y264475D01*
X452138Y264429D01*
X452176Y264375D01*
X452180Y264368D01*
X452191Y264349D01*
X452210Y264314D01*
X452234Y264272D01*
X452256Y264218D01*
X452283Y264153D01*
X452310Y264080D01*
X452333Y263999D01*
Y263995D01*
X452337Y263988D01*
Y263976D01*
X452341Y263957D01*
X452349Y263938D01*
X452353Y263911D01*
X452356Y263876D01*
X452364Y263842D01*
X452368Y263799D01*
X452372Y263757D01*
X452379Y263707D01*
X452383Y263653D01*
X452387Y263596D01*
Y263538D01*
X452391Y263404D01*
Y263400D01*
Y263385D01*
Y263362D01*
Y263331D01*
X452387Y263293D01*
Y263250D01*
X452383Y263200D01*
X452379Y263147D01*
X452368Y263031D01*
X452353Y262912D01*
X452329Y262793D01*
X452314Y262740D01*
X452299Y262686D01*
Y262682D01*
X452295Y262674D01*
X452291Y262659D01*
X452283Y262640D01*
X452272Y262617D01*
X452260Y262594D01*
X452230Y262532D01*
X452191Y262463D01*
X452145Y262394D01*
X452091Y262325D01*
X452026Y262263D01*
X452022D01*
X452018Y262256D01*
X452007Y262252D01*
X451995Y262240D01*
X451953Y262217D01*
X451903Y262190D01*
X451834Y262164D01*
X451757Y262140D01*
X451669Y262125D01*
X451569Y262118D01*
X451535D01*
X451508Y262121D01*
X451477Y262125D01*
X451442Y262133D01*
X451404Y262140D01*
X451362Y262148D01*
X451270Y262179D01*
X451220Y262202D01*
X451174Y262225D01*
X451124Y262256D01*
X451078Y262290D01*
X451035Y262329D01*
X450993Y262375D01*
X450989Y262379D01*
X450982Y262390D01*
X450970Y262409D01*
X450955Y262436D01*
X450936Y262471D01*
X450916Y262513D01*
X450893Y262563D01*
X450870Y262624D01*
X450847Y262690D01*
X450824Y262766D01*
X450805Y262851D01*
X450786Y262943D01*
X450770Y263047D01*
X450759Y263154D01*
X450751Y263277D01*
X450747Y263404D01*
Y263408D01*
Y263423D01*
Y263446D01*
Y263477D01*
X450751Y263515D01*
Y263558D01*
X450755Y263607D01*
X450759Y263661D01*
X450770Y263776D01*
X450786Y263895D01*
X450805Y264014D01*
X450820Y264068D01*
X450836Y264122D01*
Y264126D01*
X450840Y264134D01*
X450847Y264149D01*
X450855Y264168D01*
X450863Y264191D01*
X450874Y264218D01*
X450905Y264279D01*
X450943Y264349D01*
X450989Y264418D01*
X451043Y264483D01*
X451108Y264544D01*
X451112D01*
X451116Y264552D01*
X451127Y264560D01*
X451143Y264567D01*
X451181Y264590D01*
X451235Y264621D01*
X451300Y264648D01*
X451381Y264671D01*
X451469Y264686D01*
X451569Y264694D01*
X451604D01*
X451642Y264690D01*
D02*
G37*
G36*
X626116Y97920D02*
X626146Y97916D01*
X626177Y97912D01*
X626216Y97905D01*
X626254Y97893D01*
X626342Y97866D01*
X626392Y97847D01*
X626438Y97820D01*
X626484Y97793D01*
X626530Y97763D01*
X626577Y97724D01*
X626623Y97682D01*
X626626Y97678D01*
X626634Y97670D01*
X626642Y97659D01*
X626657Y97640D01*
X626676Y97617D01*
X626696Y97586D01*
X626715Y97551D01*
X626734Y97517D01*
X626757Y97474D01*
X626776Y97428D01*
X626795Y97378D01*
X626815Y97325D01*
X626830Y97267D01*
X626838Y97206D01*
X626845Y97140D01*
X626849Y97075D01*
Y97044D01*
X626845Y97021D01*
X626841Y96991D01*
X626838Y96960D01*
X626834Y96922D01*
X626826Y96883D01*
X626803Y96795D01*
X626765Y96703D01*
X626746Y96657D01*
X626719Y96614D01*
X626688Y96568D01*
X626653Y96526D01*
X626650Y96522D01*
X626646Y96518D01*
X626634Y96507D01*
X626619Y96491D01*
X626596Y96476D01*
X626573Y96457D01*
X626546Y96434D01*
X626515Y96415D01*
X626438Y96369D01*
X626350Y96330D01*
X626250Y96296D01*
X626196Y96284D01*
X626139Y96276D01*
X626096Y96588D01*
X626100D01*
X626108Y96591D01*
X626123D01*
X626139Y96599D01*
X626185Y96610D01*
X626242Y96630D01*
X626304Y96653D01*
X626369Y96684D01*
X626427Y96722D01*
X626477Y96764D01*
X626480Y96772D01*
X626496Y96787D01*
X626511Y96814D01*
X626534Y96852D01*
X626553Y96895D01*
X626573Y96948D01*
X626588Y97010D01*
X626592Y97075D01*
Y97098D01*
X626588Y97114D01*
X626584Y97152D01*
X626573Y97202D01*
X626553Y97263D01*
X626530Y97325D01*
X626492Y97386D01*
X626442Y97444D01*
X626434Y97452D01*
X626415Y97467D01*
X626384Y97490D01*
X626338Y97521D01*
X626285Y97548D01*
X626219Y97571D01*
X626146Y97586D01*
X626066Y97594D01*
X626062D01*
X626058D01*
X626047D01*
X626031Y97590D01*
X625993Y97586D01*
X625943Y97574D01*
X625889Y97559D01*
X625828Y97532D01*
X625770Y97498D01*
X625716Y97452D01*
X625709Y97444D01*
X625693Y97428D01*
X625674Y97398D01*
X625647Y97356D01*
X625620Y97306D01*
X625601Y97244D01*
X625586Y97179D01*
X625578Y97102D01*
Y97067D01*
X625582Y97041D01*
X625586Y97010D01*
X625590Y96971D01*
X625597Y96929D01*
X625609Y96883D01*
X625336Y96918D01*
Y96937D01*
X625340Y96952D01*
Y97002D01*
X625336Y97037D01*
X625328Y97087D01*
X625317Y97140D01*
X625298Y97198D01*
X625275Y97259D01*
X625240Y97321D01*
X625236Y97329D01*
X625221Y97348D01*
X625194Y97371D01*
X625160Y97401D01*
X625117Y97432D01*
X625064Y97455D01*
X624998Y97474D01*
X624922Y97482D01*
X624918D01*
X624914D01*
X624895D01*
X624864Y97474D01*
X624822Y97467D01*
X624779Y97455D01*
X624733Y97432D01*
X624683Y97405D01*
X624641Y97367D01*
X624637Y97363D01*
X624622Y97348D01*
X624603Y97321D01*
X624584Y97286D01*
X624560Y97244D01*
X624545Y97194D01*
X624530Y97137D01*
X624526Y97071D01*
Y97041D01*
X624534Y97006D01*
X624541Y96968D01*
X624553Y96918D01*
X624576Y96868D01*
X624603Y96818D01*
X624641Y96768D01*
X624645Y96764D01*
X624660Y96749D01*
X624687Y96729D01*
X624726Y96706D01*
X624772Y96680D01*
X624829Y96657D01*
X624898Y96634D01*
X624979Y96618D01*
X624925Y96307D01*
X624922D01*
X624910Y96311D01*
X624895Y96315D01*
X624875Y96319D01*
X624849Y96326D01*
X624818Y96334D01*
X624749Y96361D01*
X624672Y96392D01*
X624591Y96438D01*
X624514Y96491D01*
X624445Y96561D01*
X624441Y96564D01*
X624438Y96568D01*
X624430Y96580D01*
X624418Y96599D01*
X624407Y96618D01*
X624392Y96641D01*
X624357Y96699D01*
X624326Y96772D01*
X624299Y96860D01*
X624280Y96956D01*
X624272Y97010D01*
Y97098D01*
X624276Y97137D01*
X624284Y97186D01*
X624296Y97244D01*
X624311Y97309D01*
X624334Y97375D01*
X624365Y97440D01*
Y97444D01*
X624368Y97448D01*
X624380Y97471D01*
X624399Y97501D01*
X624426Y97540D01*
X624461Y97582D01*
X624503Y97628D01*
X624553Y97670D01*
X624607Y97709D01*
X624614Y97713D01*
X624634Y97724D01*
X624664Y97739D01*
X624703Y97755D01*
X624753Y97770D01*
X624806Y97786D01*
X624864Y97797D01*
X624929Y97801D01*
X624937D01*
X624956D01*
X624987Y97797D01*
X625025Y97789D01*
X625071Y97778D01*
X625121Y97763D01*
X625175Y97743D01*
X625225Y97713D01*
X625233Y97709D01*
X625248Y97697D01*
X625271Y97674D01*
X625302Y97647D01*
X625336Y97609D01*
X625371Y97567D01*
X625409Y97513D01*
X625440Y97452D01*
Y97455D01*
X625444Y97463D01*
Y97474D01*
X625451Y97490D01*
X625463Y97528D01*
X625486Y97578D01*
X625513Y97632D01*
X625551Y97689D01*
X625597Y97747D01*
X625655Y97797D01*
X625663Y97801D01*
X625686Y97816D01*
X625720Y97835D01*
X625766Y97862D01*
X625824Y97885D01*
X625893Y97905D01*
X625974Y97920D01*
X626062Y97924D01*
X626066D01*
X626077D01*
X626093D01*
X626116Y97920D01*
D02*
G37*
G36*
X625674Y95954D02*
X625716D01*
X625766Y95950D01*
X625820Y95946D01*
X625935Y95935D01*
X626054Y95919D01*
X626173Y95896D01*
X626227Y95881D01*
X626281Y95865D01*
X626285D01*
X626292Y95862D01*
X626308Y95858D01*
X626327Y95850D01*
X626350Y95839D01*
X626373Y95827D01*
X626434Y95796D01*
X626504Y95758D01*
X626573Y95712D01*
X626642Y95658D01*
X626703Y95593D01*
Y95589D01*
X626711Y95585D01*
X626715Y95574D01*
X626726Y95562D01*
X626749Y95520D01*
X626776Y95470D01*
X626803Y95401D01*
X626826Y95324D01*
X626841Y95236D01*
X626849Y95136D01*
Y95101D01*
X626845Y95074D01*
X626841Y95044D01*
X626834Y95009D01*
X626826Y94971D01*
X626818Y94929D01*
X626788Y94836D01*
X626765Y94787D01*
X626742Y94740D01*
X626711Y94691D01*
X626676Y94644D01*
X626638Y94602D01*
X626592Y94560D01*
X626588Y94556D01*
X626577Y94548D01*
X626557Y94537D01*
X626530Y94522D01*
X626496Y94502D01*
X626454Y94483D01*
X626404Y94460D01*
X626342Y94437D01*
X626277Y94414D01*
X626200Y94391D01*
X626116Y94372D01*
X626023Y94353D01*
X625920Y94337D01*
X625812Y94326D01*
X625690Y94318D01*
X625563Y94314D01*
X625559D01*
X625543D01*
X625521D01*
X625490D01*
X625451Y94318D01*
X625409D01*
X625359Y94322D01*
X625306Y94326D01*
X625190Y94337D01*
X625071Y94353D01*
X624952Y94372D01*
X624898Y94387D01*
X624845Y94402D01*
X624841D01*
X624833Y94406D01*
X624818Y94414D01*
X624799Y94422D01*
X624776Y94429D01*
X624749Y94441D01*
X624687Y94472D01*
X624618Y94510D01*
X624549Y94556D01*
X624484Y94610D01*
X624422Y94675D01*
Y94679D01*
X624415Y94683D01*
X624407Y94694D01*
X624399Y94710D01*
X624376Y94748D01*
X624345Y94802D01*
X624319Y94867D01*
X624296Y94948D01*
X624280Y95036D01*
X624272Y95136D01*
Y95170D01*
X624276Y95209D01*
X624284Y95255D01*
X624292Y95309D01*
X624307Y95370D01*
X624330Y95432D01*
X624357Y95489D01*
X624361Y95497D01*
X624372Y95516D01*
X624392Y95543D01*
X624415Y95581D01*
X624449Y95620D01*
X624491Y95662D01*
X624538Y95704D01*
X624591Y95743D01*
X624599Y95746D01*
X624618Y95758D01*
X624653Y95777D01*
X624695Y95800D01*
X624749Y95823D01*
X624814Y95850D01*
X624887Y95877D01*
X624968Y95900D01*
X624971D01*
X624979Y95904D01*
X624991D01*
X625010Y95908D01*
X625029Y95916D01*
X625056Y95919D01*
X625090Y95923D01*
X625125Y95931D01*
X625167Y95935D01*
X625210Y95938D01*
X625259Y95946D01*
X625313Y95950D01*
X625371Y95954D01*
X625428D01*
X625563Y95958D01*
X625567D01*
X625582D01*
X625605D01*
X625636D01*
X625674Y95954D01*
D02*
G37*
G36*
X624560Y94003D02*
X624568Y93995D01*
X624584Y93984D01*
X624603Y93965D01*
X624630Y93946D01*
X624660Y93919D01*
X624699Y93888D01*
X624737Y93857D01*
X624783Y93823D01*
X624837Y93784D01*
X624891Y93742D01*
X624952Y93704D01*
X625017Y93661D01*
X625087Y93615D01*
X625163Y93573D01*
X625240Y93527D01*
X625244Y93523D01*
X625259Y93515D01*
X625282Y93504D01*
X625313Y93489D01*
X625352Y93469D01*
X625398Y93446D01*
X625451Y93419D01*
X625509Y93393D01*
X625570Y93366D01*
X625639Y93335D01*
X625712Y93304D01*
X625789Y93274D01*
X625947Y93216D01*
X626116Y93162D01*
X626120D01*
X626131Y93158D01*
X626146Y93155D01*
X626169Y93147D01*
X626200Y93139D01*
X626235Y93132D01*
X626277Y93124D01*
X626319Y93112D01*
X626369Y93105D01*
X626423Y93093D01*
X626538Y93074D01*
X626669Y93059D01*
X626807Y93047D01*
Y92728D01*
X626803D01*
X626792D01*
X626776D01*
X626753Y92732D01*
X626726D01*
X626692Y92736D01*
X626650Y92740D01*
X626607Y92744D01*
X626557Y92751D01*
X626500Y92759D01*
X626442Y92767D01*
X626381Y92778D01*
X626311Y92790D01*
X626242Y92805D01*
X626089Y92844D01*
X626085D01*
X626070Y92847D01*
X626047Y92855D01*
X626016Y92863D01*
X625978Y92874D01*
X625935Y92889D01*
X625885Y92905D01*
X625828Y92924D01*
X625770Y92947D01*
X625705Y92970D01*
X625567Y93024D01*
X625421Y93089D01*
X625275Y93162D01*
X625271Y93166D01*
X625256Y93174D01*
X625236Y93185D01*
X625210Y93201D01*
X625175Y93220D01*
X625137Y93243D01*
X625094Y93270D01*
X625044Y93297D01*
X624941Y93366D01*
X624829Y93442D01*
X624718Y93523D01*
X624610Y93612D01*
Y92375D01*
X624315D01*
Y94007D01*
X624557D01*
X624560Y94003D01*
D02*
G37*
G36*
X625839Y91922D02*
X625874D01*
X625916Y91918D01*
X625962Y91914D01*
X626058Y91903D01*
X626158Y91887D01*
X626258Y91868D01*
X626346Y91837D01*
X626350D01*
X626358Y91834D01*
X626369Y91830D01*
X626384Y91822D01*
X626423Y91799D01*
X626477Y91768D01*
X626534Y91726D01*
X626596Y91672D01*
X626653Y91603D01*
X626711Y91526D01*
Y91523D01*
X626719Y91515D01*
X626722Y91503D01*
X626734Y91484D01*
X626742Y91465D01*
X626753Y91438D01*
X626768Y91404D01*
X626780Y91369D01*
X626792Y91330D01*
X626807Y91284D01*
X626818Y91238D01*
X626826Y91185D01*
X626841Y91069D01*
X626849Y90939D01*
Y90904D01*
X626845Y90881D01*
Y90851D01*
X626841Y90816D01*
X626838Y90777D01*
X626834Y90735D01*
X626818Y90643D01*
X626799Y90547D01*
X626768Y90447D01*
X626730Y90359D01*
Y90355D01*
X626722Y90347D01*
X626719Y90340D01*
X626707Y90324D01*
X626680Y90282D01*
X626638Y90236D01*
X626588Y90182D01*
X626530Y90132D01*
X626458Y90083D01*
X626377Y90040D01*
X626373D01*
X626365Y90036D01*
X626354Y90033D01*
X626335Y90025D01*
X626311Y90017D01*
X626281Y90010D01*
X626246Y90002D01*
X626208Y89994D01*
X626166Y89983D01*
X626120Y89975D01*
X626066Y89967D01*
X626012Y89960D01*
X625951Y89952D01*
X625885Y89948D01*
X625816Y89944D01*
X625743D01*
X624284D01*
Y90278D01*
X625743D01*
X625747D01*
X625759D01*
X625774D01*
X625797D01*
X625824D01*
X625855Y90282D01*
X625927Y90286D01*
X626004Y90294D01*
X626085Y90301D01*
X626162Y90317D01*
X626196Y90324D01*
X626227Y90336D01*
X626235Y90340D01*
X626254Y90347D01*
X626281Y90363D01*
X626315Y90386D01*
X626354Y90413D01*
X626396Y90451D01*
X626434Y90493D01*
X626469Y90547D01*
X626473Y90555D01*
X626480Y90574D01*
X626496Y90605D01*
X626507Y90647D01*
X626523Y90701D01*
X626538Y90762D01*
X626546Y90831D01*
X626550Y90908D01*
Y90943D01*
X626546Y90970D01*
Y91000D01*
X626542Y91035D01*
X626530Y91112D01*
X626507Y91200D01*
X626480Y91284D01*
X626438Y91365D01*
X626415Y91404D01*
X626384Y91434D01*
X626381D01*
X626377Y91442D01*
X626365Y91449D01*
X626350Y91457D01*
X626331Y91473D01*
X626308Y91484D01*
X626277Y91500D01*
X626242Y91515D01*
X626200Y91526D01*
X626154Y91542D01*
X626104Y91557D01*
X626043Y91569D01*
X625978Y91576D01*
X625908Y91584D01*
X625828Y91592D01*
X625743D01*
X624284D01*
Y91926D01*
X625743D01*
X625747D01*
X625759D01*
X625778D01*
X625805D01*
X625839Y91922D01*
D02*
G37*
G36*
X525066Y248188D02*
X523093D01*
X523097Y248184D01*
X523112Y248169D01*
X523131Y248142D01*
X523158Y248107D01*
X523193Y248065D01*
X523227Y248015D01*
X523269Y247957D01*
X523308Y247892D01*
Y247888D01*
X523312Y247884D01*
X523327Y247861D01*
X523346Y247827D01*
X523369Y247785D01*
X523396Y247735D01*
X523419Y247681D01*
X523446Y247623D01*
X523469Y247570D01*
X523166D01*
Y247573D01*
X523162Y247581D01*
X523154Y247597D01*
X523143Y247612D01*
X523131Y247635D01*
X523120Y247662D01*
X523085Y247723D01*
X523043Y247792D01*
X522993Y247869D01*
X522935Y247946D01*
X522874Y248019D01*
X522870Y248023D01*
X522866Y248027D01*
X522843Y248050D01*
X522809Y248084D01*
X522766Y248126D01*
X522713Y248172D01*
X522655Y248219D01*
X522593Y248261D01*
X522532Y248295D01*
Y248499D01*
X525066D01*
Y248188D01*
D02*
G37*
G36*
X523934Y247013D02*
X523976D01*
X524026Y247009D01*
X524080Y247005D01*
X524195Y246994D01*
X524314Y246978D01*
X524433Y246955D01*
X524487Y246940D01*
X524540Y246924D01*
X524544D01*
X524552Y246921D01*
X524567Y246917D01*
X524586Y246909D01*
X524610Y246898D01*
X524633Y246886D01*
X524694Y246855D01*
X524763Y246817D01*
X524832Y246771D01*
X524901Y246717D01*
X524963Y246652D01*
Y246648D01*
X524970Y246644D01*
X524974Y246633D01*
X524986Y246621D01*
X525009Y246579D01*
X525036Y246529D01*
X525063Y246460D01*
X525086Y246383D01*
X525101Y246295D01*
X525109Y246195D01*
Y246160D01*
X525105Y246133D01*
X525101Y246103D01*
X525093Y246068D01*
X525086Y246030D01*
X525078Y245988D01*
X525047Y245895D01*
X525024Y245845D01*
X525001Y245799D01*
X524970Y245749D01*
X524936Y245703D01*
X524897Y245661D01*
X524851Y245619D01*
X524848Y245615D01*
X524836Y245607D01*
X524817Y245596D01*
X524790Y245581D01*
X524755Y245561D01*
X524713Y245542D01*
X524663Y245519D01*
X524602Y245496D01*
X524537Y245473D01*
X524460Y245450D01*
X524375Y245431D01*
X524283Y245411D01*
X524179Y245396D01*
X524072Y245385D01*
X523949Y245377D01*
X523822Y245373D01*
X523818D01*
X523803D01*
X523780D01*
X523749D01*
X523711Y245377D01*
X523669D01*
X523619Y245381D01*
X523565Y245385D01*
X523450Y245396D01*
X523331Y245411D01*
X523212Y245431D01*
X523158Y245446D01*
X523104Y245461D01*
X523100D01*
X523093Y245465D01*
X523077Y245473D01*
X523058Y245481D01*
X523035Y245488D01*
X523008Y245500D01*
X522947Y245531D01*
X522878Y245569D01*
X522809Y245615D01*
X522743Y245669D01*
X522682Y245734D01*
Y245738D01*
X522674Y245742D01*
X522666Y245753D01*
X522659Y245769D01*
X522636Y245807D01*
X522605Y245861D01*
X522578Y245926D01*
X522555Y246007D01*
X522540Y246095D01*
X522532Y246195D01*
Y246229D01*
X522536Y246268D01*
X522544Y246314D01*
X522551Y246368D01*
X522567Y246429D01*
X522590Y246491D01*
X522616Y246548D01*
X522620Y246556D01*
X522632Y246575D01*
X522651Y246602D01*
X522674Y246640D01*
X522709Y246679D01*
X522751Y246721D01*
X522797Y246763D01*
X522851Y246802D01*
X522858Y246805D01*
X522878Y246817D01*
X522912Y246836D01*
X522954Y246859D01*
X523008Y246882D01*
X523073Y246909D01*
X523146Y246936D01*
X523227Y246959D01*
X523231D01*
X523239Y246963D01*
X523250D01*
X523269Y246967D01*
X523288Y246974D01*
X523315Y246978D01*
X523350Y246982D01*
X523385Y246990D01*
X523427Y246994D01*
X523469Y246997D01*
X523519Y247005D01*
X523573Y247009D01*
X523630Y247013D01*
X523688D01*
X523822Y247017D01*
X523826D01*
X523841D01*
X523865D01*
X523895D01*
X523934Y247013D01*
D02*
G37*
G36*
X524272Y245081D02*
X524302Y245077D01*
X524337Y245074D01*
X524375Y245070D01*
X524417Y245062D01*
X524510Y245035D01*
X524606Y245001D01*
X524659Y244978D01*
X524709Y244951D01*
X524759Y244920D01*
X524805Y244885D01*
X524809Y244882D01*
X524817Y244874D01*
X524832Y244859D01*
X524851Y244839D01*
X524874Y244816D01*
X524901Y244786D01*
X524928Y244751D01*
X524955Y244709D01*
X524986Y244667D01*
X525013Y244617D01*
X525040Y244559D01*
X525063Y244501D01*
X525082Y244436D01*
X525097Y244371D01*
X525105Y244298D01*
X525109Y244221D01*
Y244187D01*
X525105Y244163D01*
X525101Y244137D01*
X525097Y244102D01*
X525093Y244064D01*
X525086Y244021D01*
X525063Y243933D01*
X525028Y243841D01*
X525005Y243795D01*
X524978Y243749D01*
X524951Y243703D01*
X524917Y243660D01*
X524913Y243657D01*
X524909Y243653D01*
X524897Y243641D01*
X524882Y243626D01*
X524863Y243611D01*
X524840Y243591D01*
X524813Y243572D01*
X524782Y243549D01*
X524709Y243507D01*
X524621Y243465D01*
X524521Y243434D01*
X524464Y243422D01*
X524406Y243415D01*
X524383Y243741D01*
X524387D01*
X524394D01*
X524406Y243745D01*
X524421Y243749D01*
X524464Y243760D01*
X524517Y243776D01*
X524575Y243795D01*
X524633Y243826D01*
X524690Y243860D01*
X524740Y243906D01*
X524744Y243914D01*
X524759Y243929D01*
X524775Y243956D01*
X524798Y243995D01*
X524817Y244041D01*
X524836Y244094D01*
X524851Y244156D01*
X524855Y244221D01*
Y244244D01*
X524851Y244260D01*
X524848Y244302D01*
X524836Y244356D01*
X524813Y244413D01*
X524786Y244478D01*
X524744Y244540D01*
X524721Y244571D01*
X524690Y244601D01*
X524686D01*
X524682Y244609D01*
X524659Y244624D01*
X524621Y244651D01*
X524571Y244678D01*
X524506Y244705D01*
X524429Y244732D01*
X524341Y244747D01*
X524241Y244755D01*
X524237D01*
X524229D01*
X524214D01*
X524199Y244751D01*
X524176D01*
X524149Y244747D01*
X524087Y244736D01*
X524022Y244720D01*
X523953Y244693D01*
X523884Y244655D01*
X523822Y244605D01*
X523815Y244597D01*
X523799Y244578D01*
X523772Y244548D01*
X523745Y244501D01*
X523719Y244448D01*
X523692Y244379D01*
X523676Y244302D01*
X523669Y244217D01*
Y244190D01*
X523672Y244163D01*
X523676Y244125D01*
X523688Y244083D01*
X523699Y244037D01*
X523719Y243991D01*
X523742Y243945D01*
X523745Y243941D01*
X523753Y243925D01*
X523769Y243902D01*
X523788Y243876D01*
X523815Y243849D01*
X523845Y243818D01*
X523880Y243787D01*
X523918Y243760D01*
X523876Y243468D01*
X522582Y243714D01*
Y244966D01*
X522878D01*
Y243960D01*
X523557Y243822D01*
X523554Y243826D01*
X523550Y243833D01*
X523542Y243845D01*
X523530Y243860D01*
X523519Y243883D01*
X523507Y243906D01*
X523477Y243968D01*
X523446Y244037D01*
X523423Y244117D01*
X523404Y244206D01*
X523396Y244298D01*
Y244329D01*
X523400Y244352D01*
X523404Y244382D01*
X523408Y244413D01*
X523415Y244451D01*
X523423Y244490D01*
X523454Y244578D01*
X523469Y244624D01*
X523492Y244670D01*
X523519Y244720D01*
X523550Y244766D01*
X523584Y244812D01*
X523626Y244855D01*
X523630Y244859D01*
X523638Y244866D01*
X523650Y244878D01*
X523669Y244889D01*
X523692Y244908D01*
X523719Y244928D01*
X523749Y244947D01*
X523784Y244970D01*
X523826Y244993D01*
X523868Y245012D01*
X523918Y245031D01*
X523968Y245051D01*
X524026Y245062D01*
X524083Y245074D01*
X524149Y245081D01*
X524214Y245085D01*
X524218D01*
X524229D01*
X524249D01*
X524272Y245081D01*
D02*
G37*
G36*
X523865Y243077D02*
X523895D01*
X523964Y243073D01*
X524041Y243065D01*
X524129Y243050D01*
X524218Y243035D01*
X524302Y243011D01*
X524306D01*
X524314Y243008D01*
X524325Y243004D01*
X524341Y243000D01*
X524379Y242985D01*
X524433Y242965D01*
X524490Y242942D01*
X524552Y242912D01*
X524613Y242877D01*
X524671Y242839D01*
X524679Y242835D01*
X524694Y242819D01*
X524721Y242800D01*
X524755Y242770D01*
X524790Y242739D01*
X524828Y242697D01*
X524867Y242654D01*
X524901Y242608D01*
X524905Y242604D01*
X524913Y242585D01*
X524928Y242558D01*
X524947Y242524D01*
X524967Y242482D01*
X524986Y242432D01*
X525005Y242374D01*
X525024Y242309D01*
Y242301D01*
X525032Y242278D01*
X525036Y242244D01*
X525043Y242194D01*
X525051Y242136D01*
X525059Y242067D01*
X525063Y241990D01*
X525066Y241906D01*
Y240999D01*
X522544D01*
Y241967D01*
X522547Y242032D01*
X522551Y242101D01*
X522559Y242178D01*
X522570Y242251D01*
X522582Y242313D01*
Y242317D01*
X522586Y242324D01*
Y242332D01*
X522593Y242347D01*
X522605Y242389D01*
X522624Y242439D01*
X522647Y242497D01*
X522678Y242558D01*
X522716Y242620D01*
X522762Y242681D01*
Y242685D01*
X522770Y242689D01*
X522793Y242716D01*
X522832Y242750D01*
X522882Y242793D01*
X522943Y242843D01*
X523016Y242893D01*
X523100Y242939D01*
X523196Y242981D01*
X523200D01*
X523208Y242985D01*
X523223Y242988D01*
X523242Y242996D01*
X523266Y243004D01*
X523296Y243011D01*
X523331Y243023D01*
X523369Y243031D01*
X523411Y243038D01*
X523457Y243050D01*
X523557Y243065D01*
X523669Y243077D01*
X523792Y243081D01*
X523795D01*
X523803D01*
X523818D01*
X523841D01*
X523865Y243077D01*
D02*
G37*
G36*
X137445Y394756D02*
X136681Y394464D01*
Y393404D01*
X137445Y393131D01*
Y392778D01*
X134922Y393742D01*
Y394107D01*
X137445Y395132D01*
Y394756D01*
D02*
G37*
G36*
X136754Y392617D02*
X136785Y392613D01*
X136816Y392609D01*
X136854Y392601D01*
X136892Y392590D01*
X136981Y392563D01*
X137030Y392544D01*
X137077Y392517D01*
X137123Y392490D01*
X137169Y392459D01*
X137215Y392421D01*
X137261Y392379D01*
X137265Y392375D01*
X137272Y392367D01*
X137280Y392356D01*
X137295Y392337D01*
X137315Y392313D01*
X137334Y392283D01*
X137353Y392248D01*
X137372Y392214D01*
X137395Y392171D01*
X137415Y392125D01*
X137434Y392075D01*
X137453Y392022D01*
X137468Y391964D01*
X137476Y391902D01*
X137484Y391837D01*
X137487Y391772D01*
Y391741D01*
X137484Y391718D01*
X137480Y391687D01*
X137476Y391657D01*
X137472Y391618D01*
X137464Y391580D01*
X137441Y391492D01*
X137403Y391400D01*
X137384Y391353D01*
X137357Y391311D01*
X137326Y391265D01*
X137292Y391223D01*
X137288Y391219D01*
X137284Y391215D01*
X137272Y391204D01*
X137257Y391188D01*
X137234Y391173D01*
X137211Y391154D01*
X137184Y391131D01*
X137153Y391111D01*
X137077Y391065D01*
X136988Y391027D01*
X136888Y390992D01*
X136835Y390981D01*
X136777Y390973D01*
X136735Y391284D01*
X136739D01*
X136746Y391288D01*
X136762D01*
X136777Y391296D01*
X136823Y391307D01*
X136881Y391326D01*
X136942Y391350D01*
X137007Y391380D01*
X137065Y391419D01*
X137115Y391461D01*
X137119Y391469D01*
X137134Y391484D01*
X137150Y391511D01*
X137173Y391549D01*
X137192Y391592D01*
X137211Y391645D01*
X137226Y391707D01*
X137230Y391772D01*
Y391795D01*
X137226Y391810D01*
X137223Y391849D01*
X137211Y391899D01*
X137192Y391960D01*
X137169Y392022D01*
X137130Y392083D01*
X137080Y392141D01*
X137073Y392148D01*
X137054Y392164D01*
X137023Y392187D01*
X136977Y392217D01*
X136923Y392244D01*
X136858Y392267D01*
X136785Y392283D01*
X136704Y392290D01*
X136700D01*
X136696D01*
X136685D01*
X136670Y392286D01*
X136631Y392283D01*
X136581Y392271D01*
X136528Y392256D01*
X136466Y392229D01*
X136408Y392194D01*
X136355Y392148D01*
X136347Y392141D01*
X136332Y392125D01*
X136312Y392094D01*
X136286Y392052D01*
X136259Y392002D01*
X136240Y391941D01*
X136224Y391876D01*
X136216Y391799D01*
Y391764D01*
X136220Y391737D01*
X136224Y391707D01*
X136228Y391668D01*
X136236Y391626D01*
X136247Y391580D01*
X135975Y391615D01*
Y391634D01*
X135978Y391649D01*
Y391699D01*
X135975Y391734D01*
X135967Y391783D01*
X135955Y391837D01*
X135936Y391895D01*
X135913Y391956D01*
X135879Y392018D01*
X135875Y392025D01*
X135859Y392045D01*
X135832Y392068D01*
X135798Y392098D01*
X135756Y392129D01*
X135702Y392152D01*
X135637Y392171D01*
X135560Y392179D01*
X135556D01*
X135552D01*
X135533D01*
X135502Y392171D01*
X135460Y392164D01*
X135418Y392152D01*
X135372Y392129D01*
X135322Y392102D01*
X135280Y392064D01*
X135276Y392060D01*
X135260Y392045D01*
X135241Y392018D01*
X135222Y391983D01*
X135199Y391941D01*
X135184Y391891D01*
X135168Y391833D01*
X135164Y391768D01*
Y391737D01*
X135172Y391703D01*
X135180Y391664D01*
X135191Y391615D01*
X135214Y391565D01*
X135241Y391515D01*
X135280Y391465D01*
X135283Y391461D01*
X135299Y391446D01*
X135326Y391426D01*
X135364Y391403D01*
X135410Y391376D01*
X135468Y391353D01*
X135537Y391330D01*
X135617Y391315D01*
X135564Y391004D01*
X135560D01*
X135548Y391008D01*
X135533Y391012D01*
X135514Y391016D01*
X135487Y391023D01*
X135456Y391031D01*
X135387Y391058D01*
X135310Y391089D01*
X135230Y391135D01*
X135153Y391188D01*
X135084Y391257D01*
X135080Y391261D01*
X135076Y391265D01*
X135068Y391277D01*
X135057Y391296D01*
X135045Y391315D01*
X135030Y391338D01*
X134995Y391396D01*
X134965Y391469D01*
X134938Y391557D01*
X134918Y391653D01*
X134911Y391707D01*
Y391795D01*
X134915Y391833D01*
X134922Y391883D01*
X134934Y391941D01*
X134949Y392006D01*
X134972Y392072D01*
X135003Y392137D01*
Y392141D01*
X135007Y392144D01*
X135018Y392167D01*
X135038Y392198D01*
X135064Y392237D01*
X135099Y392279D01*
X135141Y392325D01*
X135191Y392367D01*
X135245Y392406D01*
X135253Y392409D01*
X135272Y392421D01*
X135302Y392436D01*
X135341Y392452D01*
X135391Y392467D01*
X135445Y392482D01*
X135502Y392494D01*
X135567Y392498D01*
X135575D01*
X135594D01*
X135625Y392494D01*
X135663Y392486D01*
X135710Y392475D01*
X135759Y392459D01*
X135813Y392440D01*
X135863Y392409D01*
X135871Y392406D01*
X135886Y392394D01*
X135909Y392371D01*
X135940Y392344D01*
X135975Y392306D01*
X136009Y392264D01*
X136047Y392210D01*
X136078Y392148D01*
Y392152D01*
X136082Y392160D01*
Y392171D01*
X136090Y392187D01*
X136101Y392225D01*
X136124Y392275D01*
X136151Y392329D01*
X136190Y392386D01*
X136236Y392444D01*
X136293Y392494D01*
X136301Y392498D01*
X136324Y392513D01*
X136358Y392532D01*
X136405Y392559D01*
X136462Y392582D01*
X136531Y392601D01*
X136612Y392617D01*
X136700Y392621D01*
X136704D01*
X136716D01*
X136731D01*
X136754Y392617D01*
D02*
G37*
G36*
X136312Y390651D02*
X136355D01*
X136405Y390647D01*
X136458Y390643D01*
X136574Y390632D01*
X136693Y390616D01*
X136812Y390593D01*
X136865Y390578D01*
X136919Y390562D01*
X136923D01*
X136931Y390559D01*
X136946Y390555D01*
X136965Y390547D01*
X136988Y390535D01*
X137011Y390524D01*
X137073Y390493D01*
X137142Y390455D01*
X137211Y390409D01*
X137280Y390355D01*
X137342Y390290D01*
Y390286D01*
X137349Y390282D01*
X137353Y390270D01*
X137365Y390259D01*
X137388Y390217D01*
X137415Y390167D01*
X137441Y390098D01*
X137464Y390021D01*
X137480Y389933D01*
X137487Y389833D01*
Y389798D01*
X137484Y389771D01*
X137480Y389741D01*
X137472Y389706D01*
X137464Y389668D01*
X137457Y389625D01*
X137426Y389533D01*
X137403Y389483D01*
X137380Y389437D01*
X137349Y389387D01*
X137315Y389341D01*
X137276Y389299D01*
X137230Y389257D01*
X137226Y389253D01*
X137215Y389245D01*
X137196Y389234D01*
X137169Y389218D01*
X137134Y389199D01*
X137092Y389180D01*
X137042Y389157D01*
X136981Y389134D01*
X136915Y389111D01*
X136838Y389088D01*
X136754Y389069D01*
X136662Y389049D01*
X136558Y389034D01*
X136451Y389022D01*
X136328Y389015D01*
X136201Y389011D01*
X136197D01*
X136182D01*
X136159D01*
X136128D01*
X136090Y389015D01*
X136047D01*
X135998Y389019D01*
X135944Y389022D01*
X135829Y389034D01*
X135710Y389049D01*
X135591Y389069D01*
X135537Y389084D01*
X135483Y389099D01*
X135479D01*
X135471Y389103D01*
X135456Y389111D01*
X135437Y389119D01*
X135414Y389126D01*
X135387Y389138D01*
X135326Y389168D01*
X135256Y389207D01*
X135187Y389253D01*
X135122Y389307D01*
X135061Y389372D01*
Y389376D01*
X135053Y389380D01*
X135045Y389391D01*
X135038Y389406D01*
X135014Y389445D01*
X134984Y389499D01*
X134957Y389564D01*
X134934Y389645D01*
X134918Y389733D01*
X134911Y389833D01*
Y389867D01*
X134915Y389906D01*
X134922Y389952D01*
X134930Y390006D01*
X134945Y390067D01*
X134968Y390128D01*
X134995Y390186D01*
X134999Y390194D01*
X135011Y390213D01*
X135030Y390240D01*
X135053Y390278D01*
X135088Y390317D01*
X135130Y390359D01*
X135176Y390401D01*
X135230Y390440D01*
X135237Y390443D01*
X135256Y390455D01*
X135291Y390474D01*
X135333Y390497D01*
X135387Y390520D01*
X135452Y390547D01*
X135525Y390574D01*
X135606Y390597D01*
X135610D01*
X135617Y390601D01*
X135629D01*
X135648Y390605D01*
X135667Y390612D01*
X135694Y390616D01*
X135729Y390620D01*
X135763Y390628D01*
X135806Y390632D01*
X135848Y390635D01*
X135898Y390643D01*
X135951Y390647D01*
X136009Y390651D01*
X136067D01*
X136201Y390654D01*
X136205D01*
X136220D01*
X136243D01*
X136274D01*
X136312Y390651D01*
D02*
G37*
G36*
X137445Y387010D02*
X137441D01*
X137426D01*
X137403D01*
X137376Y387014D01*
X137345Y387018D01*
X137311Y387022D01*
X137272Y387033D01*
X137234Y387045D01*
X137230D01*
X137226Y387049D01*
X137203Y387056D01*
X137173Y387072D01*
X137127Y387095D01*
X137077Y387122D01*
X137019Y387160D01*
X136961Y387198D01*
X136900Y387248D01*
X136896D01*
X136892Y387256D01*
X136869Y387275D01*
X136835Y387306D01*
X136789Y387352D01*
X136735Y387410D01*
X136670Y387479D01*
X136597Y387563D01*
X136516Y387655D01*
X136512Y387659D01*
X136501Y387675D01*
X136485Y387694D01*
X136458Y387721D01*
X136432Y387755D01*
X136397Y387794D01*
X136324Y387878D01*
X136236Y387970D01*
X136147Y388063D01*
X136105Y388109D01*
X136063Y388147D01*
X136021Y388182D01*
X135982Y388212D01*
X135978D01*
X135975Y388220D01*
X135963Y388228D01*
X135948Y388235D01*
X135909Y388258D01*
X135859Y388285D01*
X135802Y388312D01*
X135740Y388335D01*
X135671Y388351D01*
X135606Y388358D01*
X135602D01*
X135598D01*
X135575Y388354D01*
X135541Y388351D01*
X135498Y388343D01*
X135448Y388324D01*
X135398Y388301D01*
X135345Y388270D01*
X135295Y388224D01*
X135291Y388216D01*
X135276Y388201D01*
X135256Y388170D01*
X135230Y388132D01*
X135206Y388082D01*
X135187Y388024D01*
X135172Y387955D01*
X135168Y387878D01*
Y387855D01*
X135172Y387840D01*
X135176Y387801D01*
X135184Y387752D01*
X135203Y387694D01*
X135226Y387632D01*
X135260Y387575D01*
X135306Y387521D01*
X135314Y387517D01*
X135329Y387502D01*
X135360Y387479D01*
X135402Y387456D01*
X135456Y387429D01*
X135518Y387410D01*
X135591Y387394D01*
X135675Y387387D01*
X135640Y387068D01*
X135637D01*
X135625D01*
X135606Y387072D01*
X135583Y387076D01*
X135552Y387083D01*
X135518Y387087D01*
X135441Y387110D01*
X135352Y387141D01*
X135264Y387183D01*
X135176Y387241D01*
X135137Y387271D01*
X135099Y387310D01*
X135095Y387314D01*
X135091Y387321D01*
X135080Y387333D01*
X135068Y387348D01*
X135057Y387371D01*
X135038Y387398D01*
X135022Y387429D01*
X135003Y387463D01*
X134988Y387502D01*
X134968Y387544D01*
X134953Y387594D01*
X134942Y387644D01*
X134918Y387759D01*
X134915Y387821D01*
X134911Y387886D01*
Y387920D01*
X134915Y387947D01*
X134918Y387978D01*
X134922Y388013D01*
X134926Y388051D01*
X134938Y388093D01*
X134961Y388185D01*
X134995Y388281D01*
X135018Y388331D01*
X135045Y388377D01*
X135080Y388420D01*
X135114Y388462D01*
X135118Y388466D01*
X135122Y388470D01*
X135134Y388481D01*
X135149Y388496D01*
X135172Y388512D01*
X135195Y388531D01*
X135253Y388569D01*
X135326Y388608D01*
X135410Y388642D01*
X135506Y388669D01*
X135560Y388673D01*
X135614Y388677D01*
X135621D01*
X135640D01*
X135671Y388673D01*
X135710Y388669D01*
X135756Y388662D01*
X135806Y388650D01*
X135859Y388635D01*
X135913Y388612D01*
X135921Y388608D01*
X135940Y388600D01*
X135967Y388585D01*
X136005Y388562D01*
X136051Y388535D01*
X136105Y388500D01*
X136159Y388454D01*
X136220Y388404D01*
X136228Y388397D01*
X136251Y388377D01*
X136286Y388343D01*
X136309Y388320D01*
X136336Y388293D01*
X136366Y388262D01*
X136401Y388224D01*
X136435Y388185D01*
X136478Y388143D01*
X136520Y388097D01*
X136566Y388043D01*
X136612Y387990D01*
X136666Y387928D01*
X136670Y387924D01*
X136677Y387917D01*
X136689Y387901D01*
X136704Y387882D01*
X136742Y387836D01*
X136792Y387778D01*
X136846Y387721D01*
X136900Y387659D01*
X136946Y387609D01*
X136965Y387590D01*
X136984Y387571D01*
X136988Y387567D01*
X137000Y387560D01*
X137015Y387544D01*
X137038Y387525D01*
X137088Y387483D01*
X137150Y387440D01*
Y388681D01*
X137445D01*
Y387010D01*
D02*
G37*
G36*
X136478Y386619D02*
X136512D01*
X136554Y386615D01*
X136600Y386611D01*
X136696Y386599D01*
X136796Y386584D01*
X136896Y386565D01*
X136984Y386534D01*
X136988D01*
X136996Y386530D01*
X137007Y386526D01*
X137023Y386519D01*
X137061Y386496D01*
X137115Y386465D01*
X137173Y386423D01*
X137234Y386369D01*
X137292Y386300D01*
X137349Y386223D01*
Y386219D01*
X137357Y386212D01*
X137361Y386200D01*
X137372Y386181D01*
X137380Y386162D01*
X137391Y386135D01*
X137407Y386100D01*
X137418Y386066D01*
X137430Y386027D01*
X137445Y385981D01*
X137457Y385935D01*
X137464Y385881D01*
X137480Y385766D01*
X137487Y385636D01*
Y385601D01*
X137484Y385578D01*
Y385547D01*
X137480Y385513D01*
X137476Y385474D01*
X137472Y385432D01*
X137457Y385340D01*
X137438Y385244D01*
X137407Y385144D01*
X137368Y385056D01*
Y385052D01*
X137361Y385044D01*
X137357Y385037D01*
X137345Y385021D01*
X137319Y384979D01*
X137276Y384933D01*
X137226Y384879D01*
X137169Y384829D01*
X137096Y384779D01*
X137015Y384737D01*
X137011D01*
X137004Y384733D01*
X136992Y384729D01*
X136973Y384722D01*
X136950Y384714D01*
X136919Y384706D01*
X136885Y384699D01*
X136846Y384691D01*
X136804Y384680D01*
X136758Y384672D01*
X136704Y384664D01*
X136650Y384656D01*
X136589Y384649D01*
X136524Y384645D01*
X136454Y384641D01*
X136382D01*
X134922D01*
Y384975D01*
X136382D01*
X136385D01*
X136397D01*
X136412D01*
X136435D01*
X136462D01*
X136493Y384979D01*
X136566Y384983D01*
X136643Y384991D01*
X136723Y384998D01*
X136800Y385014D01*
X136835Y385021D01*
X136865Y385033D01*
X136873Y385037D01*
X136892Y385044D01*
X136919Y385060D01*
X136954Y385083D01*
X136992Y385110D01*
X137034Y385148D01*
X137073Y385190D01*
X137107Y385244D01*
X137111Y385252D01*
X137119Y385271D01*
X137134Y385302D01*
X137146Y385344D01*
X137161Y385398D01*
X137176Y385459D01*
X137184Y385528D01*
X137188Y385605D01*
Y385640D01*
X137184Y385666D01*
Y385697D01*
X137180Y385732D01*
X137169Y385808D01*
X137146Y385897D01*
X137119Y385981D01*
X137077Y386062D01*
X137054Y386100D01*
X137023Y386131D01*
X137019D01*
X137015Y386139D01*
X137004Y386146D01*
X136988Y386154D01*
X136969Y386169D01*
X136946Y386181D01*
X136915Y386196D01*
X136881Y386212D01*
X136838Y386223D01*
X136792Y386239D01*
X136742Y386254D01*
X136681Y386265D01*
X136616Y386273D01*
X136547Y386281D01*
X136466Y386288D01*
X136382D01*
X134922D01*
Y386623D01*
X136382D01*
X136385D01*
X136397D01*
X136416D01*
X136443D01*
X136478Y386619D01*
D02*
G37*
G36*
X155468Y444223D02*
X154704Y443931D01*
Y442871D01*
X155468Y442598D01*
Y442245D01*
X152945Y443209D01*
Y443574D01*
X155468Y444599D01*
Y444223D01*
D02*
G37*
G36*
Y440394D02*
X155464D01*
X155449D01*
X155426D01*
X155399Y440398D01*
X155368Y440402D01*
X155334Y440406D01*
X155296Y440417D01*
X155257Y440429D01*
X155253D01*
X155249Y440433D01*
X155226Y440440D01*
X155196Y440456D01*
X155149Y440479D01*
X155100Y440506D01*
X155042Y440544D01*
X154984Y440582D01*
X154923Y440632D01*
X154919D01*
X154915Y440640D01*
X154892Y440659D01*
X154858Y440690D01*
X154812Y440736D01*
X154758Y440794D01*
X154693Y440863D01*
X154620Y440947D01*
X154539Y441039D01*
X154535Y441043D01*
X154524Y441058D01*
X154508Y441078D01*
X154481Y441105D01*
X154455Y441139D01*
X154420Y441178D01*
X154347Y441262D01*
X154259Y441354D01*
X154170Y441446D01*
X154128Y441492D01*
X154086Y441531D01*
X154044Y441565D01*
X154005Y441596D01*
X154001D01*
X153998Y441604D01*
X153986Y441611D01*
X153971Y441619D01*
X153932Y441642D01*
X153882Y441669D01*
X153825Y441696D01*
X153763Y441719D01*
X153694Y441734D01*
X153629Y441742D01*
X153625D01*
X153621D01*
X153598Y441738D01*
X153564Y441734D01*
X153521Y441727D01*
X153472Y441707D01*
X153421Y441684D01*
X153368Y441654D01*
X153318Y441608D01*
X153314Y441600D01*
X153299Y441585D01*
X153279Y441554D01*
X153253Y441515D01*
X153229Y441466D01*
X153210Y441408D01*
X153195Y441339D01*
X153191Y441262D01*
Y441239D01*
X153195Y441224D01*
X153199Y441185D01*
X153207Y441135D01*
X153226Y441078D01*
X153249Y441016D01*
X153283Y440959D01*
X153329Y440905D01*
X153337Y440901D01*
X153352Y440886D01*
X153383Y440863D01*
X153425Y440840D01*
X153479Y440813D01*
X153541Y440794D01*
X153613Y440778D01*
X153698Y440770D01*
X153664Y440452D01*
X153660D01*
X153648D01*
X153629Y440456D01*
X153606Y440459D01*
X153575Y440467D01*
X153541Y440471D01*
X153464Y440494D01*
X153375Y440525D01*
X153287Y440567D01*
X153199Y440625D01*
X153160Y440655D01*
X153122Y440694D01*
X153118Y440697D01*
X153114Y440705D01*
X153103Y440717D01*
X153091Y440732D01*
X153080Y440755D01*
X153061Y440782D01*
X153045Y440813D01*
X153026Y440847D01*
X153011Y440886D01*
X152991Y440928D01*
X152976Y440978D01*
X152965Y441028D01*
X152942Y441143D01*
X152938Y441204D01*
X152934Y441270D01*
Y441304D01*
X152938Y441331D01*
X152942Y441362D01*
X152945Y441396D01*
X152949Y441435D01*
X152961Y441477D01*
X152984Y441569D01*
X153018Y441665D01*
X153041Y441715D01*
X153068Y441761D01*
X153103Y441803D01*
X153137Y441846D01*
X153141Y441850D01*
X153145Y441853D01*
X153157Y441865D01*
X153172Y441880D01*
X153195Y441896D01*
X153218Y441915D01*
X153276Y441953D01*
X153349Y441992D01*
X153433Y442026D01*
X153529Y442053D01*
X153583Y442057D01*
X153637Y442061D01*
X153644D01*
X153664D01*
X153694Y442057D01*
X153733Y442053D01*
X153779Y442045D01*
X153829Y442034D01*
X153882Y442019D01*
X153936Y441995D01*
X153944Y441992D01*
X153963Y441984D01*
X153990Y441969D01*
X154028Y441946D01*
X154074Y441919D01*
X154128Y441884D01*
X154182Y441838D01*
X154243Y441788D01*
X154251Y441780D01*
X154274Y441761D01*
X154309Y441727D01*
X154332Y441704D01*
X154358Y441677D01*
X154389Y441646D01*
X154424Y441608D01*
X154458Y441569D01*
X154501Y441527D01*
X154543Y441481D01*
X154589Y441427D01*
X154635Y441373D01*
X154689Y441312D01*
X154693Y441308D01*
X154700Y441300D01*
X154712Y441285D01*
X154727Y441266D01*
X154765Y441220D01*
X154815Y441162D01*
X154869Y441105D01*
X154923Y441043D01*
X154969Y440993D01*
X154988Y440974D01*
X155008Y440955D01*
X155011Y440951D01*
X155023Y440943D01*
X155038Y440928D01*
X155061Y440909D01*
X155111Y440867D01*
X155173Y440824D01*
Y442065D01*
X155468D01*
Y440394D01*
D02*
G37*
G36*
X154335Y440118D02*
X154378D01*
X154428Y440114D01*
X154481Y440110D01*
X154597Y440098D01*
X154716Y440083D01*
X154835Y440060D01*
X154888Y440045D01*
X154942Y440029D01*
X154946D01*
X154954Y440026D01*
X154969Y440022D01*
X154988Y440014D01*
X155011Y440002D01*
X155034Y439991D01*
X155096Y439960D01*
X155165Y439922D01*
X155234Y439876D01*
X155303Y439822D01*
X155365Y439757D01*
Y439753D01*
X155372Y439749D01*
X155376Y439738D01*
X155388Y439726D01*
X155411Y439684D01*
X155438Y439634D01*
X155464Y439565D01*
X155488Y439488D01*
X155503Y439400D01*
X155510Y439300D01*
Y439265D01*
X155507Y439238D01*
X155503Y439208D01*
X155495Y439173D01*
X155488Y439135D01*
X155480Y439092D01*
X155449Y439000D01*
X155426Y438950D01*
X155403Y438904D01*
X155372Y438854D01*
X155338Y438808D01*
X155299Y438766D01*
X155253Y438724D01*
X155249Y438720D01*
X155238Y438712D01*
X155219Y438701D01*
X155192Y438685D01*
X155157Y438666D01*
X155115Y438647D01*
X155065Y438624D01*
X155004Y438601D01*
X154938Y438578D01*
X154861Y438555D01*
X154777Y438536D01*
X154685Y438516D01*
X154581Y438501D01*
X154474Y438489D01*
X154351Y438482D01*
X154224Y438478D01*
X154220D01*
X154205D01*
X154182D01*
X154151D01*
X154113Y438482D01*
X154070D01*
X154021Y438486D01*
X153967Y438489D01*
X153852Y438501D01*
X153733Y438516D01*
X153613Y438536D01*
X153560Y438551D01*
X153506Y438566D01*
X153502D01*
X153495Y438570D01*
X153479Y438578D01*
X153460Y438586D01*
X153437Y438593D01*
X153410Y438605D01*
X153349Y438635D01*
X153279Y438674D01*
X153210Y438720D01*
X153145Y438774D01*
X153084Y438839D01*
Y438843D01*
X153076Y438847D01*
X153068Y438858D01*
X153061Y438873D01*
X153038Y438912D01*
X153007Y438966D01*
X152980Y439031D01*
X152957Y439112D01*
X152942Y439200D01*
X152934Y439300D01*
Y439334D01*
X152938Y439373D01*
X152945Y439419D01*
X152953Y439473D01*
X152968Y439534D01*
X152991Y439595D01*
X153018Y439653D01*
X153022Y439661D01*
X153034Y439680D01*
X153053Y439707D01*
X153076Y439745D01*
X153111Y439784D01*
X153153Y439826D01*
X153199Y439868D01*
X153253Y439907D01*
X153260Y439910D01*
X153279Y439922D01*
X153314Y439941D01*
X153356Y439964D01*
X153410Y439987D01*
X153475Y440014D01*
X153548Y440041D01*
X153629Y440064D01*
X153633D01*
X153640Y440068D01*
X153652D01*
X153671Y440072D01*
X153690Y440079D01*
X153717Y440083D01*
X153752Y440087D01*
X153786Y440095D01*
X153829Y440098D01*
X153871Y440102D01*
X153921Y440110D01*
X153974Y440114D01*
X154032Y440118D01*
X154090D01*
X154224Y440122D01*
X154228D01*
X154243D01*
X154266D01*
X154297D01*
X154335Y440118D01*
D02*
G37*
G36*
X155468Y436477D02*
X155464D01*
X155449D01*
X155426D01*
X155399Y436481D01*
X155368Y436485D01*
X155334Y436489D01*
X155296Y436500D01*
X155257Y436512D01*
X155253D01*
X155249Y436516D01*
X155226Y436523D01*
X155196Y436539D01*
X155149Y436562D01*
X155100Y436589D01*
X155042Y436627D01*
X154984Y436665D01*
X154923Y436715D01*
X154919D01*
X154915Y436723D01*
X154892Y436742D01*
X154858Y436773D01*
X154812Y436819D01*
X154758Y436877D01*
X154693Y436946D01*
X154620Y437030D01*
X154539Y437122D01*
X154535Y437126D01*
X154524Y437142D01*
X154508Y437161D01*
X154481Y437188D01*
X154455Y437222D01*
X154420Y437261D01*
X154347Y437345D01*
X154259Y437437D01*
X154170Y437530D01*
X154128Y437576D01*
X154086Y437614D01*
X154044Y437649D01*
X154005Y437679D01*
X154001D01*
X153998Y437687D01*
X153986Y437695D01*
X153971Y437702D01*
X153932Y437725D01*
X153882Y437752D01*
X153825Y437779D01*
X153763Y437802D01*
X153694Y437817D01*
X153629Y437825D01*
X153625D01*
X153621D01*
X153598Y437821D01*
X153564Y437817D01*
X153521Y437810D01*
X153472Y437791D01*
X153421Y437768D01*
X153368Y437737D01*
X153318Y437691D01*
X153314Y437683D01*
X153299Y437668D01*
X153279Y437637D01*
X153253Y437599D01*
X153229Y437549D01*
X153210Y437491D01*
X153195Y437422D01*
X153191Y437345D01*
Y437322D01*
X153195Y437307D01*
X153199Y437268D01*
X153207Y437219D01*
X153226Y437161D01*
X153249Y437099D01*
X153283Y437042D01*
X153329Y436988D01*
X153337Y436984D01*
X153352Y436969D01*
X153383Y436946D01*
X153425Y436923D01*
X153479Y436896D01*
X153541Y436877D01*
X153613Y436861D01*
X153698Y436854D01*
X153664Y436535D01*
X153660D01*
X153648D01*
X153629Y436539D01*
X153606Y436543D01*
X153575Y436550D01*
X153541Y436554D01*
X153464Y436577D01*
X153375Y436608D01*
X153287Y436650D01*
X153199Y436708D01*
X153160Y436738D01*
X153122Y436777D01*
X153118Y436781D01*
X153114Y436788D01*
X153103Y436800D01*
X153091Y436815D01*
X153080Y436838D01*
X153061Y436865D01*
X153045Y436896D01*
X153026Y436931D01*
X153011Y436969D01*
X152991Y437011D01*
X152976Y437061D01*
X152965Y437111D01*
X152942Y437226D01*
X152938Y437288D01*
X152934Y437353D01*
Y437387D01*
X152938Y437414D01*
X152942Y437445D01*
X152945Y437480D01*
X152949Y437518D01*
X152961Y437560D01*
X152984Y437652D01*
X153018Y437748D01*
X153041Y437798D01*
X153068Y437844D01*
X153103Y437887D01*
X153137Y437929D01*
X153141Y437933D01*
X153145Y437937D01*
X153157Y437948D01*
X153172Y437963D01*
X153195Y437979D01*
X153218Y437998D01*
X153276Y438036D01*
X153349Y438075D01*
X153433Y438109D01*
X153529Y438136D01*
X153583Y438140D01*
X153637Y438144D01*
X153644D01*
X153664D01*
X153694Y438140D01*
X153733Y438136D01*
X153779Y438129D01*
X153829Y438117D01*
X153882Y438102D01*
X153936Y438079D01*
X153944Y438075D01*
X153963Y438067D01*
X153990Y438052D01*
X154028Y438029D01*
X154074Y438002D01*
X154128Y437967D01*
X154182Y437921D01*
X154243Y437871D01*
X154251Y437864D01*
X154274Y437844D01*
X154309Y437810D01*
X154332Y437787D01*
X154358Y437760D01*
X154389Y437729D01*
X154424Y437691D01*
X154458Y437652D01*
X154501Y437610D01*
X154543Y437564D01*
X154589Y437510D01*
X154635Y437457D01*
X154689Y437395D01*
X154693Y437391D01*
X154700Y437384D01*
X154712Y437368D01*
X154727Y437349D01*
X154765Y437303D01*
X154815Y437245D01*
X154869Y437188D01*
X154923Y437126D01*
X154969Y437076D01*
X154988Y437057D01*
X155008Y437038D01*
X155011Y437034D01*
X155023Y437027D01*
X155038Y437011D01*
X155061Y436992D01*
X155111Y436950D01*
X155173Y436907D01*
Y438148D01*
X155468D01*
Y436477D01*
D02*
G37*
G36*
X154266Y436182D02*
X154297D01*
X154366Y436178D01*
X154443Y436170D01*
X154531Y436155D01*
X154620Y436139D01*
X154704Y436116D01*
X154708D01*
X154716Y436113D01*
X154727Y436109D01*
X154743Y436105D01*
X154781Y436090D01*
X154835Y436070D01*
X154892Y436047D01*
X154954Y436017D01*
X155015Y435982D01*
X155073Y435944D01*
X155080Y435940D01*
X155096Y435924D01*
X155123Y435905D01*
X155157Y435875D01*
X155192Y435844D01*
X155230Y435802D01*
X155269Y435759D01*
X155303Y435713D01*
X155307Y435709D01*
X155315Y435690D01*
X155330Y435663D01*
X155349Y435629D01*
X155368Y435587D01*
X155388Y435537D01*
X155407Y435479D01*
X155426Y435414D01*
Y435406D01*
X155434Y435383D01*
X155438Y435348D01*
X155445Y435298D01*
X155453Y435241D01*
X155461Y435172D01*
X155464Y435095D01*
X155468Y435010D01*
Y434104D01*
X152945D01*
Y435072D01*
X152949Y435137D01*
X152953Y435206D01*
X152961Y435283D01*
X152972Y435356D01*
X152984Y435418D01*
Y435421D01*
X152988Y435429D01*
Y435437D01*
X152995Y435452D01*
X153007Y435494D01*
X153026Y435544D01*
X153049Y435602D01*
X153080Y435663D01*
X153118Y435725D01*
X153164Y435786D01*
Y435790D01*
X153172Y435794D01*
X153195Y435821D01*
X153233Y435855D01*
X153283Y435897D01*
X153345Y435947D01*
X153418Y435997D01*
X153502Y436043D01*
X153598Y436086D01*
X153602D01*
X153610Y436090D01*
X153625Y436093D01*
X153644Y436101D01*
X153667Y436109D01*
X153698Y436116D01*
X153733Y436128D01*
X153771Y436136D01*
X153813Y436143D01*
X153859Y436155D01*
X153959Y436170D01*
X154070Y436182D01*
X154193Y436186D01*
X154197D01*
X154205D01*
X154220D01*
X154243D01*
X154266Y436182D01*
D02*
G37*
G36*
X154823Y321730D02*
X154865Y321727D01*
X154915Y321715D01*
X154972Y321704D01*
X155030Y321685D01*
X155087Y321658D01*
X155095Y321654D01*
X155114Y321646D01*
X155141Y321627D01*
X155176Y321608D01*
X155214Y321581D01*
X155253Y321550D01*
X155291Y321512D01*
X155326Y321473D01*
X155329Y321469D01*
X155337Y321454D01*
X155352Y321431D01*
X155372Y321396D01*
X155391Y321358D01*
X155410Y321308D01*
X155429Y321254D01*
X155448Y321197D01*
Y321189D01*
X155456Y321166D01*
X155460Y321131D01*
X155468Y321085D01*
X155475Y321024D01*
X155479Y320955D01*
X155487Y320878D01*
Y319830D01*
X152964D01*
Y320820D01*
X152968Y320847D01*
Y320874D01*
X152972Y320939D01*
X152983Y321012D01*
X152995Y321089D01*
X153014Y321166D01*
X153041Y321235D01*
Y321239D01*
X153045Y321243D01*
X153056Y321266D01*
X153075Y321297D01*
X153098Y321335D01*
X153133Y321381D01*
X153175Y321427D01*
X153221Y321469D01*
X153279Y321512D01*
X153287Y321515D01*
X153306Y321527D01*
X153340Y321542D01*
X153383Y321562D01*
X153433Y321581D01*
X153486Y321596D01*
X153548Y321608D01*
X153613Y321611D01*
X153621D01*
X153640D01*
X153671Y321608D01*
X153713Y321600D01*
X153759Y321588D01*
X153809Y321573D01*
X153866Y321554D01*
X153920Y321523D01*
X153928Y321519D01*
X153943Y321508D01*
X153970Y321485D01*
X154001Y321458D01*
X154039Y321420D01*
X154074Y321373D01*
X154112Y321320D01*
X154147Y321254D01*
Y321258D01*
X154151Y321266D01*
X154154Y321277D01*
X154158Y321293D01*
X154177Y321335D01*
X154200Y321385D01*
X154235Y321443D01*
X154273Y321500D01*
X154320Y321558D01*
X154377Y321608D01*
X154385Y321611D01*
X154404Y321627D01*
X154439Y321646D01*
X154485Y321673D01*
X154542Y321696D01*
X154604Y321715D01*
X154677Y321730D01*
X154757Y321734D01*
X154765D01*
X154788D01*
X154823Y321730D01*
D02*
G37*
G36*
X155487Y317718D02*
X155483D01*
X155468D01*
X155445D01*
X155418Y317722D01*
X155387Y317725D01*
X155352Y317729D01*
X155314Y317741D01*
X155276Y317752D01*
X155272D01*
X155268Y317756D01*
X155245Y317764D01*
X155214Y317779D01*
X155168Y317802D01*
X155118Y317829D01*
X155061Y317867D01*
X155003Y317906D01*
X154942Y317956D01*
X154938D01*
X154934Y317964D01*
X154911Y317983D01*
X154876Y318013D01*
X154830Y318059D01*
X154777Y318117D01*
X154711Y318186D01*
X154638Y318271D01*
X154558Y318363D01*
X154554Y318367D01*
X154542Y318382D01*
X154527Y318401D01*
X154500Y318428D01*
X154473Y318463D01*
X154439Y318501D01*
X154366Y318586D01*
X154277Y318678D01*
X154189Y318770D01*
X154147Y318816D01*
X154104Y318854D01*
X154062Y318889D01*
X154024Y318920D01*
X154020D01*
X154016Y318927D01*
X154005Y318935D01*
X153989Y318943D01*
X153951Y318966D01*
X153901Y318993D01*
X153843Y319020D01*
X153782Y319042D01*
X153713Y319058D01*
X153647Y319066D01*
X153644D01*
X153640D01*
X153617Y319062D01*
X153582Y319058D01*
X153540Y319050D01*
X153490Y319031D01*
X153440Y319008D01*
X153386Y318977D01*
X153337Y318931D01*
X153333Y318923D01*
X153317Y318908D01*
X153298Y318877D01*
X153271Y318839D01*
X153248Y318789D01*
X153229Y318731D01*
X153214Y318662D01*
X153210Y318586D01*
Y318563D01*
X153214Y318547D01*
X153217Y318509D01*
X153225Y318459D01*
X153244Y318401D01*
X153267Y318340D01*
X153302Y318282D01*
X153348Y318229D01*
X153356Y318225D01*
X153371Y318209D01*
X153402Y318186D01*
X153444Y318163D01*
X153498Y318136D01*
X153559Y318117D01*
X153632Y318102D01*
X153717Y318094D01*
X153682Y317775D01*
X153678D01*
X153667D01*
X153647Y317779D01*
X153624Y317783D01*
X153594Y317791D01*
X153559Y317794D01*
X153482Y317818D01*
X153394Y317848D01*
X153306Y317891D01*
X153217Y317948D01*
X153179Y317979D01*
X153141Y318017D01*
X153137Y318021D01*
X153133Y318029D01*
X153121Y318040D01*
X153110Y318056D01*
X153098Y318079D01*
X153079Y318106D01*
X153064Y318136D01*
X153045Y318171D01*
X153029Y318209D01*
X153010Y318251D01*
X152995Y318301D01*
X152983Y318351D01*
X152960Y318466D01*
X152956Y318528D01*
X152953Y318593D01*
Y318628D01*
X152956Y318655D01*
X152960Y318685D01*
X152964Y318720D01*
X152968Y318758D01*
X152979Y318801D01*
X153002Y318893D01*
X153037Y318989D01*
X153060Y319039D01*
X153087Y319085D01*
X153121Y319127D01*
X153156Y319169D01*
X153160Y319173D01*
X153164Y319177D01*
X153175Y319188D01*
X153191Y319204D01*
X153214Y319219D01*
X153237Y319238D01*
X153294Y319277D01*
X153367Y319315D01*
X153452Y319350D01*
X153548Y319377D01*
X153601Y319380D01*
X153655Y319384D01*
X153663D01*
X153682D01*
X153713Y319380D01*
X153751Y319377D01*
X153797Y319369D01*
X153847Y319357D01*
X153901Y319342D01*
X153955Y319319D01*
X153962Y319315D01*
X153982Y319307D01*
X154008Y319292D01*
X154047Y319269D01*
X154093Y319242D01*
X154147Y319208D01*
X154200Y319162D01*
X154262Y319112D01*
X154270Y319104D01*
X154293Y319085D01*
X154327Y319050D01*
X154350Y319027D01*
X154377Y319000D01*
X154408Y318970D01*
X154442Y318931D01*
X154477Y318893D01*
X154519Y318850D01*
X154561Y318805D01*
X154607Y318751D01*
X154654Y318697D01*
X154707Y318636D01*
X154711Y318632D01*
X154719Y318624D01*
X154730Y318609D01*
X154746Y318589D01*
X154784Y318543D01*
X154834Y318486D01*
X154888Y318428D01*
X154942Y318367D01*
X154988Y318317D01*
X155007Y318298D01*
X155026Y318278D01*
X155030Y318274D01*
X155042Y318267D01*
X155057Y318251D01*
X155080Y318232D01*
X155130Y318190D01*
X155191Y318148D01*
Y319388D01*
X155487D01*
Y317718D01*
D02*
G37*
G36*
X154354Y317441D02*
X154396D01*
X154446Y317437D01*
X154500Y317434D01*
X154615Y317422D01*
X154734Y317407D01*
X154853Y317384D01*
X154907Y317368D01*
X154961Y317353D01*
X154965D01*
X154972Y317349D01*
X154988Y317345D01*
X155007Y317338D01*
X155030Y317326D01*
X155053Y317315D01*
X155114Y317284D01*
X155183Y317245D01*
X155253Y317199D01*
X155322Y317146D01*
X155383Y317080D01*
Y317076D01*
X155391Y317073D01*
X155395Y317061D01*
X155406Y317050D01*
X155429Y317007D01*
X155456Y316957D01*
X155483Y316888D01*
X155506Y316811D01*
X155522Y316723D01*
X155529Y316623D01*
Y316589D01*
X155525Y316562D01*
X155522Y316531D01*
X155514Y316497D01*
X155506Y316458D01*
X155498Y316416D01*
X155468Y316324D01*
X155445Y316274D01*
X155422Y316228D01*
X155391Y316178D01*
X155356Y316132D01*
X155318Y316090D01*
X155272Y316047D01*
X155268Y316043D01*
X155256Y316036D01*
X155237Y316024D01*
X155210Y316009D01*
X155176Y315990D01*
X155134Y315970D01*
X155084Y315948D01*
X155022Y315925D01*
X154957Y315901D01*
X154880Y315878D01*
X154796Y315859D01*
X154703Y315840D01*
X154600Y315825D01*
X154492Y315813D01*
X154369Y315805D01*
X154243Y315802D01*
X154239D01*
X154224D01*
X154200D01*
X154170D01*
X154131Y315805D01*
X154089D01*
X154039Y315809D01*
X153985Y315813D01*
X153870Y315825D01*
X153751Y315840D01*
X153632Y315859D01*
X153578Y315875D01*
X153525Y315890D01*
X153521D01*
X153513Y315894D01*
X153498Y315901D01*
X153479Y315909D01*
X153455Y315917D01*
X153429Y315928D01*
X153367Y315959D01*
X153298Y315997D01*
X153229Y316043D01*
X153164Y316097D01*
X153102Y316162D01*
Y316166D01*
X153095Y316170D01*
X153087Y316182D01*
X153079Y316197D01*
X153056Y316235D01*
X153025Y316289D01*
X152999Y316354D01*
X152975Y316435D01*
X152960Y316524D01*
X152953Y316623D01*
Y316658D01*
X152956Y316696D01*
X152964Y316742D01*
X152972Y316796D01*
X152987Y316858D01*
X153010Y316919D01*
X153037Y316977D01*
X153041Y316984D01*
X153052Y317003D01*
X153071Y317030D01*
X153095Y317069D01*
X153129Y317107D01*
X153171Y317149D01*
X153217Y317192D01*
X153271Y317230D01*
X153279Y317234D01*
X153298Y317245D01*
X153333Y317265D01*
X153375Y317288D01*
X153429Y317311D01*
X153494Y317338D01*
X153567Y317365D01*
X153647Y317388D01*
X153651D01*
X153659Y317391D01*
X153671D01*
X153690Y317395D01*
X153709Y317403D01*
X153736Y317407D01*
X153770Y317410D01*
X153805Y317418D01*
X153847Y317422D01*
X153890Y317426D01*
X153939Y317434D01*
X153993Y317437D01*
X154051Y317441D01*
X154108D01*
X154243Y317445D01*
X154247D01*
X154262D01*
X154285D01*
X154316D01*
X154354Y317441D01*
D02*
G37*
G36*
X155487Y313801D02*
X155483D01*
X155468D01*
X155445D01*
X155418Y313805D01*
X155387Y313809D01*
X155352Y313812D01*
X155314Y313824D01*
X155276Y313836D01*
X155272D01*
X155268Y313839D01*
X155245Y313847D01*
X155214Y313862D01*
X155168Y313885D01*
X155118Y313912D01*
X155061Y313951D01*
X155003Y313989D01*
X154942Y314039D01*
X154938D01*
X154934Y314047D01*
X154911Y314066D01*
X154876Y314097D01*
X154830Y314143D01*
X154777Y314200D01*
X154711Y314269D01*
X154638Y314354D01*
X154558Y314446D01*
X154554Y314450D01*
X154542Y314465D01*
X154527Y314485D01*
X154500Y314511D01*
X154473Y314546D01*
X154439Y314584D01*
X154366Y314669D01*
X154277Y314761D01*
X154189Y314853D01*
X154147Y314899D01*
X154104Y314938D01*
X154062Y314972D01*
X154024Y315003D01*
X154020D01*
X154016Y315010D01*
X154005Y315018D01*
X153989Y315026D01*
X153951Y315049D01*
X153901Y315076D01*
X153843Y315103D01*
X153782Y315126D01*
X153713Y315141D01*
X153647Y315149D01*
X153644D01*
X153640D01*
X153617Y315145D01*
X153582Y315141D01*
X153540Y315133D01*
X153490Y315114D01*
X153440Y315091D01*
X153386Y315060D01*
X153337Y315014D01*
X153333Y315007D01*
X153317Y314991D01*
X153298Y314961D01*
X153271Y314922D01*
X153248Y314872D01*
X153229Y314815D01*
X153214Y314746D01*
X153210Y314669D01*
Y314646D01*
X153214Y314630D01*
X153217Y314592D01*
X153225Y314542D01*
X153244Y314485D01*
X153267Y314423D01*
X153302Y314365D01*
X153348Y314312D01*
X153356Y314308D01*
X153371Y314293D01*
X153402Y314269D01*
X153444Y314246D01*
X153498Y314219D01*
X153559Y314200D01*
X153632Y314185D01*
X153717Y314177D01*
X153682Y313859D01*
X153678D01*
X153667D01*
X153647Y313862D01*
X153624Y313866D01*
X153594Y313874D01*
X153559Y313878D01*
X153482Y313901D01*
X153394Y313931D01*
X153306Y313974D01*
X153217Y314031D01*
X153179Y314062D01*
X153141Y314101D01*
X153137Y314104D01*
X153133Y314112D01*
X153121Y314124D01*
X153110Y314139D01*
X153098Y314162D01*
X153079Y314189D01*
X153064Y314219D01*
X153045Y314254D01*
X153029Y314293D01*
X153010Y314335D01*
X152995Y314385D01*
X152983Y314435D01*
X152960Y314550D01*
X152956Y314611D01*
X152953Y314676D01*
Y314711D01*
X152956Y314738D01*
X152960Y314769D01*
X152964Y314803D01*
X152968Y314842D01*
X152979Y314884D01*
X153002Y314976D01*
X153037Y315072D01*
X153060Y315122D01*
X153087Y315168D01*
X153121Y315210D01*
X153156Y315252D01*
X153160Y315256D01*
X153164Y315260D01*
X153175Y315272D01*
X153191Y315287D01*
X153214Y315302D01*
X153237Y315322D01*
X153294Y315360D01*
X153367Y315398D01*
X153452Y315433D01*
X153548Y315460D01*
X153601Y315464D01*
X153655Y315468D01*
X153663D01*
X153682D01*
X153713Y315464D01*
X153751Y315460D01*
X153797Y315452D01*
X153847Y315441D01*
X153901Y315425D01*
X153955Y315402D01*
X153962Y315398D01*
X153982Y315391D01*
X154008Y315375D01*
X154047Y315352D01*
X154093Y315325D01*
X154147Y315291D01*
X154200Y315245D01*
X154262Y315195D01*
X154270Y315187D01*
X154293Y315168D01*
X154327Y315133D01*
X154350Y315110D01*
X154377Y315084D01*
X154408Y315053D01*
X154442Y315014D01*
X154477Y314976D01*
X154519Y314934D01*
X154561Y314888D01*
X154607Y314834D01*
X154654Y314780D01*
X154707Y314719D01*
X154711Y314715D01*
X154719Y314707D01*
X154730Y314692D01*
X154746Y314673D01*
X154784Y314627D01*
X154834Y314569D01*
X154888Y314511D01*
X154942Y314450D01*
X154988Y314400D01*
X155007Y314381D01*
X155026Y314362D01*
X155030Y314358D01*
X155042Y314350D01*
X155057Y314335D01*
X155080Y314316D01*
X155130Y314273D01*
X155191Y314231D01*
Y315471D01*
X155487D01*
Y313801D01*
D02*
G37*
G36*
X154285Y313505D02*
X154316D01*
X154385Y313501D01*
X154462Y313494D01*
X154550Y313478D01*
X154638Y313463D01*
X154723Y313440D01*
X154727D01*
X154734Y313436D01*
X154746Y313432D01*
X154761Y313428D01*
X154799Y313413D01*
X154853Y313394D01*
X154911Y313371D01*
X154972Y313340D01*
X155034Y313306D01*
X155091Y313267D01*
X155099Y313263D01*
X155114Y313248D01*
X155141Y313229D01*
X155176Y313198D01*
X155210Y313167D01*
X155249Y313125D01*
X155287Y313083D01*
X155322Y313037D01*
X155326Y313033D01*
X155333Y313014D01*
X155349Y312987D01*
X155368Y312952D01*
X155387Y312910D01*
X155406Y312860D01*
X155426Y312803D01*
X155445Y312737D01*
Y312730D01*
X155452Y312706D01*
X155456Y312672D01*
X155464Y312622D01*
X155472Y312564D01*
X155479Y312495D01*
X155483Y312419D01*
X155487Y312334D01*
Y311428D01*
X152964D01*
Y312396D01*
X152968Y312461D01*
X152972Y312530D01*
X152979Y312607D01*
X152991Y312680D01*
X153002Y312741D01*
Y312745D01*
X153006Y312753D01*
Y312760D01*
X153014Y312776D01*
X153025Y312818D01*
X153045Y312868D01*
X153068Y312925D01*
X153098Y312987D01*
X153137Y313048D01*
X153183Y313110D01*
Y313114D01*
X153191Y313117D01*
X153214Y313144D01*
X153252Y313179D01*
X153302Y313221D01*
X153363Y313271D01*
X153436Y313321D01*
X153521Y313367D01*
X153617Y313409D01*
X153621D01*
X153628Y313413D01*
X153644Y313417D01*
X153663Y313425D01*
X153686Y313432D01*
X153717Y313440D01*
X153751Y313452D01*
X153790Y313459D01*
X153832Y313467D01*
X153878Y313478D01*
X153978Y313494D01*
X154089Y313505D01*
X154212Y313509D01*
X154216D01*
X154224D01*
X154239D01*
X154262D01*
X154285Y313505D01*
D02*
G37*
G36*
X136800Y272264D02*
X136842Y272260D01*
X136892Y272248D01*
X136949Y272237D01*
X137007Y272217D01*
X137065Y272191D01*
X137072Y272187D01*
X137091Y272179D01*
X137118Y272160D01*
X137153Y272141D01*
X137191Y272114D01*
X137230Y272083D01*
X137268Y272045D01*
X137303Y272006D01*
X137306Y272002D01*
X137314Y271987D01*
X137329Y271964D01*
X137349Y271930D01*
X137368Y271891D01*
X137387Y271841D01*
X137406Y271787D01*
X137425Y271730D01*
Y271722D01*
X137433Y271699D01*
X137437Y271665D01*
X137445Y271618D01*
X137452Y271557D01*
X137456Y271488D01*
X137464Y271411D01*
Y270363D01*
X134941D01*
Y271354D01*
X134945Y271380D01*
Y271407D01*
X134949Y271473D01*
X134960Y271546D01*
X134972Y271622D01*
X134991Y271699D01*
X135018Y271768D01*
Y271772D01*
X135022Y271776D01*
X135033Y271799D01*
X135052Y271830D01*
X135075Y271868D01*
X135110Y271914D01*
X135152Y271960D01*
X135198Y272002D01*
X135256Y272045D01*
X135264Y272048D01*
X135283Y272060D01*
X135317Y272075D01*
X135360Y272095D01*
X135409Y272114D01*
X135463Y272129D01*
X135525Y272141D01*
X135590Y272145D01*
X135598D01*
X135617D01*
X135648Y272141D01*
X135690Y272133D01*
X135736Y272122D01*
X135786Y272106D01*
X135843Y272087D01*
X135897Y272056D01*
X135905Y272052D01*
X135920Y272041D01*
X135947Y272018D01*
X135978Y271991D01*
X136016Y271953D01*
X136051Y271906D01*
X136089Y271853D01*
X136124Y271787D01*
Y271791D01*
X136127Y271799D01*
X136131Y271810D01*
X136135Y271826D01*
X136154Y271868D01*
X136178Y271918D01*
X136212Y271976D01*
X136250Y272033D01*
X136296Y272091D01*
X136354Y272141D01*
X136362Y272145D01*
X136381Y272160D01*
X136416Y272179D01*
X136462Y272206D01*
X136519Y272229D01*
X136581Y272248D01*
X136654Y272264D01*
X136734Y272267D01*
X136742D01*
X136765D01*
X136800Y272264D01*
D02*
G37*
G36*
X136773Y269940D02*
X136803Y269936D01*
X136834Y269933D01*
X136872Y269925D01*
X136911Y269914D01*
X136999Y269887D01*
X137049Y269867D01*
X137095Y269841D01*
X137141Y269814D01*
X137187Y269783D01*
X137233Y269744D01*
X137279Y269702D01*
X137283Y269698D01*
X137291Y269691D01*
X137299Y269679D01*
X137314Y269660D01*
X137333Y269637D01*
X137353Y269606D01*
X137372Y269572D01*
X137391Y269537D01*
X137414Y269495D01*
X137433Y269449D01*
X137452Y269399D01*
X137472Y269345D01*
X137487Y269288D01*
X137495Y269226D01*
X137502Y269161D01*
X137506Y269096D01*
Y269065D01*
X137502Y269042D01*
X137498Y269011D01*
X137495Y268980D01*
X137491Y268942D01*
X137483Y268903D01*
X137460Y268815D01*
X137422Y268723D01*
X137402Y268677D01*
X137375Y268635D01*
X137345Y268589D01*
X137310Y268546D01*
X137306Y268543D01*
X137303Y268539D01*
X137291Y268527D01*
X137276Y268512D01*
X137253Y268496D01*
X137230Y268477D01*
X137203Y268454D01*
X137172Y268435D01*
X137095Y268389D01*
X137007Y268351D01*
X136907Y268316D01*
X136853Y268304D01*
X136796Y268297D01*
X136753Y268608D01*
X136757D01*
X136765Y268612D01*
X136780D01*
X136796Y268619D01*
X136842Y268631D01*
X136899Y268650D01*
X136961Y268673D01*
X137026Y268704D01*
X137084Y268742D01*
X137134Y268784D01*
X137137Y268792D01*
X137153Y268808D01*
X137168Y268834D01*
X137191Y268873D01*
X137210Y268915D01*
X137230Y268969D01*
X137245Y269030D01*
X137249Y269096D01*
Y269119D01*
X137245Y269134D01*
X137241Y269172D01*
X137230Y269222D01*
X137210Y269284D01*
X137187Y269345D01*
X137149Y269407D01*
X137099Y269464D01*
X137091Y269472D01*
X137072Y269487D01*
X137041Y269510D01*
X136995Y269541D01*
X136942Y269568D01*
X136876Y269591D01*
X136803Y269606D01*
X136723Y269614D01*
X136719D01*
X136715D01*
X136704D01*
X136688Y269610D01*
X136650Y269606D01*
X136600Y269595D01*
X136546Y269579D01*
X136485Y269552D01*
X136427Y269518D01*
X136373Y269472D01*
X136366Y269464D01*
X136350Y269449D01*
X136331Y269418D01*
X136304Y269376D01*
X136277Y269326D01*
X136258Y269265D01*
X136243Y269199D01*
X136235Y269122D01*
Y269088D01*
X136239Y269061D01*
X136243Y269030D01*
X136247Y268992D01*
X136254Y268950D01*
X136266Y268903D01*
X135993Y268938D01*
Y268957D01*
X135997Y268973D01*
Y269023D01*
X135993Y269057D01*
X135986Y269107D01*
X135974Y269161D01*
X135955Y269218D01*
X135932Y269280D01*
X135897Y269341D01*
X135893Y269349D01*
X135878Y269368D01*
X135851Y269391D01*
X135817Y269422D01*
X135774Y269453D01*
X135721Y269476D01*
X135655Y269495D01*
X135578Y269503D01*
X135575D01*
X135571D01*
X135552D01*
X135521Y269495D01*
X135479Y269487D01*
X135436Y269476D01*
X135390Y269453D01*
X135340Y269426D01*
X135298Y269387D01*
X135294Y269384D01*
X135279Y269368D01*
X135260Y269341D01*
X135240Y269307D01*
X135217Y269265D01*
X135202Y269215D01*
X135187Y269157D01*
X135183Y269092D01*
Y269061D01*
X135191Y269026D01*
X135198Y268988D01*
X135210Y268938D01*
X135233Y268888D01*
X135260Y268838D01*
X135298Y268788D01*
X135302Y268784D01*
X135317Y268769D01*
X135344Y268750D01*
X135383Y268727D01*
X135429Y268700D01*
X135486Y268677D01*
X135555Y268654D01*
X135636Y268639D01*
X135582Y268328D01*
X135578D01*
X135567Y268331D01*
X135552Y268335D01*
X135532Y268339D01*
X135505Y268347D01*
X135475Y268354D01*
X135406Y268381D01*
X135329Y268412D01*
X135248Y268458D01*
X135171Y268512D01*
X135102Y268581D01*
X135098Y268585D01*
X135095Y268589D01*
X135087Y268600D01*
X135075Y268619D01*
X135064Y268639D01*
X135048Y268662D01*
X135014Y268719D01*
X134983Y268792D01*
X134956Y268881D01*
X134937Y268976D01*
X134930Y269030D01*
Y269119D01*
X134933Y269157D01*
X134941Y269207D01*
X134952Y269265D01*
X134968Y269330D01*
X134991Y269395D01*
X135022Y269460D01*
Y269464D01*
X135026Y269468D01*
X135037Y269491D01*
X135056Y269522D01*
X135083Y269560D01*
X135118Y269602D01*
X135160Y269649D01*
X135210Y269691D01*
X135264Y269729D01*
X135271Y269733D01*
X135290Y269744D01*
X135321Y269760D01*
X135360Y269775D01*
X135409Y269791D01*
X135463Y269806D01*
X135521Y269817D01*
X135586Y269821D01*
X135594D01*
X135613D01*
X135644Y269817D01*
X135682Y269810D01*
X135728Y269798D01*
X135778Y269783D01*
X135832Y269764D01*
X135882Y269733D01*
X135889Y269729D01*
X135905Y269718D01*
X135928Y269695D01*
X135959Y269668D01*
X135993Y269629D01*
X136028Y269587D01*
X136066Y269533D01*
X136097Y269472D01*
Y269476D01*
X136101Y269483D01*
Y269495D01*
X136108Y269510D01*
X136120Y269549D01*
X136143Y269599D01*
X136170Y269652D01*
X136208Y269710D01*
X136254Y269767D01*
X136312Y269817D01*
X136320Y269821D01*
X136343Y269837D01*
X136377Y269856D01*
X136423Y269883D01*
X136481Y269906D01*
X136550Y269925D01*
X136631Y269940D01*
X136719Y269944D01*
X136723D01*
X136734D01*
X136750D01*
X136773Y269940D01*
D02*
G37*
G36*
X136331Y267974D02*
X136373D01*
X136423Y267970D01*
X136477Y267967D01*
X136592Y267955D01*
X136711Y267940D01*
X136830Y267917D01*
X136884Y267901D01*
X136938Y267886D01*
X136942D01*
X136949Y267882D01*
X136965Y267878D01*
X136984Y267871D01*
X137007Y267859D01*
X137030Y267848D01*
X137091Y267817D01*
X137161Y267778D01*
X137230Y267732D01*
X137299Y267679D01*
X137360Y267613D01*
Y267610D01*
X137368Y267606D01*
X137372Y267594D01*
X137383Y267583D01*
X137406Y267540D01*
X137433Y267490D01*
X137460Y267421D01*
X137483Y267344D01*
X137498Y267256D01*
X137506Y267156D01*
Y267122D01*
X137502Y267095D01*
X137498Y267064D01*
X137491Y267030D01*
X137483Y266991D01*
X137475Y266949D01*
X137445Y266857D01*
X137422Y266807D01*
X137399Y266761D01*
X137368Y266711D01*
X137333Y266665D01*
X137295Y266623D01*
X137249Y266580D01*
X137245Y266577D01*
X137233Y266569D01*
X137214Y266557D01*
X137187Y266542D01*
X137153Y266523D01*
X137111Y266504D01*
X137061Y266480D01*
X136999Y266458D01*
X136934Y266434D01*
X136857Y266411D01*
X136773Y266392D01*
X136680Y266373D01*
X136577Y266358D01*
X136469Y266346D01*
X136346Y266338D01*
X136220Y266335D01*
X136216D01*
X136200D01*
X136178D01*
X136147D01*
X136108Y266338D01*
X136066D01*
X136016Y266342D01*
X135962Y266346D01*
X135847Y266358D01*
X135728Y266373D01*
X135609Y266392D01*
X135555Y266407D01*
X135502Y266423D01*
X135498D01*
X135490Y266427D01*
X135475Y266434D01*
X135456Y266442D01*
X135433Y266450D01*
X135406Y266461D01*
X135344Y266492D01*
X135275Y266530D01*
X135206Y266577D01*
X135141Y266630D01*
X135079Y266696D01*
Y266699D01*
X135072Y266703D01*
X135064Y266715D01*
X135056Y266730D01*
X135033Y266769D01*
X135002Y266822D01*
X134976Y266888D01*
X134952Y266968D01*
X134937Y267056D01*
X134930Y267156D01*
Y267191D01*
X134933Y267229D01*
X134941Y267275D01*
X134949Y267329D01*
X134964Y267391D01*
X134987Y267452D01*
X135014Y267510D01*
X135018Y267517D01*
X135029Y267536D01*
X135048Y267563D01*
X135072Y267602D01*
X135106Y267640D01*
X135148Y267682D01*
X135194Y267725D01*
X135248Y267763D01*
X135256Y267767D01*
X135275Y267778D01*
X135310Y267798D01*
X135352Y267821D01*
X135406Y267844D01*
X135471Y267871D01*
X135544Y267898D01*
X135625Y267920D01*
X135628D01*
X135636Y267924D01*
X135648D01*
X135667Y267928D01*
X135686Y267936D01*
X135713Y267940D01*
X135747Y267944D01*
X135782Y267951D01*
X135824Y267955D01*
X135866Y267959D01*
X135916Y267967D01*
X135970Y267970D01*
X136028Y267974D01*
X136085D01*
X136220Y267978D01*
X136224D01*
X136239D01*
X136262D01*
X136293D01*
X136331Y267974D01*
D02*
G37*
G36*
X137464Y264334D02*
X137460D01*
X137445D01*
X137422D01*
X137395Y264338D01*
X137364Y264342D01*
X137329Y264346D01*
X137291Y264357D01*
X137253Y264369D01*
X137249D01*
X137245Y264372D01*
X137222Y264380D01*
X137191Y264395D01*
X137145Y264418D01*
X137095Y264445D01*
X137038Y264484D01*
X136980Y264522D01*
X136919Y264572D01*
X136915D01*
X136911Y264580D01*
X136888Y264599D01*
X136853Y264630D01*
X136807Y264676D01*
X136753Y264733D01*
X136688Y264802D01*
X136615Y264887D01*
X136535Y264979D01*
X136531Y264983D01*
X136519Y264998D01*
X136504Y265018D01*
X136477Y265044D01*
X136450Y265079D01*
X136416Y265117D01*
X136343Y265202D01*
X136254Y265294D01*
X136166Y265386D01*
X136124Y265432D01*
X136082Y265471D01*
X136039Y265505D01*
X136001Y265536D01*
X135997D01*
X135993Y265544D01*
X135982Y265551D01*
X135966Y265559D01*
X135928Y265582D01*
X135878Y265609D01*
X135820Y265636D01*
X135759Y265659D01*
X135690Y265674D01*
X135625Y265682D01*
X135621D01*
X135617D01*
X135594Y265678D01*
X135559Y265674D01*
X135517Y265666D01*
X135467Y265647D01*
X135417Y265624D01*
X135363Y265594D01*
X135313Y265547D01*
X135310Y265540D01*
X135294Y265524D01*
X135275Y265494D01*
X135248Y265455D01*
X135225Y265405D01*
X135206Y265348D01*
X135191Y265279D01*
X135187Y265202D01*
Y265179D01*
X135191Y265163D01*
X135194Y265125D01*
X135202Y265075D01*
X135221Y265018D01*
X135244Y264956D01*
X135279Y264898D01*
X135325Y264845D01*
X135333Y264841D01*
X135348Y264826D01*
X135379Y264802D01*
X135421Y264779D01*
X135475Y264753D01*
X135536Y264733D01*
X135609Y264718D01*
X135694Y264710D01*
X135659Y264392D01*
X135655D01*
X135644D01*
X135625Y264395D01*
X135601Y264399D01*
X135571Y264407D01*
X135536Y264411D01*
X135459Y264434D01*
X135371Y264464D01*
X135283Y264507D01*
X135194Y264564D01*
X135156Y264595D01*
X135118Y264633D01*
X135114Y264637D01*
X135110Y264645D01*
X135098Y264656D01*
X135087Y264672D01*
X135075Y264695D01*
X135056Y264722D01*
X135041Y264753D01*
X135022Y264787D01*
X135006Y264826D01*
X134987Y264868D01*
X134972Y264918D01*
X134960Y264967D01*
X134937Y265083D01*
X134933Y265144D01*
X134930Y265210D01*
Y265244D01*
X134933Y265271D01*
X134937Y265302D01*
X134941Y265336D01*
X134945Y265375D01*
X134956Y265417D01*
X134979Y265509D01*
X135014Y265605D01*
X135037Y265655D01*
X135064Y265701D01*
X135098Y265743D01*
X135133Y265786D01*
X135137Y265789D01*
X135141Y265793D01*
X135152Y265805D01*
X135168Y265820D01*
X135191Y265835D01*
X135214Y265855D01*
X135271Y265893D01*
X135344Y265931D01*
X135429Y265966D01*
X135525Y265993D01*
X135578Y265997D01*
X135632Y266001D01*
X135640D01*
X135659D01*
X135690Y265997D01*
X135728Y265993D01*
X135774Y265985D01*
X135824Y265974D01*
X135878Y265958D01*
X135932Y265935D01*
X135939Y265931D01*
X135959Y265924D01*
X135986Y265908D01*
X136024Y265885D01*
X136070Y265858D01*
X136124Y265824D01*
X136178Y265778D01*
X136239Y265728D01*
X136247Y265720D01*
X136270Y265701D01*
X136304Y265666D01*
X136327Y265643D01*
X136354Y265616D01*
X136385Y265586D01*
X136419Y265547D01*
X136454Y265509D01*
X136496Y265467D01*
X136538Y265421D01*
X136584Y265367D01*
X136631Y265313D01*
X136684Y265252D01*
X136688Y265248D01*
X136696Y265240D01*
X136707Y265225D01*
X136723Y265206D01*
X136761Y265160D01*
X136811Y265102D01*
X136865Y265044D01*
X136919Y264983D01*
X136965Y264933D01*
X136984Y264914D01*
X137003Y264895D01*
X137007Y264891D01*
X137018Y264883D01*
X137034Y264868D01*
X137057Y264848D01*
X137107Y264806D01*
X137168Y264764D01*
Y266004D01*
X137464D01*
Y264334D01*
D02*
G37*
G36*
X136496Y263942D02*
X136531D01*
X136573Y263938D01*
X136619Y263935D01*
X136715Y263923D01*
X136815Y263908D01*
X136915Y263889D01*
X137003Y263858D01*
X137007D01*
X137015Y263854D01*
X137026Y263850D01*
X137041Y263842D01*
X137080Y263819D01*
X137134Y263789D01*
X137191Y263746D01*
X137253Y263693D01*
X137310Y263623D01*
X137368Y263547D01*
Y263543D01*
X137375Y263535D01*
X137379Y263524D01*
X137391Y263505D01*
X137399Y263485D01*
X137410Y263458D01*
X137425Y263424D01*
X137437Y263389D01*
X137449Y263351D01*
X137464Y263305D01*
X137475Y263259D01*
X137483Y263205D01*
X137498Y263090D01*
X137506Y262959D01*
Y262925D01*
X137502Y262902D01*
Y262871D01*
X137498Y262836D01*
X137495Y262798D01*
X137491Y262756D01*
X137475Y262664D01*
X137456Y262567D01*
X137425Y262468D01*
X137387Y262379D01*
Y262376D01*
X137379Y262368D01*
X137375Y262360D01*
X137364Y262345D01*
X137337Y262303D01*
X137295Y262257D01*
X137245Y262203D01*
X137187Y262153D01*
X137114Y262103D01*
X137034Y262061D01*
X137030D01*
X137022Y262057D01*
X137011Y262053D01*
X136992Y262045D01*
X136969Y262038D01*
X136938Y262030D01*
X136903Y262022D01*
X136865Y262015D01*
X136823Y262003D01*
X136776Y261995D01*
X136723Y261988D01*
X136669Y261980D01*
X136608Y261972D01*
X136542Y261968D01*
X136473Y261965D01*
X136400D01*
X134941D01*
Y262299D01*
X136400D01*
X136404D01*
X136416D01*
X136431D01*
X136454D01*
X136481D01*
X136512Y262303D01*
X136584Y262306D01*
X136661Y262314D01*
X136742Y262322D01*
X136819Y262337D01*
X136853Y262345D01*
X136884Y262356D01*
X136892Y262360D01*
X136911Y262368D01*
X136938Y262383D01*
X136972Y262406D01*
X137011Y262433D01*
X137053Y262472D01*
X137091Y262514D01*
X137126Y262567D01*
X137130Y262575D01*
X137137Y262594D01*
X137153Y262625D01*
X137164Y262667D01*
X137180Y262721D01*
X137195Y262783D01*
X137203Y262852D01*
X137207Y262929D01*
Y262963D01*
X137203Y262990D01*
Y263021D01*
X137199Y263055D01*
X137187Y263132D01*
X137164Y263220D01*
X137137Y263305D01*
X137095Y263386D01*
X137072Y263424D01*
X137041Y263455D01*
X137038D01*
X137034Y263462D01*
X137022Y263470D01*
X137007Y263478D01*
X136988Y263493D01*
X136965Y263505D01*
X136934Y263520D01*
X136899Y263535D01*
X136857Y263547D01*
X136811Y263562D01*
X136761Y263578D01*
X136700Y263589D01*
X136634Y263597D01*
X136565Y263604D01*
X136485Y263612D01*
X136400D01*
X134941D01*
Y263946D01*
X136400D01*
X136404D01*
X136416D01*
X136435D01*
X136462D01*
X136496Y263942D01*
D02*
G37*
G36*
X240232Y288727D02*
X240274D01*
X240324Y288723D01*
X240378Y288719D01*
X240493Y288708D01*
X240612Y288692D01*
X240731Y288669D01*
X240785Y288654D01*
X240839Y288639D01*
X240843D01*
X240850Y288635D01*
X240866Y288631D01*
X240885Y288623D01*
X240908Y288612D01*
X240931Y288600D01*
X240992Y288570D01*
X241061Y288531D01*
X241130Y288485D01*
X241200Y288431D01*
X241261Y288366D01*
Y288362D01*
X241269Y288358D01*
X241273Y288347D01*
X241284Y288335D01*
X241307Y288293D01*
X241334Y288243D01*
X241361Y288174D01*
X241384Y288097D01*
X241399Y288009D01*
X241407Y287909D01*
Y287875D01*
X241403Y287848D01*
X241399Y287817D01*
X241392Y287783D01*
X241384Y287744D01*
X241376Y287702D01*
X241346Y287610D01*
X241322Y287560D01*
X241300Y287514D01*
X241269Y287464D01*
X241234Y287418D01*
X241196Y287375D01*
X241150Y287333D01*
X241146Y287329D01*
X241134Y287322D01*
X241115Y287310D01*
X241088Y287295D01*
X241054Y287276D01*
X241012Y287256D01*
X240962Y287233D01*
X240900Y287210D01*
X240835Y287187D01*
X240758Y287164D01*
X240674Y287145D01*
X240581Y287126D01*
X240478Y287110D01*
X240370Y287099D01*
X240247Y287091D01*
X240121Y287087D01*
X240117D01*
X240101D01*
X240078D01*
X240048D01*
X240009Y287091D01*
X239967D01*
X239917Y287095D01*
X239863Y287099D01*
X239748Y287110D01*
X239629Y287126D01*
X239510Y287145D01*
X239456Y287160D01*
X239403Y287176D01*
X239399D01*
X239391Y287180D01*
X239376Y287187D01*
X239356Y287195D01*
X239333Y287203D01*
X239306Y287214D01*
X239245Y287245D01*
X239176Y287283D01*
X239107Y287329D01*
X239042Y287383D01*
X238980Y287448D01*
Y287452D01*
X238972Y287456D01*
X238965Y287468D01*
X238957Y287483D01*
X238934Y287521D01*
X238903Y287575D01*
X238877Y287640D01*
X238853Y287721D01*
X238838Y287809D01*
X238830Y287909D01*
Y287944D01*
X238834Y287982D01*
X238842Y288028D01*
X238850Y288082D01*
X238865Y288143D01*
X238888Y288205D01*
X238915Y288263D01*
X238919Y288270D01*
X238930Y288289D01*
X238949Y288316D01*
X238972Y288355D01*
X239007Y288393D01*
X239049Y288435D01*
X239095Y288477D01*
X239149Y288516D01*
X239157Y288520D01*
X239176Y288531D01*
X239211Y288550D01*
X239253Y288574D01*
X239306Y288597D01*
X239372Y288623D01*
X239445Y288650D01*
X239525Y288673D01*
X239529D01*
X239537Y288677D01*
X239548D01*
X239568Y288681D01*
X239587Y288689D01*
X239614Y288692D01*
X239648Y288696D01*
X239683Y288704D01*
X239725Y288708D01*
X239767Y288712D01*
X239817Y288719D01*
X239871Y288723D01*
X239929Y288727D01*
X239986D01*
X240121Y288731D01*
X240124D01*
X240140D01*
X240163D01*
X240194D01*
X240232Y288727D01*
D02*
G37*
G36*
Y286769D02*
X240274D01*
X240324Y286765D01*
X240378Y286761D01*
X240493Y286750D01*
X240612Y286734D01*
X240731Y286711D01*
X240785Y286696D01*
X240839Y286680D01*
X240843D01*
X240850Y286677D01*
X240866Y286673D01*
X240885Y286665D01*
X240908Y286653D01*
X240931Y286642D01*
X240992Y286611D01*
X241061Y286573D01*
X241130Y286527D01*
X241200Y286473D01*
X241261Y286408D01*
Y286404D01*
X241269Y286400D01*
X241273Y286388D01*
X241284Y286377D01*
X241307Y286335D01*
X241334Y286285D01*
X241361Y286216D01*
X241384Y286139D01*
X241399Y286051D01*
X241407Y285951D01*
Y285916D01*
X241403Y285889D01*
X241399Y285859D01*
X241392Y285824D01*
X241384Y285786D01*
X241376Y285743D01*
X241346Y285651D01*
X241322Y285601D01*
X241300Y285555D01*
X241269Y285505D01*
X241234Y285459D01*
X241196Y285417D01*
X241150Y285375D01*
X241146Y285371D01*
X241134Y285363D01*
X241115Y285352D01*
X241088Y285336D01*
X241054Y285317D01*
X241012Y285298D01*
X240962Y285275D01*
X240900Y285252D01*
X240835Y285229D01*
X240758Y285206D01*
X240674Y285187D01*
X240581Y285167D01*
X240478Y285152D01*
X240370Y285140D01*
X240247Y285133D01*
X240121Y285129D01*
X240117D01*
X240101D01*
X240078D01*
X240048D01*
X240009Y285133D01*
X239967D01*
X239917Y285137D01*
X239863Y285140D01*
X239748Y285152D01*
X239629Y285167D01*
X239510Y285187D01*
X239456Y285202D01*
X239403Y285217D01*
X239399D01*
X239391Y285221D01*
X239376Y285229D01*
X239356Y285237D01*
X239333Y285244D01*
X239306Y285256D01*
X239245Y285286D01*
X239176Y285325D01*
X239107Y285371D01*
X239042Y285425D01*
X238980Y285490D01*
Y285494D01*
X238972Y285498D01*
X238965Y285509D01*
X238957Y285525D01*
X238934Y285563D01*
X238903Y285617D01*
X238877Y285682D01*
X238853Y285763D01*
X238838Y285851D01*
X238830Y285951D01*
Y285985D01*
X238834Y286024D01*
X238842Y286070D01*
X238850Y286124D01*
X238865Y286185D01*
X238888Y286246D01*
X238915Y286304D01*
X238919Y286312D01*
X238930Y286331D01*
X238949Y286358D01*
X238972Y286396D01*
X239007Y286435D01*
X239049Y286477D01*
X239095Y286519D01*
X239149Y286558D01*
X239157Y286561D01*
X239176Y286573D01*
X239211Y286592D01*
X239253Y286615D01*
X239306Y286638D01*
X239372Y286665D01*
X239445Y286692D01*
X239525Y286715D01*
X239529D01*
X239537Y286719D01*
X239548D01*
X239568Y286723D01*
X239587Y286730D01*
X239614Y286734D01*
X239648Y286738D01*
X239683Y286746D01*
X239725Y286750D01*
X239767Y286753D01*
X239817Y286761D01*
X239871Y286765D01*
X239929Y286769D01*
X239986D01*
X240121Y286773D01*
X240124D01*
X240140D01*
X240163D01*
X240194D01*
X240232Y286769D01*
D02*
G37*
G36*
X240674Y284818D02*
X240704Y284814D01*
X240735Y284810D01*
X240773Y284803D01*
X240812Y284791D01*
X240900Y284764D01*
X240950Y284745D01*
X240996Y284718D01*
X241042Y284691D01*
X241088Y284661D01*
X241134Y284622D01*
X241180Y284580D01*
X241184Y284576D01*
X241192Y284568D01*
X241200Y284557D01*
X241215Y284538D01*
X241234Y284515D01*
X241253Y284484D01*
X241273Y284449D01*
X241292Y284415D01*
X241315Y284373D01*
X241334Y284327D01*
X241353Y284277D01*
X241372Y284223D01*
X241388Y284165D01*
X241395Y284104D01*
X241403Y284038D01*
X241407Y283973D01*
Y283943D01*
X241403Y283919D01*
X241399Y283889D01*
X241395Y283858D01*
X241392Y283820D01*
X241384Y283781D01*
X241361Y283693D01*
X241322Y283601D01*
X241303Y283555D01*
X241277Y283512D01*
X241246Y283466D01*
X241211Y283424D01*
X241207Y283420D01*
X241203Y283416D01*
X241192Y283405D01*
X241177Y283389D01*
X241154Y283374D01*
X241130Y283355D01*
X241104Y283332D01*
X241073Y283313D01*
X240996Y283267D01*
X240908Y283228D01*
X240808Y283194D01*
X240754Y283182D01*
X240697Y283174D01*
X240654Y283486D01*
X240658D01*
X240666Y283489D01*
X240681D01*
X240697Y283497D01*
X240743Y283509D01*
X240800Y283528D01*
X240862Y283551D01*
X240927Y283581D01*
X240985Y283620D01*
X241035Y283662D01*
X241038Y283670D01*
X241054Y283685D01*
X241069Y283712D01*
X241092Y283751D01*
X241111Y283793D01*
X241130Y283846D01*
X241146Y283908D01*
X241150Y283973D01*
Y283996D01*
X241146Y284012D01*
X241142Y284050D01*
X241130Y284100D01*
X241111Y284161D01*
X241088Y284223D01*
X241050Y284284D01*
X241000Y284342D01*
X240992Y284349D01*
X240973Y284365D01*
X240942Y284388D01*
X240896Y284419D01*
X240843Y284446D01*
X240777Y284469D01*
X240704Y284484D01*
X240624Y284492D01*
X240620D01*
X240616D01*
X240604D01*
X240589Y284488D01*
X240551Y284484D01*
X240501Y284472D01*
X240447Y284457D01*
X240386Y284430D01*
X240328Y284396D01*
X240274Y284349D01*
X240266Y284342D01*
X240251Y284327D01*
X240232Y284296D01*
X240205Y284254D01*
X240178Y284204D01*
X240159Y284142D01*
X240144Y284077D01*
X240136Y284000D01*
Y283965D01*
X240140Y283939D01*
X240144Y283908D01*
X240147Y283870D01*
X240155Y283827D01*
X240167Y283781D01*
X239894Y283816D01*
Y283835D01*
X239898Y283850D01*
Y283900D01*
X239894Y283935D01*
X239886Y283985D01*
X239875Y284038D01*
X239856Y284096D01*
X239833Y284157D01*
X239798Y284219D01*
X239794Y284227D01*
X239779Y284246D01*
X239752Y284269D01*
X239717Y284300D01*
X239675Y284330D01*
X239621Y284353D01*
X239556Y284373D01*
X239479Y284380D01*
X239475D01*
X239472D01*
X239452D01*
X239422Y284373D01*
X239380Y284365D01*
X239337Y284353D01*
X239291Y284330D01*
X239241Y284303D01*
X239199Y284265D01*
X239195Y284261D01*
X239180Y284246D01*
X239161Y284219D01*
X239141Y284184D01*
X239118Y284142D01*
X239103Y284092D01*
X239088Y284035D01*
X239084Y283969D01*
Y283939D01*
X239091Y283904D01*
X239099Y283866D01*
X239111Y283816D01*
X239134Y283766D01*
X239161Y283716D01*
X239199Y283666D01*
X239203Y283662D01*
X239218Y283647D01*
X239245Y283628D01*
X239283Y283605D01*
X239330Y283578D01*
X239387Y283555D01*
X239456Y283532D01*
X239537Y283516D01*
X239483Y283205D01*
X239479D01*
X239468Y283209D01*
X239452Y283213D01*
X239433Y283217D01*
X239406Y283224D01*
X239376Y283232D01*
X239306Y283259D01*
X239230Y283290D01*
X239149Y283336D01*
X239072Y283389D01*
X239003Y283459D01*
X238999Y283463D01*
X238996Y283466D01*
X238988Y283478D01*
X238976Y283497D01*
X238965Y283516D01*
X238949Y283539D01*
X238915Y283597D01*
X238884Y283670D01*
X238857Y283758D01*
X238838Y283854D01*
X238830Y283908D01*
Y283996D01*
X238834Y284035D01*
X238842Y284085D01*
X238853Y284142D01*
X238869Y284207D01*
X238892Y284273D01*
X238923Y284338D01*
Y284342D01*
X238926Y284346D01*
X238938Y284369D01*
X238957Y284399D01*
X238984Y284438D01*
X239019Y284480D01*
X239061Y284526D01*
X239111Y284568D01*
X239164Y284607D01*
X239172Y284611D01*
X239191Y284622D01*
X239222Y284637D01*
X239260Y284653D01*
X239310Y284668D01*
X239364Y284684D01*
X239422Y284695D01*
X239487Y284699D01*
X239495D01*
X239514D01*
X239545Y284695D01*
X239583Y284687D01*
X239629Y284676D01*
X239679Y284661D01*
X239733Y284641D01*
X239783Y284611D01*
X239790Y284607D01*
X239806Y284595D01*
X239829Y284572D01*
X239860Y284545D01*
X239894Y284507D01*
X239929Y284465D01*
X239967Y284411D01*
X239998Y284349D01*
Y284353D01*
X240002Y284361D01*
Y284373D01*
X240009Y284388D01*
X240021Y284426D01*
X240044Y284476D01*
X240071Y284530D01*
X240109Y284588D01*
X240155Y284645D01*
X240213Y284695D01*
X240220Y284699D01*
X240244Y284714D01*
X240278Y284734D01*
X240324Y284760D01*
X240382Y284783D01*
X240451Y284803D01*
X240531Y284818D01*
X240620Y284822D01*
X240624D01*
X240635D01*
X240651D01*
X240674Y284818D01*
D02*
G37*
G36*
X240397Y282737D02*
X240432D01*
X240474Y282733D01*
X240520Y282729D01*
X240616Y282717D01*
X240716Y282702D01*
X240816Y282683D01*
X240904Y282652D01*
X240908D01*
X240915Y282648D01*
X240927Y282645D01*
X240942Y282637D01*
X240981Y282614D01*
X241035Y282583D01*
X241092Y282541D01*
X241154Y282487D01*
X241211Y282418D01*
X241269Y282341D01*
Y282337D01*
X241277Y282330D01*
X241280Y282318D01*
X241292Y282299D01*
X241300Y282280D01*
X241311Y282253D01*
X241326Y282218D01*
X241338Y282184D01*
X241349Y282145D01*
X241365Y282099D01*
X241376Y282053D01*
X241384Y281999D01*
X241399Y281884D01*
X241407Y281754D01*
Y281719D01*
X241403Y281696D01*
Y281665D01*
X241399Y281631D01*
X241395Y281592D01*
X241392Y281550D01*
X241376Y281458D01*
X241357Y281362D01*
X241326Y281262D01*
X241288Y281174D01*
Y281170D01*
X241280Y281162D01*
X241277Y281155D01*
X241265Y281139D01*
X241238Y281097D01*
X241196Y281051D01*
X241146Y280997D01*
X241088Y280947D01*
X241015Y280897D01*
X240935Y280855D01*
X240931D01*
X240923Y280851D01*
X240912Y280847D01*
X240893Y280840D01*
X240869Y280832D01*
X240839Y280824D01*
X240804Y280817D01*
X240766Y280809D01*
X240723Y280798D01*
X240677Y280790D01*
X240624Y280782D01*
X240570Y280774D01*
X240508Y280767D01*
X240443Y280763D01*
X240374Y280759D01*
X240301D01*
X238842D01*
Y281093D01*
X240301D01*
X240305D01*
X240316D01*
X240332D01*
X240355D01*
X240382D01*
X240412Y281097D01*
X240485Y281101D01*
X240562Y281109D01*
X240643Y281116D01*
X240720Y281132D01*
X240754Y281139D01*
X240785Y281151D01*
X240793Y281155D01*
X240812Y281162D01*
X240839Y281178D01*
X240873Y281201D01*
X240912Y281228D01*
X240954Y281266D01*
X240992Y281308D01*
X241027Y281362D01*
X241031Y281370D01*
X241038Y281389D01*
X241054Y281420D01*
X241065Y281462D01*
X241081Y281516D01*
X241096Y281577D01*
X241104Y281646D01*
X241108Y281723D01*
Y281757D01*
X241104Y281784D01*
Y281815D01*
X241100Y281850D01*
X241088Y281926D01*
X241065Y282015D01*
X241038Y282099D01*
X240996Y282180D01*
X240973Y282218D01*
X240942Y282249D01*
X240938D01*
X240935Y282257D01*
X240923Y282264D01*
X240908Y282272D01*
X240889Y282287D01*
X240866Y282299D01*
X240835Y282314D01*
X240800Y282330D01*
X240758Y282341D01*
X240712Y282357D01*
X240662Y282372D01*
X240601Y282383D01*
X240535Y282391D01*
X240466Y282399D01*
X240386Y282406D01*
X240301D01*
X238842D01*
Y282740D01*
X240301D01*
X240305D01*
X240316D01*
X240336D01*
X240363D01*
X240397Y282737D01*
D02*
G37*
G36*
X362518Y287552D02*
X363612D01*
Y287268D01*
X362460Y285636D01*
X362207D01*
Y287268D01*
X361865D01*
Y287552D01*
X362207D01*
Y288155D01*
X362518D01*
Y287552D01*
D02*
G37*
G36*
X365924Y285632D02*
X364956D01*
X364891Y285636D01*
X364822Y285640D01*
X364745Y285648D01*
X364672Y285659D01*
X364611Y285671D01*
X364607D01*
X364599Y285675D01*
X364591D01*
X364576Y285682D01*
X364534Y285694D01*
X364484Y285713D01*
X364426Y285736D01*
X364365Y285767D01*
X364303Y285805D01*
X364242Y285851D01*
X364238D01*
X364234Y285859D01*
X364207Y285882D01*
X364173Y285920D01*
X364130Y285970D01*
X364081Y286032D01*
X364031Y286105D01*
X363985Y286189D01*
X363942Y286285D01*
Y286289D01*
X363938Y286297D01*
X363935Y286312D01*
X363927Y286331D01*
X363919Y286354D01*
X363912Y286385D01*
X363900Y286420D01*
X363892Y286458D01*
X363885Y286500D01*
X363873Y286546D01*
X363858Y286646D01*
X363846Y286757D01*
X363843Y286880D01*
Y286884D01*
Y286892D01*
Y286907D01*
Y286930D01*
X363846Y286953D01*
Y286984D01*
X363850Y287053D01*
X363858Y287130D01*
X363873Y287218D01*
X363889Y287307D01*
X363912Y287391D01*
Y287395D01*
X363915Y287403D01*
X363919Y287414D01*
X363923Y287429D01*
X363938Y287468D01*
X363958Y287522D01*
X363981Y287579D01*
X364011Y287641D01*
X364046Y287702D01*
X364084Y287760D01*
X364088Y287767D01*
X364104Y287783D01*
X364123Y287810D01*
X364154Y287844D01*
X364184Y287879D01*
X364227Y287917D01*
X364269Y287956D01*
X364315Y287990D01*
X364319Y287994D01*
X364338Y288002D01*
X364365Y288017D01*
X364399Y288036D01*
X364441Y288055D01*
X364491Y288075D01*
X364549Y288094D01*
X364614Y288113D01*
X364622D01*
X364645Y288121D01*
X364680Y288125D01*
X364729Y288132D01*
X364787Y288140D01*
X364856Y288148D01*
X364933Y288151D01*
X365018Y288155D01*
X365924D01*
Y285632D01*
D02*
G37*
G36*
X360790Y288194D02*
X360820Y288190D01*
X360855Y288182D01*
X360893Y288175D01*
X360936Y288167D01*
X361028Y288136D01*
X361078Y288113D01*
X361124Y288090D01*
X361174Y288059D01*
X361220Y288025D01*
X361262Y287986D01*
X361304Y287940D01*
X361308Y287936D01*
X361316Y287925D01*
X361327Y287906D01*
X361343Y287879D01*
X361362Y287844D01*
X361381Y287802D01*
X361404Y287752D01*
X361427Y287691D01*
X361450Y287625D01*
X361473Y287549D01*
X361492Y287464D01*
X361512Y287372D01*
X361527Y287268D01*
X361539Y287161D01*
X361546Y287038D01*
X361550Y286911D01*
Y286907D01*
Y286892D01*
Y286869D01*
Y286838D01*
X361546Y286800D01*
Y286757D01*
X361542Y286708D01*
X361539Y286654D01*
X361527Y286539D01*
X361512Y286420D01*
X361492Y286301D01*
X361477Y286247D01*
X361462Y286193D01*
Y286189D01*
X361458Y286181D01*
X361450Y286166D01*
X361442Y286147D01*
X361435Y286124D01*
X361423Y286097D01*
X361393Y286036D01*
X361354Y285966D01*
X361308Y285897D01*
X361254Y285832D01*
X361189Y285771D01*
X361185D01*
X361181Y285763D01*
X361170Y285755D01*
X361155Y285748D01*
X361116Y285725D01*
X361062Y285694D01*
X360997Y285667D01*
X360916Y285644D01*
X360828Y285629D01*
X360728Y285621D01*
X360694D01*
X360655Y285625D01*
X360609Y285632D01*
X360555Y285640D01*
X360494Y285655D01*
X360433Y285679D01*
X360375Y285705D01*
X360367Y285709D01*
X360348Y285721D01*
X360321Y285740D01*
X360283Y285763D01*
X360244Y285798D01*
X360202Y285840D01*
X360160Y285886D01*
X360121Y285940D01*
X360118Y285947D01*
X360106Y285966D01*
X360087Y286001D01*
X360064Y286043D01*
X360041Y286097D01*
X360014Y286162D01*
X359987Y286235D01*
X359964Y286316D01*
Y286320D01*
X359960Y286327D01*
Y286339D01*
X359956Y286358D01*
X359949Y286377D01*
X359945Y286404D01*
X359941Y286439D01*
X359933Y286473D01*
X359929Y286516D01*
X359926Y286558D01*
X359918Y286608D01*
X359914Y286662D01*
X359910Y286719D01*
Y286777D01*
X359907Y286911D01*
Y286915D01*
Y286930D01*
Y286953D01*
Y286984D01*
X359910Y287022D01*
Y287065D01*
X359914Y287115D01*
X359918Y287168D01*
X359929Y287284D01*
X359945Y287403D01*
X359968Y287522D01*
X359983Y287575D01*
X359999Y287629D01*
Y287633D01*
X360002Y287641D01*
X360006Y287656D01*
X360014Y287675D01*
X360026Y287698D01*
X360037Y287721D01*
X360068Y287783D01*
X360106Y287852D01*
X360152Y287921D01*
X360206Y287990D01*
X360271Y288052D01*
X360275D01*
X360279Y288059D01*
X360291Y288063D01*
X360302Y288075D01*
X360344Y288098D01*
X360394Y288125D01*
X360463Y288151D01*
X360540Y288175D01*
X360628Y288190D01*
X360728Y288197D01*
X360763D01*
X360790Y288194D01*
D02*
G37*
G36*
X358735Y286181D02*
X358739Y286185D01*
X358754Y286201D01*
X358781Y286220D01*
X358816Y286247D01*
X358858Y286281D01*
X358908Y286316D01*
X358966Y286358D01*
X359031Y286397D01*
X359035D01*
X359039Y286400D01*
X359062Y286416D01*
X359096Y286435D01*
X359138Y286458D01*
X359188Y286485D01*
X359242Y286508D01*
X359300Y286535D01*
X359353Y286558D01*
Y286255D01*
X359350D01*
X359342Y286251D01*
X359327Y286243D01*
X359311Y286231D01*
X359288Y286220D01*
X359261Y286208D01*
X359200Y286174D01*
X359131Y286132D01*
X359054Y286082D01*
X358977Y286024D01*
X358904Y285963D01*
X358900Y285959D01*
X358897Y285955D01*
X358874Y285932D01*
X358839Y285897D01*
X358797Y285855D01*
X358751Y285801D01*
X358705Y285744D01*
X358662Y285682D01*
X358628Y285621D01*
X358424D01*
Y288155D01*
X358735D01*
Y286181D01*
D02*
G37*
%LPC*%
G36*
X136327Y144754D02*
X136216D01*
X136208D01*
X136189D01*
X136158D01*
X136116Y144750D01*
X136066D01*
X136009Y144746D01*
X135947Y144743D01*
X135878Y144735D01*
X135740Y144720D01*
X135605Y144693D01*
X135540Y144677D01*
X135482Y144658D01*
X135433Y144635D01*
X135390Y144608D01*
X135386D01*
X135383Y144601D01*
X135360Y144581D01*
X135325Y144551D01*
X135287Y144508D01*
X135248Y144455D01*
X135214Y144393D01*
X135191Y144324D01*
X135187Y144286D01*
X135183Y144247D01*
Y144228D01*
X135187Y144213D01*
X135191Y144174D01*
X135206Y144124D01*
X135229Y144071D01*
X135260Y144013D01*
X135306Y143956D01*
X135336Y143929D01*
X135367Y143905D01*
X135371D01*
X135379Y143898D01*
X135394Y143890D01*
X135413Y143883D01*
X135440Y143871D01*
X135471Y143856D01*
X135513Y143840D01*
X135559Y143829D01*
X135613Y143813D01*
X135675Y143798D01*
X135744Y143787D01*
X135824Y143771D01*
X135909Y143763D01*
X136001Y143756D01*
X136105Y143748D01*
X136216D01*
X136224D01*
X136243D01*
X136274D01*
X136316Y143752D01*
X136366D01*
X136423Y143756D01*
X136488Y143760D01*
X136554Y143767D01*
X136692Y143783D01*
X136830Y143809D01*
X136892Y143825D01*
X136949Y143844D01*
X137003Y143867D01*
X137045Y143890D01*
X137049D01*
X137053Y143898D01*
X137076Y143917D01*
X137111Y143948D01*
X137145Y143990D01*
X137184Y144044D01*
X137218Y144105D01*
X137241Y144174D01*
X137245Y144213D01*
X137249Y144251D01*
Y144270D01*
X137245Y144286D01*
X137237Y144324D01*
X137222Y144374D01*
X137199Y144432D01*
X137164Y144489D01*
X137141Y144520D01*
X137111Y144551D01*
X137080Y144581D01*
X137045Y144608D01*
X137041D01*
X137034Y144616D01*
X137022Y144624D01*
X137003Y144631D01*
X136980Y144643D01*
X136945Y144654D01*
X136907Y144666D01*
X136865Y144681D01*
X136811Y144697D01*
X136753Y144708D01*
X136684Y144720D01*
X136608Y144731D01*
X136523Y144743D01*
X136431Y144746D01*
X136327Y144754D01*
D02*
G37*
G36*
X154350Y194221D02*
X154239D01*
X154231D01*
X154212D01*
X154181D01*
X154139Y194217D01*
X154089D01*
X154032Y194213D01*
X153970Y194210D01*
X153901Y194202D01*
X153763Y194187D01*
X153628Y194160D01*
X153563Y194144D01*
X153506Y194125D01*
X153455Y194102D01*
X153413Y194075D01*
X153410D01*
X153406Y194068D01*
X153383Y194048D01*
X153348Y194018D01*
X153310Y193975D01*
X153271Y193922D01*
X153237Y193860D01*
X153214Y193791D01*
X153210Y193753D01*
X153206Y193714D01*
Y193695D01*
X153210Y193680D01*
X153214Y193641D01*
X153229Y193591D01*
X153252Y193538D01*
X153283Y193480D01*
X153329Y193422D01*
X153359Y193396D01*
X153390Y193372D01*
X153394D01*
X153402Y193365D01*
X153417Y193357D01*
X153436Y193350D01*
X153463Y193338D01*
X153494Y193323D01*
X153536Y193307D01*
X153582Y193296D01*
X153636Y193280D01*
X153698Y193265D01*
X153767Y193254D01*
X153847Y193238D01*
X153932Y193230D01*
X154024Y193223D01*
X154128Y193215D01*
X154239D01*
X154247D01*
X154266D01*
X154297D01*
X154339Y193219D01*
X154389D01*
X154446Y193223D01*
X154512Y193227D01*
X154577Y193234D01*
X154715Y193250D01*
X154853Y193277D01*
X154915Y193292D01*
X154972Y193311D01*
X155026Y193334D01*
X155068Y193357D01*
X155072D01*
X155076Y193365D01*
X155099Y193384D01*
X155134Y193415D01*
X155168Y193457D01*
X155207Y193511D01*
X155241Y193572D01*
X155264Y193641D01*
X155268Y193680D01*
X155272Y193718D01*
Y193737D01*
X155268Y193753D01*
X155260Y193791D01*
X155245Y193841D01*
X155222Y193899D01*
X155187Y193956D01*
X155164Y193987D01*
X155134Y194018D01*
X155103Y194048D01*
X155068Y194075D01*
X155064D01*
X155057Y194083D01*
X155045Y194091D01*
X155026Y194098D01*
X155003Y194110D01*
X154969Y194121D01*
X154930Y194133D01*
X154888Y194148D01*
X154834Y194164D01*
X154777Y194175D01*
X154707Y194187D01*
X154631Y194198D01*
X154546Y194210D01*
X154454Y194213D01*
X154350Y194221D01*
D02*
G37*
G36*
X154204Y190258D02*
X154200D01*
X154185D01*
X154166D01*
X154139D01*
X154104Y190254D01*
X154066Y190251D01*
X154024Y190247D01*
X153982Y190243D01*
X153882Y190228D01*
X153782Y190205D01*
X153686Y190170D01*
X153640Y190151D01*
X153598Y190128D01*
X153594D01*
X153590Y190120D01*
X153578Y190116D01*
X153563Y190105D01*
X153525Y190078D01*
X153482Y190039D01*
X153433Y189993D01*
X153386Y189940D01*
X153344Y189878D01*
X153310Y189813D01*
X153306Y189805D01*
X153302Y189786D01*
X153294Y189755D01*
X153283Y189709D01*
X153271Y189648D01*
X153264Y189575D01*
X153260Y189487D01*
X153256Y189383D01*
Y188857D01*
X155187D01*
Y189433D01*
X155183Y189475D01*
X155180Y189532D01*
X155176Y189594D01*
X155168Y189659D01*
X155157Y189721D01*
X155141Y189778D01*
X155138Y189786D01*
X155134Y189801D01*
X155122Y189828D01*
X155107Y189859D01*
X155088Y189897D01*
X155068Y189936D01*
X155042Y189970D01*
X155011Y190005D01*
X155007Y190009D01*
X154988Y190024D01*
X154961Y190047D01*
X154926Y190074D01*
X154880Y190101D01*
X154826Y190132D01*
X154761Y190162D01*
X154692Y190189D01*
X154688D01*
X154684Y190193D01*
X154673Y190197D01*
X154657Y190201D01*
X154638Y190205D01*
X154615Y190212D01*
X154558Y190224D01*
X154485Y190235D01*
X154400Y190247D01*
X154308Y190254D01*
X154204Y190258D01*
D02*
G37*
G36*
X291893Y127566D02*
X291873D01*
X291858Y127562D01*
X291820Y127558D01*
X291770Y127543D01*
X291716Y127520D01*
X291658Y127489D01*
X291601Y127443D01*
X291574Y127412D01*
X291551Y127382D01*
Y127378D01*
X291543Y127370D01*
X291535Y127355D01*
X291528Y127336D01*
X291516Y127309D01*
X291501Y127278D01*
X291485Y127236D01*
X291474Y127190D01*
X291459Y127136D01*
X291443Y127074D01*
X291432Y127005D01*
X291416Y126925D01*
X291409Y126840D01*
X291401Y126748D01*
X291393Y126644D01*
Y126533D01*
Y126525D01*
Y126506D01*
Y126475D01*
X291397Y126433D01*
Y126383D01*
X291401Y126326D01*
X291405Y126260D01*
X291412Y126195D01*
X291428Y126057D01*
X291455Y125918D01*
X291470Y125857D01*
X291489Y125800D01*
X291512Y125746D01*
X291535Y125704D01*
Y125700D01*
X291543Y125696D01*
X291562Y125673D01*
X291593Y125638D01*
X291635Y125604D01*
X291689Y125565D01*
X291750Y125531D01*
X291820Y125508D01*
X291858Y125504D01*
X291896Y125500D01*
X291915D01*
X291931Y125504D01*
X291969Y125512D01*
X292019Y125527D01*
X292077Y125550D01*
X292134Y125584D01*
X292165Y125608D01*
X292196Y125638D01*
X292227Y125669D01*
X292253Y125704D01*
Y125707D01*
X292261Y125715D01*
X292269Y125726D01*
X292277Y125746D01*
X292288Y125769D01*
X292300Y125803D01*
X292311Y125842D01*
X292326Y125884D01*
X292342Y125938D01*
X292353Y125995D01*
X292365Y126065D01*
X292376Y126141D01*
X292388Y126226D01*
X292392Y126318D01*
X292399Y126422D01*
Y126533D01*
Y126541D01*
Y126560D01*
Y126591D01*
X292395Y126633D01*
Y126683D01*
X292392Y126740D01*
X292388Y126802D01*
X292380Y126871D01*
X292365Y127009D01*
X292338Y127144D01*
X292323Y127209D01*
X292303Y127266D01*
X292280Y127316D01*
X292253Y127358D01*
Y127362D01*
X292246Y127366D01*
X292227Y127389D01*
X292196Y127424D01*
X292154Y127462D01*
X292100Y127501D01*
X292038Y127535D01*
X291969Y127558D01*
X291931Y127562D01*
X291893Y127566D01*
D02*
G37*
G36*
X289934D02*
X289915D01*
X289899Y127562D01*
X289861Y127558D01*
X289811Y127543D01*
X289757Y127520D01*
X289700Y127489D01*
X289642Y127443D01*
X289615Y127412D01*
X289592Y127382D01*
Y127378D01*
X289585Y127370D01*
X289577Y127355D01*
X289569Y127336D01*
X289558Y127309D01*
X289542Y127278D01*
X289527Y127236D01*
X289515Y127190D01*
X289500Y127136D01*
X289485Y127074D01*
X289473Y127005D01*
X289458Y126925D01*
X289450Y126840D01*
X289442Y126748D01*
X289435Y126644D01*
Y126533D01*
Y126525D01*
Y126506D01*
Y126475D01*
X289439Y126433D01*
Y126383D01*
X289442Y126326D01*
X289446Y126260D01*
X289454Y126195D01*
X289469Y126057D01*
X289496Y125918D01*
X289512Y125857D01*
X289531Y125800D01*
X289554Y125746D01*
X289577Y125704D01*
Y125700D01*
X289585Y125696D01*
X289604Y125673D01*
X289634Y125638D01*
X289677Y125604D01*
X289731Y125565D01*
X289792Y125531D01*
X289861Y125508D01*
X289899Y125504D01*
X289938Y125500D01*
X289957D01*
X289972Y125504D01*
X290011Y125512D01*
X290061Y125527D01*
X290118Y125550D01*
X290176Y125584D01*
X290207Y125608D01*
X290237Y125638D01*
X290268Y125669D01*
X290295Y125704D01*
Y125707D01*
X290303Y125715D01*
X290310Y125726D01*
X290318Y125746D01*
X290330Y125769D01*
X290341Y125803D01*
X290353Y125842D01*
X290368Y125884D01*
X290383Y125938D01*
X290395Y125995D01*
X290406Y126065D01*
X290418Y126141D01*
X290429Y126226D01*
X290433Y126318D01*
X290441Y126422D01*
Y126533D01*
Y126541D01*
Y126560D01*
Y126591D01*
X290437Y126633D01*
Y126683D01*
X290433Y126740D01*
X290429Y126802D01*
X290422Y126871D01*
X290406Y127009D01*
X290380Y127144D01*
X290364Y127209D01*
X290345Y127266D01*
X290322Y127316D01*
X290295Y127358D01*
Y127362D01*
X290287Y127366D01*
X290268Y127389D01*
X290237Y127424D01*
X290195Y127462D01*
X290141Y127501D01*
X290080Y127535D01*
X290011Y127558D01*
X289972Y127562D01*
X289934Y127566D01*
D02*
G37*
G36*
X453524Y264437D02*
X453505D01*
X453489Y264433D01*
X453451Y264429D01*
X453401Y264414D01*
X453347Y264391D01*
X453290Y264360D01*
X453232Y264314D01*
X453205Y264283D01*
X453182Y264252D01*
Y264249D01*
X453174Y264241D01*
X453167Y264226D01*
X453159Y264206D01*
X453147Y264180D01*
X453132Y264149D01*
X453117Y264107D01*
X453105Y264060D01*
X453090Y264007D01*
X453074Y263945D01*
X453063Y263876D01*
X453048Y263796D01*
X453040Y263711D01*
X453032Y263619D01*
X453024Y263515D01*
Y263404D01*
Y263396D01*
Y263377D01*
Y263346D01*
X453028Y263304D01*
Y263254D01*
X453032Y263196D01*
X453036Y263131D01*
X453044Y263066D01*
X453059Y262928D01*
X453086Y262790D01*
X453101Y262728D01*
X453121Y262670D01*
X453144Y262617D01*
X453167Y262574D01*
Y262571D01*
X453174Y262567D01*
X453194Y262544D01*
X453224Y262509D01*
X453266Y262475D01*
X453320Y262436D01*
X453382Y262402D01*
X453451Y262379D01*
X453489Y262375D01*
X453527Y262371D01*
X453547D01*
X453562Y262375D01*
X453601Y262382D01*
X453650Y262398D01*
X453708Y262421D01*
X453766Y262455D01*
X453796Y262478D01*
X453827Y262509D01*
X453858Y262540D01*
X453885Y262574D01*
Y262578D01*
X453892Y262586D01*
X453900Y262597D01*
X453908Y262617D01*
X453919Y262640D01*
X453931Y262674D01*
X453942Y262713D01*
X453958Y262755D01*
X453973Y262809D01*
X453984Y262866D01*
X453996Y262935D01*
X454007Y263012D01*
X454019Y263097D01*
X454023Y263189D01*
X454031Y263293D01*
Y263404D01*
Y263412D01*
Y263431D01*
Y263461D01*
X454027Y263504D01*
Y263554D01*
X454023Y263611D01*
X454019Y263673D01*
X454011Y263742D01*
X453996Y263880D01*
X453969Y264014D01*
X453954Y264080D01*
X453935Y264137D01*
X453911Y264187D01*
X453885Y264229D01*
Y264233D01*
X453877Y264237D01*
X453858Y264260D01*
X453827Y264295D01*
X453785Y264333D01*
X453731Y264372D01*
X453670Y264406D01*
X453601Y264429D01*
X453562Y264433D01*
X453524Y264437D01*
D02*
G37*
G36*
X451565D02*
X451546D01*
X451531Y264433D01*
X451492Y264429D01*
X451442Y264414D01*
X451389Y264391D01*
X451331Y264360D01*
X451273Y264314D01*
X451247Y264283D01*
X451224Y264252D01*
Y264249D01*
X451216Y264241D01*
X451208Y264226D01*
X451200Y264206D01*
X451189Y264180D01*
X451174Y264149D01*
X451158Y264107D01*
X451147Y264060D01*
X451131Y264007D01*
X451116Y263945D01*
X451104Y263876D01*
X451089Y263796D01*
X451082Y263711D01*
X451074Y263619D01*
X451066Y263515D01*
Y263404D01*
Y263396D01*
Y263377D01*
Y263346D01*
X451070Y263304D01*
Y263254D01*
X451074Y263196D01*
X451078Y263131D01*
X451085Y263066D01*
X451101Y262928D01*
X451127Y262790D01*
X451143Y262728D01*
X451162Y262670D01*
X451185Y262617D01*
X451208Y262574D01*
Y262571D01*
X451216Y262567D01*
X451235Y262544D01*
X451266Y262509D01*
X451308Y262475D01*
X451362Y262436D01*
X451423Y262402D01*
X451492Y262379D01*
X451531Y262375D01*
X451569Y262371D01*
X451588D01*
X451604Y262375D01*
X451642Y262382D01*
X451692Y262398D01*
X451750Y262421D01*
X451807Y262455D01*
X451838Y262478D01*
X451869Y262509D01*
X451899Y262540D01*
X451926Y262574D01*
Y262578D01*
X451934Y262586D01*
X451942Y262597D01*
X451949Y262617D01*
X451961Y262640D01*
X451972Y262674D01*
X451984Y262713D01*
X451999Y262755D01*
X452015Y262809D01*
X452026Y262866D01*
X452038Y262935D01*
X452049Y263012D01*
X452061Y263097D01*
X452065Y263189D01*
X452072Y263293D01*
Y263404D01*
Y263412D01*
Y263431D01*
Y263461D01*
X452068Y263504D01*
Y263554D01*
X452065Y263611D01*
X452061Y263673D01*
X452053Y263742D01*
X452038Y263880D01*
X452011Y264014D01*
X451995Y264080D01*
X451976Y264137D01*
X451953Y264187D01*
X451926Y264229D01*
Y264233D01*
X451919Y264237D01*
X451899Y264260D01*
X451869Y264295D01*
X451826Y264333D01*
X451773Y264372D01*
X451711Y264406D01*
X451642Y264429D01*
X451604Y264433D01*
X451565Y264437D01*
D02*
G37*
G36*
X625674Y95639D02*
X625563D01*
X625555D01*
X625536D01*
X625505D01*
X625463Y95635D01*
X625413D01*
X625355Y95631D01*
X625294Y95627D01*
X625225Y95620D01*
X625087Y95604D01*
X624952Y95578D01*
X624887Y95562D01*
X624829Y95543D01*
X624779Y95520D01*
X624737Y95493D01*
X624733D01*
X624729Y95485D01*
X624706Y95466D01*
X624672Y95436D01*
X624634Y95393D01*
X624595Y95340D01*
X624560Y95278D01*
X624538Y95209D01*
X624534Y95170D01*
X624530Y95132D01*
Y95113D01*
X624534Y95098D01*
X624538Y95059D01*
X624553Y95009D01*
X624576Y94955D01*
X624607Y94898D01*
X624653Y94840D01*
X624683Y94813D01*
X624714Y94790D01*
X624718D01*
X624726Y94783D01*
X624741Y94775D01*
X624760Y94767D01*
X624787Y94756D01*
X624818Y94740D01*
X624860Y94725D01*
X624906Y94713D01*
X624960Y94698D01*
X625021Y94683D01*
X625090Y94671D01*
X625171Y94656D01*
X625256Y94648D01*
X625348Y94641D01*
X625451Y94633D01*
X625563D01*
X625570D01*
X625590D01*
X625620D01*
X625663Y94637D01*
X625712D01*
X625770Y94641D01*
X625835Y94644D01*
X625901Y94652D01*
X626039Y94668D01*
X626177Y94694D01*
X626239Y94710D01*
X626296Y94729D01*
X626350Y94752D01*
X626392Y94775D01*
X626396D01*
X626400Y94783D01*
X626423Y94802D01*
X626458Y94833D01*
X626492Y94875D01*
X626530Y94929D01*
X626565Y94990D01*
X626588Y95059D01*
X626592Y95098D01*
X626596Y95136D01*
Y95155D01*
X626592Y95170D01*
X626584Y95209D01*
X626569Y95259D01*
X626546Y95316D01*
X626511Y95374D01*
X626488Y95405D01*
X626458Y95436D01*
X626427Y95466D01*
X626392Y95493D01*
X626388D01*
X626381Y95501D01*
X626369Y95508D01*
X626350Y95516D01*
X626327Y95528D01*
X626292Y95539D01*
X626254Y95551D01*
X626212Y95566D01*
X626158Y95581D01*
X626100Y95593D01*
X626031Y95604D01*
X625954Y95616D01*
X625870Y95627D01*
X625778Y95631D01*
X625674Y95639D01*
D02*
G37*
G36*
X523934Y246698D02*
X523822D01*
X523815D01*
X523795D01*
X523765D01*
X523722Y246694D01*
X523672D01*
X523615Y246690D01*
X523554Y246686D01*
X523484Y246679D01*
X523346Y246663D01*
X523212Y246637D01*
X523146Y246621D01*
X523089Y246602D01*
X523039Y246579D01*
X522997Y246552D01*
X522993D01*
X522989Y246544D01*
X522966Y246525D01*
X522931Y246494D01*
X522893Y246452D01*
X522855Y246398D01*
X522820Y246337D01*
X522797Y246268D01*
X522793Y246229D01*
X522789Y246191D01*
Y246172D01*
X522793Y246157D01*
X522797Y246118D01*
X522812Y246068D01*
X522835Y246014D01*
X522866Y245957D01*
X522912Y245899D01*
X522943Y245872D01*
X522974Y245849D01*
X522977D01*
X522985Y245842D01*
X523000Y245834D01*
X523020Y245826D01*
X523047Y245815D01*
X523077Y245799D01*
X523120Y245784D01*
X523166Y245773D01*
X523219Y245757D01*
X523281Y245742D01*
X523350Y245730D01*
X523431Y245715D01*
X523515Y245707D01*
X523607Y245700D01*
X523711Y245692D01*
X523822D01*
X523830D01*
X523849D01*
X523880D01*
X523922Y245696D01*
X523972D01*
X524030Y245700D01*
X524095Y245703D01*
X524160Y245711D01*
X524298Y245726D01*
X524437Y245753D01*
X524498Y245769D01*
X524556Y245788D01*
X524610Y245811D01*
X524652Y245834D01*
X524656D01*
X524659Y245842D01*
X524682Y245861D01*
X524717Y245891D01*
X524752Y245934D01*
X524790Y245988D01*
X524824Y246049D01*
X524848Y246118D01*
X524851Y246157D01*
X524855Y246195D01*
Y246214D01*
X524851Y246229D01*
X524844Y246268D01*
X524828Y246318D01*
X524805Y246375D01*
X524771Y246433D01*
X524748Y246464D01*
X524717Y246494D01*
X524686Y246525D01*
X524652Y246552D01*
X524648D01*
X524640Y246560D01*
X524629Y246567D01*
X524610Y246575D01*
X524586Y246587D01*
X524552Y246598D01*
X524513Y246610D01*
X524471Y246625D01*
X524417Y246640D01*
X524360Y246652D01*
X524291Y246663D01*
X524214Y246675D01*
X524129Y246686D01*
X524037Y246690D01*
X523934Y246698D01*
D02*
G37*
G36*
X523788Y242735D02*
X523784D01*
X523769D01*
X523749D01*
X523722D01*
X523688Y242731D01*
X523650Y242727D01*
X523607Y242723D01*
X523565Y242720D01*
X523465Y242704D01*
X523365Y242681D01*
X523269Y242647D01*
X523223Y242628D01*
X523181Y242604D01*
X523177D01*
X523173Y242597D01*
X523162Y242593D01*
X523146Y242581D01*
X523108Y242555D01*
X523066Y242516D01*
X523016Y242470D01*
X522970Y242416D01*
X522928Y242355D01*
X522893Y242290D01*
X522889Y242282D01*
X522885Y242263D01*
X522878Y242232D01*
X522866Y242186D01*
X522855Y242125D01*
X522847Y242052D01*
X522843Y241963D01*
X522839Y241860D01*
Y241333D01*
X524771D01*
Y241909D01*
X524767Y241952D01*
X524763Y242009D01*
X524759Y242071D01*
X524752Y242136D01*
X524740Y242197D01*
X524725Y242255D01*
X524721Y242263D01*
X524717Y242278D01*
X524706Y242305D01*
X524690Y242336D01*
X524671Y242374D01*
X524652Y242412D01*
X524625Y242447D01*
X524594Y242482D01*
X524590Y242485D01*
X524571Y242501D01*
X524544Y242524D01*
X524510Y242551D01*
X524464Y242578D01*
X524410Y242608D01*
X524344Y242639D01*
X524275Y242666D01*
X524272D01*
X524268Y242670D01*
X524256Y242674D01*
X524241Y242677D01*
X524222Y242681D01*
X524199Y242689D01*
X524141Y242701D01*
X524068Y242712D01*
X523984Y242723D01*
X523891Y242731D01*
X523788Y242735D01*
D02*
G37*
G36*
X136408Y394356D02*
X135713Y394095D01*
X135710D01*
X135698Y394091D01*
X135683Y394084D01*
X135660Y394076D01*
X135633Y394064D01*
X135602Y394053D01*
X135529Y394030D01*
X135445Y393999D01*
X135356Y393968D01*
X135268Y393942D01*
X135184Y393915D01*
X135187D01*
X135195Y393911D01*
X135206D01*
X135226Y393907D01*
X135249Y393899D01*
X135276Y393892D01*
X135337Y393876D01*
X135414Y393857D01*
X135494Y393834D01*
X135583Y393807D01*
X135671Y393776D01*
X136408Y393500D01*
Y394356D01*
D02*
G37*
G36*
X136312Y390336D02*
X136201D01*
X136193D01*
X136174D01*
X136144D01*
X136101Y390332D01*
X136051D01*
X135994Y390328D01*
X135932Y390324D01*
X135863Y390317D01*
X135725Y390301D01*
X135591Y390274D01*
X135525Y390259D01*
X135468Y390240D01*
X135418Y390217D01*
X135375Y390190D01*
X135372D01*
X135368Y390182D01*
X135345Y390163D01*
X135310Y390132D01*
X135272Y390090D01*
X135233Y390036D01*
X135199Y389975D01*
X135176Y389906D01*
X135172Y389867D01*
X135168Y389829D01*
Y389810D01*
X135172Y389794D01*
X135176Y389756D01*
X135191Y389706D01*
X135214Y389652D01*
X135245Y389595D01*
X135291Y389537D01*
X135322Y389510D01*
X135352Y389487D01*
X135356D01*
X135364Y389479D01*
X135379Y389472D01*
X135398Y389464D01*
X135425Y389453D01*
X135456Y389437D01*
X135498Y389422D01*
X135544Y389410D01*
X135598Y389395D01*
X135660Y389380D01*
X135729Y389368D01*
X135809Y389353D01*
X135894Y389345D01*
X135986Y389337D01*
X136090Y389330D01*
X136201D01*
X136209D01*
X136228D01*
X136259D01*
X136301Y389334D01*
X136351D01*
X136408Y389337D01*
X136474Y389341D01*
X136539Y389349D01*
X136677Y389364D01*
X136816Y389391D01*
X136877Y389406D01*
X136934Y389426D01*
X136988Y389449D01*
X137030Y389472D01*
X137034D01*
X137038Y389479D01*
X137061Y389499D01*
X137096Y389529D01*
X137130Y389572D01*
X137169Y389625D01*
X137203Y389687D01*
X137226Y389756D01*
X137230Y389794D01*
X137234Y389833D01*
Y389852D01*
X137230Y389867D01*
X137223Y389906D01*
X137207Y389956D01*
X137184Y390013D01*
X137150Y390071D01*
X137127Y390102D01*
X137096Y390132D01*
X137065Y390163D01*
X137030Y390190D01*
X137027D01*
X137019Y390198D01*
X137007Y390205D01*
X136988Y390213D01*
X136965Y390224D01*
X136931Y390236D01*
X136892Y390248D01*
X136850Y390263D01*
X136796Y390278D01*
X136739Y390290D01*
X136670Y390301D01*
X136593Y390313D01*
X136508Y390324D01*
X136416Y390328D01*
X136312Y390336D01*
D02*
G37*
G36*
X154431Y443823D02*
X153736Y443562D01*
X153733D01*
X153721Y443558D01*
X153706Y443551D01*
X153683Y443543D01*
X153656Y443531D01*
X153625Y443520D01*
X153552Y443497D01*
X153468Y443466D01*
X153379Y443435D01*
X153291Y443409D01*
X153207Y443382D01*
X153210D01*
X153218Y443378D01*
X153229D01*
X153249Y443374D01*
X153272Y443366D01*
X153299Y443359D01*
X153360Y443343D01*
X153437Y443324D01*
X153517Y443301D01*
X153606Y443274D01*
X153694Y443243D01*
X154431Y442967D01*
Y443823D01*
D02*
G37*
G36*
X154335Y439803D02*
X154224D01*
X154216D01*
X154197D01*
X154166D01*
X154124Y439799D01*
X154074D01*
X154017Y439795D01*
X153955Y439791D01*
X153886Y439784D01*
X153748Y439768D01*
X153613Y439741D01*
X153548Y439726D01*
X153491Y439707D01*
X153441Y439684D01*
X153399Y439657D01*
X153395D01*
X153391Y439649D01*
X153368Y439630D01*
X153333Y439599D01*
X153295Y439557D01*
X153256Y439503D01*
X153222Y439442D01*
X153199Y439373D01*
X153195Y439334D01*
X153191Y439296D01*
Y439277D01*
X153195Y439261D01*
X153199Y439223D01*
X153214Y439173D01*
X153237Y439119D01*
X153268Y439062D01*
X153314Y439004D01*
X153345Y438977D01*
X153375Y438954D01*
X153379D01*
X153387Y438946D01*
X153402Y438939D01*
X153421Y438931D01*
X153448Y438920D01*
X153479Y438904D01*
X153521Y438889D01*
X153568Y438877D01*
X153621Y438862D01*
X153683Y438847D01*
X153752Y438835D01*
X153832Y438820D01*
X153917Y438812D01*
X154009Y438804D01*
X154113Y438797D01*
X154224D01*
X154232D01*
X154251D01*
X154282D01*
X154324Y438801D01*
X154374D01*
X154431Y438804D01*
X154497Y438808D01*
X154562Y438816D01*
X154700Y438831D01*
X154839Y438858D01*
X154900Y438873D01*
X154957Y438893D01*
X155011Y438916D01*
X155053Y438939D01*
X155057D01*
X155061Y438946D01*
X155084Y438966D01*
X155119Y438996D01*
X155153Y439039D01*
X155192Y439092D01*
X155226Y439154D01*
X155249Y439223D01*
X155253Y439261D01*
X155257Y439300D01*
Y439319D01*
X155253Y439334D01*
X155245Y439373D01*
X155230Y439423D01*
X155207Y439480D01*
X155173Y439538D01*
X155149Y439569D01*
X155119Y439599D01*
X155088Y439630D01*
X155053Y439657D01*
X155050D01*
X155042Y439665D01*
X155031Y439672D01*
X155011Y439680D01*
X154988Y439691D01*
X154954Y439703D01*
X154915Y439714D01*
X154873Y439730D01*
X154819Y439745D01*
X154762Y439757D01*
X154693Y439768D01*
X154616Y439780D01*
X154531Y439791D01*
X154439Y439795D01*
X154335Y439803D01*
D02*
G37*
G36*
X154190Y435840D02*
X154186D01*
X154170D01*
X154151D01*
X154124D01*
X154090Y435836D01*
X154051Y435832D01*
X154009Y435828D01*
X153967Y435825D01*
X153867Y435809D01*
X153767Y435786D01*
X153671Y435752D01*
X153625Y435732D01*
X153583Y435709D01*
X153579D01*
X153575Y435702D01*
X153564Y435698D01*
X153548Y435686D01*
X153510Y435659D01*
X153468Y435621D01*
X153418Y435575D01*
X153372Y435521D01*
X153329Y435460D01*
X153295Y435394D01*
X153291Y435387D01*
X153287Y435368D01*
X153279Y435337D01*
X153268Y435291D01*
X153256Y435229D01*
X153249Y435156D01*
X153245Y435068D01*
X153241Y434964D01*
Y434438D01*
X155173D01*
Y435014D01*
X155169Y435057D01*
X155165Y435114D01*
X155161Y435176D01*
X155153Y435241D01*
X155142Y435302D01*
X155127Y435360D01*
X155123Y435368D01*
X155119Y435383D01*
X155107Y435410D01*
X155092Y435441D01*
X155073Y435479D01*
X155053Y435517D01*
X155027Y435552D01*
X154996Y435587D01*
X154992Y435590D01*
X154973Y435606D01*
X154946Y435629D01*
X154911Y435656D01*
X154865Y435682D01*
X154812Y435713D01*
X154746Y435744D01*
X154677Y435771D01*
X154673D01*
X154669Y435775D01*
X154658Y435779D01*
X154643Y435782D01*
X154623Y435786D01*
X154600Y435794D01*
X154543Y435805D01*
X154470Y435817D01*
X154385Y435828D01*
X154293Y435836D01*
X154190Y435840D01*
D02*
G37*
G36*
X154757Y321389D02*
X154750D01*
X154734D01*
X154707Y321385D01*
X154677Y321381D01*
X154638Y321370D01*
X154596Y321358D01*
X154554Y321339D01*
X154515Y321312D01*
X154511Y321308D01*
X154496Y321301D01*
X154481Y321281D01*
X154458Y321258D01*
X154431Y321231D01*
X154408Y321197D01*
X154385Y321158D01*
X154366Y321112D01*
X154362Y321105D01*
X154358Y321089D01*
X154350Y321059D01*
X154343Y321020D01*
X154335Y320966D01*
X154331Y320905D01*
X154323Y320828D01*
Y320164D01*
X155191D01*
Y320878D01*
X155187Y320955D01*
X155183Y320989D01*
X155180Y321016D01*
Y321020D01*
X155176Y321036D01*
X155172Y321059D01*
X155164Y321085D01*
X155145Y321147D01*
X155114Y321208D01*
X155111Y321212D01*
X155107Y321224D01*
X155095Y321235D01*
X155076Y321254D01*
X155057Y321277D01*
X155034Y321297D01*
X155003Y321320D01*
X154972Y321339D01*
X154969Y321343D01*
X154957Y321346D01*
X154938Y321354D01*
X154911Y321366D01*
X154880Y321373D01*
X154842Y321381D01*
X154803Y321385D01*
X154757Y321389D01*
D02*
G37*
G36*
X153651Y321281D02*
X153647D01*
X153628D01*
X153605Y321277D01*
X153575Y321274D01*
X153540Y321266D01*
X153505Y321254D01*
X153467Y321239D01*
X153429Y321220D01*
X153425Y321216D01*
X153413Y321208D01*
X153398Y321193D01*
X153375Y321174D01*
X153356Y321151D01*
X153333Y321120D01*
X153313Y321085D01*
X153298Y321047D01*
Y321043D01*
X153290Y321024D01*
X153287Y320997D01*
X153279Y320959D01*
X153271Y320905D01*
X153267Y320840D01*
X153260Y320759D01*
Y320164D01*
X154028D01*
Y320782D01*
X154024Y320828D01*
X154020Y320882D01*
X154016Y320936D01*
X154008Y320982D01*
X154001Y321024D01*
X153997Y321028D01*
X153993Y321043D01*
X153985Y321066D01*
X153970Y321097D01*
X153955Y321128D01*
X153932Y321158D01*
X153905Y321189D01*
X153874Y321216D01*
X153870Y321220D01*
X153859Y321228D01*
X153840Y321235D01*
X153813Y321251D01*
X153782Y321262D01*
X153744Y321270D01*
X153701Y321277D01*
X153651Y321281D01*
D02*
G37*
G36*
X154354Y317126D02*
X154243D01*
X154235D01*
X154216D01*
X154185D01*
X154143Y317123D01*
X154093D01*
X154035Y317119D01*
X153974Y317115D01*
X153905Y317107D01*
X153767Y317092D01*
X153632Y317065D01*
X153567Y317050D01*
X153509Y317030D01*
X153459Y317007D01*
X153417Y316981D01*
X153413D01*
X153409Y316973D01*
X153386Y316954D01*
X153352Y316923D01*
X153313Y316881D01*
X153275Y316827D01*
X153241Y316765D01*
X153217Y316696D01*
X153214Y316658D01*
X153210Y316619D01*
Y316600D01*
X153214Y316585D01*
X153217Y316547D01*
X153233Y316497D01*
X153256Y316443D01*
X153287Y316385D01*
X153333Y316328D01*
X153363Y316301D01*
X153394Y316278D01*
X153398D01*
X153406Y316270D01*
X153421Y316262D01*
X153440Y316255D01*
X153467Y316243D01*
X153498Y316228D01*
X153540Y316213D01*
X153586Y316201D01*
X153640Y316186D01*
X153701Y316170D01*
X153770Y316159D01*
X153851Y316143D01*
X153936Y316136D01*
X154028Y316128D01*
X154131Y316120D01*
X154243D01*
X154250D01*
X154270D01*
X154300D01*
X154343Y316124D01*
X154393D01*
X154450Y316128D01*
X154515Y316132D01*
X154581Y316140D01*
X154719Y316155D01*
X154857Y316182D01*
X154919Y316197D01*
X154976Y316216D01*
X155030Y316239D01*
X155072Y316262D01*
X155076D01*
X155080Y316270D01*
X155103Y316289D01*
X155137Y316320D01*
X155172Y316362D01*
X155210Y316416D01*
X155245Y316477D01*
X155268Y316547D01*
X155272Y316585D01*
X155276Y316623D01*
Y316642D01*
X155272Y316658D01*
X155264Y316696D01*
X155249Y316746D01*
X155226Y316804D01*
X155191Y316861D01*
X155168Y316892D01*
X155137Y316923D01*
X155107Y316954D01*
X155072Y316981D01*
X155068D01*
X155061Y316988D01*
X155049Y316996D01*
X155030Y317003D01*
X155007Y317015D01*
X154972Y317026D01*
X154934Y317038D01*
X154892Y317053D01*
X154838Y317069D01*
X154780Y317080D01*
X154711Y317092D01*
X154634Y317103D01*
X154550Y317115D01*
X154458Y317119D01*
X154354Y317126D01*
D02*
G37*
G36*
X154208Y313163D02*
X154204D01*
X154189D01*
X154170D01*
X154143D01*
X154108Y313160D01*
X154070Y313156D01*
X154028Y313152D01*
X153985Y313148D01*
X153886Y313133D01*
X153786Y313110D01*
X153690Y313075D01*
X153644Y313056D01*
X153601Y313033D01*
X153598D01*
X153594Y313025D01*
X153582Y313021D01*
X153567Y313010D01*
X153528Y312983D01*
X153486Y312945D01*
X153436Y312898D01*
X153390Y312845D01*
X153348Y312783D01*
X153313Y312718D01*
X153310Y312710D01*
X153306Y312691D01*
X153298Y312661D01*
X153287Y312614D01*
X153275Y312553D01*
X153267Y312480D01*
X153263Y312392D01*
X153260Y312288D01*
Y311762D01*
X155191D01*
Y312338D01*
X155187Y312380D01*
X155183Y312438D01*
X155180Y312499D01*
X155172Y312564D01*
X155160Y312626D01*
X155145Y312684D01*
X155141Y312691D01*
X155137Y312706D01*
X155126Y312733D01*
X155111Y312764D01*
X155091Y312803D01*
X155072Y312841D01*
X155045Y312876D01*
X155015Y312910D01*
X155011Y312914D01*
X154991Y312929D01*
X154965Y312952D01*
X154930Y312979D01*
X154884Y313006D01*
X154830Y313037D01*
X154765Y313068D01*
X154696Y313094D01*
X154692D01*
X154688Y313098D01*
X154677Y313102D01*
X154661Y313106D01*
X154642Y313110D01*
X154619Y313117D01*
X154561Y313129D01*
X154489Y313141D01*
X154404Y313152D01*
X154312Y313160D01*
X154208Y313163D01*
D02*
G37*
G36*
X136734Y271922D02*
X136727D01*
X136711D01*
X136684Y271918D01*
X136654Y271914D01*
X136615Y271903D01*
X136573Y271891D01*
X136531Y271872D01*
X136492Y271845D01*
X136488Y271841D01*
X136473Y271833D01*
X136458Y271814D01*
X136435Y271791D01*
X136408Y271764D01*
X136385Y271730D01*
X136362Y271691D01*
X136343Y271645D01*
X136339Y271638D01*
X136335Y271622D01*
X136327Y271592D01*
X136320Y271553D01*
X136312Y271499D01*
X136308Y271438D01*
X136300Y271361D01*
Y270697D01*
X137168D01*
Y271411D01*
X137164Y271488D01*
X137161Y271522D01*
X137157Y271549D01*
Y271553D01*
X137153Y271568D01*
X137149Y271592D01*
X137141Y271618D01*
X137122Y271680D01*
X137091Y271741D01*
X137088Y271745D01*
X137084Y271757D01*
X137072Y271768D01*
X137053Y271787D01*
X137034Y271810D01*
X137011Y271830D01*
X136980Y271853D01*
X136949Y271872D01*
X136945Y271876D01*
X136934Y271880D01*
X136915Y271887D01*
X136888Y271899D01*
X136857Y271906D01*
X136819Y271914D01*
X136780Y271918D01*
X136734Y271922D01*
D02*
G37*
G36*
X135628Y271814D02*
X135625D01*
X135605D01*
X135582Y271810D01*
X135552Y271807D01*
X135517Y271799D01*
X135482Y271787D01*
X135444Y271772D01*
X135406Y271753D01*
X135402Y271749D01*
X135390Y271741D01*
X135375Y271726D01*
X135352Y271707D01*
X135333Y271684D01*
X135310Y271653D01*
X135290Y271618D01*
X135275Y271580D01*
Y271576D01*
X135267Y271557D01*
X135264Y271530D01*
X135256Y271492D01*
X135248Y271438D01*
X135244Y271373D01*
X135237Y271292D01*
Y270697D01*
X136005D01*
Y271315D01*
X136001Y271361D01*
X135997Y271415D01*
X135993Y271469D01*
X135986Y271515D01*
X135978Y271557D01*
X135974Y271561D01*
X135970Y271576D01*
X135962Y271599D01*
X135947Y271630D01*
X135932Y271661D01*
X135909Y271691D01*
X135882Y271722D01*
X135851Y271749D01*
X135847Y271753D01*
X135836Y271761D01*
X135817Y271768D01*
X135790Y271784D01*
X135759Y271795D01*
X135721Y271803D01*
X135678Y271810D01*
X135628Y271814D01*
D02*
G37*
G36*
X136331Y267659D02*
X136220D01*
X136212D01*
X136193D01*
X136162D01*
X136120Y267655D01*
X136070D01*
X136012Y267652D01*
X135951Y267648D01*
X135882Y267640D01*
X135744Y267625D01*
X135609Y267598D01*
X135544Y267583D01*
X135486Y267563D01*
X135436Y267540D01*
X135394Y267513D01*
X135390D01*
X135386Y267506D01*
X135363Y267487D01*
X135329Y267456D01*
X135290Y267414D01*
X135252Y267360D01*
X135217Y267298D01*
X135194Y267229D01*
X135191Y267191D01*
X135187Y267153D01*
Y267133D01*
X135191Y267118D01*
X135194Y267080D01*
X135210Y267030D01*
X135233Y266976D01*
X135264Y266918D01*
X135310Y266861D01*
X135340Y266834D01*
X135371Y266811D01*
X135375D01*
X135383Y266803D01*
X135398Y266795D01*
X135417Y266788D01*
X135444Y266776D01*
X135475Y266761D01*
X135517Y266745D01*
X135563Y266734D01*
X135617Y266719D01*
X135678Y266703D01*
X135747Y266692D01*
X135828Y266676D01*
X135913Y266669D01*
X136005Y266661D01*
X136108Y266653D01*
X136220D01*
X136227D01*
X136247D01*
X136277D01*
X136320Y266657D01*
X136370D01*
X136427Y266661D01*
X136492Y266665D01*
X136558Y266672D01*
X136696Y266688D01*
X136834Y266715D01*
X136896Y266730D01*
X136953Y266749D01*
X137007Y266772D01*
X137049Y266795D01*
X137053D01*
X137057Y266803D01*
X137080Y266822D01*
X137114Y266853D01*
X137149Y266895D01*
X137187Y266949D01*
X137222Y267010D01*
X137245Y267080D01*
X137249Y267118D01*
X137253Y267156D01*
Y267176D01*
X137249Y267191D01*
X137241Y267229D01*
X137226Y267279D01*
X137203Y267337D01*
X137168Y267394D01*
X137145Y267425D01*
X137114Y267456D01*
X137084Y267487D01*
X137049Y267513D01*
X137045D01*
X137038Y267521D01*
X137026Y267529D01*
X137007Y267536D01*
X136984Y267548D01*
X136949Y267560D01*
X136911Y267571D01*
X136869Y267586D01*
X136815Y267602D01*
X136757Y267613D01*
X136688Y267625D01*
X136611Y267636D01*
X136527Y267648D01*
X136435Y267652D01*
X136331Y267659D01*
D02*
G37*
G36*
X240232Y288412D02*
X240121D01*
X240113D01*
X240094D01*
X240063D01*
X240021Y288408D01*
X239971D01*
X239913Y288405D01*
X239852Y288401D01*
X239783Y288393D01*
X239645Y288378D01*
X239510Y288351D01*
X239445Y288335D01*
X239387Y288316D01*
X239337Y288293D01*
X239295Y288266D01*
X239291D01*
X239287Y288259D01*
X239264Y288239D01*
X239230Y288209D01*
X239191Y288166D01*
X239153Y288113D01*
X239118Y288051D01*
X239095Y287982D01*
X239091Y287944D01*
X239088Y287905D01*
Y287886D01*
X239091Y287871D01*
X239095Y287832D01*
X239111Y287783D01*
X239134Y287729D01*
X239164Y287671D01*
X239211Y287614D01*
X239241Y287587D01*
X239272Y287564D01*
X239276D01*
X239283Y287556D01*
X239299Y287548D01*
X239318Y287541D01*
X239345Y287529D01*
X239376Y287514D01*
X239418Y287498D01*
X239464Y287487D01*
X239518Y287471D01*
X239579Y287456D01*
X239648Y287444D01*
X239729Y287429D01*
X239813Y287421D01*
X239906Y287414D01*
X240009Y287406D01*
X240121D01*
X240128D01*
X240147D01*
X240178D01*
X240220Y287410D01*
X240270D01*
X240328Y287414D01*
X240393Y287418D01*
X240458Y287425D01*
X240597Y287441D01*
X240735Y287468D01*
X240796Y287483D01*
X240854Y287502D01*
X240908Y287525D01*
X240950Y287548D01*
X240954D01*
X240958Y287556D01*
X240981Y287575D01*
X241015Y287606D01*
X241050Y287648D01*
X241088Y287702D01*
X241123Y287763D01*
X241146Y287832D01*
X241150Y287871D01*
X241154Y287909D01*
Y287928D01*
X241150Y287944D01*
X241142Y287982D01*
X241127Y288032D01*
X241104Y288090D01*
X241069Y288147D01*
X241046Y288178D01*
X241015Y288209D01*
X240985Y288239D01*
X240950Y288266D01*
X240946D01*
X240938Y288274D01*
X240927Y288282D01*
X240908Y288289D01*
X240885Y288301D01*
X240850Y288312D01*
X240812Y288324D01*
X240770Y288339D01*
X240716Y288355D01*
X240658Y288366D01*
X240589Y288378D01*
X240512Y288389D01*
X240428Y288401D01*
X240336Y288405D01*
X240232Y288412D01*
D02*
G37*
G36*
Y286454D02*
X240121D01*
X240113D01*
X240094D01*
X240063D01*
X240021Y286450D01*
X239971D01*
X239913Y286446D01*
X239852Y286442D01*
X239783Y286435D01*
X239645Y286419D01*
X239510Y286392D01*
X239445Y286377D01*
X239387Y286358D01*
X239337Y286335D01*
X239295Y286308D01*
X239291D01*
X239287Y286300D01*
X239264Y286281D01*
X239230Y286250D01*
X239191Y286208D01*
X239153Y286154D01*
X239118Y286093D01*
X239095Y286024D01*
X239091Y285985D01*
X239088Y285947D01*
Y285928D01*
X239091Y285912D01*
X239095Y285874D01*
X239111Y285824D01*
X239134Y285770D01*
X239164Y285713D01*
X239211Y285655D01*
X239241Y285628D01*
X239272Y285605D01*
X239276D01*
X239283Y285597D01*
X239299Y285590D01*
X239318Y285582D01*
X239345Y285571D01*
X239376Y285555D01*
X239418Y285540D01*
X239464Y285528D01*
X239518Y285513D01*
X239579Y285498D01*
X239648Y285486D01*
X239729Y285471D01*
X239813Y285463D01*
X239906Y285455D01*
X240009Y285448D01*
X240121D01*
X240128D01*
X240147D01*
X240178D01*
X240220Y285452D01*
X240270D01*
X240328Y285455D01*
X240393Y285459D01*
X240458Y285467D01*
X240597Y285482D01*
X240735Y285509D01*
X240796Y285525D01*
X240854Y285544D01*
X240908Y285567D01*
X240950Y285590D01*
X240954D01*
X240958Y285597D01*
X240981Y285617D01*
X241015Y285647D01*
X241050Y285690D01*
X241088Y285743D01*
X241123Y285805D01*
X241146Y285874D01*
X241150Y285912D01*
X241154Y285951D01*
Y285970D01*
X241150Y285985D01*
X241142Y286024D01*
X241127Y286074D01*
X241104Y286131D01*
X241069Y286189D01*
X241046Y286220D01*
X241015Y286250D01*
X240985Y286281D01*
X240950Y286308D01*
X240946D01*
X240938Y286316D01*
X240927Y286323D01*
X240908Y286331D01*
X240885Y286343D01*
X240850Y286354D01*
X240812Y286366D01*
X240770Y286381D01*
X240716Y286396D01*
X240658Y286408D01*
X240589Y286419D01*
X240512Y286431D01*
X240428Y286442D01*
X240336Y286446D01*
X240232Y286454D01*
D02*
G37*
G36*
X363309Y287268D02*
X362518D01*
Y286139D01*
X363309Y287268D01*
D02*
G37*
G36*
X365590Y287860D02*
X365014D01*
X364971Y287856D01*
X364914Y287852D01*
X364852Y287848D01*
X364787Y287840D01*
X364726Y287829D01*
X364668Y287813D01*
X364660Y287810D01*
X364645Y287806D01*
X364618Y287794D01*
X364587Y287779D01*
X364549Y287760D01*
X364511Y287741D01*
X364476Y287714D01*
X364441Y287683D01*
X364438Y287679D01*
X364422Y287660D01*
X364399Y287633D01*
X364372Y287598D01*
X364346Y287552D01*
X364315Y287499D01*
X364284Y287433D01*
X364257Y287364D01*
Y287360D01*
X364253Y287357D01*
X364249Y287345D01*
X364246Y287330D01*
X364242Y287311D01*
X364234Y287287D01*
X364223Y287230D01*
X364211Y287157D01*
X364200Y287072D01*
X364192Y286980D01*
X364188Y286877D01*
Y286873D01*
Y286857D01*
Y286838D01*
Y286811D01*
X364192Y286777D01*
X364196Y286738D01*
X364200Y286696D01*
X364203Y286654D01*
X364219Y286554D01*
X364242Y286454D01*
X364276Y286358D01*
X364296Y286312D01*
X364319Y286270D01*
Y286266D01*
X364326Y286262D01*
X364330Y286251D01*
X364342Y286235D01*
X364369Y286197D01*
X364407Y286155D01*
X364453Y286105D01*
X364507Y286059D01*
X364568Y286016D01*
X364633Y285982D01*
X364641Y285978D01*
X364660Y285974D01*
X364691Y285966D01*
X364737Y285955D01*
X364799Y285943D01*
X364872Y285936D01*
X364960Y285932D01*
X365064Y285928D01*
X365590D01*
Y287860D01*
D02*
G37*
G36*
X360728Y287944D02*
X360709D01*
X360694Y287940D01*
X360655Y287933D01*
X360605Y287917D01*
X360548Y287894D01*
X360490Y287860D01*
X360459Y287837D01*
X360429Y287806D01*
X360398Y287775D01*
X360371Y287741D01*
Y287737D01*
X360363Y287729D01*
X360356Y287718D01*
X360348Y287698D01*
X360337Y287675D01*
X360325Y287641D01*
X360314Y287602D01*
X360298Y287560D01*
X360283Y287506D01*
X360271Y287449D01*
X360260Y287380D01*
X360248Y287303D01*
X360237Y287218D01*
X360233Y287126D01*
X360225Y287022D01*
Y286911D01*
Y286903D01*
Y286884D01*
Y286854D01*
X360229Y286811D01*
Y286761D01*
X360233Y286704D01*
X360237Y286642D01*
X360244Y286573D01*
X360260Y286435D01*
X360287Y286301D01*
X360302Y286235D01*
X360321Y286178D01*
X360344Y286128D01*
X360371Y286086D01*
Y286082D01*
X360379Y286078D01*
X360398Y286055D01*
X360429Y286020D01*
X360471Y285982D01*
X360525Y285943D01*
X360586Y285909D01*
X360655Y285886D01*
X360694Y285882D01*
X360732Y285878D01*
X360751D01*
X360767Y285882D01*
X360805Y285886D01*
X360855Y285901D01*
X360909Y285924D01*
X360966Y285955D01*
X361024Y286001D01*
X361051Y286032D01*
X361074Y286063D01*
Y286066D01*
X361082Y286074D01*
X361089Y286089D01*
X361097Y286109D01*
X361108Y286135D01*
X361124Y286166D01*
X361139Y286208D01*
X361151Y286255D01*
X361166Y286308D01*
X361181Y286370D01*
X361193Y286439D01*
X361208Y286519D01*
X361216Y286604D01*
X361224Y286696D01*
X361231Y286800D01*
Y286911D01*
Y286919D01*
Y286938D01*
Y286969D01*
X361227Y287011D01*
Y287061D01*
X361224Y287119D01*
X361220Y287184D01*
X361212Y287249D01*
X361197Y287387D01*
X361170Y287526D01*
X361155Y287587D01*
X361135Y287645D01*
X361112Y287698D01*
X361089Y287741D01*
Y287744D01*
X361082Y287748D01*
X361062Y287771D01*
X361032Y287806D01*
X360989Y287840D01*
X360936Y287879D01*
X360874Y287913D01*
X360805Y287936D01*
X360767Y287940D01*
X360728Y287944D01*
D02*
G37*
%LPD*%
D14*
X259680Y92963D02*
Y157530D01*
Y92963D02*
X309813D01*
Y157530D01*
X259680D02*
X309813D01*
X436326Y270536D02*
X456429D01*
Y255182D02*
Y270536D01*
X436326Y255182D02*
X456429D01*
X436326D02*
Y270536D01*
X620648Y81456D02*
X633050D01*
Y98433D01*
X620648D02*
X633050D01*
X620648Y81456D02*
Y98433D01*
X516690Y231951D02*
X532045D01*
Y250047D01*
X516690D02*
X532045D01*
X516690Y231951D02*
Y250047D01*
X131287Y376153D02*
X143688D01*
Y393130D01*
X131287D02*
X143688D01*
X131287Y376153D02*
Y393130D01*
X147092Y425056D02*
X162446D01*
Y443152D01*
X147092D02*
X162446D01*
X147092Y425056D02*
Y443152D01*
X131301Y130571D02*
X143703D01*
Y147548D01*
X131301D02*
X143703D01*
X131301Y130571D02*
Y147548D01*
X147107Y179475D02*
X162461D01*
Y197571D01*
X147107D02*
X162461D01*
X147107Y179475D02*
Y197571D01*
X147111Y302380D02*
X162465D01*
Y320476D01*
X147111D02*
X162465D01*
X147111Y302380D02*
Y320476D01*
X131305Y253476D02*
X143707D01*
Y270453D01*
X131305D02*
X143707D01*
X131305Y253476D02*
Y270453D01*
X234714Y272746D02*
Y288772D01*
X248100D01*
Y272746D02*
Y288772D01*
X234714Y272746D02*
X248100D01*
X374972Y279779D02*
Y295133D01*
X356876D02*
X374972D01*
X356876Y279779D02*
Y295133D01*
Y279779D02*
X374972D01*
M02*
