G04*
G04 #@! TF.GenerationSoftware,Altium Limited,Altium Designer,22.2.1 (43)*
G04*
G04 Layer_Color=8388736*
%FSLAX25Y25*%
%MOIN*%
G70*
G04*
G04 #@! TF.SameCoordinates,A442F040-2D2B-445B-BC8B-0DACE6EA8BBB*
G04*
G04*
G04 #@! TF.FilePolarity,Positive*
G04*
G01*
G75*
%ADD10C,0.00600*%
%ADD14C,0.00787*%
%ADD78C,0.00197*%
%ADD79C,0.00217*%
%ADD80C,0.00394*%
G36*
X115179Y448507D02*
X117718D01*
Y424500D01*
X115179D01*
Y423900D01*
X106762D01*
Y424500D01*
X104222D01*
Y448507D01*
X106762D01*
Y449108D01*
X115179D01*
Y448507D01*
D02*
G37*
G36*
X88279Y415013D02*
X44779D01*
Y435513D01*
X88279D01*
Y415013D01*
D02*
G37*
G36*
X649415Y422319D02*
X651954D01*
Y398311D01*
X649415D01*
Y397711D01*
X640997D01*
Y398311D01*
X638458D01*
Y422319D01*
X640997D01*
Y422919D01*
X649415D01*
Y422319D01*
D02*
G37*
G36*
X57039Y412304D02*
X62789D01*
Y393204D01*
X57039D01*
Y391954D01*
X39339D01*
Y393204D01*
X33589D01*
Y412304D01*
X39339D01*
Y413554D01*
X57039D01*
Y412304D01*
D02*
G37*
G36*
X684807Y375994D02*
X664307D01*
Y419494D01*
X684807D01*
Y375994D01*
D02*
G37*
G36*
X631379Y387574D02*
X637129D01*
Y368474D01*
X631379D01*
Y367224D01*
X613679D01*
Y368474D01*
X607929D01*
Y387574D01*
X613679D01*
Y388824D01*
X631379D01*
Y387574D01*
D02*
G37*
G36*
X531509Y335407D02*
X225109D01*
Y419707D01*
X531509D01*
Y335407D01*
D02*
G37*
G36*
X88566Y305922D02*
X45066D01*
Y326422D01*
X88566D01*
Y305922D01*
D02*
G37*
G36*
X649441Y327385D02*
X651981D01*
Y303377D01*
X649441D01*
Y302777D01*
X641024D01*
Y303377D01*
X638485D01*
Y327385D01*
X641024D01*
Y327985D01*
X649441D01*
Y327385D01*
D02*
G37*
G36*
X115198Y325831D02*
X117737D01*
Y301823D01*
X115198D01*
Y301223D01*
X106780D01*
Y301823D01*
X104241D01*
Y325831D01*
X106780D01*
Y326431D01*
X115198D01*
Y325831D01*
D02*
G37*
G36*
X465398Y298512D02*
X468598D01*
Y293512D01*
X465398D01*
Y291662D01*
X452798D01*
Y293512D01*
X449598D01*
Y298512D01*
X452798D01*
Y300362D01*
X465398D01*
Y298512D01*
D02*
G37*
G36*
X684834Y281059D02*
X664334D01*
Y324559D01*
X684834D01*
Y281059D01*
D02*
G37*
G36*
X443338Y292547D02*
X443938D01*
Y279547D01*
X443338D01*
Y274347D01*
X418738D01*
Y279547D01*
X418138D01*
Y292547D01*
X418738D01*
Y297747D01*
X443338D01*
Y292547D01*
D02*
G37*
G36*
X631406Y292639D02*
X637156D01*
Y273539D01*
X631406D01*
Y272289D01*
X613706D01*
Y273539D01*
X607956D01*
Y292639D01*
X613706D01*
Y293889D01*
X631406D01*
Y292639D01*
D02*
G37*
G36*
X57057Y289628D02*
X62807D01*
Y270528D01*
X57057D01*
Y269278D01*
X39357D01*
Y270528D01*
X33607D01*
Y289628D01*
X39357D01*
Y290878D01*
X57057D01*
Y289628D01*
D02*
G37*
G36*
X320123Y275215D02*
X321736D01*
Y261015D01*
X320123D01*
Y255765D01*
X309149D01*
Y261015D01*
X307536D01*
Y275215D01*
X309149D01*
Y280465D01*
X320123D01*
Y275215D01*
D02*
G37*
G36*
X649363Y232612D02*
X651902D01*
Y208604D01*
X649363D01*
Y208004D01*
X640946D01*
Y208604D01*
X638406D01*
Y232612D01*
X640946D01*
Y233212D01*
X649363D01*
Y232612D01*
D02*
G37*
G36*
X684755Y186286D02*
X664255D01*
Y229786D01*
X684755D01*
Y186286D01*
D02*
G37*
G36*
X88563Y183017D02*
X45063D01*
Y203517D01*
X88563D01*
Y183017D01*
D02*
G37*
G36*
X115194Y202926D02*
X117733D01*
Y178918D01*
X115194D01*
Y178318D01*
X106776D01*
Y178918D01*
X104237D01*
Y202926D01*
X106776D01*
Y203526D01*
X115194D01*
Y202926D01*
D02*
G37*
G36*
X631327Y197867D02*
X637077D01*
Y178767D01*
X631327D01*
Y177517D01*
X613627D01*
Y178767D01*
X607877D01*
Y197867D01*
X613627D01*
Y199117D01*
X631327D01*
Y197867D01*
D02*
G37*
G36*
X57053Y166722D02*
X62803D01*
Y147622D01*
X57053D01*
Y146372D01*
X39353D01*
Y147622D01*
X33603D01*
Y166722D01*
X39353D01*
Y167972D01*
X57053D01*
Y166722D01*
D02*
G37*
G36*
X581835Y115156D02*
X538335D01*
Y135656D01*
X581835D01*
Y115156D01*
D02*
G37*
G36*
X606450Y138373D02*
X608989D01*
Y114365D01*
X606450D01*
Y113766D01*
X598033D01*
Y114365D01*
X595493D01*
Y138373D01*
X598033D01*
Y138973D01*
X606450D01*
Y138373D01*
D02*
G37*
G36*
X552320Y94119D02*
X558070D01*
Y75019D01*
X552320D01*
Y73769D01*
X534620D01*
Y75019D01*
X528870D01*
Y94119D01*
X534620D01*
Y95369D01*
X552320D01*
Y94119D01*
D02*
G37*
D10*
X44779Y415013D02*
X88279D01*
X44779D02*
Y435513D01*
X88279D01*
Y415013D02*
Y435513D01*
X640946Y233212D02*
X649363D01*
Y232612D02*
Y233212D01*
Y208004D02*
Y208604D01*
X640946Y208004D02*
X649363D01*
X640946D02*
Y208604D01*
Y232612D02*
Y233212D01*
X638406Y232612D02*
X640946D01*
X649363D02*
X651902D01*
Y208604D02*
Y232612D01*
X649363Y208604D02*
X651902D01*
X638406D02*
X640946D01*
X638406D02*
Y232612D01*
X607877Y178767D02*
Y197867D01*
X613627D01*
Y199117D01*
X631327D01*
Y197867D02*
Y199117D01*
Y197867D02*
X637077D01*
Y178767D02*
Y197867D01*
X631327Y178767D02*
X637077D01*
X631327Y177517D02*
Y178767D01*
X613627Y177517D02*
X631327D01*
X613627D02*
Y178767D01*
X607877D02*
X613627D01*
X664255Y186286D02*
X684755D01*
Y229786D01*
X664255D02*
X684755D01*
X664255Y186286D02*
Y229786D01*
X641024Y327985D02*
X649441D01*
Y327385D02*
Y327985D01*
Y302777D02*
Y303377D01*
X641024Y302777D02*
X649441D01*
X641024D02*
Y303377D01*
Y327385D02*
Y327985D01*
X638485Y327385D02*
X641024D01*
X649441D02*
X651981D01*
Y303377D02*
Y327385D01*
X649441Y303377D02*
X651981D01*
X638485D02*
X641024D01*
X638485D02*
Y327385D01*
X607956Y273539D02*
Y292639D01*
X613706D01*
Y293889D01*
X631406D01*
Y292639D02*
Y293889D01*
Y292639D02*
X637156D01*
Y273539D02*
Y292639D01*
X631406Y273539D02*
X637156D01*
X631406Y272289D02*
Y273539D01*
X613706Y272289D02*
X631406D01*
X613706D02*
Y273539D01*
X607956D02*
X613706D01*
X664334Y281059D02*
X684834D01*
Y324559D01*
X664334D02*
X684834D01*
X664334Y281059D02*
Y324559D01*
X468598Y293512D02*
Y298512D01*
X465398Y293512D02*
X468598D01*
X449598D02*
X452798D01*
X449598D02*
Y298512D01*
X452798D01*
X465398D02*
X468598D01*
X465398D02*
Y300362D01*
Y291662D02*
Y293512D01*
X452798Y291662D02*
X465398D01*
X452798D02*
Y293512D01*
Y298512D02*
Y300362D01*
X465398D01*
X595493Y114365D02*
Y138373D01*
Y114365D02*
X598033D01*
X606450D02*
X608989D01*
Y138373D01*
X606450D02*
X608989D01*
X595493D02*
X598033D01*
Y138973D01*
Y113766D02*
Y114365D01*
Y113766D02*
X606450D01*
Y114365D01*
Y138373D02*
Y138973D01*
X598033D02*
X606450D01*
X418738Y297747D02*
X443338D01*
X418738Y292547D02*
Y297747D01*
Y274347D02*
Y279547D01*
Y274347D02*
X443338D01*
Y279547D01*
Y292547D02*
Y297747D01*
Y292547D02*
X443938D01*
X418138D02*
X418738D01*
X418138Y279547D02*
Y292547D01*
Y279547D02*
X418738D01*
X443338D02*
X443938D01*
Y292547D01*
X538336Y115156D02*
X581836D01*
X538336D02*
Y135656D01*
X581836D01*
Y115156D02*
Y135656D01*
X528870Y75019D02*
X534620D01*
Y73769D02*
Y75019D01*
Y73769D02*
X552320D01*
Y75019D01*
X558070D01*
Y94119D01*
X552320D02*
X558070D01*
X552320D02*
Y95369D01*
X534620D02*
X552320D01*
X534620Y94119D02*
Y95369D01*
X528870Y94119D02*
X534620D01*
X528870Y75019D02*
Y94119D01*
X33604Y147622D02*
X39353D01*
Y146372D02*
Y147622D01*
Y146372D02*
X57054D01*
Y147622D01*
X62804D01*
Y166722D01*
X57054D02*
X62804D01*
X57054D02*
Y167972D01*
X39353D02*
X57054D01*
X39353Y166722D02*
Y167972D01*
X33604Y166722D02*
X39353D01*
X33604Y147622D02*
Y166722D01*
X104222Y424500D02*
Y448507D01*
Y424500D02*
X106762D01*
X115179D02*
X117718D01*
Y448507D01*
X115179D02*
X117718D01*
X104222D02*
X106762D01*
Y449108D01*
Y423900D02*
Y424500D01*
Y423900D02*
X115179D01*
Y424500D01*
Y448507D02*
Y449108D01*
X106762D02*
X115179D01*
X33588Y393204D02*
X39338D01*
Y391954D02*
Y393204D01*
Y391954D02*
X57038D01*
Y393204D01*
X62788D01*
Y412304D01*
X57038D02*
X62788D01*
X57038D02*
Y413554D01*
X39338D02*
X57038D01*
X39338Y412304D02*
Y413554D01*
X33588Y412304D02*
X39338D01*
X33588Y393204D02*
Y412304D01*
X45063Y183017D02*
X88563D01*
X45063D02*
Y203517D01*
X88563D01*
Y183017D02*
Y203517D01*
X104237Y178918D02*
Y202926D01*
Y178918D02*
X106776D01*
X115194D02*
X117733D01*
Y202926D01*
X115194D02*
X117733D01*
X104237D02*
X106776D01*
Y203526D01*
Y178318D02*
Y178918D01*
Y178318D02*
X115194D01*
Y178918D01*
Y202926D02*
Y203526D01*
X106776D02*
X115194D01*
X104241Y301823D02*
Y325831D01*
Y301823D02*
X106780D01*
X115198D02*
X117737D01*
Y325831D01*
X115198D02*
X117737D01*
X104241D02*
X106780D01*
Y326431D01*
Y301223D02*
Y301823D01*
Y301223D02*
X115198D01*
Y301823D01*
Y325831D02*
Y326431D01*
X106780D02*
X115198D01*
X45066Y305922D02*
X88566D01*
X45066D02*
Y326422D01*
X88566D01*
Y305922D02*
Y326422D01*
X33607Y270528D02*
X39357D01*
Y269278D02*
Y270528D01*
Y269278D02*
X57057D01*
Y270528D01*
X62807D01*
Y289628D01*
X57057D02*
X62807D01*
X57057D02*
Y290878D01*
X39357D02*
X57057D01*
X39357Y289628D02*
Y290878D01*
X33607Y289628D02*
X39357D01*
X33607Y270528D02*
Y289628D01*
X638458Y398311D02*
Y422319D01*
Y398311D02*
X640998D01*
X649415D02*
X651954D01*
Y422319D01*
X649415D02*
X651954D01*
X638458D02*
X640998D01*
Y422919D01*
Y397711D02*
Y398311D01*
Y397711D02*
X649415D01*
Y398311D01*
Y422319D02*
Y422919D01*
X640998D02*
X649415D01*
X607929Y368474D02*
X613679D01*
Y367224D02*
Y368474D01*
Y367224D02*
X631379D01*
Y368474D01*
X637129D01*
Y387574D01*
X631379D02*
X637129D01*
X631379D02*
Y388824D01*
X613679D02*
X631379D01*
X613679Y387574D02*
Y388824D01*
X607929Y387574D02*
X613679D01*
X607929Y368474D02*
Y387574D01*
X664307Y375994D02*
Y419494D01*
X684807D01*
Y375994D02*
Y419494D01*
X664307Y375994D02*
X684807D01*
X225109Y335407D02*
Y419707D01*
Y335407D02*
X531509D01*
Y419707D01*
X225109D02*
X531509D01*
X309149Y255765D02*
X320123D01*
X309149D02*
Y261015D01*
X307536D02*
X309149D01*
X307536D02*
Y275215D01*
X309149D01*
Y280465D01*
X320123D01*
Y275215D02*
Y280465D01*
Y275215D02*
X321736D01*
Y261015D02*
Y275215D01*
X320123Y261015D02*
X321736D01*
X320123Y255765D02*
Y261015D01*
D14*
X259680Y92963D02*
Y157530D01*
Y92963D02*
X309813D01*
Y157530D01*
X259680D02*
X309813D01*
X436326Y270536D02*
X456429D01*
Y255182D02*
Y270536D01*
X436326Y255182D02*
X456429D01*
X436326D02*
Y270536D01*
X620648Y81456D02*
X633050D01*
Y98433D01*
X620648D02*
X633050D01*
X620648Y81456D02*
Y98433D01*
X516690Y231951D02*
X532045D01*
Y250047D01*
X516690D02*
X532045D01*
X516690Y231951D02*
Y250047D01*
X131287Y376153D02*
X143688D01*
Y393130D01*
X131287D02*
X143688D01*
X131287Y376153D02*
Y393130D01*
X147092Y425056D02*
X162446D01*
Y443152D01*
X147092D02*
X162446D01*
X147092Y425056D02*
Y443152D01*
X131301Y130571D02*
X143703D01*
Y147548D01*
X131301D02*
X143703D01*
X131301Y130571D02*
Y147548D01*
X147107Y179475D02*
X162461D01*
Y197571D01*
X147107D02*
X162461D01*
X147107Y179475D02*
Y197571D01*
X147111Y302380D02*
X162465D01*
Y320476D01*
X147111D02*
X162465D01*
X147111Y302380D02*
Y320476D01*
X131305Y253476D02*
X143707D01*
Y270453D01*
X131305D02*
X143707D01*
X131305Y253476D02*
Y270453D01*
X234714Y272746D02*
Y288772D01*
X248100D01*
Y272746D02*
Y288772D01*
X234714Y272746D02*
X248100D01*
X374972Y279779D02*
Y295133D01*
X356876D02*
X374972D01*
X356876Y279779D02*
Y295133D01*
Y279779D02*
X374972D01*
D78*
X646765Y76370D02*
X674127D01*
X646765Y120071D02*
X674127D01*
Y76370D02*
Y120071D01*
X154512Y122380D02*
X181874D01*
X154512Y166081D02*
X181874D01*
Y122380D02*
Y166081D01*
X154497Y367962D02*
X181859D01*
X154497Y411662D02*
X181859D01*
Y367962D02*
Y411662D01*
X154516Y245285D02*
X181878D01*
X154516Y288986D02*
X181878D01*
Y245285D02*
Y288986D01*
D79*
X646765Y76370D02*
Y119873D01*
X154512Y122380D02*
Y165884D01*
X154497Y367962D02*
Y411466D01*
X154516Y245285D02*
Y288789D01*
D80*
X660445Y96251D02*
Y100189D01*
X658477Y98220D02*
X662414D01*
X168193Y142262D02*
Y146199D01*
X166225Y144230D02*
X170161D01*
X168178Y387843D02*
Y391780D01*
X166210Y389812D02*
X170147D01*
X168197Y265167D02*
Y269104D01*
X166228Y267136D02*
X170165D01*
M02*
