M48
;Layer_Color=9474304
;FILE_FORMAT=2:5
INCH,LZ
;TYPE=PLATED
T1F00S00C0.02800
T2F00S00C0.03000
T3F00S00C0.03150
T4F00S00C0.03600
T5F00S00C0.03800
T6F00S00C0.04331
T7F00S00C0.04700
T8F00S00C0.06200
T9F00S00C0.12500
;TYPE=NON_PLATED
T10F00S00C0.09100
T11F00S00C0.10400
T12F00S00C0.15000
%
T01
X0587925Y0055685
X054985Y0177444
X06795Y0144446
X0282241Y012937
X028Y0063046
X0205065Y0133127
X0196Y0158246
X01907Y0162446
X0089741Y0120099
X00671Y0062346
X0070284Y0248242
X0090334Y0243
X01309Y0219251
X017Y0191546
X0132595Y0296989
X012025Y02973
X0195932Y0313389
X0222346Y0212127
X02307Y0212346
X026224Y0199546
X03409Y0212646
X0357789Y0261259
X0303793Y0279456
X0402056Y0230646
X0397076Y0218846
X04011Y0202246
X0486734Y0248984
X05892Y0262546
X0602Y0245546
X0571299Y028631
X0570586Y0191512
X0550161Y0189307
X0592359Y0358505
X0573206Y0380411
X0091124Y03659
X00419Y0367946
T02
X0524376Y0279833
Y0289675
T03
X0242798Y0246291
X0250672
X0248891Y0301352
X0241018
T04
X0682137Y0083864
Y0093707
Y0101581
Y0111424
T05
X0014967Y0075444
X0028001Y0197949
X0026161Y032055
X0216351Y0233769
X0299969Y0232445
X0543354Y0241621
X0025243Y0437067
T06
X0399717Y0075097
Y0085097
Y0095097
Y0105097
Y0115097
Y0125097
Y0135097
Y0145097
Y0155097
Y0165097
Y0175097
X0479666Y0175097
Y0165097
Y0155097
Y0145097
Y0135097
Y0125097
Y0115097
Y0105097
Y0095097
Y0085097
Y0075097
Y0065097
Y0055097
Y0045097
Y0035097
X0336176Y0074766
Y0084766
Y0094766
Y0104766
Y0114766
Y0124766
Y0134766
Y0144766
Y0154766
Y0164766
Y0174766
X0235385
Y0164766
Y0154766
Y0144766
Y0134766
Y0124766
Y0114766
Y0104766
Y0094766
Y0084766
Y0074766
X0018892Y0127309
Y0137309
Y0147309
Y0157309
Y0167309
X0019752Y0253663
Y0263663
Y0273663
Y0283663
Y0293663
X0235385Y0184766
X0336176
X0399717Y0185097
X0479666Y0185097
X0018657Y0376225
Y0386225
Y0396225
Y0406225
Y0416225
T07
X0550085Y0128184
X0560085
X0570085
X0076813Y0196045
X0066813
X0056813
X0056817Y031895
X0066817
X0076816
X0674584Y0312809
Y0302809
Y0292809
X0674505Y0218037
Y0208036
Y0198037
X0674557Y0387744
Y0397744
Y0407744
X0076529Y0428041
X0066529
X0056529
T08
X0520559Y0378058
X0236059
T09
X065Y00475
X005
X065Y0460013
X005
T10
X0692806Y0071778
Y012351
T11
X0520559Y0347058
T12
X0487559Y0409058
X0270059Y0347058
M30
