G04*
G04 #@! TF.GenerationSoftware,Altium Limited,Altium Designer,22.2.1 (43)*
G04*
G04 Layer_Physical_Order=2*
G04 Layer_Color=16711680*
%FSLAX25Y25*%
%MOIN*%
G70*
G04*
G04 #@! TF.SameCoordinates,A442F040-2D2B-445B-BC8B-0DACE6EA8BBB*
G04*
G04*
G04 #@! TF.FilePolarity,Positive*
G04*
G01*
G75*
%ADD12C,0.01000*%
%ADD15C,0.02000*%
%ADD56C,0.06700*%
%ADD60C,0.05000*%
%ADD63C,0.08200*%
%ADD68C,0.14500*%
%ADD69C,0.06299*%
%ADD70R,0.06299X0.06299*%
%ADD71C,0.05600*%
%ADD72C,0.09100*%
%ADD73C,0.08000*%
%ADD74R,0.05118X0.05118*%
%ADD75C,0.05118*%
%ADD76C,0.15000*%
%ADD77C,0.10400*%
G36*
X696480Y495915D02*
Y128364D01*
X695979Y128086D01*
X694948Y128682D01*
X693537Y129060D01*
X692075D01*
X690664Y128682D01*
X689398Y127951D01*
X688365Y126918D01*
X687634Y125652D01*
X687256Y124241D01*
Y122779D01*
X687634Y121368D01*
X688365Y120102D01*
X689398Y119069D01*
X690664Y118338D01*
X692075Y117960D01*
X693537D01*
X694948Y118338D01*
X695979Y118933D01*
X696480Y118656D01*
Y76631D01*
X695979Y76354D01*
X694948Y76949D01*
X693537Y77328D01*
X692075D01*
X690664Y76949D01*
X689398Y76219D01*
X688365Y75185D01*
X687634Y73920D01*
X687256Y72508D01*
Y71047D01*
X687634Y69635D01*
X688365Y68370D01*
X689398Y67336D01*
X690664Y66606D01*
X692075Y66228D01*
X693537D01*
X694948Y66606D01*
X695979Y67201D01*
X696480Y66924D01*
Y3959D01*
X4021D01*
Y495788D01*
X4374Y496142D01*
X696480Y495915D01*
D02*
G37*
%LPC*%
G36*
X650813Y468263D02*
X649188D01*
X647594Y467946D01*
X646092Y467325D01*
X644741Y466422D01*
X643592Y465273D01*
X642689Y463921D01*
X642067Y462420D01*
X641750Y460826D01*
Y459201D01*
X642067Y457607D01*
X642689Y456106D01*
X643592Y454754D01*
X644741Y453605D01*
X646092Y452702D01*
X647594Y452080D01*
X649188Y451763D01*
X650813D01*
X652407Y452080D01*
X653908Y452702D01*
X655259Y453605D01*
X656408Y454754D01*
X657311Y456106D01*
X657933Y457607D01*
X658250Y459201D01*
Y460826D01*
X657933Y462420D01*
X657311Y463921D01*
X656408Y465273D01*
X655259Y466422D01*
X653908Y467325D01*
X652407Y467946D01*
X650813Y468263D01*
D02*
G37*
G36*
X50813D02*
X49187D01*
X47594Y467946D01*
X46092Y467325D01*
X44741Y466422D01*
X43592Y465273D01*
X42689Y463921D01*
X42067Y462420D01*
X41750Y460826D01*
Y459201D01*
X42067Y457607D01*
X42689Y456106D01*
X43592Y454754D01*
X44741Y453605D01*
X46092Y452702D01*
X47594Y452080D01*
X49187Y451763D01*
X50813D01*
X52407Y452080D01*
X53908Y452702D01*
X55259Y453605D01*
X56408Y454754D01*
X57311Y456106D01*
X57933Y457607D01*
X58250Y459201D01*
Y460826D01*
X57933Y462420D01*
X57311Y463921D01*
X56408Y465273D01*
X55259Y466422D01*
X53908Y467325D01*
X52407Y467946D01*
X50813Y468263D01*
D02*
G37*
G36*
X25901Y442067D02*
X24585D01*
X23313Y441726D01*
X22173Y441068D01*
X21242Y440137D01*
X20584Y438997D01*
X20243Y437725D01*
Y436408D01*
X20584Y435137D01*
X21242Y433997D01*
X22173Y433066D01*
X23313Y432407D01*
X24585Y432067D01*
X25901D01*
X27173Y432407D01*
X28313Y433066D01*
X29244Y433997D01*
X29902Y435137D01*
X30243Y436408D01*
Y437725D01*
X29902Y438997D01*
X29244Y440137D01*
X28313Y441068D01*
X27173Y441726D01*
X25901Y442067D01*
D02*
G37*
G36*
X77102Y432391D02*
X75956D01*
X74850Y432095D01*
X73858Y431522D01*
X73048Y430712D01*
X72475Y429720D01*
X72179Y428614D01*
Y427468D01*
X72475Y426362D01*
X73048Y425370D01*
X73858Y424560D01*
X74850Y423987D01*
X75956Y423691D01*
X77102D01*
X78208Y423987D01*
X79200Y424560D01*
X80010Y425370D01*
X80582Y426362D01*
X80879Y427468D01*
Y428614D01*
X80582Y429720D01*
X80010Y430712D01*
X79200Y431522D01*
X78208Y432095D01*
X77102Y432391D01*
D02*
G37*
G36*
X67102D02*
X65956D01*
X64850Y432095D01*
X63858Y431522D01*
X63048Y430712D01*
X62475Y429720D01*
X62179Y428614D01*
Y427468D01*
X62475Y426362D01*
X63048Y425370D01*
X63858Y424560D01*
X64850Y423987D01*
X65956Y423691D01*
X67102D01*
X68208Y423987D01*
X69200Y424560D01*
X70010Y425370D01*
X70582Y426362D01*
X70879Y427468D01*
Y428614D01*
X70582Y429720D01*
X70010Y430712D01*
X69200Y431522D01*
X68208Y432095D01*
X67102Y432391D01*
D02*
G37*
G36*
X57102D02*
X55956D01*
X54850Y432095D01*
X53858Y431522D01*
X53048Y430712D01*
X52475Y429720D01*
X52179Y428614D01*
Y427468D01*
X52475Y426362D01*
X53048Y425370D01*
X53858Y424560D01*
X54850Y423987D01*
X55956Y423691D01*
X57102D01*
X58208Y423987D01*
X59200Y424560D01*
X60010Y425370D01*
X60583Y426362D01*
X60879Y427468D01*
Y428614D01*
X60583Y429720D01*
X60010Y430712D01*
X59200Y431522D01*
X58208Y432095D01*
X57102Y432391D01*
D02*
G37*
G36*
X22807Y420374D02*
X14508D01*
Y412075D01*
X22807D01*
Y420374D01*
D02*
G37*
G36*
X675130Y412094D02*
X673984D01*
X672878Y411797D01*
X671886Y411225D01*
X671076Y410415D01*
X670504Y409423D01*
X670207Y408316D01*
Y407171D01*
X670504Y406065D01*
X671076Y405073D01*
X671886Y404263D01*
X672878Y403690D01*
X673984Y403394D01*
X675130D01*
X676236Y403690D01*
X677228Y404263D01*
X678038Y405073D01*
X678611Y406065D01*
X678907Y407171D01*
Y408316D01*
X678611Y409423D01*
X678038Y410415D01*
X677228Y411225D01*
X676236Y411797D01*
X675130Y412094D01*
D02*
G37*
G36*
X19204Y410374D02*
X18111D01*
X17056Y410092D01*
X16109Y409545D01*
X15337Y408773D01*
X14791Y407827D01*
X14508Y406771D01*
Y405679D01*
X14791Y404623D01*
X15337Y403677D01*
X16109Y402904D01*
X17056Y402358D01*
X18111Y402075D01*
X19204D01*
X20259Y402358D01*
X21205Y402904D01*
X21978Y403677D01*
X22524Y404623D01*
X22807Y405679D01*
Y406771D01*
X22524Y407827D01*
X21978Y408773D01*
X21205Y409545D01*
X20259Y410092D01*
X19204Y410374D01*
D02*
G37*
G36*
X488396Y417557D02*
X486722D01*
X485079Y417231D01*
X483533Y416590D01*
X482140Y415660D01*
X480957Y414476D01*
X480026Y413084D01*
X479386Y411537D01*
X479059Y409895D01*
Y408220D01*
X479386Y406578D01*
X480026Y405031D01*
X480957Y403639D01*
X482140Y402455D01*
X483533Y401525D01*
X485079Y400884D01*
X486722Y400558D01*
X488396D01*
X490038Y400884D01*
X491585Y401525D01*
X492977Y402455D01*
X494161Y403639D01*
X495091Y405031D01*
X495732Y406578D01*
X496059Y408220D01*
Y409895D01*
X495732Y411537D01*
X495091Y413084D01*
X494161Y414476D01*
X492977Y415660D01*
X491585Y416590D01*
X490038Y417231D01*
X488396Y417557D01*
D02*
G37*
G36*
X675130Y402094D02*
X673984D01*
X672878Y401797D01*
X671886Y401225D01*
X671076Y400415D01*
X670504Y399423D01*
X670207Y398316D01*
Y397171D01*
X670504Y396065D01*
X671076Y395073D01*
X671886Y394263D01*
X672878Y393690D01*
X673984Y393394D01*
X675130D01*
X676236Y393690D01*
X677228Y394263D01*
X678038Y395073D01*
X678611Y396065D01*
X678907Y397171D01*
Y398316D01*
X678611Y399423D01*
X678038Y400415D01*
X677228Y401225D01*
X676236Y401797D01*
X675130Y402094D01*
D02*
G37*
G36*
X19204Y400374D02*
X18111D01*
X17056Y400092D01*
X16109Y399545D01*
X15337Y398773D01*
X14791Y397827D01*
X14508Y396771D01*
Y395678D01*
X14791Y394623D01*
X15337Y393677D01*
X16109Y392904D01*
X17056Y392358D01*
X18111Y392075D01*
X19204D01*
X20259Y392358D01*
X21205Y392904D01*
X21978Y393677D01*
X22524Y394623D01*
X22807Y395678D01*
Y396771D01*
X22524Y397827D01*
X21978Y398773D01*
X21205Y399545D01*
X20259Y400092D01*
X19204Y400374D01*
D02*
G37*
G36*
X675130Y392094D02*
X673984D01*
X672878Y391797D01*
X671886Y391225D01*
X671076Y390415D01*
X670504Y389423D01*
X670207Y388316D01*
Y387171D01*
X670504Y386065D01*
X671076Y385073D01*
X671886Y384263D01*
X672878Y383690D01*
X673984Y383394D01*
X675130D01*
X676236Y383690D01*
X677228Y384263D01*
X678038Y385073D01*
X678611Y386065D01*
X678907Y387171D01*
Y388316D01*
X678611Y389423D01*
X678038Y390415D01*
X677228Y391225D01*
X676236Y391797D01*
X675130Y392094D01*
D02*
G37*
G36*
X19204Y390374D02*
X18111D01*
X17056Y390092D01*
X16109Y389545D01*
X15337Y388773D01*
X14791Y387826D01*
X14508Y386771D01*
Y385679D01*
X14791Y384623D01*
X15337Y383677D01*
X16109Y382904D01*
X17056Y382358D01*
X18111Y382075D01*
X19204D01*
X20259Y382358D01*
X21205Y382904D01*
X21978Y383677D01*
X22524Y384623D01*
X22807Y385679D01*
Y386771D01*
X22524Y387826D01*
X21978Y388773D01*
X21205Y389545D01*
X20259Y390092D01*
X19204Y390374D01*
D02*
G37*
G36*
X573706Y383901D02*
Y380911D01*
X576696D01*
X576468Y381762D01*
X576007Y382560D01*
X575355Y383212D01*
X574557Y383673D01*
X573706Y383901D01*
D02*
G37*
G36*
X572706D02*
X571855Y383673D01*
X571057Y383212D01*
X570406Y382560D01*
X569945Y381762D01*
X569717Y380911D01*
X572706D01*
Y383901D01*
D02*
G37*
G36*
X576696Y379911D02*
X573706D01*
Y376922D01*
X574557Y377150D01*
X575355Y377611D01*
X576007Y378262D01*
X576468Y379060D01*
X576696Y379911D01*
D02*
G37*
G36*
X572706D02*
X569717D01*
X569945Y379060D01*
X570406Y378262D01*
X571057Y377611D01*
X571855Y377150D01*
X572706Y376922D01*
Y379911D01*
D02*
G37*
G36*
X521230Y383157D02*
X519887D01*
X518590Y382810D01*
X517427Y382138D01*
X516478Y381189D01*
X515806Y380026D01*
X515459Y378729D01*
Y377386D01*
X515806Y376089D01*
X516478Y374926D01*
X517427Y373976D01*
X518590Y373305D01*
X519887Y372957D01*
X521230D01*
X522527Y373305D01*
X523690Y373976D01*
X524640Y374926D01*
X525311Y376089D01*
X525659Y377386D01*
Y378729D01*
X525311Y380026D01*
X524640Y381189D01*
X523690Y382138D01*
X522527Y382810D01*
X521230Y383157D01*
D02*
G37*
G36*
X236730D02*
X235387D01*
X234090Y382810D01*
X232927Y382138D01*
X231978Y381189D01*
X231306Y380026D01*
X230959Y378729D01*
Y377386D01*
X231306Y376089D01*
X231978Y374926D01*
X232927Y373976D01*
X234090Y373305D01*
X235387Y372957D01*
X236730D01*
X238027Y373305D01*
X239190Y373976D01*
X240140Y374926D01*
X240811Y376089D01*
X241159Y377386D01*
Y378729D01*
X240811Y380026D01*
X240140Y381189D01*
X239190Y382138D01*
X238027Y382810D01*
X236730Y383157D01*
D02*
G37*
G36*
X19204Y380374D02*
X18111D01*
X17056Y380092D01*
X16109Y379545D01*
X15337Y378773D01*
X14791Y377826D01*
X14508Y376771D01*
Y375678D01*
X14791Y374623D01*
X15337Y373677D01*
X16109Y372904D01*
X17056Y372358D01*
X18111Y372075D01*
X19204D01*
X20259Y372358D01*
X21205Y372904D01*
X21978Y373677D01*
X22524Y374623D01*
X22807Y375678D01*
Y376771D01*
X22524Y377826D01*
X21978Y378773D01*
X21205Y379545D01*
X20259Y380092D01*
X19204Y380374D01*
D02*
G37*
G36*
X91624Y369390D02*
Y366400D01*
X94614D01*
X94386Y367251D01*
X93925Y368049D01*
X93273Y368701D01*
X92475Y369162D01*
X91624Y369390D01*
D02*
G37*
G36*
X90624D02*
X89773Y369162D01*
X88975Y368701D01*
X88323Y368049D01*
X87863Y367251D01*
X87635Y366400D01*
X90624D01*
Y369390D01*
D02*
G37*
G36*
X94614Y365400D02*
X91624D01*
Y362411D01*
X92475Y362639D01*
X93273Y363100D01*
X93925Y363751D01*
X94386Y364549D01*
X94614Y365400D01*
D02*
G37*
G36*
X90624D02*
X87635D01*
X87863Y364549D01*
X88323Y363751D01*
X88975Y363100D01*
X89773Y362639D01*
X90624Y362411D01*
Y365400D01*
D02*
G37*
G36*
X521170Y353257D02*
X519948D01*
X518750Y353019D01*
X517622Y352552D01*
X516607Y351873D01*
X515743Y351010D01*
X515064Y349994D01*
X514597Y348866D01*
X514359Y347668D01*
Y346447D01*
X514597Y345249D01*
X515064Y344121D01*
X515743Y343105D01*
X516607Y342242D01*
X517622Y341563D01*
X518750Y341096D01*
X519948Y340858D01*
X521170D01*
X522367Y341096D01*
X523496Y341563D01*
X524511Y342242D01*
X525375Y343105D01*
X526053Y344121D01*
X526521Y345249D01*
X526759Y346447D01*
Y347668D01*
X526521Y348866D01*
X526053Y349994D01*
X525375Y351010D01*
X524511Y351873D01*
X523496Y352552D01*
X522367Y353019D01*
X521170Y353257D01*
D02*
G37*
G36*
X270896Y355557D02*
X269222D01*
X267580Y355231D01*
X266033Y354590D01*
X264640Y353660D01*
X263457Y352476D01*
X262526Y351084D01*
X261885Y349537D01*
X261559Y347895D01*
Y346220D01*
X261885Y344578D01*
X262526Y343031D01*
X263457Y341639D01*
X264640Y340455D01*
X266033Y339525D01*
X267580Y338884D01*
X269222Y338558D01*
X270896D01*
X272538Y338884D01*
X274085Y339525D01*
X275477Y340455D01*
X276661Y341639D01*
X277591Y343031D01*
X278232Y344578D01*
X278559Y346220D01*
Y347895D01*
X278232Y349537D01*
X277591Y351084D01*
X276661Y352476D01*
X275477Y353660D01*
X274085Y354590D01*
X272538Y355231D01*
X270896Y355557D01*
D02*
G37*
G36*
X26819Y325550D02*
X25503D01*
X24231Y325209D01*
X23091Y324551D01*
X22160Y323620D01*
X21502Y322480D01*
X21161Y321208D01*
Y319892D01*
X21502Y318620D01*
X22160Y317480D01*
X23091Y316549D01*
X24231Y315891D01*
X25503Y315550D01*
X26819D01*
X28091Y315891D01*
X29231Y316549D01*
X30162Y317480D01*
X30820Y318620D01*
X31161Y319892D01*
Y321208D01*
X30820Y322480D01*
X30162Y323620D01*
X29231Y324551D01*
X28091Y325209D01*
X26819Y325550D01*
D02*
G37*
G36*
X77389Y323300D02*
X76244D01*
X75137Y323004D01*
X74146Y322431D01*
X73336Y321621D01*
X72763Y320629D01*
X72466Y319523D01*
Y318377D01*
X72763Y317271D01*
X73336Y316279D01*
X74146Y315469D01*
X75137Y314896D01*
X76244Y314600D01*
X77389D01*
X78496Y314896D01*
X79488Y315469D01*
X80297Y316279D01*
X80870Y317271D01*
X81166Y318377D01*
Y319523D01*
X80870Y320629D01*
X80297Y321621D01*
X79488Y322431D01*
X78496Y323004D01*
X77389Y323300D01*
D02*
G37*
G36*
X67389D02*
X66244D01*
X65137Y323004D01*
X64145Y322431D01*
X63336Y321621D01*
X62763Y320629D01*
X62467Y319523D01*
Y318377D01*
X62763Y317271D01*
X63336Y316279D01*
X64145Y315469D01*
X65137Y314896D01*
X66244Y314600D01*
X67389D01*
X68496Y314896D01*
X69488Y315469D01*
X70297Y316279D01*
X70870Y317271D01*
X71166Y318377D01*
Y319523D01*
X70870Y320629D01*
X70297Y321621D01*
X69488Y322431D01*
X68496Y323004D01*
X67389Y323300D01*
D02*
G37*
G36*
X57389D02*
X56244D01*
X55137Y323004D01*
X54145Y322431D01*
X53336Y321621D01*
X52763Y320629D01*
X52466Y319523D01*
Y318377D01*
X52763Y317271D01*
X53336Y316279D01*
X54145Y315469D01*
X55137Y314896D01*
X56244Y314600D01*
X57389D01*
X58495Y314896D01*
X59487Y315469D01*
X60297Y316279D01*
X60870Y317271D01*
X61167Y318377D01*
Y319523D01*
X60870Y320629D01*
X60297Y321621D01*
X59487Y322431D01*
X58495Y323004D01*
X57389Y323300D01*
D02*
G37*
G36*
X675156Y317159D02*
X674011D01*
X672905Y316863D01*
X671913Y316290D01*
X671103Y315480D01*
X670530Y314488D01*
X670234Y313382D01*
Y312236D01*
X670530Y311130D01*
X671103Y310138D01*
X671913Y309328D01*
X672905Y308755D01*
X674011Y308459D01*
X675156D01*
X676263Y308755D01*
X677255Y309328D01*
X678064Y310138D01*
X678637Y311130D01*
X678934Y312236D01*
Y313382D01*
X678637Y314488D01*
X678064Y315480D01*
X677255Y316290D01*
X676263Y316863D01*
X675156Y317159D01*
D02*
G37*
G36*
Y307159D02*
X674011D01*
X672905Y306863D01*
X671913Y306290D01*
X671103Y305480D01*
X670530Y304488D01*
X670234Y303382D01*
Y302236D01*
X670530Y301130D01*
X671103Y300138D01*
X671913Y299328D01*
X672905Y298756D01*
X674011Y298459D01*
X675156D01*
X676263Y298756D01*
X677255Y299328D01*
X678064Y300138D01*
X678637Y301130D01*
X678934Y302236D01*
Y303382D01*
X678637Y304488D01*
X678064Y305480D01*
X677255Y306290D01*
X676263Y306863D01*
X675156Y307159D01*
D02*
G37*
G36*
X252450Y304911D02*
X245332D01*
Y297793D01*
X252450D01*
Y304911D01*
D02*
G37*
G36*
X241486D02*
X240549D01*
X239644Y304669D01*
X238832Y304200D01*
X238170Y303537D01*
X237701Y302726D01*
X237458Y301821D01*
Y300884D01*
X237701Y299978D01*
X238170Y299167D01*
X238832Y298504D01*
X239644Y298036D01*
X240549Y297793D01*
X241486D01*
X242391Y298036D01*
X243203Y298504D01*
X243865Y299167D01*
X244334Y299978D01*
X244577Y300884D01*
Y301821D01*
X244334Y302726D01*
X243865Y303537D01*
X243203Y304200D01*
X242391Y304669D01*
X241486Y304911D01*
D02*
G37*
G36*
X23902Y297813D02*
X15603D01*
Y289514D01*
X23902D01*
Y297813D01*
D02*
G37*
G36*
X675156Y297159D02*
X674011D01*
X672905Y296863D01*
X671913Y296290D01*
X671103Y295480D01*
X670530Y294488D01*
X670234Y293382D01*
Y292236D01*
X670530Y291130D01*
X671103Y290138D01*
X671913Y289328D01*
X672905Y288755D01*
X674011Y288459D01*
X675156D01*
X676263Y288755D01*
X677255Y289328D01*
X678064Y290138D01*
X678637Y291130D01*
X678934Y292236D01*
Y293382D01*
X678637Y294488D01*
X678064Y295480D01*
X677255Y296290D01*
X676263Y296863D01*
X675156Y297159D01*
D02*
G37*
G36*
X571799Y289799D02*
Y286810D01*
X574788D01*
X574560Y287661D01*
X574100Y288459D01*
X573448Y289110D01*
X572650Y289571D01*
X571799Y289799D01*
D02*
G37*
G36*
X570799D02*
X569948Y289571D01*
X569150Y289110D01*
X568498Y288459D01*
X568037Y287661D01*
X567809Y286810D01*
X570799D01*
Y289799D01*
D02*
G37*
G36*
X524836Y293175D02*
X523915D01*
X523025Y292937D01*
X522227Y292476D01*
X521575Y291824D01*
X521114Y291026D01*
X520876Y290136D01*
Y289214D01*
X521114Y288324D01*
X521575Y287526D01*
X522227Y286875D01*
X523025Y286414D01*
X523915Y286175D01*
X524836D01*
X525727Y286414D01*
X526525Y286875D01*
X527176Y287526D01*
X527637Y288324D01*
X527876Y289214D01*
Y290136D01*
X527637Y291026D01*
X527176Y291824D01*
X526525Y292476D01*
X525727Y292937D01*
X524836Y293175D01*
D02*
G37*
G36*
X574788Y285810D02*
X571799D01*
Y282820D01*
X572650Y283048D01*
X573448Y283509D01*
X574100Y284161D01*
X574560Y284959D01*
X574788Y285810D01*
D02*
G37*
G36*
X570799D02*
X567809D01*
X568037Y284959D01*
X568498Y284161D01*
X569150Y283509D01*
X569948Y283048D01*
X570799Y282820D01*
Y285810D01*
D02*
G37*
G36*
X304292Y282946D02*
Y279956D01*
X307282D01*
X307054Y280807D01*
X306593Y281605D01*
X305942Y282257D01*
X305143Y282718D01*
X304292Y282946D01*
D02*
G37*
G36*
X303292D02*
X302442Y282718D01*
X301643Y282257D01*
X300992Y281605D01*
X300531Y280807D01*
X300303Y279956D01*
X303292D01*
Y282946D01*
D02*
G37*
G36*
X20299Y287813D02*
X19206D01*
X18150Y287530D01*
X17204Y286984D01*
X16432Y286211D01*
X15885Y285265D01*
X15603Y284210D01*
Y283117D01*
X15885Y282062D01*
X16432Y281116D01*
X17204Y280343D01*
X18150Y279797D01*
X19206Y279514D01*
X20299D01*
X21354Y279797D01*
X22300Y280343D01*
X23073Y281116D01*
X23619Y282062D01*
X23902Y283117D01*
Y284210D01*
X23619Y285265D01*
X23073Y286211D01*
X22300Y286984D01*
X21354Y287530D01*
X20299Y287813D01*
D02*
G37*
G36*
X524836Y283333D02*
X523915D01*
X523025Y283094D01*
X522227Y282633D01*
X521575Y281982D01*
X521114Y281184D01*
X520876Y280293D01*
Y279372D01*
X521114Y278482D01*
X521575Y277684D01*
X522227Y277032D01*
X523025Y276571D01*
X523915Y276333D01*
X524836D01*
X525727Y276571D01*
X526525Y277032D01*
X527176Y277684D01*
X527637Y278482D01*
X527876Y279372D01*
Y280293D01*
X527637Y281184D01*
X527176Y281982D01*
X526525Y282633D01*
X525727Y283094D01*
X524836Y283333D01*
D02*
G37*
G36*
X307282Y278956D02*
X304292D01*
Y275967D01*
X305143Y276195D01*
X305942Y276655D01*
X306593Y277307D01*
X307054Y278105D01*
X307282Y278956D01*
D02*
G37*
G36*
X303292D02*
X300303D01*
X300531Y278105D01*
X300992Y277307D01*
X301643Y276655D01*
X302442Y276195D01*
X303292Y275967D01*
Y278956D01*
D02*
G37*
G36*
X20299Y277813D02*
X19206D01*
X18150Y277530D01*
X17204Y276984D01*
X16432Y276211D01*
X15885Y275265D01*
X15603Y274210D01*
Y273117D01*
X15885Y272062D01*
X16432Y271115D01*
X17204Y270343D01*
X18150Y269797D01*
X19206Y269514D01*
X20299D01*
X21354Y269797D01*
X22300Y270343D01*
X23073Y271115D01*
X23619Y272062D01*
X23902Y273117D01*
Y274210D01*
X23619Y275265D01*
X23073Y276211D01*
X22300Y276984D01*
X21354Y277530D01*
X20299Y277813D01*
D02*
G37*
G36*
Y267813D02*
X19206D01*
X18150Y267530D01*
X17204Y266984D01*
X16432Y266211D01*
X15885Y265265D01*
X15603Y264210D01*
Y263117D01*
X15885Y262062D01*
X16432Y261116D01*
X17204Y260343D01*
X18150Y259797D01*
X19206Y259514D01*
X20299D01*
X21354Y259797D01*
X22300Y260343D01*
X23073Y261116D01*
X23619Y262062D01*
X23902Y263117D01*
Y264210D01*
X23619Y265265D01*
X23073Y266211D01*
X22300Y266984D01*
X21354Y267530D01*
X20299Y267813D01*
D02*
G37*
G36*
X589661Y266046D02*
X588739D01*
X587849Y265808D01*
X587051Y265347D01*
X586788Y265084D01*
X586716Y265039D01*
X586265Y264614D01*
X586085Y264468D01*
X585910Y264342D01*
X585752Y264243D01*
X585611Y264169D01*
X585490Y264118D01*
X585391Y264087D01*
X585331Y264075D01*
X583200D01*
X582615Y263959D01*
X582119Y263628D01*
X538867Y220375D01*
X400946D01*
X400886Y220387D01*
X400786Y220418D01*
X400665Y220469D01*
X400524Y220543D01*
X400366Y220642D01*
X400202Y220760D01*
X399793Y221111D01*
X399575Y221324D01*
X399496Y221376D01*
X399225Y221647D01*
X398427Y222108D01*
X397537Y222346D01*
X396615D01*
X395725Y222108D01*
X394927Y221647D01*
X394275Y220995D01*
X393815Y220197D01*
X393576Y219307D01*
Y218385D01*
X393815Y217495D01*
X394275Y216697D01*
X394927Y216045D01*
X395725Y215585D01*
X396615Y215346D01*
X397537D01*
X398427Y215585D01*
X399225Y216045D01*
X399488Y216309D01*
X399560Y216353D01*
X400012Y216778D01*
X400191Y216924D01*
X400366Y217050D01*
X400524Y217149D01*
X400665Y217224D01*
X400786Y217274D01*
X400886Y217305D01*
X400946Y217317D01*
X539500D01*
X540085Y217433D01*
X540582Y217765D01*
X583834Y261017D01*
X585331D01*
X585391Y261005D01*
X585490Y260974D01*
X585611Y260924D01*
X585752Y260849D01*
X585910Y260750D01*
X586074Y260632D01*
X586483Y260281D01*
X586701Y260068D01*
X586780Y260016D01*
X587051Y259745D01*
X587849Y259285D01*
X588739Y259046D01*
X589661D01*
X590551Y259285D01*
X591349Y259745D01*
X592001Y260397D01*
X592462Y261195D01*
X592700Y262085D01*
Y263007D01*
X592462Y263897D01*
X592001Y264695D01*
X591349Y265347D01*
X590551Y265808D01*
X589661Y266046D01*
D02*
G37*
G36*
X358249Y264759D02*
X357328D01*
X356438Y264521D01*
X355640Y264060D01*
X355377Y263797D01*
X355305Y263752D01*
X354853Y263327D01*
X354674Y263181D01*
X354499Y263055D01*
X354341Y262956D01*
X354200Y262882D01*
X354079Y262831D01*
X353979Y262800D01*
X353919Y262789D01*
X279613D01*
X279028Y262672D01*
X278532Y262340D01*
X232355Y216164D01*
X232304Y216129D01*
X232212Y216081D01*
X232090Y216031D01*
X231939Y215984D01*
X231756Y215942D01*
X231557Y215910D01*
X231020Y215868D01*
X230715Y215865D01*
X230622Y215846D01*
X230239D01*
X229349Y215608D01*
X228551Y215147D01*
X227899Y214495D01*
X227439Y213697D01*
X227200Y212807D01*
Y211885D01*
X227439Y210995D01*
X227899Y210197D01*
X228551Y209545D01*
X229349Y209085D01*
X230239Y208846D01*
X231161D01*
X232051Y209085D01*
X232849Y209545D01*
X233501Y210197D01*
X233962Y210995D01*
X234200Y211885D01*
Y212258D01*
X234219Y212340D01*
X234238Y212960D01*
X234262Y213190D01*
X234296Y213402D01*
X234338Y213585D01*
X234385Y213736D01*
X234435Y213858D01*
X234483Y213950D01*
X234518Y214001D01*
X280247Y259730D01*
X353919D01*
X353979Y259718D01*
X354079Y259687D01*
X354200Y259636D01*
X354341Y259562D01*
X354499Y259463D01*
X354663Y259345D01*
X355072Y258995D01*
X355290Y258781D01*
X355369Y258729D01*
X355640Y258458D01*
X356438Y257998D01*
X357328Y257759D01*
X358249D01*
X359140Y257998D01*
X359938Y258458D01*
X360589Y259110D01*
X361050Y259908D01*
X361289Y260798D01*
Y261720D01*
X361050Y262610D01*
X360589Y263408D01*
X359938Y264060D01*
X359140Y264521D01*
X358249Y264759D01*
D02*
G37*
G36*
X20299Y257813D02*
X19206D01*
X18150Y257530D01*
X17204Y256984D01*
X16432Y256211D01*
X15885Y255265D01*
X15603Y254210D01*
Y253117D01*
X15885Y252062D01*
X16432Y251115D01*
X17204Y250343D01*
X18150Y249797D01*
X19206Y249514D01*
X20299D01*
X21354Y249797D01*
X22300Y250343D01*
X23073Y251115D01*
X23619Y252062D01*
X23902Y253117D01*
Y254210D01*
X23619Y255265D01*
X23073Y256211D01*
X22300Y256984D01*
X21354Y257530D01*
X20299Y257813D01*
D02*
G37*
G36*
X487195Y252484D02*
X486273D01*
X485383Y252245D01*
X484585Y251784D01*
X484321Y251521D01*
X484250Y251477D01*
X483798Y251052D01*
X483619Y250906D01*
X483444Y250780D01*
X483286Y250680D01*
X483145Y250606D01*
X483024Y250555D01*
X482924Y250525D01*
X482864Y250513D01*
X396838D01*
X396252Y250397D01*
X395756Y250065D01*
X389919Y244228D01*
X389587Y243731D01*
X389471Y243146D01*
Y242680D01*
X360967Y214176D01*
X344770D01*
X344710Y214187D01*
X344610Y214218D01*
X344489Y214269D01*
X344348Y214343D01*
X344190Y214442D01*
X344026Y214560D01*
X343617Y214911D01*
X343399Y215124D01*
X343320Y215176D01*
X343049Y215447D01*
X342251Y215908D01*
X341361Y216146D01*
X340439D01*
X339549Y215908D01*
X338751Y215447D01*
X338099Y214795D01*
X337639Y213997D01*
X337400Y213107D01*
Y212185D01*
X337639Y211295D01*
X338099Y210497D01*
X338751Y209845D01*
X339549Y209385D01*
X340439Y209146D01*
X341361D01*
X342251Y209385D01*
X343049Y209845D01*
X343312Y210109D01*
X343384Y210153D01*
X343836Y210578D01*
X344015Y210724D01*
X344190Y210850D01*
X344348Y210949D01*
X344489Y211023D01*
X344610Y211074D01*
X344710Y211105D01*
X344770Y211117D01*
X361600D01*
X362185Y211233D01*
X362682Y211565D01*
X392081Y240965D01*
X392413Y241461D01*
X392530Y242046D01*
Y242513D01*
X397471Y247454D01*
X482864D01*
X482924Y247443D01*
X483024Y247412D01*
X483145Y247361D01*
X483286Y247287D01*
X483444Y247188D01*
X483608Y247069D01*
X484017Y246719D01*
X484235Y246506D01*
X484314Y246454D01*
X484585Y246183D01*
X485383Y245722D01*
X486273Y245484D01*
X487195D01*
X488085Y245722D01*
X488883Y246183D01*
X489535Y246835D01*
X489995Y247633D01*
X490234Y248523D01*
Y249445D01*
X489995Y250335D01*
X489535Y251133D01*
X488883Y251784D01*
X488085Y252245D01*
X487195Y252484D01*
D02*
G37*
G36*
X90834Y246489D02*
Y243500D01*
X93823D01*
X93595Y244351D01*
X93134Y245149D01*
X92483Y245800D01*
X91685Y246261D01*
X90834Y246489D01*
D02*
G37*
G36*
X89834D02*
X88983Y246261D01*
X88185Y245800D01*
X87533Y245149D01*
X87072Y244351D01*
X86844Y243500D01*
X89834D01*
Y246489D01*
D02*
G37*
G36*
X254231Y249850D02*
X247113D01*
Y242732D01*
X254231D01*
Y249850D01*
D02*
G37*
G36*
X243266D02*
X242329D01*
X241424Y249607D01*
X240612Y249139D01*
X239950Y248476D01*
X239481Y247664D01*
X239239Y246759D01*
Y245822D01*
X239481Y244917D01*
X239950Y244105D01*
X240612Y243443D01*
X241424Y242974D01*
X242329Y242732D01*
X243266D01*
X244171Y242974D01*
X244983Y243443D01*
X245646Y244105D01*
X246114Y244917D01*
X246357Y245822D01*
Y246759D01*
X246114Y247664D01*
X245646Y248476D01*
X244983Y249139D01*
X244171Y249607D01*
X243266Y249850D01*
D02*
G37*
G36*
X93823Y242500D02*
X90834D01*
Y239510D01*
X91685Y239738D01*
X92483Y240199D01*
X93134Y240851D01*
X93595Y241649D01*
X93823Y242500D01*
D02*
G37*
G36*
X89834D02*
X86844D01*
X87072Y241649D01*
X87533Y240851D01*
X88185Y240199D01*
X88983Y239738D01*
X89834Y239510D01*
Y242500D01*
D02*
G37*
G36*
X592820Y362005D02*
X591898D01*
X591008Y361767D01*
X590210Y361306D01*
X589559Y360654D01*
X589098Y359856D01*
X588859Y358966D01*
Y358594D01*
X588840Y358512D01*
X588821Y357892D01*
X588797Y357662D01*
X588763Y357449D01*
X588721Y357267D01*
X588674Y357115D01*
X588625Y356994D01*
X588576Y356901D01*
X588542Y356851D01*
X553119Y321427D01*
X552787Y320931D01*
X552671Y320346D01*
Y262680D01*
X522167Y232175D01*
X405925D01*
X405865Y232187D01*
X405765Y232218D01*
X405645Y232269D01*
X405504Y232343D01*
X405345Y232442D01*
X405182Y232560D01*
X404773Y232911D01*
X404555Y233124D01*
X404476Y233176D01*
X404205Y233447D01*
X403407Y233908D01*
X402517Y234146D01*
X401595D01*
X400705Y233908D01*
X399907Y233447D01*
X399255Y232795D01*
X398794Y231997D01*
X398556Y231107D01*
Y230185D01*
X398794Y229295D01*
X399255Y228497D01*
X399907Y227845D01*
X400705Y227385D01*
X401595Y227146D01*
X402517D01*
X403407Y227385D01*
X404205Y227845D01*
X404468Y228109D01*
X404540Y228153D01*
X404991Y228578D01*
X405171Y228724D01*
X405345Y228850D01*
X405504Y228949D01*
X405645Y229024D01*
X405765Y229074D01*
X405865Y229105D01*
X405925Y229117D01*
X522800D01*
X523385Y229233D01*
X523881Y229565D01*
X538457Y244140D01*
X538857Y243833D01*
X538694Y243551D01*
X538354Y242280D01*
Y240963D01*
X538694Y239691D01*
X539353Y238551D01*
X540284Y237620D01*
X541424Y236962D01*
X542695Y236621D01*
X544012D01*
X545284Y236962D01*
X546424Y237620D01*
X547355Y238551D01*
X548013Y239691D01*
X548354Y240963D01*
Y242280D01*
X548013Y243551D01*
X547355Y244691D01*
X546424Y245622D01*
X545284Y246281D01*
X544012Y246621D01*
X542695D01*
X541424Y246281D01*
X541142Y246118D01*
X540835Y246518D01*
X555281Y260965D01*
X555613Y261461D01*
X555729Y262046D01*
Y319713D01*
X590705Y354688D01*
X590755Y354722D01*
X590847Y354771D01*
X590969Y354820D01*
X591121Y354867D01*
X591303Y354909D01*
X591503Y354941D01*
X592039Y354983D01*
X592344Y354986D01*
X592437Y355005D01*
X592820D01*
X593710Y355244D01*
X594508Y355705D01*
X595160Y356356D01*
X595621Y357154D01*
X595859Y358045D01*
Y358966D01*
X595621Y359856D01*
X595160Y360654D01*
X594508Y361306D01*
X593710Y361767D01*
X592820Y362005D01*
D02*
G37*
G36*
X217009Y238769D02*
X215693D01*
X214421Y238428D01*
X213281Y237770D01*
X212350Y236839D01*
X211692Y235699D01*
X211351Y234427D01*
Y233111D01*
X211692Y231839D01*
X212350Y230699D01*
X213281Y229768D01*
X214421Y229110D01*
X215693Y228769D01*
X217009D01*
X218281Y229110D01*
X219421Y229768D01*
X220352Y230699D01*
X221010Y231839D01*
X221351Y233111D01*
Y234427D01*
X221010Y235699D01*
X220352Y236839D01*
X219421Y237770D01*
X218281Y238428D01*
X217009Y238769D01*
D02*
G37*
G36*
X300627Y237445D02*
X299311D01*
X298039Y237104D01*
X296899Y236446D01*
X295968Y235515D01*
X295310Y234375D01*
X294969Y233103D01*
Y231787D01*
X295310Y230515D01*
X295968Y229375D01*
X296899Y228444D01*
X298039Y227786D01*
X299311Y227445D01*
X300627D01*
X301899Y227786D01*
X303039Y228444D01*
X303970Y229375D01*
X304628Y230515D01*
X304969Y231787D01*
Y233103D01*
X304628Y234375D01*
X303970Y235515D01*
X303039Y236446D01*
X301899Y237104D01*
X300627Y237445D01*
D02*
G37*
G36*
X675078Y222387D02*
X673933D01*
X672826Y222090D01*
X671834Y221517D01*
X671024Y220708D01*
X670452Y219715D01*
X670155Y218609D01*
Y217464D01*
X670452Y216357D01*
X671024Y215366D01*
X671834Y214556D01*
X672826Y213983D01*
X673933Y213686D01*
X675078D01*
X676184Y213983D01*
X677176Y214556D01*
X677986Y215366D01*
X678559Y216357D01*
X678855Y217464D01*
Y218609D01*
X678559Y219715D01*
X677986Y220708D01*
X677176Y221517D01*
X676184Y222090D01*
X675078Y222387D01*
D02*
G37*
G36*
Y212386D02*
X673933D01*
X672826Y212090D01*
X671834Y211517D01*
X671024Y210707D01*
X670452Y209716D01*
X670155Y208609D01*
Y207464D01*
X670452Y206357D01*
X671024Y205365D01*
X671834Y204556D01*
X672826Y203983D01*
X673933Y203686D01*
X675078D01*
X676184Y203983D01*
X677176Y204556D01*
X677986Y205365D01*
X678559Y206357D01*
X678855Y207464D01*
Y208609D01*
X678559Y209716D01*
X677986Y210707D01*
X677176Y211517D01*
X676184Y212090D01*
X675078Y212386D01*
D02*
G37*
G36*
X262701Y203046D02*
X261779D01*
X260889Y202808D01*
X260091Y202347D01*
X259439Y201695D01*
X258979Y200897D01*
X258906Y200628D01*
X258871Y200563D01*
X258651Y199868D01*
X258450Y199319D01*
X258262Y198893D01*
X258188Y198751D01*
X258120Y198639D01*
X258090Y198597D01*
X239981Y180488D01*
X239534Y180748D01*
X239534Y181062D01*
Y188916D01*
X231235D01*
Y180617D01*
X239054D01*
X239403Y180617D01*
X239663Y180170D01*
X238317Y178824D01*
X238236Y178773D01*
X238130Y178727D01*
X237993Y178687D01*
X237820Y178658D01*
X237608Y178644D01*
X237359Y178650D01*
X237072Y178679D01*
X236751Y178732D01*
X236372Y178817D01*
X236294Y178819D01*
X235931Y178916D01*
X234839D01*
X233783Y178633D01*
X232837Y178087D01*
X232064Y177314D01*
X231518Y176368D01*
X231235Y175313D01*
Y174220D01*
X231518Y173165D01*
X232064Y172218D01*
X232837Y171446D01*
X233783Y170899D01*
X234839Y170617D01*
X235931D01*
X236987Y170899D01*
X237933Y171446D01*
X238705Y172218D01*
X239252Y173165D01*
X239403Y173730D01*
X239445Y173818D01*
X239680Y174766D01*
X239902Y175519D01*
X240115Y176096D01*
X240204Y176292D01*
X240284Y176441D01*
X240332Y176513D01*
X260041Y196222D01*
X260082Y196249D01*
X260142Y196277D01*
X260215Y196301D01*
X260309Y196318D01*
X260428Y196326D01*
X260574Y196320D01*
X260748Y196298D01*
X260948Y196256D01*
X261204Y196183D01*
X261297Y196176D01*
X261779Y196046D01*
X262701D01*
X263591Y196285D01*
X264389Y196746D01*
X265041Y197397D01*
X265501Y198195D01*
X265740Y199086D01*
Y200007D01*
X265501Y200897D01*
X265041Y201695D01*
X264389Y202347D01*
X263591Y202808D01*
X262701Y203046D01*
D02*
G37*
G36*
X675078Y202386D02*
X673933D01*
X672826Y202090D01*
X671834Y201517D01*
X671024Y200707D01*
X670452Y199715D01*
X670155Y198609D01*
Y197464D01*
X670452Y196357D01*
X671024Y195366D01*
X671834Y194556D01*
X672826Y193983D01*
X673933Y193686D01*
X675078D01*
X676184Y193983D01*
X677176Y194556D01*
X677986Y195366D01*
X678559Y196357D01*
X678855Y197464D01*
Y198609D01*
X678559Y199715D01*
X677986Y200707D01*
X677176Y201517D01*
X676184Y202090D01*
X675078Y202386D01*
D02*
G37*
G36*
X28659Y202949D02*
X27343D01*
X26071Y202608D01*
X24931Y201950D01*
X24000Y201019D01*
X23342Y199879D01*
X23001Y198607D01*
Y197291D01*
X23342Y196019D01*
X24000Y194879D01*
X24931Y193948D01*
X26071Y193290D01*
X27343Y192949D01*
X28659D01*
X29931Y193290D01*
X31071Y193948D01*
X32002Y194879D01*
X32660Y196019D01*
X33001Y197291D01*
Y198607D01*
X32660Y199879D01*
X32002Y201019D01*
X31071Y201950D01*
X29931Y202608D01*
X28659Y202949D01*
D02*
G37*
G36*
X571086Y195001D02*
Y192012D01*
X574076D01*
X573848Y192863D01*
X573387Y193661D01*
X572735Y194313D01*
X571937Y194773D01*
X571086Y195001D01*
D02*
G37*
G36*
X570086D02*
X569235Y194773D01*
X568437Y194313D01*
X567785Y193661D01*
X567325Y192863D01*
X567097Y192012D01*
X570086D01*
Y195001D01*
D02*
G37*
G36*
X77385Y200395D02*
X76240D01*
X75134Y200098D01*
X74142Y199526D01*
X73332Y198716D01*
X72759Y197724D01*
X72463Y196618D01*
Y195472D01*
X72759Y194366D01*
X73332Y193374D01*
X74142Y192564D01*
X75134Y191991D01*
X76240Y191695D01*
X77385D01*
X78492Y191991D01*
X79484Y192564D01*
X80294Y193374D01*
X80866Y194366D01*
X81163Y195472D01*
Y196618D01*
X80866Y197724D01*
X80294Y198716D01*
X79484Y199526D01*
X78492Y200098D01*
X77385Y200395D01*
D02*
G37*
G36*
X67385D02*
X66240D01*
X65134Y200098D01*
X64142Y199526D01*
X63332Y198716D01*
X62759Y197724D01*
X62463Y196618D01*
Y195472D01*
X62759Y194366D01*
X63332Y193374D01*
X64142Y192564D01*
X65134Y191991D01*
X66240Y191695D01*
X67385D01*
X68492Y191991D01*
X69484Y192564D01*
X70294Y193374D01*
X70866Y194366D01*
X71163Y195472D01*
Y196618D01*
X70866Y197724D01*
X70294Y198716D01*
X69484Y199526D01*
X68492Y200098D01*
X67385Y200395D01*
D02*
G37*
G36*
X57385D02*
X56240D01*
X55134Y200098D01*
X54142Y199526D01*
X53332Y198716D01*
X52759Y197724D01*
X52463Y196618D01*
Y195472D01*
X52759Y194366D01*
X53332Y193374D01*
X54142Y192564D01*
X55134Y191991D01*
X56240Y191695D01*
X57385D01*
X58492Y191991D01*
X59484Y192564D01*
X60294Y193374D01*
X60866Y194366D01*
X61163Y195472D01*
Y196618D01*
X60866Y197724D01*
X60294Y198716D01*
X59484Y199526D01*
X58492Y200098D01*
X57385Y200395D01*
D02*
G37*
G36*
X574076Y191012D02*
X571086D01*
Y188022D01*
X571937Y188250D01*
X572735Y188711D01*
X573387Y189363D01*
X573848Y190161D01*
X574076Y191012D01*
D02*
G37*
G36*
X570086D02*
X567097D01*
X567325Y190161D01*
X567785Y189363D01*
X568437Y188711D01*
X569235Y188250D01*
X570086Y188022D01*
Y191012D01*
D02*
G37*
G36*
X401561Y205746D02*
X400639D01*
X399749Y205508D01*
X398951Y205047D01*
X398299Y204395D01*
X397839Y203597D01*
X397600Y202707D01*
Y201785D01*
X397839Y200895D01*
X398299Y200097D01*
X398951Y199445D01*
X399749Y198985D01*
X400639Y198746D01*
X401561D01*
X402451Y198985D01*
X403249Y199445D01*
X403512Y199709D01*
X403584Y199753D01*
X404036Y200178D01*
X404215Y200324D01*
X404390Y200450D01*
X404548Y200549D01*
X404689Y200623D01*
X404810Y200674D01*
X404910Y200705D01*
X404970Y200717D01*
X537179D01*
X546605Y191290D01*
X546635Y191244D01*
X546672Y191169D01*
X546706Y191073D01*
X546735Y190952D01*
X546755Y190803D01*
X546764Y190625D01*
X546758Y190420D01*
X546736Y190187D01*
X546693Y189902D01*
X546693Y189888D01*
X546661Y189768D01*
Y188847D01*
X546900Y187956D01*
X547361Y187158D01*
X548012Y186507D01*
X548810Y186046D01*
X549700Y185807D01*
X550622D01*
X551512Y186046D01*
X552310Y186507D01*
X552962Y187158D01*
X553423Y187956D01*
X553661Y188847D01*
Y189768D01*
X553423Y190658D01*
X552962Y191456D01*
X552310Y192108D01*
X551512Y192569D01*
X550743Y192775D01*
X550727Y192781D01*
X550707Y192785D01*
X550622Y192807D01*
X550575D01*
X550383Y192841D01*
X550090Y192900D01*
X549558Y193038D01*
X549359Y193104D01*
X549183Y193173D01*
X549042Y193240D01*
X548936Y193300D01*
X548886Y193334D01*
X538893Y203327D01*
X538397Y203659D01*
X537812Y203776D01*
X404970D01*
X404910Y203787D01*
X404810Y203818D01*
X404689Y203869D01*
X404548Y203943D01*
X404390Y204042D01*
X404226Y204160D01*
X403817Y204511D01*
X403599Y204724D01*
X403520Y204776D01*
X403249Y205047D01*
X402451Y205508D01*
X401561Y205746D01*
D02*
G37*
G36*
X340326Y188916D02*
X336676D01*
Y185266D01*
X340326D01*
Y188916D01*
D02*
G37*
G36*
X335676D02*
X332027D01*
Y185266D01*
X335676D01*
Y188916D01*
D02*
G37*
G36*
X400264Y189247D02*
X399171D01*
X398116Y188964D01*
X397170Y188418D01*
X396397Y187645D01*
X395851Y186699D01*
X395568Y185643D01*
Y184551D01*
X395851Y183495D01*
X396397Y182549D01*
X397170Y181777D01*
X398116Y181230D01*
X399171Y180947D01*
X400264D01*
X401319Y181230D01*
X402265Y181777D01*
X403038Y182549D01*
X403584Y183495D01*
X403867Y184551D01*
Y185643D01*
X403584Y186699D01*
X403038Y187645D01*
X402265Y188418D01*
X401319Y188964D01*
X400264Y189247D01*
D02*
G37*
G36*
X480212Y189246D02*
X479119D01*
X478064Y188964D01*
X477118Y188417D01*
X476345Y187645D01*
X475799Y186699D01*
X475516Y185643D01*
Y184551D01*
X475799Y183495D01*
X476345Y182549D01*
X477118Y181776D01*
X478064Y181230D01*
X479119Y180947D01*
X480212D01*
X481267Y181230D01*
X482213Y181776D01*
X482986Y182549D01*
X483532Y183495D01*
X483815Y184551D01*
Y185643D01*
X483532Y186699D01*
X482986Y187645D01*
X482213Y188417D01*
X481267Y188964D01*
X480212Y189246D01*
D02*
G37*
G36*
X340326Y184266D02*
X336676D01*
Y180617D01*
X340326D01*
Y184266D01*
D02*
G37*
G36*
X335676D02*
X332027D01*
Y180617D01*
X335676D01*
Y184266D01*
D02*
G37*
G36*
X480212Y179246D02*
X479119D01*
X478064Y178964D01*
X477118Y178417D01*
X476345Y177645D01*
X475799Y176699D01*
X475516Y175643D01*
Y174551D01*
X475799Y173495D01*
X476345Y172549D01*
X477118Y171776D01*
X478064Y171230D01*
X479119Y170947D01*
X480212D01*
X481267Y171230D01*
X482213Y171776D01*
X482986Y172549D01*
X483532Y173495D01*
X483815Y174551D01*
Y175643D01*
X483532Y176699D01*
X482986Y177645D01*
X482213Y178417D01*
X481267Y178964D01*
X480212Y179246D01*
D02*
G37*
G36*
X336722Y178916D02*
X335630D01*
X334574Y178633D01*
X333628Y178087D01*
X332856Y177314D01*
X332309Y176368D01*
X332027Y175313D01*
Y174220D01*
X332309Y173165D01*
X332856Y172218D01*
X333628Y171446D01*
X334574Y170899D01*
X335630Y170617D01*
X336722D01*
X337778Y170899D01*
X338724Y171446D01*
X339497Y172218D01*
X340043Y173165D01*
X340326Y174220D01*
Y175313D01*
X340043Y176368D01*
X339497Y177314D01*
X338724Y178087D01*
X337778Y178633D01*
X336722Y178916D01*
D02*
G37*
G36*
X23042Y171458D02*
X14742D01*
Y163159D01*
X23042D01*
Y171458D01*
D02*
G37*
G36*
X480212Y169246D02*
X479119D01*
X478064Y168964D01*
X477118Y168417D01*
X476345Y167645D01*
X475799Y166699D01*
X475516Y165643D01*
Y164551D01*
X475799Y163495D01*
X476345Y162549D01*
X477118Y161776D01*
X478064Y161230D01*
X479119Y160947D01*
X480212D01*
X481267Y161230D01*
X482213Y161776D01*
X482986Y162549D01*
X483532Y163495D01*
X483815Y164551D01*
Y165643D01*
X483532Y166699D01*
X482986Y167645D01*
X482213Y168417D01*
X481267Y168964D01*
X480212Y169246D01*
D02*
G37*
G36*
X336722Y168916D02*
X335630D01*
X334574Y168633D01*
X333628Y168087D01*
X332856Y167314D01*
X332309Y166368D01*
X332027Y165313D01*
Y164220D01*
X332309Y163165D01*
X332856Y162218D01*
X333628Y161446D01*
X334574Y160899D01*
X335630Y160617D01*
X336722D01*
X337778Y160899D01*
X338724Y161446D01*
X339497Y162218D01*
X340043Y163165D01*
X340326Y164220D01*
Y165313D01*
X340043Y166368D01*
X339497Y167314D01*
X338724Y168087D01*
X337778Y168633D01*
X336722Y168916D01*
D02*
G37*
G36*
X235931D02*
X234839D01*
X233783Y168633D01*
X232837Y168087D01*
X232064Y167314D01*
X231518Y166368D01*
X231235Y165313D01*
Y164220D01*
X231518Y163165D01*
X232064Y162218D01*
X232837Y161446D01*
X233783Y160899D01*
X234839Y160617D01*
X235931D01*
X236987Y160899D01*
X237933Y161446D01*
X238705Y162218D01*
X239252Y163165D01*
X239534Y164220D01*
Y165313D01*
X239252Y166368D01*
X238705Y167314D01*
X237933Y168087D01*
X236987Y168633D01*
X235931Y168916D01*
D02*
G37*
G36*
X19438Y161459D02*
X18346D01*
X17290Y161176D01*
X16344Y160629D01*
X15572Y159857D01*
X15025Y158911D01*
X14742Y157855D01*
Y156763D01*
X15025Y155707D01*
X15572Y154761D01*
X16344Y153988D01*
X17290Y153442D01*
X18346Y153159D01*
X19438D01*
X20494Y153442D01*
X21440Y153988D01*
X22212Y154761D01*
X22759Y155707D01*
X23042Y156763D01*
Y157855D01*
X22759Y158911D01*
X22212Y159857D01*
X21440Y160629D01*
X20494Y161176D01*
X19438Y161459D01*
D02*
G37*
G36*
X480212Y159247D02*
X479119D01*
X478064Y158964D01*
X477118Y158417D01*
X476345Y157645D01*
X475799Y156699D01*
X475516Y155643D01*
Y154551D01*
X475799Y153495D01*
X476345Y152549D01*
X477118Y151776D01*
X478064Y151230D01*
X479119Y150947D01*
X480212D01*
X481267Y151230D01*
X482213Y151776D01*
X482986Y152549D01*
X483532Y153495D01*
X483815Y154551D01*
Y155643D01*
X483532Y156699D01*
X482986Y157645D01*
X482213Y158417D01*
X481267Y158964D01*
X480212Y159247D01*
D02*
G37*
G36*
X336722Y158916D02*
X335630D01*
X334574Y158633D01*
X333628Y158087D01*
X332856Y157314D01*
X332309Y156368D01*
X332027Y155313D01*
Y154220D01*
X332309Y153165D01*
X332856Y152218D01*
X333628Y151446D01*
X334574Y150900D01*
X335630Y150617D01*
X336722D01*
X337778Y150900D01*
X338724Y151446D01*
X339497Y152218D01*
X340043Y153165D01*
X340326Y154220D01*
Y155313D01*
X340043Y156368D01*
X339497Y157314D01*
X338724Y158087D01*
X337778Y158633D01*
X336722Y158916D01*
D02*
G37*
G36*
X235931D02*
X234839D01*
X233783Y158633D01*
X232837Y158087D01*
X232064Y157314D01*
X231518Y156368D01*
X231235Y155313D01*
Y154220D01*
X231518Y153165D01*
X232064Y152218D01*
X232837Y151446D01*
X233783Y150900D01*
X234839Y150617D01*
X235931D01*
X236987Y150900D01*
X237933Y151446D01*
X238705Y152218D01*
X239252Y153165D01*
X239534Y154220D01*
Y155313D01*
X239252Y156368D01*
X238705Y157314D01*
X237933Y158087D01*
X236987Y158633D01*
X235931Y158916D01*
D02*
G37*
G36*
X19438Y151459D02*
X18346D01*
X17290Y151176D01*
X16344Y150629D01*
X15572Y149857D01*
X15025Y148910D01*
X14742Y147855D01*
Y146763D01*
X15025Y145707D01*
X15572Y144761D01*
X16344Y143988D01*
X17290Y143442D01*
X18346Y143159D01*
X19438D01*
X20494Y143442D01*
X21440Y143988D01*
X22212Y144761D01*
X22759Y145707D01*
X23042Y146763D01*
Y147855D01*
X22759Y148910D01*
X22212Y149857D01*
X21440Y150629D01*
X20494Y151176D01*
X19438Y151459D01*
D02*
G37*
G36*
X480212Y149247D02*
X479119D01*
X478064Y148964D01*
X477118Y148417D01*
X476345Y147645D01*
X475799Y146699D01*
X475516Y145643D01*
Y144551D01*
X475799Y143495D01*
X476345Y142549D01*
X477118Y141776D01*
X478064Y141230D01*
X479119Y140947D01*
X480212D01*
X481267Y141230D01*
X482213Y141776D01*
X482986Y142549D01*
X483532Y143495D01*
X483815Y144551D01*
Y145643D01*
X483532Y146699D01*
X482986Y147645D01*
X482213Y148417D01*
X481267Y148964D01*
X480212Y149247D01*
D02*
G37*
G36*
X336722Y148916D02*
X335630D01*
X334574Y148633D01*
X333628Y148087D01*
X332856Y147314D01*
X332309Y146368D01*
X332027Y145313D01*
Y144220D01*
X332309Y143165D01*
X332856Y142218D01*
X333628Y141446D01*
X334574Y140900D01*
X335630Y140617D01*
X336722D01*
X337778Y140900D01*
X338724Y141446D01*
X339497Y142218D01*
X340043Y143165D01*
X340326Y144220D01*
Y145313D01*
X340043Y146368D01*
X339497Y147314D01*
X338724Y148087D01*
X337778Y148633D01*
X336722Y148916D01*
D02*
G37*
G36*
X170461Y195046D02*
X169539D01*
X168649Y194808D01*
X167851Y194347D01*
X167199Y193695D01*
X166739Y192897D01*
X166500Y192007D01*
Y191085D01*
X166739Y190195D01*
X167199Y189397D01*
X167851Y188745D01*
X168649Y188285D01*
X169539Y188046D01*
X170461D01*
X171351Y188285D01*
X172149Y188745D01*
X172412Y189009D01*
X172484Y189053D01*
X172936Y189478D01*
X173115Y189624D01*
X173290Y189750D01*
X173448Y189849D01*
X173589Y189924D01*
X173710Y189974D01*
X173810Y190005D01*
X173870Y190017D01*
X187972D01*
X230824Y147165D01*
X230879Y147079D01*
X230943Y146945D01*
X231009Y146767D01*
X231070Y146544D01*
X231123Y146278D01*
X231164Y145981D01*
X231213Y145223D01*
X231216Y144791D01*
X231235Y144697D01*
Y144220D01*
X231518Y143165D01*
X232064Y142218D01*
X232837Y141446D01*
X233783Y140900D01*
X234839Y140617D01*
X235931D01*
X236987Y140900D01*
X237933Y141446D01*
X238705Y142218D01*
X239252Y143165D01*
X239534Y144220D01*
Y145313D01*
X239252Y146368D01*
X238705Y147314D01*
X237933Y148087D01*
X236987Y148633D01*
X235931Y148916D01*
X235455D01*
X235360Y148935D01*
X234929Y148938D01*
X234170Y148987D01*
X233873Y149028D01*
X233607Y149082D01*
X233384Y149143D01*
X233206Y149208D01*
X233073Y149272D01*
X232987Y149327D01*
X189687Y192628D01*
X189190Y192959D01*
X188605Y193076D01*
X173870D01*
X173810Y193087D01*
X173710Y193118D01*
X173589Y193169D01*
X173448Y193243D01*
X173290Y193342D01*
X173126Y193460D01*
X172717Y193811D01*
X172499Y194024D01*
X172420Y194076D01*
X172149Y194347D01*
X171351Y194808D01*
X170461Y195046D01*
D02*
G37*
G36*
X19438Y141458D02*
X18346D01*
X17290Y141176D01*
X16344Y140629D01*
X15572Y139857D01*
X15025Y138910D01*
X14742Y137855D01*
Y136763D01*
X15025Y135707D01*
X15572Y134761D01*
X16344Y133988D01*
X17290Y133442D01*
X18346Y133159D01*
X19438D01*
X20494Y133442D01*
X21440Y133988D01*
X22212Y134761D01*
X22759Y135707D01*
X23042Y136763D01*
Y137855D01*
X22759Y138910D01*
X22212Y139857D01*
X21440Y140629D01*
X20494Y141176D01*
X19438Y141458D01*
D02*
G37*
G36*
X70745Y251742D02*
X69823D01*
X68933Y251503D01*
X68135Y251042D01*
X67483Y250391D01*
X67023Y249592D01*
X66784Y248702D01*
Y247781D01*
X67023Y246891D01*
X67483Y246093D01*
X68135Y245441D01*
X68933Y244980D01*
X69823Y244742D01*
X70196D01*
X70278Y244723D01*
X70898Y244704D01*
X71128Y244680D01*
X71340Y244645D01*
X71523Y244604D01*
X71674Y244557D01*
X71796Y244507D01*
X71888Y244458D01*
X71939Y244424D01*
X104895Y211468D01*
Y82007D01*
X105011Y81422D01*
X105343Y80926D01*
X118204Y68065D01*
X118700Y67733D01*
X119285Y67617D01*
X271655D01*
X271846Y67155D01*
X268567Y63876D01*
X70969D01*
X70910Y63887D01*
X70810Y63918D01*
X70689Y63969D01*
X70548Y64043D01*
X70390Y64142D01*
X70226Y64261D01*
X69817Y64611D01*
X69599Y64824D01*
X69520Y64876D01*
X69249Y65147D01*
X68451Y65608D01*
X67561Y65846D01*
X66639D01*
X65749Y65608D01*
X64951Y65147D01*
X64299Y64495D01*
X63839Y63697D01*
X63600Y62807D01*
Y61885D01*
X63839Y60995D01*
X64299Y60197D01*
X64951Y59545D01*
X65749Y59085D01*
X66639Y58846D01*
X67561D01*
X68451Y59085D01*
X69249Y59545D01*
X69512Y59809D01*
X69584Y59853D01*
X70036Y60278D01*
X70215Y60424D01*
X70390Y60550D01*
X70548Y60649D01*
X70689Y60724D01*
X70810Y60774D01*
X70910Y60805D01*
X70969Y60817D01*
X269200D01*
X269785Y60933D01*
X270282Y61265D01*
X274634Y65617D01*
X276990D01*
X277154Y65117D01*
X276739Y64397D01*
X276500Y63507D01*
Y62585D01*
X276739Y61695D01*
X277199Y60897D01*
X277851Y60245D01*
X278649Y59785D01*
X279539Y59546D01*
X279911D01*
X279994Y59527D01*
X280613Y59508D01*
X280844Y59484D01*
X281056Y59450D01*
X281239Y59408D01*
X281390Y59361D01*
X281512Y59312D01*
X281604Y59263D01*
X281655Y59228D01*
X300056Y40828D01*
X300552Y40496D01*
X301137Y40380D01*
X383362D01*
X383947Y40496D01*
X384443Y40828D01*
X417183Y73567D01*
X474744D01*
X474844Y73546D01*
X474984Y73497D01*
X475156Y73417D01*
X475357Y73303D01*
X475583Y73152D01*
X475822Y72971D01*
X476393Y72470D01*
X476700Y72166D01*
X476781Y72114D01*
X477118Y71776D01*
X478064Y71230D01*
X479119Y70947D01*
X480212D01*
X481267Y71230D01*
X482213Y71776D01*
X482986Y72549D01*
X483532Y73495D01*
X483815Y74551D01*
Y75643D01*
X483532Y76699D01*
X482986Y77645D01*
X482213Y78417D01*
X481267Y78964D01*
X480212Y79246D01*
X479119D01*
X478064Y78964D01*
X477118Y78417D01*
X476781Y78080D01*
X476700Y78027D01*
X476393Y77724D01*
X475822Y77223D01*
X475583Y77042D01*
X475357Y76891D01*
X475156Y76777D01*
X474984Y76697D01*
X474844Y76648D01*
X474744Y76626D01*
X416549D01*
X415964Y76510D01*
X415468Y76178D01*
X382728Y43439D01*
X301770D01*
X283818Y61391D01*
X283783Y61442D01*
X283735Y61534D01*
X283685Y61656D01*
X283638Y61808D01*
X283596Y61990D01*
X283564Y62190D01*
X283523Y62726D01*
X283520Y63031D01*
X283500Y63124D01*
Y63507D01*
X283262Y64397D01*
X282846Y65117D01*
X283010Y65617D01*
X361767D01*
X362352Y65733D01*
X362848Y66065D01*
X397319Y100536D01*
X397405Y100591D01*
X397538Y100656D01*
X397717Y100721D01*
X397940Y100782D01*
X398206Y100835D01*
X398503Y100876D01*
X399261Y100925D01*
X399693Y100928D01*
X399787Y100947D01*
X400264D01*
X401319Y101230D01*
X402265Y101777D01*
X403038Y102549D01*
X403584Y103495D01*
X403867Y104551D01*
Y105643D01*
X403584Y106699D01*
X403038Y107645D01*
X402265Y108418D01*
X401319Y108964D01*
X400264Y109247D01*
X399171D01*
X398116Y108964D01*
X397170Y108418D01*
X396397Y107645D01*
X395851Y106699D01*
X395568Y105643D01*
Y105167D01*
X395549Y105072D01*
X395546Y104641D01*
X395497Y103883D01*
X395455Y103586D01*
X395402Y103319D01*
X395341Y103096D01*
X395276Y102918D01*
X395211Y102785D01*
X395156Y102699D01*
X361133Y68676D01*
X356112D01*
X355921Y69137D01*
X397319Y110536D01*
X397405Y110591D01*
X397538Y110656D01*
X397717Y110721D01*
X397940Y110782D01*
X398206Y110835D01*
X398503Y110876D01*
X399261Y110925D01*
X399693Y110928D01*
X399787Y110948D01*
X400264D01*
X401319Y111230D01*
X402265Y111777D01*
X403038Y112549D01*
X403584Y113495D01*
X403867Y114551D01*
Y115643D01*
X403584Y116699D01*
X403038Y117645D01*
X402265Y118418D01*
X401319Y118964D01*
X400264Y119247D01*
X399171D01*
X398116Y118964D01*
X397170Y118418D01*
X396397Y117645D01*
X395851Y116699D01*
X395568Y115643D01*
Y115167D01*
X395549Y115072D01*
X395546Y114641D01*
X395497Y113883D01*
X395455Y113586D01*
X395402Y113319D01*
X395341Y113096D01*
X395276Y112918D01*
X395211Y112785D01*
X395156Y112699D01*
X353133Y70675D01*
X338390D01*
X338256Y71175D01*
X338724Y71446D01*
X339497Y72218D01*
X340043Y73165D01*
X340326Y74220D01*
Y74697D01*
X340345Y74791D01*
X340348Y75223D01*
X340397Y75981D01*
X340438Y76278D01*
X340491Y76544D01*
X340552Y76767D01*
X340618Y76945D01*
X340682Y77079D01*
X340737Y77165D01*
X396154Y132581D01*
X396397Y132549D01*
X397170Y131777D01*
X398116Y131230D01*
X399171Y130947D01*
X400264D01*
X401319Y131230D01*
X402265Y131777D01*
X403038Y132549D01*
X403584Y133495D01*
X403867Y134551D01*
Y135643D01*
X403584Y136699D01*
X403038Y137645D01*
X402265Y138418D01*
X401319Y138964D01*
X400264Y139247D01*
X399171D01*
X398116Y138964D01*
X397170Y138418D01*
X396397Y137645D01*
X395851Y136699D01*
X395774Y136411D01*
X395425Y136179D01*
X338574Y79327D01*
X338488Y79272D01*
X338355Y79208D01*
X338177Y79142D01*
X337954Y79081D01*
X337688Y79028D01*
X337391Y78987D01*
X336632Y78938D01*
X336201Y78935D01*
X336106Y78916D01*
X335630D01*
X334574Y78633D01*
X333628Y78087D01*
X332856Y77314D01*
X332309Y76368D01*
X332027Y75313D01*
Y74220D01*
X332309Y73165D01*
X332856Y72218D01*
X333628Y71446D01*
X334096Y71175D01*
X333962Y70675D01*
X237599D01*
X237465Y71175D01*
X237933Y71446D01*
X238705Y72218D01*
X239252Y73165D01*
X239534Y74220D01*
Y75313D01*
X239252Y76368D01*
X238705Y77314D01*
X237933Y78087D01*
X236987Y78633D01*
X235931Y78916D01*
X234839D01*
X233783Y78633D01*
X232837Y78087D01*
X232064Y77314D01*
X231518Y76368D01*
X231235Y75313D01*
Y74220D01*
X231518Y73165D01*
X232064Y72218D01*
X232837Y71446D01*
X233305Y71175D01*
X233171Y70675D01*
X119919D01*
X107953Y82640D01*
Y212102D01*
X107837Y212687D01*
X107506Y213183D01*
X74102Y246587D01*
X74067Y246637D01*
X74019Y246730D01*
X73969Y246851D01*
X73922Y247003D01*
X73880Y247185D01*
X73848Y247385D01*
X73807Y247922D01*
X73804Y248226D01*
X73784Y248319D01*
Y248702D01*
X73546Y249592D01*
X73085Y250391D01*
X72433Y251042D01*
X71635Y251503D01*
X70745Y251742D01*
D02*
G37*
G36*
X480212Y139246D02*
X479119D01*
X478064Y138964D01*
X477118Y138417D01*
X476345Y137645D01*
X475799Y136699D01*
X475516Y135643D01*
Y134551D01*
X475799Y133495D01*
X476345Y132549D01*
X477118Y131776D01*
X478064Y131230D01*
X479119Y130947D01*
X480212D01*
X481267Y131230D01*
X482213Y131776D01*
X482986Y132549D01*
X483532Y133495D01*
X483815Y134551D01*
Y135643D01*
X483532Y136699D01*
X482986Y137645D01*
X482213Y138417D01*
X481267Y138964D01*
X480212Y139246D01*
D02*
G37*
G36*
X131361Y222751D02*
X130439D01*
X129549Y222513D01*
X128751Y222052D01*
X128099Y221400D01*
X127639Y220602D01*
X127400Y219712D01*
Y218790D01*
X127639Y217900D01*
X128099Y217102D01*
X128751Y216450D01*
X129549Y215990D01*
X130439Y215751D01*
X130812D01*
X130894Y215732D01*
X131514Y215713D01*
X131744Y215689D01*
X131956Y215655D01*
X132139Y215613D01*
X132290Y215566D01*
X132412Y215517D01*
X132504Y215468D01*
X132555Y215434D01*
X185171Y162818D01*
Y159546D01*
X185287Y158961D01*
X185619Y158465D01*
X190918Y153165D01*
X191415Y152833D01*
X192000Y152717D01*
X195271D01*
X230824Y117165D01*
X230879Y117079D01*
X230943Y116945D01*
X231009Y116767D01*
X231070Y116544D01*
X231123Y116278D01*
X231164Y115981D01*
X231213Y115223D01*
X231216Y114791D01*
X231235Y114697D01*
Y114220D01*
X231518Y113165D01*
X232064Y112218D01*
X232837Y111446D01*
X233783Y110899D01*
X234839Y110617D01*
X235931D01*
X236987Y110899D01*
X237933Y111446D01*
X238705Y112218D01*
X239252Y113165D01*
X239534Y114220D01*
Y115313D01*
X239252Y116368D01*
X238705Y117314D01*
X237933Y118087D01*
X236987Y118633D01*
X235931Y118916D01*
X235455D01*
X235360Y118935D01*
X234929Y118938D01*
X234170Y118987D01*
X233873Y119028D01*
X233607Y119081D01*
X233384Y119142D01*
X233206Y119208D01*
X233073Y119272D01*
X232987Y119327D01*
X197703Y154611D01*
X197786Y155236D01*
X198149Y155445D01*
X198412Y155709D01*
X198484Y155753D01*
X198936Y156178D01*
X199115Y156324D01*
X199290Y156450D01*
X199448Y156549D01*
X199589Y156623D01*
X199710Y156674D01*
X199810Y156705D01*
X199870Y156717D01*
X201272D01*
X230824Y127165D01*
X230879Y127079D01*
X230943Y126945D01*
X231009Y126767D01*
X231070Y126544D01*
X231123Y126278D01*
X231164Y125981D01*
X231213Y125223D01*
X231216Y124791D01*
X231235Y124697D01*
Y124220D01*
X231518Y123165D01*
X232064Y122218D01*
X232837Y121446D01*
X233783Y120899D01*
X234839Y120617D01*
X235931D01*
X236987Y120899D01*
X237933Y121446D01*
X238705Y122218D01*
X239252Y123165D01*
X239534Y124220D01*
Y125313D01*
X239252Y126368D01*
X238705Y127314D01*
X237933Y128087D01*
X236987Y128633D01*
X235931Y128916D01*
X235455D01*
X235360Y128935D01*
X234929Y128938D01*
X234170Y128987D01*
X233873Y129028D01*
X233607Y129081D01*
X233384Y129142D01*
X233206Y129208D01*
X233073Y129272D01*
X232987Y129327D01*
X202987Y159327D01*
X202490Y159659D01*
X201905Y159775D01*
X199870D01*
X199810Y159787D01*
X199710Y159818D01*
X199589Y159869D01*
X199448Y159943D01*
X199290Y160042D01*
X199126Y160160D01*
X198827Y160417D01*
X198930Y160799D01*
X199017Y160917D01*
X207072D01*
X230824Y137165D01*
X230879Y137079D01*
X230943Y136945D01*
X231009Y136767D01*
X231070Y136544D01*
X231123Y136278D01*
X231164Y135981D01*
X231213Y135223D01*
X231216Y134791D01*
X231235Y134697D01*
Y134220D01*
X231518Y133165D01*
X232064Y132218D01*
X232837Y131446D01*
X233783Y130900D01*
X234839Y130617D01*
X235931D01*
X236987Y130900D01*
X237933Y131446D01*
X238705Y132218D01*
X239252Y133165D01*
X239534Y134220D01*
Y135313D01*
X239252Y136368D01*
X238705Y137314D01*
X237933Y138087D01*
X236987Y138633D01*
X235931Y138916D01*
X235455D01*
X235360Y138935D01*
X234929Y138938D01*
X234170Y138987D01*
X233873Y139028D01*
X233607Y139082D01*
X233384Y139143D01*
X233206Y139208D01*
X233073Y139272D01*
X232987Y139327D01*
X208787Y163528D01*
X208290Y163859D01*
X207705Y163976D01*
X194570D01*
X194510Y163987D01*
X194410Y164018D01*
X194289Y164069D01*
X194148Y164143D01*
X193990Y164242D01*
X193826Y164360D01*
X193417Y164711D01*
X193199Y164924D01*
X193120Y164976D01*
X192849Y165247D01*
X192051Y165708D01*
X191161Y165946D01*
X190239D01*
X189349Y165708D01*
X188551Y165247D01*
X188148Y164843D01*
X187873Y164610D01*
X187468Y164846D01*
X134718Y217596D01*
X134683Y217647D01*
X134635Y217739D01*
X134585Y217861D01*
X134538Y218013D01*
X134496Y218195D01*
X134464Y218394D01*
X134423Y218931D01*
X134420Y219236D01*
X134400Y219329D01*
Y219712D01*
X134162Y220602D01*
X133701Y221400D01*
X133049Y222052D01*
X132251Y222513D01*
X131361Y222751D01*
D02*
G37*
G36*
X42361Y371446D02*
X41439D01*
X40549Y371208D01*
X39751Y370747D01*
X39099Y370095D01*
X38639Y369297D01*
X38400Y368407D01*
Y367485D01*
X38639Y366595D01*
X39099Y365797D01*
X39751Y365145D01*
X40549Y364685D01*
X41439Y364446D01*
X41811D01*
X41894Y364427D01*
X42513Y364408D01*
X42744Y364384D01*
X42956Y364350D01*
X43139Y364308D01*
X43290Y364261D01*
X43412Y364212D01*
X43504Y364163D01*
X43555Y364128D01*
X202019Y205665D01*
X202515Y205333D01*
X203100Y205217D01*
X326967D01*
X362819Y169365D01*
X363315Y169033D01*
X363900Y168917D01*
X397068D01*
X397168Y168543D01*
X397169Y168417D01*
X396397Y167645D01*
X395851Y166699D01*
X395568Y165643D01*
Y165167D01*
X395549Y165072D01*
X395546Y164641D01*
X395497Y163883D01*
X395455Y163586D01*
X395402Y163319D01*
X395341Y163096D01*
X395276Y162918D01*
X395211Y162785D01*
X395156Y162699D01*
X378333Y145876D01*
X355100D01*
X354878Y145831D01*
X354653Y145808D01*
X354587Y145773D01*
X354515Y145759D01*
X354327Y145633D01*
X354127Y145526D01*
X340826Y134556D01*
X340326Y134792D01*
Y135313D01*
X340043Y136368D01*
X339497Y137314D01*
X338724Y138087D01*
X337778Y138633D01*
X336722Y138916D01*
X335630D01*
X334574Y138633D01*
X333628Y138087D01*
X332856Y137314D01*
X332309Y136368D01*
X332027Y135313D01*
Y134220D01*
X332309Y133165D01*
X332856Y132218D01*
X333011Y132063D01*
X332823Y131599D01*
X286089Y130953D01*
X286029Y130964D01*
X285929Y130993D01*
X285807Y131043D01*
X285665Y131115D01*
X285505Y131212D01*
X285340Y131328D01*
X284926Y131672D01*
X284706Y131883D01*
X284631Y131930D01*
X284390Y132171D01*
X283592Y132632D01*
X282702Y132870D01*
X281780D01*
X280890Y132632D01*
X280092Y132171D01*
X279440Y131520D01*
X278979Y130721D01*
X278741Y129831D01*
Y128910D01*
X278979Y128020D01*
X279440Y127222D01*
X280092Y126570D01*
X280890Y126109D01*
X281780Y125871D01*
X282702D01*
X283592Y126109D01*
X284390Y126570D01*
X284684Y126864D01*
X284759Y126912D01*
X285205Y127343D01*
X285382Y127492D01*
X285555Y127620D01*
X285712Y127722D01*
X285852Y127798D01*
X285972Y127850D01*
X286071Y127883D01*
X286131Y127895D01*
X333501Y128550D01*
X333564Y128319D01*
X333592Y128051D01*
X332856Y127314D01*
X332309Y126368D01*
X332027Y125313D01*
Y124220D01*
X332309Y123165D01*
X332856Y122218D01*
X333628Y121446D01*
X334574Y120899D01*
X335630Y120617D01*
X336722D01*
X337778Y120899D01*
X338724Y121446D01*
X339497Y122218D01*
X340043Y123165D01*
X340326Y124220D01*
Y125313D01*
X340043Y126368D01*
X339497Y127314D01*
X338724Y128087D01*
X338152Y128417D01*
X338214Y128958D01*
X338541Y129057D01*
X339609Y129628D01*
X339973Y129927D01*
X340107Y129999D01*
X355649Y142817D01*
X377449D01*
X377641Y142355D01*
X346932Y111646D01*
X339578D01*
X339386Y112108D01*
X339497Y112218D01*
X340043Y113165D01*
X340326Y114220D01*
Y115313D01*
X340043Y116368D01*
X339497Y117314D01*
X338724Y118087D01*
X337778Y118633D01*
X336722Y118916D01*
X335630D01*
X334574Y118633D01*
X333628Y118087D01*
X332856Y117314D01*
X332309Y116368D01*
X332027Y115313D01*
Y114220D01*
X332309Y113165D01*
X332856Y112218D01*
X332966Y112108D01*
X332775Y111646D01*
X260735D01*
X260150Y111530D01*
X259654Y111198D01*
X237783Y89327D01*
X237697Y89272D01*
X237564Y89208D01*
X237386Y89143D01*
X237163Y89082D01*
X236896Y89028D01*
X236599Y88987D01*
X235841Y88938D01*
X235409Y88935D01*
X235315Y88916D01*
X234839D01*
X233783Y88633D01*
X232837Y88087D01*
X232064Y87314D01*
X231518Y86368D01*
X231235Y85313D01*
Y84220D01*
X231518Y83165D01*
X232064Y82218D01*
X232837Y81446D01*
X233783Y80900D01*
X234839Y80617D01*
X235931D01*
X236987Y80900D01*
X237933Y81446D01*
X238705Y82218D01*
X239252Y83165D01*
X239534Y84220D01*
Y84697D01*
X239554Y84791D01*
X239557Y85223D01*
X239606Y85981D01*
X239647Y86278D01*
X239700Y86544D01*
X239761Y86767D01*
X239826Y86945D01*
X239891Y87079D01*
X239946Y87165D01*
X261369Y108587D01*
X333529D01*
X333659Y108104D01*
X333628Y108087D01*
X332856Y107314D01*
X332309Y106368D01*
X332027Y105313D01*
Y104220D01*
X332309Y103165D01*
X332856Y102218D01*
X333628Y101446D01*
X334574Y100900D01*
X335630Y100617D01*
X336722D01*
X337778Y100900D01*
X338724Y101446D01*
X339497Y102218D01*
X340043Y103165D01*
X340326Y104220D01*
Y105313D01*
X340043Y106368D01*
X339497Y107314D01*
X338724Y108087D01*
X338694Y108104D01*
X338823Y108587D01*
X347566D01*
X348151Y108704D01*
X348647Y109035D01*
X393179Y153568D01*
X394796D01*
X394896Y153546D01*
X395036Y153497D01*
X395208Y153417D01*
X395409Y153303D01*
X395635Y153152D01*
X395874Y152971D01*
X396445Y152470D01*
X396752Y152167D01*
X396832Y152114D01*
X397170Y151777D01*
X398116Y151230D01*
X399171Y150947D01*
X400264D01*
X401319Y151230D01*
X402265Y151777D01*
X403038Y152549D01*
X403584Y153495D01*
X403867Y154551D01*
Y155643D01*
X403584Y156699D01*
X403038Y157645D01*
X402265Y158418D01*
X401319Y158964D01*
X400264Y159247D01*
X399171D01*
X398116Y158964D01*
X397170Y158418D01*
X396832Y158080D01*
X396752Y158028D01*
X396445Y157724D01*
X395874Y157223D01*
X395635Y157042D01*
X395409Y156891D01*
X395208Y156777D01*
X395036Y156697D01*
X394896Y156648D01*
X394796Y156626D01*
X394063D01*
X393872Y157088D01*
X397319Y160536D01*
X397405Y160591D01*
X397538Y160656D01*
X397717Y160721D01*
X397940Y160782D01*
X398206Y160835D01*
X398503Y160876D01*
X399261Y160925D01*
X399693Y160928D01*
X399787Y160948D01*
X400264D01*
X401319Y161230D01*
X402265Y161777D01*
X403038Y162549D01*
X403584Y163495D01*
X403867Y164551D01*
Y165643D01*
X403584Y166699D01*
X403038Y167645D01*
X402266Y168417D01*
X402267Y168543D01*
X402367Y168917D01*
X404669D01*
X410278Y163308D01*
Y163290D01*
X410234Y163069D01*
Y132281D01*
X404591Y126637D01*
X404539Y126648D01*
X404399Y126697D01*
X404227Y126777D01*
X404026Y126891D01*
X403800Y127042D01*
X403561Y127223D01*
X402990Y127724D01*
X402683Y128028D01*
X402602Y128080D01*
X402265Y128418D01*
X401319Y128964D01*
X400264Y129247D01*
X399171D01*
X398116Y128964D01*
X397170Y128418D01*
X396397Y127645D01*
X395851Y126699D01*
X395568Y125643D01*
Y124551D01*
X395851Y123495D01*
X396397Y122549D01*
X397170Y121777D01*
X398116Y121230D01*
X399171Y120948D01*
X400264D01*
X401319Y121230D01*
X402265Y121777D01*
X402602Y122114D01*
X402683Y122167D01*
X402990Y122470D01*
X403561Y122971D01*
X403800Y123152D01*
X404026Y123303D01*
X404227Y123417D01*
X404399Y123497D01*
X404539Y123546D01*
X404639Y123568D01*
X405214D01*
X405799Y123684D01*
X406295Y124016D01*
X412845Y130566D01*
X413177Y131062D01*
X413293Y131647D01*
Y162891D01*
X413337Y163113D01*
Y163941D01*
X413221Y164526D01*
X412889Y165023D01*
X406384Y171528D01*
X405888Y171859D01*
X405303Y171976D01*
X403118D01*
X402926Y172437D01*
X403038Y172549D01*
X403584Y173495D01*
X403867Y174551D01*
Y175643D01*
X403584Y176699D01*
X403038Y177645D01*
X402265Y178418D01*
X401319Y178964D01*
X400264Y179247D01*
X399171D01*
X398116Y178964D01*
X397170Y178418D01*
X396397Y177645D01*
X395851Y176699D01*
X395568Y175643D01*
Y174551D01*
X395851Y173495D01*
X396397Y172549D01*
X396509Y172437D01*
X396317Y171976D01*
X364534D01*
X328681Y207827D01*
X328185Y208159D01*
X327600Y208276D01*
X223428D01*
X223362Y208775D01*
X223697Y208865D01*
X224495Y209326D01*
X225147Y209978D01*
X225608Y210776D01*
X225846Y211666D01*
Y212588D01*
X225608Y213478D01*
X225147Y214276D01*
X224495Y214928D01*
X223697Y215388D01*
X222807Y215627D01*
X222435D01*
X222353Y215646D01*
X221733Y215665D01*
X221503Y215689D01*
X221290Y215723D01*
X221108Y215765D01*
X220956Y215812D01*
X220834Y215861D01*
X220742Y215910D01*
X220692Y215944D01*
X197461Y239175D01*
Y309520D01*
X197473Y309580D01*
X197504Y309680D01*
X197555Y309801D01*
X197629Y309941D01*
X197728Y310100D01*
X197846Y310263D01*
X198197Y310672D01*
X198410Y310890D01*
X198462Y310969D01*
X198733Y311240D01*
X199193Y312038D01*
X199432Y312929D01*
Y313850D01*
X199193Y314740D01*
X198733Y315538D01*
X198081Y316190D01*
X197283Y316651D01*
X196393Y316889D01*
X195471D01*
X194581Y316651D01*
X193783Y316190D01*
X193131Y315538D01*
X192671Y314740D01*
X192432Y313850D01*
Y312929D01*
X192671Y312038D01*
X193131Y311240D01*
X193394Y310977D01*
X193439Y310906D01*
X193864Y310454D01*
X194010Y310274D01*
X194136Y310100D01*
X194235Y309941D01*
X194309Y309801D01*
X194360Y309680D01*
X194391Y309580D01*
X194403Y309520D01*
Y238541D01*
X194519Y237956D01*
X194851Y237460D01*
X218529Y213781D01*
X218563Y213731D01*
X218612Y213639D01*
X218661Y213517D01*
X218708Y213365D01*
X218750Y213183D01*
X218782Y212983D01*
X218824Y212447D01*
X218827Y212142D01*
X218846Y212049D01*
Y211666D01*
X219085Y210776D01*
X219546Y209978D01*
X220197Y209326D01*
X220995Y208865D01*
X221331Y208775D01*
X221265Y208276D01*
X203734D01*
X118068Y293941D01*
X118375Y294341D01*
X118899Y294039D01*
X119789Y293800D01*
X120710D01*
X121600Y294039D01*
X122399Y294499D01*
X122538Y294638D01*
X122574Y294658D01*
X122703Y294765D01*
X122805Y294836D01*
X122913Y294900D01*
X123030Y294956D01*
X123155Y295004D01*
X123292Y295046D01*
X123441Y295079D01*
X123603Y295104D01*
X123621Y295106D01*
X129058D01*
X129090Y295102D01*
X129239Y295076D01*
X129372Y295042D01*
X129489Y295001D01*
X129594Y294953D01*
X129689Y294898D01*
X129775Y294837D01*
X129856Y294766D01*
X129965Y294652D01*
X130026Y294608D01*
X130446Y294189D01*
X131244Y293728D01*
X132134Y293490D01*
X133056D01*
X133946Y293728D01*
X134744Y294189D01*
X135396Y294840D01*
X135856Y295638D01*
X136095Y296529D01*
Y297450D01*
X135856Y298340D01*
X135396Y299138D01*
X134744Y299790D01*
X133946Y300251D01*
X133056Y300489D01*
X132134D01*
X131244Y300251D01*
X130446Y299790D01*
X130307Y299651D01*
X130271Y299632D01*
X130142Y299525D01*
X130040Y299453D01*
X129931Y299390D01*
X129815Y299334D01*
X129689Y299285D01*
X129552Y299244D01*
X129403Y299211D01*
X129242Y299186D01*
X129223Y299184D01*
X123787D01*
X123754Y299187D01*
X123605Y299213D01*
X123473Y299248D01*
X123355Y299289D01*
X123250Y299337D01*
X123156Y299391D01*
X123070Y299453D01*
X122989Y299523D01*
X122879Y299638D01*
X122818Y299681D01*
X122399Y300101D01*
X121600Y300562D01*
X120710Y300800D01*
X119789D01*
X118899Y300562D01*
X118101Y300101D01*
X117449Y299449D01*
X116988Y298651D01*
X116750Y297761D01*
Y296839D01*
X116988Y295949D01*
X117290Y295426D01*
X116890Y295119D01*
X45718Y366291D01*
X45683Y366342D01*
X45635Y366434D01*
X45585Y366556D01*
X45538Y366708D01*
X45496Y366890D01*
X45464Y367090D01*
X45423Y367626D01*
X45419Y367931D01*
X45400Y368024D01*
Y368407D01*
X45162Y369297D01*
X44701Y370095D01*
X44049Y370747D01*
X43251Y371208D01*
X42361Y371446D01*
D02*
G37*
G36*
X570658Y132534D02*
X569513D01*
X568406Y132237D01*
X567415Y131665D01*
X566605Y130855D01*
X566032Y129863D01*
X565735Y128757D01*
Y127611D01*
X566032Y126505D01*
X566605Y125513D01*
X567415Y124703D01*
X568406Y124130D01*
X569513Y123834D01*
X570658D01*
X571765Y124130D01*
X572756Y124703D01*
X573566Y125513D01*
X574139Y126505D01*
X574436Y127611D01*
Y128757D01*
X574139Y129863D01*
X573566Y130855D01*
X572756Y131665D01*
X571765Y132237D01*
X570658Y132534D01*
D02*
G37*
G36*
X560658D02*
X559513D01*
X558406Y132237D01*
X557414Y131665D01*
X556605Y130855D01*
X556032Y129863D01*
X555735Y128757D01*
Y127611D01*
X556032Y126505D01*
X556605Y125513D01*
X557414Y124703D01*
X558406Y124130D01*
X559513Y123834D01*
X560658D01*
X561764Y124130D01*
X562756Y124703D01*
X563566Y125513D01*
X564139Y126505D01*
X564435Y127611D01*
Y128757D01*
X564139Y129863D01*
X563566Y130855D01*
X562756Y131665D01*
X561764Y132237D01*
X560658Y132534D01*
D02*
G37*
G36*
X550658D02*
X549513D01*
X548406Y132237D01*
X547414Y131665D01*
X546605Y130855D01*
X546032Y129863D01*
X545736Y128757D01*
Y127611D01*
X546032Y126505D01*
X546605Y125513D01*
X547414Y124703D01*
X548406Y124130D01*
X549513Y123834D01*
X550658D01*
X551764Y124130D01*
X552757Y124703D01*
X553566Y125513D01*
X554139Y126505D01*
X554435Y127611D01*
Y128757D01*
X554139Y129863D01*
X553566Y130855D01*
X552757Y131665D01*
X551764Y132237D01*
X550658Y132534D01*
D02*
G37*
G36*
X19438Y131458D02*
X18346D01*
X17290Y131176D01*
X16344Y130629D01*
X15572Y129857D01*
X15025Y128911D01*
X14742Y127855D01*
Y126763D01*
X15025Y125707D01*
X15572Y124761D01*
X16344Y123988D01*
X17290Y123442D01*
X18346Y123159D01*
X19438D01*
X20494Y123442D01*
X21440Y123988D01*
X22212Y124761D01*
X22759Y125707D01*
X23042Y126763D01*
Y127855D01*
X22759Y128911D01*
X22212Y129857D01*
X21440Y130629D01*
X20494Y131176D01*
X19438Y131458D01*
D02*
G37*
G36*
X480212Y129246D02*
X479119D01*
X478064Y128964D01*
X477118Y128417D01*
X476345Y127645D01*
X475799Y126699D01*
X475516Y125643D01*
Y124551D01*
X475799Y123495D01*
X476345Y122549D01*
X477118Y121776D01*
X478064Y121230D01*
X479119Y120947D01*
X480212D01*
X481267Y121230D01*
X482213Y121776D01*
X482986Y122549D01*
X483532Y123495D01*
X483815Y124551D01*
Y125643D01*
X483532Y126699D01*
X482986Y127645D01*
X482213Y128417D01*
X481267Y128964D01*
X480212Y129246D01*
D02*
G37*
G36*
X90241Y123589D02*
Y120599D01*
X93231D01*
X93003Y121450D01*
X92542Y122248D01*
X91890Y122900D01*
X91092Y123361D01*
X90241Y123589D01*
D02*
G37*
G36*
X89241D02*
X88390Y123361D01*
X87592Y122900D01*
X86940Y122248D01*
X86480Y121450D01*
X86252Y120599D01*
X89241D01*
Y123589D01*
D02*
G37*
G36*
X93231Y119599D02*
X90241D01*
Y116610D01*
X91092Y116838D01*
X91890Y117299D01*
X92542Y117950D01*
X93003Y118748D01*
X93231Y119599D01*
D02*
G37*
G36*
X89241D02*
X86252D01*
X86480Y118748D01*
X86940Y117950D01*
X87592Y117299D01*
X88390Y116838D01*
X89241Y116610D01*
Y119599D01*
D02*
G37*
G36*
X480212Y119246D02*
X479119D01*
X478064Y118964D01*
X477118Y118417D01*
X476345Y117645D01*
X475799Y116699D01*
X475516Y115643D01*
Y114551D01*
X475799Y113495D01*
X476345Y112549D01*
X477118Y111776D01*
X478064Y111230D01*
X479119Y110947D01*
X480212D01*
X481267Y111230D01*
X482213Y111776D01*
X482986Y112549D01*
X483532Y113495D01*
X483815Y114551D01*
Y115643D01*
X483532Y116699D01*
X482986Y117645D01*
X482213Y118417D01*
X481267Y118964D01*
X480212Y119246D01*
D02*
G37*
G36*
X682637Y115224D02*
X681637D01*
X680670Y114965D01*
X679804Y114465D01*
X679096Y113757D01*
X678596Y112891D01*
X678337Y111924D01*
Y110924D01*
X678596Y109957D01*
X679096Y109091D01*
X679804Y108383D01*
X680670Y107883D01*
X681637Y107624D01*
X682637D01*
X683604Y107883D01*
X684470Y108383D01*
X685178Y109091D01*
X685678Y109957D01*
X685937Y110924D01*
Y111924D01*
X685678Y112891D01*
X685178Y113757D01*
X684470Y114465D01*
X683604Y114965D01*
X682637Y115224D01*
D02*
G37*
G36*
X550310Y180944D02*
X549389D01*
X548499Y180705D01*
X547701Y180245D01*
X547049Y179593D01*
X546588Y178795D01*
X546349Y177905D01*
Y176983D01*
X546588Y176093D01*
X547049Y175295D01*
X547375Y174969D01*
X482064Y109658D01*
X481978Y109603D01*
X481844Y109538D01*
X481666Y109473D01*
X481443Y109412D01*
X481177Y109359D01*
X480880Y109318D01*
X480122Y109269D01*
X479690Y109266D01*
X479596Y109247D01*
X479119D01*
X478064Y108964D01*
X477118Y108417D01*
X476345Y107645D01*
X475799Y106699D01*
X475516Y105643D01*
Y104551D01*
X475799Y103495D01*
X476345Y102549D01*
X477118Y101776D01*
X478064Y101230D01*
X479119Y100947D01*
X480212D01*
X481267Y101230D01*
X482213Y101776D01*
X482986Y102549D01*
X483532Y103495D01*
X483815Y104551D01*
Y105027D01*
X483835Y105122D01*
X483837Y105553D01*
X483886Y106312D01*
X483928Y106608D01*
X483981Y106875D01*
X484042Y107098D01*
X484107Y107276D01*
X484172Y107409D01*
X484227Y107495D01*
X550166Y173434D01*
X550497Y173930D01*
X550511Y173997D01*
X551200Y174182D01*
X551999Y174643D01*
X552650Y175295D01*
X553111Y176093D01*
X553349Y176983D01*
Y177905D01*
X553111Y178795D01*
X552650Y179593D01*
X551999Y180245D01*
X551200Y180705D01*
X550310Y180944D01*
D02*
G37*
G36*
X205526Y136627D02*
X204604D01*
X203714Y136389D01*
X202916Y135928D01*
X202264Y135276D01*
X201803Y134478D01*
X201565Y133588D01*
Y132667D01*
X201803Y131776D01*
X202264Y130978D01*
X202916Y130327D01*
X203714Y129866D01*
X204604Y129628D01*
X205526D01*
X205950Y129741D01*
X206044Y129747D01*
X206303Y129816D01*
X206508Y129856D01*
X206686Y129877D01*
X206837Y129881D01*
X206960Y129871D01*
X207057Y129853D01*
X207134Y129828D01*
X207196Y129799D01*
X207238Y129771D01*
X230456Y106553D01*
X230505Y106479D01*
X230585Y106330D01*
X230676Y106126D01*
X230766Y105893D01*
X231204Y104356D01*
X231311Y103881D01*
X231311Y103881D01*
X231311Y103880D01*
X231350Y103793D01*
X231518Y103165D01*
X232064Y102218D01*
X232837Y101446D01*
X233783Y100900D01*
X234839Y100617D01*
X235931D01*
X236987Y100900D01*
X237933Y101446D01*
X238705Y102218D01*
X239252Y103165D01*
X239534Y104220D01*
Y105313D01*
X239252Y106368D01*
X238705Y107314D01*
X237933Y108087D01*
X236987Y108633D01*
X235931Y108916D01*
X234839D01*
X234519Y108830D01*
X234452Y108829D01*
X234069Y108749D01*
X233743Y108699D01*
X233453Y108673D01*
X233200Y108669D01*
X232985Y108685D01*
X232808Y108715D01*
X232668Y108757D01*
X232561Y108804D01*
X232480Y108855D01*
X209201Y132134D01*
X209180Y132164D01*
X209019Y132453D01*
X208950Y132605D01*
X208552Y133735D01*
X208454Y134078D01*
X208454Y134078D01*
X208454Y134078D01*
X208412Y134159D01*
X208327Y134478D01*
X207866Y135276D01*
X207214Y135928D01*
X206416Y136389D01*
X205526Y136627D01*
D02*
G37*
G36*
X400264Y99247D02*
X399171D01*
X398116Y98964D01*
X397170Y98418D01*
X396397Y97645D01*
X395851Y96699D01*
X395568Y95643D01*
Y94551D01*
X395851Y93495D01*
X396397Y92549D01*
X397170Y91777D01*
X398116Y91230D01*
X399171Y90948D01*
X400264D01*
X401319Y91230D01*
X402265Y91777D01*
X403038Y92549D01*
X403584Y93495D01*
X403867Y94551D01*
Y95643D01*
X403584Y96699D01*
X403038Y97645D01*
X402265Y98418D01*
X401319Y98964D01*
X400264Y99247D01*
D02*
G37*
G36*
X602461Y249046D02*
X601539D01*
X600649Y248808D01*
X599851Y248347D01*
X599199Y247695D01*
X598739Y246897D01*
X598500Y246007D01*
Y245635D01*
X598481Y245552D01*
X598462Y244933D01*
X598438Y244702D01*
X598404Y244490D01*
X598362Y244308D01*
X598315Y244156D01*
X598266Y244034D01*
X598217Y243942D01*
X598182Y243891D01*
X557743Y203452D01*
X557412Y202956D01*
X557296Y202371D01*
Y172180D01*
X556902Y171786D01*
X554825D01*
X554240Y171669D01*
X553743Y171338D01*
X482064Y99658D01*
X481978Y99603D01*
X481844Y99538D01*
X481666Y99473D01*
X481443Y99412D01*
X481177Y99359D01*
X480880Y99318D01*
X480122Y99269D01*
X479690Y99266D01*
X479596Y99247D01*
X479119D01*
X478064Y98964D01*
X477118Y98417D01*
X476345Y97645D01*
X475799Y96699D01*
X475516Y95643D01*
Y94551D01*
X475799Y93495D01*
X476345Y92549D01*
X477118Y91776D01*
X478064Y91230D01*
X479119Y90947D01*
X480212D01*
X481267Y91230D01*
X482213Y91776D01*
X482986Y92549D01*
X483532Y93495D01*
X483815Y94551D01*
Y95027D01*
X483835Y95122D01*
X483837Y95553D01*
X483886Y96311D01*
X483928Y96608D01*
X483981Y96875D01*
X484042Y97098D01*
X484107Y97276D01*
X484172Y97409D01*
X484227Y97495D01*
X555458Y168727D01*
X557535D01*
X558120Y168843D01*
X558616Y169175D01*
X559906Y170465D01*
X560238Y170961D01*
X560354Y171546D01*
Y201737D01*
X600345Y241728D01*
X600396Y241763D01*
X600488Y241812D01*
X600610Y241861D01*
X600762Y241908D01*
X600944Y241950D01*
X601144Y241982D01*
X601680Y242024D01*
X601985Y242027D01*
X602078Y242046D01*
X602461D01*
X603351Y242285D01*
X604149Y242745D01*
X604801Y243397D01*
X605262Y244195D01*
X605500Y245085D01*
Y246007D01*
X605262Y246897D01*
X604801Y247695D01*
X604149Y248347D01*
X603351Y248808D01*
X602461Y249046D01*
D02*
G37*
G36*
X336722Y98916D02*
X335630D01*
X334574Y98633D01*
X333628Y98087D01*
X332856Y97314D01*
X332309Y96368D01*
X332027Y95313D01*
Y94220D01*
X332309Y93165D01*
X332856Y92218D01*
X333628Y91446D01*
X334574Y90899D01*
X335630Y90617D01*
X336722D01*
X337778Y90899D01*
X338724Y91446D01*
X339497Y92218D01*
X340043Y93165D01*
X340326Y94220D01*
Y95313D01*
X340043Y96368D01*
X339497Y97314D01*
X338724Y98087D01*
X337778Y98633D01*
X336722Y98916D01*
D02*
G37*
G36*
X235931D02*
X234839D01*
X233783Y98633D01*
X232837Y98087D01*
X232064Y97314D01*
X231518Y96368D01*
X231235Y95313D01*
Y94220D01*
X231518Y93165D01*
X232064Y92218D01*
X232837Y91446D01*
X233783Y90899D01*
X234839Y90617D01*
X235931D01*
X236987Y90899D01*
X237933Y91446D01*
X238705Y92218D01*
X239252Y93165D01*
X239534Y94220D01*
Y95313D01*
X239252Y96368D01*
X238705Y97314D01*
X237933Y98087D01*
X236987Y98633D01*
X235931Y98916D01*
D02*
G37*
G36*
X682637Y105381D02*
X681637D01*
X680670Y105122D01*
X679804Y104622D01*
X679096Y103914D01*
X678596Y103048D01*
X678337Y102081D01*
Y101081D01*
X678596Y100114D01*
X679096Y99248D01*
X679804Y98540D01*
X680670Y98040D01*
X681182Y97903D01*
Y97385D01*
X680670Y97248D01*
X679804Y96748D01*
X679096Y96040D01*
X678596Y95174D01*
X678337Y94207D01*
Y93207D01*
X678596Y92240D01*
X679096Y91374D01*
X679804Y90666D01*
X680670Y90166D01*
X681637Y89907D01*
X682637D01*
X683604Y90166D01*
X684470Y90666D01*
X685178Y91374D01*
X685678Y92240D01*
X685937Y93207D01*
Y94207D01*
X685678Y95174D01*
X685178Y96040D01*
X684470Y96748D01*
X683604Y97248D01*
X683092Y97385D01*
Y97903D01*
X683604Y98040D01*
X684470Y98540D01*
X685178Y99248D01*
X685678Y100114D01*
X685937Y101081D01*
Y102081D01*
X685678Y103048D01*
X685178Y103914D01*
X684470Y104622D01*
X683604Y105122D01*
X682637Y105381D01*
D02*
G37*
G36*
X400264Y149247D02*
X399171D01*
X398116Y148964D01*
X397170Y148418D01*
X396397Y147645D01*
X395851Y146699D01*
X395568Y145643D01*
Y145167D01*
X395549Y145072D01*
X395546Y144641D01*
X395497Y143883D01*
X395455Y143586D01*
X395402Y143319D01*
X395341Y143096D01*
X395276Y142918D01*
X395211Y142785D01*
X395156Y142699D01*
X339931Y87473D01*
X339281Y87530D01*
X338724Y88087D01*
X337778Y88633D01*
X336722Y88916D01*
X335630D01*
X334574Y88633D01*
X333628Y88087D01*
X332856Y87314D01*
X332309Y86368D01*
X332027Y85313D01*
Y84220D01*
X332309Y83165D01*
X332856Y82218D01*
X333628Y81446D01*
X334574Y80900D01*
X335630Y80617D01*
X336722D01*
X337778Y80900D01*
X338724Y81446D01*
X339497Y82218D01*
X340043Y83165D01*
X340120Y83452D01*
X340468Y83685D01*
X397319Y140536D01*
X397405Y140591D01*
X397538Y140656D01*
X397717Y140721D01*
X397940Y140782D01*
X398206Y140835D01*
X398503Y140876D01*
X399261Y140925D01*
X399693Y140928D01*
X399787Y140947D01*
X400264D01*
X401319Y141230D01*
X402265Y141777D01*
X403038Y142549D01*
X403584Y143495D01*
X403867Y144551D01*
Y145643D01*
X403584Y146699D01*
X403038Y147645D01*
X402265Y148418D01*
X401319Y148964D01*
X400264Y149247D01*
D02*
G37*
G36*
X679961Y147946D02*
X679039D01*
X678149Y147708D01*
X677351Y147247D01*
X676699Y146595D01*
X676239Y145797D01*
X676000Y144907D01*
Y144535D01*
X675981Y144453D01*
X675962Y143833D01*
X675938Y143602D01*
X675904Y143390D01*
X675862Y143208D01*
X675815Y143056D01*
X675766Y142934D01*
X675717Y142842D01*
X675682Y142791D01*
X619517Y86626D01*
X484587D01*
X484487Y86648D01*
X484347Y86697D01*
X484175Y86777D01*
X483974Y86891D01*
X483748Y87042D01*
X483509Y87223D01*
X482938Y87724D01*
X482631Y88027D01*
X482550Y88080D01*
X482213Y88417D01*
X481267Y88964D01*
X480212Y89246D01*
X479119D01*
X478064Y88964D01*
X477118Y88417D01*
X476345Y87645D01*
X475799Y86699D01*
X475516Y85643D01*
Y84551D01*
X475799Y83495D01*
X476345Y82549D01*
X477118Y81776D01*
X478064Y81230D01*
X479119Y80947D01*
X480212D01*
X481267Y81230D01*
X482213Y81776D01*
X482550Y82113D01*
X482631Y82166D01*
X482938Y82469D01*
X483509Y82971D01*
X483748Y83152D01*
X483974Y83303D01*
X484175Y83417D01*
X484347Y83497D01*
X484487Y83546D01*
X484587Y83568D01*
X620151D01*
X620736Y83684D01*
X621232Y84015D01*
X677845Y140629D01*
X677896Y140663D01*
X677988Y140712D01*
X678110Y140761D01*
X678262Y140808D01*
X678444Y140850D01*
X678644Y140882D01*
X679180Y140924D01*
X679485Y140927D01*
X679578Y140946D01*
X679961D01*
X680851Y141185D01*
X681649Y141645D01*
X682301Y142297D01*
X682762Y143095D01*
X683000Y143985D01*
Y144907D01*
X682762Y145797D01*
X682301Y146595D01*
X681649Y147247D01*
X680851Y147708D01*
X679961Y147946D01*
D02*
G37*
G36*
X400264Y89247D02*
X399171D01*
X398116Y88964D01*
X397170Y88418D01*
X396397Y87645D01*
X395851Y86699D01*
X395568Y85643D01*
Y84551D01*
X395851Y83495D01*
X396397Y82549D01*
X397170Y81777D01*
X398116Y81230D01*
X399171Y80948D01*
X400264D01*
X401319Y81230D01*
X402265Y81777D01*
X403038Y82549D01*
X403584Y83495D01*
X403867Y84551D01*
Y85643D01*
X403584Y86699D01*
X403038Y87645D01*
X402265Y88418D01*
X401319Y88964D01*
X400264Y89247D01*
D02*
G37*
G36*
X682637Y87664D02*
X681637D01*
X680670Y87405D01*
X679804Y86905D01*
X679096Y86198D01*
X678596Y85331D01*
X678337Y84364D01*
Y83364D01*
X678596Y82398D01*
X679096Y81531D01*
X679804Y80823D01*
X680670Y80323D01*
X681637Y80064D01*
X682637D01*
X683604Y80323D01*
X684470Y80823D01*
X685178Y81531D01*
X685678Y82398D01*
X685937Y83364D01*
Y84364D01*
X685678Y85331D01*
X685178Y86198D01*
X684470Y86905D01*
X683604Y87405D01*
X682637Y87664D01*
D02*
G37*
G36*
X403867Y79247D02*
X395568D01*
Y70947D01*
X403867D01*
Y79247D01*
D02*
G37*
G36*
X15625Y80444D02*
X14309D01*
X13037Y80103D01*
X11897Y79445D01*
X10966Y78514D01*
X10308Y77374D01*
X9967Y76102D01*
Y74786D01*
X10308Y73514D01*
X10966Y72374D01*
X11897Y71443D01*
X13037Y70785D01*
X14309Y70444D01*
X15625D01*
X16897Y70785D01*
X18037Y71443D01*
X18968Y72374D01*
X19626Y73514D01*
X19967Y74786D01*
Y76102D01*
X19626Y77374D01*
X18968Y78514D01*
X18037Y79445D01*
X16897Y80103D01*
X15625Y80444D01*
D02*
G37*
G36*
X480212Y69247D02*
X479119D01*
X478064Y68964D01*
X477118Y68417D01*
X476345Y67645D01*
X475799Y66699D01*
X475516Y65643D01*
Y64551D01*
X475799Y63495D01*
X476345Y62549D01*
X477118Y61776D01*
X478064Y61230D01*
X479119Y60947D01*
X480212D01*
X481267Y61230D01*
X482213Y61776D01*
X482986Y62549D01*
X483532Y63495D01*
X483815Y64551D01*
Y65643D01*
X483532Y66699D01*
X482986Y67645D01*
X482213Y68417D01*
X481267Y68964D01*
X480212Y69247D01*
D02*
G37*
G36*
X588425Y59174D02*
Y56185D01*
X591415D01*
X591187Y57036D01*
X590726Y57834D01*
X590074Y58485D01*
X589276Y58946D01*
X588425Y59174D01*
D02*
G37*
G36*
X587425D02*
X586574Y58946D01*
X585776Y58485D01*
X585124Y57834D01*
X584664Y57036D01*
X584436Y56185D01*
X587425D01*
Y59174D01*
D02*
G37*
G36*
X591415Y55185D02*
X588425D01*
Y52195D01*
X589276Y52423D01*
X590074Y52884D01*
X590726Y53536D01*
X591187Y54334D01*
X591415Y55185D01*
D02*
G37*
G36*
X587425D02*
X584436D01*
X584664Y54334D01*
X585124Y53536D01*
X585776Y52884D01*
X586574Y52423D01*
X587425Y52195D01*
Y55185D01*
D02*
G37*
G36*
X480212Y59246D02*
X479119D01*
X478064Y58964D01*
X477118Y58417D01*
X476345Y57645D01*
X475799Y56699D01*
X475516Y55643D01*
Y54551D01*
X475799Y53495D01*
X476345Y52549D01*
X477118Y51776D01*
X478064Y51230D01*
X479119Y50947D01*
X480212D01*
X481267Y51230D01*
X482213Y51776D01*
X482986Y52549D01*
X483532Y53495D01*
X483815Y54551D01*
Y55643D01*
X483532Y56699D01*
X482986Y57645D01*
X482213Y58417D01*
X481267Y58964D01*
X480212Y59246D01*
D02*
G37*
G36*
Y49246D02*
X480165D01*
Y45597D01*
X483815D01*
Y45643D01*
X483532Y46699D01*
X482986Y47645D01*
X482213Y48417D01*
X481267Y48964D01*
X480212Y49246D01*
D02*
G37*
G36*
X479166D02*
X479119D01*
X478064Y48964D01*
X477118Y48417D01*
X476345Y47645D01*
X475799Y46699D01*
X475516Y45643D01*
Y45597D01*
X479166D01*
Y49246D01*
D02*
G37*
G36*
X483815Y44597D02*
X480165D01*
Y40947D01*
X480212D01*
X481267Y41230D01*
X482213Y41776D01*
X482986Y42549D01*
X483532Y43495D01*
X483815Y44551D01*
Y44597D01*
D02*
G37*
G36*
X479166D02*
X475516D01*
Y44551D01*
X475799Y43495D01*
X476345Y42549D01*
X477118Y41776D01*
X478064Y41230D01*
X479119Y40947D01*
X479166D01*
Y44597D01*
D02*
G37*
G36*
X650813Y55750D02*
X649188D01*
X647594Y55433D01*
X646092Y54811D01*
X644741Y53908D01*
X643592Y52759D01*
X642689Y51408D01*
X642067Y49906D01*
X641750Y48313D01*
Y46687D01*
X642067Y45094D01*
X642689Y43592D01*
X643592Y42241D01*
X644741Y41092D01*
X646092Y40189D01*
X647594Y39567D01*
X649188Y39250D01*
X650813D01*
X652407Y39567D01*
X653908Y40189D01*
X655259Y41092D01*
X656408Y42241D01*
X657311Y43592D01*
X657933Y45094D01*
X658250Y46687D01*
Y48313D01*
X657933Y49906D01*
X657311Y51408D01*
X656408Y52759D01*
X655259Y53908D01*
X653908Y54811D01*
X652407Y55433D01*
X650813Y55750D01*
D02*
G37*
G36*
X50813D02*
X49187D01*
X47594Y55433D01*
X46092Y54811D01*
X44741Y53908D01*
X43592Y52759D01*
X42689Y51408D01*
X42067Y49906D01*
X41750Y48313D01*
Y46687D01*
X42067Y45094D01*
X42689Y43592D01*
X43592Y42241D01*
X44741Y41092D01*
X46092Y40189D01*
X47594Y39567D01*
X49187Y39250D01*
X50813D01*
X52407Y39567D01*
X53908Y40189D01*
X55259Y41092D01*
X56408Y42241D01*
X57311Y43592D01*
X57933Y45094D01*
X58250Y46687D01*
Y48313D01*
X57933Y49906D01*
X57311Y51408D01*
X56408Y52759D01*
X55259Y53908D01*
X53908Y54811D01*
X52407Y55433D01*
X50813Y55750D01*
D02*
G37*
G36*
X483815Y39246D02*
X475516D01*
Y30947D01*
X483815D01*
Y39246D01*
D02*
G37*
%LPD*%
G36*
X587415Y260796D02*
X587173Y261034D01*
X586705Y261434D01*
X586480Y261596D01*
X586261Y261734D01*
X586048Y261846D01*
X585840Y261934D01*
X585638Y261996D01*
X585441Y262034D01*
X585251Y262046D01*
Y263046D01*
X585441Y263059D01*
X585638Y263096D01*
X585840Y263159D01*
X586048Y263246D01*
X586261Y263359D01*
X586480Y263496D01*
X586705Y263659D01*
X586936Y263846D01*
X587415Y264296D01*
Y260796D01*
D02*
G37*
G36*
X399104Y220359D02*
X399571Y219959D01*
X399796Y219796D01*
X400015Y219659D01*
X400229Y219546D01*
X400436Y219459D01*
X400639Y219396D01*
X400835Y219359D01*
X401026Y219346D01*
Y218346D01*
X400835Y218334D01*
X400639Y218296D01*
X400436Y218234D01*
X400229Y218146D01*
X400015Y218034D01*
X399796Y217896D01*
X399571Y217734D01*
X399340Y217546D01*
X398861Y217096D01*
Y220596D01*
X399104Y220359D01*
D02*
G37*
G36*
X356003Y259509D02*
X355761Y259747D01*
X355294Y260147D01*
X355069Y260309D01*
X354850Y260447D01*
X354636Y260559D01*
X354428Y260647D01*
X354226Y260709D01*
X354030Y260747D01*
X353839Y260759D01*
Y261759D01*
X354030Y261772D01*
X354226Y261809D01*
X354428Y261872D01*
X354636Y261959D01*
X354850Y262072D01*
X355069Y262209D01*
X355294Y262372D01*
X355525Y262559D01*
X356003Y263009D01*
Y259509D01*
D02*
G37*
G36*
X233846Y214785D02*
X233720Y214642D01*
X233608Y214476D01*
X233509Y214289D01*
X233424Y214080D01*
X233353Y213850D01*
X233295Y213597D01*
X233251Y213323D01*
X233220Y213028D01*
X233200Y212371D01*
X230725Y214846D01*
X231064Y214849D01*
X231678Y214897D01*
X231951Y214941D01*
X232204Y214999D01*
X232434Y215070D01*
X232643Y215155D01*
X232830Y215254D01*
X232996Y215366D01*
X233139Y215492D01*
X233846Y214785D01*
D02*
G37*
G36*
X484948Y247234D02*
X484706Y247471D01*
X484239Y247871D01*
X484014Y248034D01*
X483795Y248171D01*
X483581Y248284D01*
X483373Y248371D01*
X483171Y248434D01*
X482975Y248471D01*
X482784Y248484D01*
Y249484D01*
X482975Y249496D01*
X483171Y249534D01*
X483373Y249596D01*
X483581Y249684D01*
X483795Y249796D01*
X484014Y249934D01*
X484239Y250096D01*
X484470Y250284D01*
X484948Y250734D01*
Y247234D01*
D02*
G37*
G36*
X342928Y214159D02*
X343395Y213759D01*
X343620Y213596D01*
X343839Y213459D01*
X344053Y213346D01*
X344261Y213259D01*
X344463Y213196D01*
X344659Y213159D01*
X344850Y213146D01*
Y212146D01*
X344659Y212134D01*
X344463Y212096D01*
X344261Y212034D01*
X344053Y211946D01*
X343839Y211834D01*
X343620Y211696D01*
X343395Y211534D01*
X343164Y211346D01*
X342685Y210896D01*
Y214396D01*
X342928Y214159D01*
D02*
G37*
G36*
X592334Y356005D02*
X591995Y356002D01*
X591382Y355955D01*
X591108Y355910D01*
X590856Y355853D01*
X590625Y355781D01*
X590416Y355696D01*
X590229Y355597D01*
X590064Y355485D01*
X589920Y355359D01*
X589213Y356066D01*
X589339Y356210D01*
X589451Y356375D01*
X589550Y356562D01*
X589635Y356771D01*
X589707Y357002D01*
X589764Y357254D01*
X589809Y357528D01*
X589839Y357824D01*
X589859Y358480D01*
X592334Y356005D01*
D02*
G37*
G36*
X404083Y232159D02*
X404551Y231759D01*
X404776Y231596D01*
X404995Y231459D01*
X405208Y231346D01*
X405416Y231259D01*
X405618Y231196D01*
X405815Y231159D01*
X406005Y231146D01*
Y230146D01*
X405815Y230134D01*
X405618Y230096D01*
X405416Y230034D01*
X405208Y229946D01*
X404995Y229834D01*
X404776Y229696D01*
X404551Y229534D01*
X404320Y229346D01*
X403841Y228896D01*
Y232396D01*
X404083Y232159D01*
D02*
G37*
G36*
X261483Y197164D02*
X261193Y197246D01*
X260919Y197304D01*
X260659Y197337D01*
X260414Y197347D01*
X260184Y197332D01*
X259968Y197292D01*
X259767Y197228D01*
X259581Y197140D01*
X259410Y197028D01*
X259254Y196891D01*
X258769Y197820D01*
X258870Y197935D01*
X258973Y198078D01*
X259076Y198250D01*
X259181Y198450D01*
X259396Y198937D01*
X259616Y199539D01*
X259843Y200256D01*
X261483Y197164D01*
D02*
G37*
G36*
X239643Y177279D02*
X239525Y177142D01*
X239408Y176963D01*
X239290Y176744D01*
X239172Y176484D01*
X238934Y175841D01*
X238695Y175034D01*
X238455Y174063D01*
X236149Y177822D01*
X236556Y177731D01*
X236939Y177667D01*
X237296Y177632D01*
X237629Y177624D01*
X237937Y177644D01*
X238221Y177691D01*
X238479Y177766D01*
X238713Y177869D01*
X238923Y178000D01*
X239107Y178158D01*
X239643Y177279D01*
D02*
G37*
G36*
X403128Y203759D02*
X403595Y203359D01*
X403820Y203196D01*
X404039Y203059D01*
X404253Y202946D01*
X404460Y202859D01*
X404663Y202796D01*
X404859Y202759D01*
X405050Y202746D01*
Y201746D01*
X404859Y201734D01*
X404663Y201696D01*
X404460Y201634D01*
X404253Y201546D01*
X404039Y201434D01*
X403820Y201296D01*
X403595Y201134D01*
X403364Y200946D01*
X402885Y200496D01*
Y203996D01*
X403128Y203759D01*
D02*
G37*
G36*
X548235Y192546D02*
X548391Y192437D01*
X548572Y192334D01*
X548779Y192237D01*
X549011Y192145D01*
X549269Y192060D01*
X549860Y191906D01*
X550194Y191838D01*
X550553Y191776D01*
X547701Y189749D01*
X547748Y190062D01*
X547776Y190358D01*
X547784Y190635D01*
X547771Y190895D01*
X547739Y191137D01*
X547686Y191360D01*
X547613Y191566D01*
X547521Y191754D01*
X547408Y191924D01*
X547275Y192076D01*
X548104Y192661D01*
X548235Y192546D01*
D02*
G37*
G36*
X172028Y193059D02*
X172495Y192659D01*
X172720Y192496D01*
X172939Y192359D01*
X173153Y192246D01*
X173361Y192159D01*
X173563Y192096D01*
X173759Y192059D01*
X173950Y192046D01*
Y191046D01*
X173759Y191034D01*
X173563Y190996D01*
X173361Y190934D01*
X173153Y190846D01*
X172939Y190734D01*
X172720Y190596D01*
X172495Y190434D01*
X172264Y190246D01*
X171785Y189796D01*
Y193296D01*
X172028Y193059D01*
D02*
G37*
G36*
X232372Y148510D02*
X232574Y148381D01*
X232807Y148268D01*
X233074Y148170D01*
X233372Y148089D01*
X233704Y148023D01*
X234067Y147972D01*
X234892Y147919D01*
X235353Y147916D01*
X232235Y144798D01*
X232232Y145259D01*
X232179Y146084D01*
X232129Y146448D01*
X232063Y146779D01*
X231981Y147078D01*
X231883Y147344D01*
X231770Y147578D01*
X231641Y147779D01*
X231496Y147948D01*
X232203Y148655D01*
X232372Y148510D01*
D02*
G37*
G36*
X72787Y247877D02*
X72835Y247264D01*
X72879Y246990D01*
X72937Y246738D01*
X73008Y246507D01*
X73093Y246299D01*
X73192Y246111D01*
X73304Y245946D01*
X73430Y245802D01*
X72723Y245095D01*
X72580Y245221D01*
X72414Y245334D01*
X72227Y245432D01*
X72018Y245517D01*
X71788Y245589D01*
X71535Y245647D01*
X71262Y245691D01*
X70966Y245721D01*
X70309Y245742D01*
X72784Y248217D01*
X72787Y247877D01*
D02*
G37*
G36*
X399686Y111948D02*
X399225Y111944D01*
X398400Y111891D01*
X398036Y111841D01*
X397705Y111775D01*
X397406Y111693D01*
X397140Y111595D01*
X396906Y111482D01*
X396705Y111353D01*
X396536Y111208D01*
X395829Y111916D01*
X395973Y112084D01*
X396103Y112286D01*
X396216Y112520D01*
X396313Y112786D01*
X396395Y113085D01*
X396461Y113416D01*
X396512Y113779D01*
X396565Y114604D01*
X396568Y115066D01*
X399686Y111948D01*
D02*
G37*
G36*
Y101948D02*
X399225Y101944D01*
X398400Y101891D01*
X398036Y101841D01*
X397705Y101775D01*
X397406Y101693D01*
X397140Y101595D01*
X396906Y101482D01*
X396705Y101353D01*
X396536Y101208D01*
X395829Y101916D01*
X395973Y102084D01*
X396103Y102286D01*
X396216Y102520D01*
X396313Y102786D01*
X396395Y103085D01*
X396461Y103416D01*
X396512Y103779D01*
X396565Y104604D01*
X396568Y105066D01*
X399686Y101948D01*
D02*
G37*
G36*
X340065Y77948D02*
X339920Y77779D01*
X339791Y77578D01*
X339678Y77344D01*
X339580Y77078D01*
X339498Y76779D01*
X339432Y76447D01*
X339382Y76084D01*
X339329Y75259D01*
X339325Y74798D01*
X336208Y77916D01*
X336669Y77919D01*
X337494Y77972D01*
X337857Y78023D01*
X338189Y78089D01*
X338487Y78170D01*
X338754Y78268D01*
X338987Y78381D01*
X339189Y78510D01*
X339358Y78655D01*
X340065Y77948D01*
D02*
G37*
G36*
X477416Y72892D02*
X477088Y73216D01*
X476467Y73762D01*
X476174Y73983D01*
X475893Y74171D01*
X475624Y74324D01*
X475367Y74443D01*
X475121Y74529D01*
X474888Y74580D01*
X474666Y74597D01*
Y75597D01*
X474888Y75614D01*
X475121Y75665D01*
X475367Y75750D01*
X475624Y75870D01*
X475893Y76023D01*
X476174Y76211D01*
X476467Y76432D01*
X477088Y76978D01*
X477416Y77302D01*
Y72892D01*
D02*
G37*
G36*
X69128Y63859D02*
X69595Y63459D01*
X69820Y63296D01*
X70039Y63159D01*
X70253Y63046D01*
X70460Y62959D01*
X70663Y62896D01*
X70859Y62859D01*
X71050Y62846D01*
Y61846D01*
X70859Y61834D01*
X70663Y61796D01*
X70460Y61734D01*
X70253Y61646D01*
X70039Y61534D01*
X69820Y61396D01*
X69595Y61234D01*
X69364Y61046D01*
X68885Y60596D01*
Y64096D01*
X69128Y63859D01*
D02*
G37*
G36*
X282503Y62682D02*
X282551Y62069D01*
X282595Y61795D01*
X282653Y61542D01*
X282724Y61312D01*
X282809Y61103D01*
X282908Y60916D01*
X283020Y60751D01*
X283146Y60607D01*
X282439Y59900D01*
X282296Y60026D01*
X282130Y60138D01*
X281943Y60237D01*
X281734Y60322D01*
X281504Y60393D01*
X281252Y60451D01*
X280978Y60495D01*
X280682Y60526D01*
X280025Y60546D01*
X282500Y63021D01*
X282503Y62682D01*
D02*
G37*
G36*
X133403Y218887D02*
X133451Y218274D01*
X133495Y218000D01*
X133553Y217747D01*
X133624Y217517D01*
X133709Y217308D01*
X133808Y217121D01*
X133920Y216956D01*
X134046Y216812D01*
X133339Y216105D01*
X133196Y216231D01*
X133030Y216343D01*
X132843Y216442D01*
X132634Y216527D01*
X132404Y216598D01*
X132151Y216656D01*
X131878Y216700D01*
X131582Y216731D01*
X130925Y216751D01*
X133400Y219226D01*
X133403Y218887D01*
D02*
G37*
G36*
X192728Y163959D02*
X193195Y163559D01*
X193420Y163396D01*
X193639Y163259D01*
X193853Y163146D01*
X194061Y163059D01*
X194263Y162996D01*
X194459Y162959D01*
X194650Y162946D01*
Y161946D01*
X194459Y161934D01*
X194263Y161896D01*
X194061Y161834D01*
X193853Y161746D01*
X193639Y161634D01*
X193420Y161496D01*
X193195Y161334D01*
X192964Y161146D01*
X192485Y160696D01*
Y164196D01*
X192728Y163959D01*
D02*
G37*
G36*
X198028Y159759D02*
X198495Y159359D01*
X198720Y159196D01*
X198939Y159059D01*
X199153Y158946D01*
X199361Y158859D01*
X199563Y158796D01*
X199759Y158759D01*
X199950Y158746D01*
Y157746D01*
X199759Y157734D01*
X199563Y157696D01*
X199361Y157634D01*
X199153Y157546D01*
X198939Y157434D01*
X198720Y157296D01*
X198495Y157134D01*
X198264Y156946D01*
X197785Y156496D01*
Y159996D01*
X198028Y159759D01*
D02*
G37*
G36*
X232372Y138510D02*
X232574Y138381D01*
X232807Y138268D01*
X233074Y138170D01*
X233372Y138089D01*
X233704Y138023D01*
X234067Y137972D01*
X234892Y137919D01*
X235353Y137916D01*
X232235Y134798D01*
X232232Y135259D01*
X232179Y136084D01*
X232129Y136448D01*
X232063Y136779D01*
X231981Y137077D01*
X231883Y137344D01*
X231770Y137578D01*
X231641Y137779D01*
X231496Y137948D01*
X232203Y138655D01*
X232372Y138510D01*
D02*
G37*
G36*
Y128510D02*
X232574Y128381D01*
X232807Y128268D01*
X233074Y128170D01*
X233372Y128089D01*
X233704Y128023D01*
X234067Y127972D01*
X234892Y127919D01*
X235353Y127916D01*
X232235Y124798D01*
X232232Y125259D01*
X232179Y126084D01*
X232129Y126447D01*
X232063Y126779D01*
X231981Y127077D01*
X231883Y127344D01*
X231770Y127578D01*
X231641Y127779D01*
X231496Y127948D01*
X232203Y128655D01*
X232372Y128510D01*
D02*
G37*
G36*
Y118510D02*
X232574Y118381D01*
X232807Y118268D01*
X233074Y118170D01*
X233372Y118089D01*
X233704Y118023D01*
X234067Y117972D01*
X234892Y117919D01*
X235353Y117916D01*
X232235Y114798D01*
X232232Y115259D01*
X232179Y116084D01*
X232129Y116447D01*
X232063Y116779D01*
X231981Y117078D01*
X231883Y117344D01*
X231770Y117578D01*
X231641Y117779D01*
X231496Y117948D01*
X232203Y118655D01*
X232372Y118510D01*
D02*
G37*
G36*
X44403Y367582D02*
X44451Y366969D01*
X44495Y366695D01*
X44553Y366442D01*
X44624Y366212D01*
X44709Y366003D01*
X44808Y365816D01*
X44920Y365651D01*
X45046Y365507D01*
X44339Y364800D01*
X44196Y364926D01*
X44030Y365038D01*
X43843Y365137D01*
X43634Y365222D01*
X43404Y365293D01*
X43152Y365351D01*
X42878Y365395D01*
X42582Y365426D01*
X41925Y365446D01*
X44400Y367921D01*
X44403Y367582D01*
D02*
G37*
G36*
X197444Y311362D02*
X197045Y310894D01*
X196882Y310669D01*
X196745Y310450D01*
X196632Y310237D01*
X196545Y310029D01*
X196482Y309827D01*
X196444Y309630D01*
X196432Y309440D01*
X195432D01*
X195420Y309630D01*
X195382Y309827D01*
X195319Y310029D01*
X195232Y310237D01*
X195120Y310450D01*
X194982Y310669D01*
X194819Y310894D01*
X194632Y311125D01*
X194182Y311604D01*
X197682D01*
X197444Y311362D01*
D02*
G37*
G36*
X122283Y298786D02*
X122438Y298651D01*
X122604Y298532D01*
X122783Y298430D01*
X122973Y298343D01*
X123175Y298271D01*
X123389Y298216D01*
X123615Y298177D01*
X123853Y298153D01*
X124103Y298145D01*
X123967Y296145D01*
X123719Y296138D01*
X123480Y296117D01*
X123252Y296082D01*
X123033Y296033D01*
X122824Y295969D01*
X122624Y295892D01*
X122434Y295801D01*
X122254Y295695D01*
X122083Y295576D01*
X121923Y295443D01*
X122140Y298936D01*
X122283Y298786D01*
D02*
G37*
G36*
X130704Y295354D02*
X130561Y295504D01*
X130407Y295639D01*
X130240Y295757D01*
X130062Y295860D01*
X129871Y295947D01*
X129669Y296018D01*
X129455Y296074D01*
X129229Y296113D01*
X128991Y296137D01*
X128742Y296145D01*
X128878Y298145D01*
X129126Y298152D01*
X129364Y298173D01*
X129593Y298208D01*
X129812Y298257D01*
X130021Y298320D01*
X130220Y298398D01*
X130410Y298489D01*
X130590Y298594D01*
X130761Y298714D01*
X130922Y298847D01*
X130704Y295354D01*
D02*
G37*
G36*
X220051Y215147D02*
X220216Y215035D01*
X220403Y214936D01*
X220612Y214851D01*
X220843Y214779D01*
X221095Y214722D01*
X221369Y214678D01*
X221665Y214647D01*
X222321Y214627D01*
X219846Y212152D01*
X219843Y212491D01*
X219796Y213104D01*
X219751Y213378D01*
X219693Y213631D01*
X219622Y213861D01*
X219537Y214070D01*
X219438Y214257D01*
X219326Y214422D01*
X219200Y214566D01*
X219907Y215273D01*
X220051Y215147D01*
D02*
G37*
G36*
X399686Y161948D02*
X399225Y161944D01*
X398400Y161891D01*
X398036Y161841D01*
X397705Y161775D01*
X397406Y161693D01*
X397140Y161595D01*
X396906Y161482D01*
X396705Y161353D01*
X396536Y161208D01*
X395829Y161916D01*
X395973Y162084D01*
X396103Y162286D01*
X396216Y162520D01*
X396313Y162786D01*
X396395Y163085D01*
X396461Y163416D01*
X396512Y163779D01*
X396565Y164604D01*
X396568Y165066D01*
X399686Y161948D01*
D02*
G37*
G36*
X397468Y152892D02*
X397140Y153216D01*
X396519Y153762D01*
X396226Y153983D01*
X395945Y154171D01*
X395676Y154324D01*
X395419Y154444D01*
X395173Y154529D01*
X394940Y154580D01*
X394718Y154597D01*
Y155597D01*
X394940Y155614D01*
X395173Y155665D01*
X395419Y155751D01*
X395676Y155870D01*
X395945Y156023D01*
X396226Y156211D01*
X396519Y156432D01*
X397140Y156978D01*
X397468Y157302D01*
Y152892D01*
D02*
G37*
G36*
X284247Y130911D02*
X284720Y130517D01*
X284947Y130358D01*
X285168Y130224D01*
X285384Y130114D01*
X285593Y130029D01*
X285795Y129970D01*
X285992Y129935D01*
X286183Y129925D01*
X286197Y128925D01*
X286006Y128910D01*
X285811Y128870D01*
X285610Y128805D01*
X285403Y128714D01*
X285191Y128599D01*
X284974Y128458D01*
X284751Y128293D01*
X284523Y128102D01*
X284050Y127645D01*
X284002Y131145D01*
X284247Y130911D01*
D02*
G37*
G36*
X402295Y126978D02*
X402916Y126432D01*
X403209Y126211D01*
X403490Y126023D01*
X403759Y125870D01*
X404016Y125751D01*
X404262Y125665D01*
X404495Y125614D01*
X404717Y125597D01*
Y124597D01*
X404495Y124580D01*
X404262Y124529D01*
X404016Y124444D01*
X403759Y124324D01*
X403490Y124171D01*
X403209Y123983D01*
X402916Y123762D01*
X402295Y123216D01*
X401967Y122892D01*
Y127302D01*
X402295Y126978D01*
D02*
G37*
G36*
X239274Y87948D02*
X239129Y87779D01*
X239000Y87578D01*
X238886Y87344D01*
X238789Y87077D01*
X238707Y86779D01*
X238641Y86448D01*
X238591Y86084D01*
X238537Y85259D01*
X238534Y84798D01*
X235416Y87916D01*
X235877Y87919D01*
X236702Y87972D01*
X237066Y88023D01*
X237397Y88089D01*
X237696Y88170D01*
X237962Y88268D01*
X238196Y88381D01*
X238398Y88510D01*
X238566Y88655D01*
X239274Y87948D01*
D02*
G37*
G36*
X549719Y174947D02*
X549693Y174944D01*
X549670Y174932D01*
X549650Y174911D01*
X549633Y174881D01*
X549618Y174843D01*
X549606Y174795D01*
X549596Y174739D01*
X549589Y174673D01*
X549584Y174516D01*
X548584D01*
X548583Y174662D01*
X548543Y175242D01*
X548531Y175289D01*
X548517Y175321D01*
X548501Y175339D01*
X549719Y174947D01*
D02*
G37*
G36*
X483554Y108279D02*
X483409Y108110D01*
X483280Y107908D01*
X483167Y107674D01*
X483070Y107408D01*
X482988Y107109D01*
X482922Y106778D01*
X482871Y106414D01*
X482818Y105589D01*
X482815Y105128D01*
X479697Y108246D01*
X480158Y108249D01*
X480983Y108303D01*
X481347Y108353D01*
X481678Y108419D01*
X481977Y108501D01*
X482243Y108598D01*
X482477Y108712D01*
X482678Y108841D01*
X482847Y108986D01*
X483554Y108279D01*
D02*
G37*
G36*
X207581Y133425D02*
X208003Y132223D01*
X208108Y131994D01*
X208316Y131618D01*
X208419Y131473D01*
X208523Y131356D01*
X208024Y130440D01*
X207868Y130577D01*
X207697Y130689D01*
X207511Y130778D01*
X207310Y130843D01*
X207093Y130884D01*
X206861Y130901D01*
X206614Y130895D01*
X206352Y130864D01*
X206074Y130810D01*
X205782Y130732D01*
X207474Y133796D01*
X207581Y133425D01*
D02*
G37*
G36*
X231873Y108032D02*
X232083Y107901D01*
X232317Y107797D01*
X232576Y107721D01*
X232861Y107672D01*
X233171Y107649D01*
X233506Y107654D01*
X233866Y107686D01*
X234251Y107746D01*
X234662Y107832D01*
X232306Y104104D01*
X232193Y104608D01*
X231734Y106217D01*
X231617Y106518D01*
X231500Y106780D01*
X231382Y107000D01*
X231263Y107181D01*
X231144Y107321D01*
X231690Y108189D01*
X231873Y108032D01*
D02*
G37*
G36*
X601975Y243046D02*
X601636Y243043D01*
X601023Y242995D01*
X600749Y242951D01*
X600496Y242893D01*
X600266Y242822D01*
X600057Y242737D01*
X599870Y242638D01*
X599705Y242526D01*
X599561Y242400D01*
X598854Y243107D01*
X598980Y243251D01*
X599092Y243416D01*
X599191Y243603D01*
X599276Y243812D01*
X599347Y244042D01*
X599405Y244295D01*
X599449Y244569D01*
X599480Y244864D01*
X599500Y245521D01*
X601975Y243046D01*
D02*
G37*
G36*
X483554Y98278D02*
X483409Y98110D01*
X483280Y97908D01*
X483167Y97674D01*
X483070Y97408D01*
X482988Y97109D01*
X482922Y96778D01*
X482871Y96414D01*
X482818Y95590D01*
X482815Y95128D01*
X479697Y98246D01*
X480158Y98249D01*
X480983Y98303D01*
X481347Y98353D01*
X481678Y98419D01*
X481977Y98501D01*
X482243Y98598D01*
X482477Y98712D01*
X482678Y98841D01*
X482847Y98986D01*
X483554Y98278D01*
D02*
G37*
G36*
X399686Y141948D02*
X399225Y141945D01*
X398400Y141891D01*
X398036Y141841D01*
X397705Y141775D01*
X397406Y141693D01*
X397140Y141595D01*
X396906Y141482D01*
X396705Y141353D01*
X396536Y141208D01*
X395829Y141916D01*
X395973Y142084D01*
X396103Y142286D01*
X396216Y142519D01*
X396313Y142786D01*
X396395Y143085D01*
X396461Y143416D01*
X396512Y143780D01*
X396565Y144604D01*
X396568Y145066D01*
X399686Y141948D01*
D02*
G37*
G36*
X679475Y141946D02*
X679136Y141943D01*
X678523Y141895D01*
X678249Y141851D01*
X677996Y141793D01*
X677766Y141722D01*
X677557Y141637D01*
X677370Y141538D01*
X677205Y141426D01*
X677061Y141300D01*
X676354Y142007D01*
X676480Y142151D01*
X676592Y142316D01*
X676691Y142503D01*
X676776Y142712D01*
X676847Y142942D01*
X676905Y143195D01*
X676949Y143469D01*
X676980Y143764D01*
X677000Y144421D01*
X679475Y141946D01*
D02*
G37*
G36*
X482243Y86978D02*
X482864Y86432D01*
X483157Y86211D01*
X483438Y86023D01*
X483707Y85870D01*
X483964Y85750D01*
X484210Y85665D01*
X484443Y85614D01*
X484665Y85597D01*
Y84597D01*
X484443Y84580D01*
X484210Y84529D01*
X483964Y84443D01*
X483707Y84324D01*
X483438Y84171D01*
X483157Y83983D01*
X482864Y83762D01*
X482243Y83216D01*
X481915Y82892D01*
Y87302D01*
X482243Y86978D01*
D02*
G37*
D12*
X336240Y130117D02*
G03*
X339134Y131179I-64J4649D01*
G01*
X235385Y174766D02*
X236422D01*
X261203Y199546D01*
X262240D01*
X479666Y105097D02*
X549084Y174516D01*
Y176678D02*
X549850Y177444D01*
X549084Y174516D02*
Y176678D01*
X537812Y202246D02*
X550161Y189897D01*
Y189307D02*
Y189897D01*
X401100Y202246D02*
X537812D01*
X399717Y125097D02*
X405214D01*
X411764Y131647D01*
Y163069D01*
X411808Y163113D01*
X405303Y170446D02*
X411808Y163941D01*
Y163113D02*
Y163941D01*
X363900Y170446D02*
X405303D01*
X282241Y129370D02*
X336240Y130117D01*
X355100Y144346D02*
X378966D01*
X339134Y131179D02*
X355100Y144346D01*
X119285Y69146D02*
X353766D01*
X106424Y82007D02*
X119285Y69146D01*
X106424Y82007D02*
Y212102D01*
X70284Y248242D02*
X106424Y212102D01*
X353766Y69146D02*
X399717Y115097D01*
X206044Y133127D02*
X234405Y104766D01*
X235385D01*
X205065Y133127D02*
X206044D01*
X195932Y238541D02*
X222346Y212127D01*
X195932Y238541D02*
Y313389D01*
X279613Y261259D02*
X357789D01*
X230700Y212346D02*
X279613Y261259D01*
X280000Y63046D02*
X301137Y41909D01*
X383362D01*
X416549Y75097D01*
X391000Y243146D02*
X396838Y248984D01*
X486734D01*
X235385Y84766D02*
X260735Y110117D01*
X347566D01*
X392546Y155097D01*
X399717D01*
X190700Y162446D02*
X207705D01*
X235385Y134766D01*
X130900Y219251D02*
X186700Y163451D01*
Y159546D02*
Y163451D01*
Y159546D02*
X192000Y154246D01*
X195905D01*
X235385Y114766D01*
X196000Y158246D02*
X201905D01*
X235385Y124766D01*
X170000Y191546D02*
X188605D01*
X235385Y144766D01*
X391000Y242046D02*
Y243146D01*
X361600Y212646D02*
X391000Y242046D01*
X340900Y212646D02*
X361600D01*
X558825Y202371D02*
X602000Y245546D01*
X558825Y171546D02*
Y202371D01*
X557535Y170256D02*
X558825Y171546D01*
X554825Y170256D02*
X557535D01*
X479666Y95097D02*
X554825Y170256D01*
X402056Y230646D02*
X522800D01*
X554200Y262046D01*
Y320346D01*
X592359Y358505D01*
X583200Y262546D02*
X589200D01*
X539500Y218846D02*
X583200Y262546D01*
X397076Y218846D02*
X539500D01*
X416549Y75097D02*
X479666D01*
X67100Y62346D02*
X269200D01*
X274000Y67146D01*
X361767D01*
X399717Y105097D01*
X336176Y74766D02*
X396507Y135097D01*
X399717D01*
X378966Y144346D02*
X399717Y165097D01*
X41900Y367946D02*
X203100Y206746D01*
X327600D01*
X363900Y170446D01*
X339387Y84766D02*
X399717Y145097D01*
X336176Y84766D02*
X339387D01*
X620151Y85097D02*
X679500Y144446D01*
X479666Y85097D02*
X620151D01*
D15*
X120405Y297145D02*
X132439D01*
X120250Y297300D02*
X120405Y297145D01*
X132439D02*
X132595Y296989D01*
D56*
X56529Y428041D02*
D03*
X66529D02*
D03*
X76529D02*
D03*
X674505Y198037D02*
D03*
Y208036D02*
D03*
Y218037D02*
D03*
X674584Y292809D02*
D03*
Y302809D02*
D03*
Y312809D02*
D03*
X550085Y128184D02*
D03*
X560085D02*
D03*
X570085D02*
D03*
X56813Y196045D02*
D03*
X66813D02*
D03*
X76813D02*
D03*
X56817Y318950D02*
D03*
X66817D02*
D03*
X76816D02*
D03*
X674557Y407744D02*
D03*
Y397744D02*
D03*
Y387744D02*
D03*
D60*
X524376Y289675D02*
D03*
Y279833D02*
D03*
X262240Y199546D02*
D03*
X549850Y177444D02*
D03*
X550161Y189307D02*
D03*
X282241Y129370D02*
D03*
X70284Y248242D02*
D03*
X205065Y133127D02*
D03*
X222346Y212127D02*
D03*
X195932Y313389D02*
D03*
X357789Y261259D02*
D03*
X486734Y248984D02*
D03*
X120250Y297300D02*
D03*
X132595Y296989D02*
D03*
X587925Y55685D02*
D03*
X570586Y191512D02*
D03*
X571299Y286310D02*
D03*
X573206Y380411D02*
D03*
X89741Y120099D02*
D03*
X90334Y243000D02*
D03*
X91124Y365900D02*
D03*
X190700Y162446D02*
D03*
X130900Y219251D02*
D03*
X196000Y158246D02*
D03*
X170000Y191546D02*
D03*
X230700Y212346D02*
D03*
X340900Y212646D02*
D03*
X602000Y245546D02*
D03*
X401100Y202246D02*
D03*
X402056Y230646D02*
D03*
X592359Y358505D02*
D03*
X589200Y262546D02*
D03*
X397076Y218846D02*
D03*
X280000Y63046D02*
D03*
X67100Y62346D02*
D03*
X41900Y367946D02*
D03*
X679500Y144446D02*
D03*
X303793Y279456D02*
D03*
D63*
X236059Y378058D02*
D03*
X520559D02*
D03*
D68*
X50000Y460013D02*
D03*
Y47500D02*
D03*
X650000D02*
D03*
Y460013D02*
D03*
D69*
X18892Y127309D02*
D03*
Y147309D02*
D03*
Y157309D02*
D03*
Y137309D02*
D03*
X19752Y253663D02*
D03*
Y273663D02*
D03*
Y283663D02*
D03*
Y263663D02*
D03*
X18657Y376225D02*
D03*
Y396225D02*
D03*
Y406225D02*
D03*
Y386225D02*
D03*
X336176Y104766D02*
D03*
Y134766D02*
D03*
Y154766D02*
D03*
Y174766D02*
D03*
Y164766D02*
D03*
Y144766D02*
D03*
Y124766D02*
D03*
Y114766D02*
D03*
Y94766D02*
D03*
Y84766D02*
D03*
Y74766D02*
D03*
X235385D02*
D03*
Y84766D02*
D03*
Y94766D02*
D03*
Y114766D02*
D03*
Y124766D02*
D03*
Y144766D02*
D03*
Y164766D02*
D03*
Y174766D02*
D03*
Y154766D02*
D03*
Y134766D02*
D03*
Y104766D02*
D03*
X479666Y185097D02*
D03*
Y175097D02*
D03*
Y145097D02*
D03*
Y135097D02*
D03*
Y125097D02*
D03*
Y105097D02*
D03*
Y95097D02*
D03*
Y75097D02*
D03*
Y55097D02*
D03*
Y45097D02*
D03*
Y65097D02*
D03*
Y85097D02*
D03*
Y115097D02*
D03*
Y155097D02*
D03*
Y165097D02*
D03*
X399717Y155097D02*
D03*
Y125097D02*
D03*
Y105097D02*
D03*
Y85097D02*
D03*
Y95097D02*
D03*
Y115097D02*
D03*
Y135097D02*
D03*
Y145097D02*
D03*
Y165097D02*
D03*
Y175097D02*
D03*
Y185097D02*
D03*
D70*
X18892Y167309D02*
D03*
X19752Y293663D02*
D03*
X18657Y416225D02*
D03*
X336176Y184766D02*
D03*
X235385D02*
D03*
X479666Y35097D02*
D03*
X399717Y75097D02*
D03*
D71*
X682137Y83864D02*
D03*
Y93707D02*
D03*
Y101581D02*
D03*
Y111424D02*
D03*
D72*
X692806Y71778D02*
D03*
Y123510D02*
D03*
D73*
X14967Y75444D02*
D03*
X299969Y232445D02*
D03*
X543354Y241621D02*
D03*
X25243Y437067D02*
D03*
X28001Y197949D02*
D03*
X26161Y320550D02*
D03*
X216351Y233769D02*
D03*
D74*
X248891Y301352D02*
D03*
X250672Y246291D02*
D03*
D75*
X241018Y301352D02*
D03*
X242798Y246291D02*
D03*
D76*
X487559Y409058D02*
D03*
X270059Y347058D02*
D03*
D77*
X520559D02*
D03*
M02*
