G04*
G04 #@! TF.GenerationSoftware,Altium Limited,Altium Designer,22.2.1 (43)*
G04*
G04 Layer_Color=16711935*
%FSLAX25Y25*%
%MOIN*%
G70*
G04*
G04 #@! TF.SameCoordinates,A442F040-2D2B-445B-BC8B-0DACE6EA8BBB*
G04*
G04*
G04 #@! TF.FilePolarity,Positive*
G04*
G01*
G75*
%ADD17C,0.00300*%
%ADD80C,0.00394*%
%ADD81C,0.00000*%
%ADD82C,0.00100*%
D17*
X680472Y72614D02*
X683804Y75946D01*
Y72614D02*
X680472Y75946D01*
X682138Y72614D02*
Y75946D01*
X683804Y74280D02*
X680472D01*
D80*
X580477Y202747D02*
G03*
X580477Y202747I-1969J0D01*
G01*
X580555Y297519D02*
G03*
X580555Y297519I-1969J0D01*
G01*
X597966Y65524D02*
G03*
X597966Y65524I-1969J0D01*
G01*
X99523Y376098D02*
G03*
X99523Y376098I-1969J0D01*
G01*
X99537Y130516D02*
G03*
X99537Y130516I-1969J0D01*
G01*
X99541Y253421D02*
G03*
X99541Y253421I-1969J0D01*
G01*
X580528Y392454D02*
G03*
X580528Y392454I-1969J0D01*
G01*
X254797Y301352D02*
G03*
X254797Y301352I-9843J0D01*
G01*
X256577Y246291D02*
G03*
X256577Y246291I-9843J0D01*
G01*
X563871Y87138D02*
X569580D01*
X563871Y95799D02*
X569580D01*
X563871Y87138D02*
Y95799D01*
X569580Y87138D02*
Y95799D01*
X96571Y286940D02*
X109169D01*
X96571Y276310D02*
X109169D01*
X96571D02*
Y286940D01*
X109169Y276310D02*
Y286940D01*
X630437Y224955D02*
Y233616D01*
X624728Y224955D02*
Y233616D01*
X630437D01*
X624728Y224955D02*
X630437D01*
X590472Y224862D02*
Y235491D01*
X577873Y224862D02*
Y235491D01*
Y224862D02*
X590472D01*
X577873Y235491D02*
X590472D01*
X617653Y210158D02*
Y235748D01*
X604267Y210158D02*
Y235748D01*
X617653D01*
X604267Y210158D02*
X617653D01*
X630461Y210390D02*
Y219051D01*
X624752Y210390D02*
Y219051D01*
X630461D01*
X624752Y210390D02*
X630461D01*
X642211Y198019D02*
X650872D01*
X642211Y203728D02*
X650872D01*
Y198019D02*
Y203728D01*
X642211Y198019D02*
Y203728D01*
X574965Y199203D02*
X594650D01*
X574965Y214951D02*
X594650D01*
X574965Y199203D02*
Y214951D01*
X594650Y199203D02*
Y214951D01*
X630515Y319727D02*
Y328389D01*
X624806Y319727D02*
Y328389D01*
X630515D01*
X624806Y319727D02*
X630515D01*
X590550Y319634D02*
Y330264D01*
X577951Y319634D02*
Y330264D01*
Y319634D02*
X590550D01*
X577951Y330264D02*
X590550D01*
X617731Y304930D02*
Y330521D01*
X604346Y304930D02*
Y330521D01*
X617731D01*
X604346Y304930D02*
X617731D01*
X630539Y305163D02*
Y313824D01*
X624830Y305163D02*
Y313824D01*
X630539D01*
X624830Y305163D02*
X630539D01*
X642289Y292792D02*
X650951D01*
X642289Y298500D02*
X650951D01*
Y292792D02*
Y298500D01*
X642289Y292792D02*
Y298500D01*
X575043Y293976D02*
X594729D01*
X575043Y309724D02*
X594729D01*
X575043Y293976D02*
Y309724D01*
X594729Y293976D02*
Y309724D01*
X331176Y69766D02*
X341176D01*
X331176Y189766D02*
X341176D01*
X331176Y69766D02*
Y189766D01*
X341176Y69766D02*
Y189766D01*
X240385Y69766D02*
Y189766D01*
X230385Y69766D02*
Y189766D01*
X240385D01*
X230385Y69766D02*
X240385D01*
X474665Y30097D02*
Y190097D01*
X484665Y30097D02*
Y190097D01*
X474665Y30097D02*
X484665D01*
X474665Y190097D02*
X484665D01*
X394718Y190097D02*
X404717D01*
X394718Y70097D02*
X404717D01*
Y190097D01*
X394718Y70097D02*
Y190097D01*
X474309Y274283D02*
X480018D01*
X474309Y282944D02*
X480018D01*
X474309Y274283D02*
Y282944D01*
X480018Y274283D02*
Y282944D01*
X426154Y260356D02*
X431863D01*
X426154Y269017D02*
X431863D01*
X426154Y260356D02*
Y269017D01*
X431863Y260356D02*
Y269017D01*
X469180Y260249D02*
X474888D01*
X469180Y268911D02*
X474888D01*
X469180Y260249D02*
Y268911D01*
X474888Y260249D02*
Y268911D01*
X478604Y260219D02*
X484313D01*
X478604Y268881D02*
X484313D01*
X478604Y260219D02*
Y268881D01*
X484313Y260219D02*
Y268881D01*
X574676Y87045D02*
X580385D01*
X574676Y95707D02*
X580385D01*
X574676Y87045D02*
Y95707D01*
X580385Y87045D02*
Y95707D01*
X460159Y274388D02*
X465867D01*
X460159Y283050D02*
X465867D01*
X460159Y274388D02*
Y283050D01*
X465867Y274388D02*
Y283050D01*
X460028Y260356D02*
X465737D01*
X460028Y269017D02*
X465737D01*
X460028Y260356D02*
Y269017D01*
X465737Y260356D02*
Y269017D01*
X574637Y73911D02*
X580345D01*
X574637Y82573D02*
X580345D01*
X574637Y73911D02*
Y82573D01*
X580345Y73911D02*
Y82573D01*
X621064Y67919D02*
X626773D01*
X621064Y76580D02*
X626773D01*
X621064Y67919D02*
Y76580D01*
X626773Y67919D02*
Y76580D01*
X628806Y67918D02*
X634514D01*
X628806Y76580D02*
X634514D01*
X628806Y67918D02*
Y76580D01*
X634514Y67918D02*
Y76580D01*
X96567Y164035D02*
X109166D01*
X96567Y153405D02*
X109166D01*
X96567D02*
Y164035D01*
X109166Y153405D02*
Y164035D01*
X502100Y247939D02*
X507809D01*
X502100Y256601D02*
X507809D01*
X502100Y247939D02*
Y256601D01*
X507809Y247939D02*
Y256601D01*
X502457Y234646D02*
X508165D01*
X502457Y243307D02*
X508165D01*
X502457Y234646D02*
Y243307D01*
X508165Y234646D02*
Y243307D01*
X490694Y248063D02*
X496402D01*
X490694Y256725D02*
X496402D01*
X490694Y248063D02*
Y256725D01*
X496402Y248063D02*
Y256725D01*
X490706Y234883D02*
X496415D01*
X490706Y243545D02*
X496415D01*
X490706Y234883D02*
Y243545D01*
X496415Y234883D02*
Y243545D01*
X595255Y98621D02*
X607854D01*
X595255Y87991D02*
X607854D01*
X595255D02*
Y98621D01*
X607854Y87991D02*
Y98621D01*
X612139Y61981D02*
Y77729D01*
X592454Y61981D02*
Y77729D01*
X612139D01*
X592454Y61981D02*
X612139D01*
X132526Y443408D02*
X138234D01*
X132526Y452069D02*
X138234D01*
X132526Y443408D02*
Y452069D01*
X138234Y443408D02*
Y452069D01*
X76467Y404252D02*
X82175D01*
X76467Y412914D02*
X82175D01*
X76467Y404252D02*
Y412914D01*
X82175Y404252D02*
Y412914D01*
X96552Y409617D02*
X109151D01*
X96552Y398987D02*
X109151D01*
X96552D02*
Y409617D01*
X109151Y398987D02*
Y409617D01*
X66944Y404058D02*
X72653D01*
X66944Y412720D02*
X72653D01*
X66944Y404058D02*
Y412720D01*
X72653Y404058D02*
Y412720D01*
X76370Y390940D02*
X82078D01*
X76370Y399601D02*
X82078D01*
X76370Y390940D02*
Y399601D01*
X82078Y390940D02*
Y399601D01*
X122436Y443408D02*
X128145D01*
X122436Y452069D02*
X128145D01*
X122436Y443408D02*
Y452069D01*
X128145Y443408D02*
Y452069D01*
X132254Y354408D02*
X137962D01*
X132254Y363069D02*
X137962D01*
X132254Y354408D02*
Y363069D01*
X137962Y354408D02*
Y363069D01*
X146227Y354541D02*
X151936D01*
X146227Y363203D02*
X151936D01*
X146227Y354541D02*
Y363203D01*
X151936Y354541D02*
Y363203D01*
X113696Y372554D02*
Y388303D01*
X94011Y372554D02*
Y388303D01*
X113696D01*
X94011Y372554D02*
X113696D01*
X123338Y402880D02*
X148928D01*
X123338Y416265D02*
X148928D01*
Y402880D02*
Y416265D01*
X123338Y402880D02*
Y416265D01*
X122436Y430306D02*
X128145D01*
X122436Y438967D02*
X128145D01*
X122436Y430306D02*
Y438967D01*
X128145Y430306D02*
Y438967D01*
X132827Y429854D02*
X138536D01*
X132827Y438516D02*
X138536D01*
X132827Y429854D02*
Y438516D01*
X138536Y429854D02*
Y438516D01*
X113710Y126973D02*
Y142721D01*
X94025Y126973D02*
Y142721D01*
X113710D01*
X94025Y126973D02*
X113710D01*
X122451Y184724D02*
X128159D01*
X122451Y193386D02*
X128159D01*
X122451Y184724D02*
Y193386D01*
X128159Y184724D02*
Y193386D01*
X146242Y108959D02*
X151951D01*
X146242Y117621D02*
X151951D01*
X146242Y108959D02*
Y117621D01*
X151951Y108959D02*
Y117621D01*
X132269Y108826D02*
X137977D01*
X132269Y117488D02*
X137977D01*
X132269Y108826D02*
Y117488D01*
X137977Y108826D02*
Y117488D01*
X122451Y197826D02*
X128159D01*
X122451Y206487D02*
X128159D01*
X122451Y197826D02*
Y206487D01*
X128159Y197826D02*
Y206487D01*
X76385Y145358D02*
X82093D01*
X76385Y154020D02*
X82093D01*
X76385Y145358D02*
Y154020D01*
X82093Y145358D02*
Y154020D01*
X66959Y158477D02*
X72667D01*
X66959Y167138D02*
X72667D01*
X66959Y158477D02*
Y167138D01*
X72667Y158477D02*
Y167138D01*
X123353Y157298D02*
X148943D01*
X123353Y170684D02*
X148943D01*
Y157298D02*
Y170684D01*
X123353Y157298D02*
Y170684D01*
X76482Y158671D02*
X82190D01*
X76482Y167332D02*
X82190D01*
X76482Y158671D02*
Y167332D01*
X82190Y158671D02*
Y167332D01*
X132842Y184273D02*
X138550D01*
X132842Y192934D02*
X138550D01*
X132842Y184273D02*
Y192934D01*
X138550Y184273D02*
Y192934D01*
X132541Y197826D02*
X138249D01*
X132541Y206487D02*
X138249D01*
X132541Y197826D02*
Y206487D01*
X138249Y197826D02*
Y206487D01*
X132545Y320731D02*
X138253D01*
X132545Y329393D02*
X138253D01*
X132545Y320731D02*
Y329393D01*
X138253Y320731D02*
Y329393D01*
X132846Y307178D02*
X138554D01*
X132846Y315839D02*
X138554D01*
X132846Y307178D02*
Y315839D01*
X138554Y307178D02*
Y315839D01*
X76486Y281576D02*
X82194D01*
X76486Y290237D02*
X82194D01*
X76486Y281576D02*
Y290237D01*
X82194Y281576D02*
Y290237D01*
X123356Y280203D02*
X148947D01*
X123356Y293589D02*
X148947D01*
Y280203D02*
Y293589D01*
X123356Y280203D02*
Y293589D01*
X66962Y281382D02*
X72671D01*
X66962Y290043D02*
X72671D01*
X66962Y281382D02*
Y290043D01*
X72671Y281382D02*
Y290043D01*
X76388Y268264D02*
X82097D01*
X76388Y276925D02*
X82097D01*
X76388Y268264D02*
Y276925D01*
X82097Y268264D02*
Y276925D01*
X122455Y320731D02*
X128163D01*
X122455Y329393D02*
X128163D01*
X122455Y320731D02*
Y329393D01*
X128163Y320731D02*
Y329393D01*
X132273Y231731D02*
X137981D01*
X132273Y240393D02*
X137981D01*
X132273Y231731D02*
Y240393D01*
X137981Y231731D02*
Y240393D01*
X146246Y231865D02*
X151954D01*
X146246Y240526D02*
X151954D01*
X146246Y231865D02*
Y240526D01*
X151954Y231865D02*
Y240526D01*
X122455Y307629D02*
X128163D01*
X122455Y316291D02*
X128163D01*
X122455Y307629D02*
Y316291D01*
X128163Y307629D02*
Y316291D01*
X113714Y249878D02*
Y265626D01*
X94029Y249878D02*
Y265626D01*
X113714D01*
X94029Y249878D02*
X113714D01*
X624804Y400097D02*
X630512D01*
X624804Y408758D02*
X630512D01*
X624804Y400097D02*
Y408758D01*
X630512Y400097D02*
Y408758D01*
X617705Y399865D02*
Y425456D01*
X604319Y399865D02*
Y425456D01*
X617705D01*
X604319Y399865D02*
X617705D01*
X577925Y425199D02*
X590523D01*
X577925Y414569D02*
X590523D01*
X577925D02*
Y425199D01*
X590523Y414569D02*
Y425199D01*
X594702Y388911D02*
Y404659D01*
X575017Y388911D02*
Y404659D01*
X594702D01*
X575017Y388911D02*
X594702D01*
X642263Y387726D02*
Y393435D01*
X650924Y387726D02*
Y393435D01*
X642263D02*
X650924D01*
X642263Y387726D02*
X650924D01*
X624780Y414662D02*
X630488D01*
X624780Y423323D02*
X630488D01*
X624780Y414662D02*
Y423323D01*
X630488Y414662D02*
Y423323D01*
X243452Y261966D02*
Y267674D01*
X252113Y261966D02*
Y267674D01*
X243452D02*
X252113D01*
X243452Y261966D02*
X252113D01*
X226922Y276063D02*
X232631D01*
X226922Y284725D02*
X232631D01*
X226922Y276063D02*
Y284725D01*
X232631Y276063D02*
Y284725D01*
X239372Y261905D02*
Y267614D01*
X230710Y261905D02*
Y267614D01*
Y261905D02*
X239372D01*
X230710Y267614D02*
X239372D01*
X353442Y242355D02*
Y248063D01*
X344780Y242355D02*
Y248063D01*
Y242355D02*
X353442D01*
X344780Y248063D02*
X353442D01*
X371459Y242355D02*
Y248063D01*
X362797Y242355D02*
Y248063D01*
Y242355D02*
X371459D01*
X362797Y248063D02*
X371459D01*
X353187Y265075D02*
Y270783D01*
X344525Y265075D02*
Y270783D01*
Y265075D02*
X353187D01*
X344525Y270783D02*
X353187D01*
X370833Y265140D02*
Y270848D01*
X362171Y265140D02*
Y270848D01*
Y265140D02*
X370833D01*
X362171Y270848D02*
X370833D01*
X353270Y251173D02*
Y256882D01*
X344609Y251173D02*
Y256882D01*
Y251173D02*
X353270D01*
X344609Y256882D02*
X353270D01*
X371201Y251441D02*
Y257150D01*
X362540Y251441D02*
Y257150D01*
Y251441D02*
X371201D01*
X362540Y257150D02*
X371201D01*
X307877Y296467D02*
X316539D01*
X307877Y290759D02*
X316539D01*
X307877D02*
Y296467D01*
X316539Y290759D02*
Y296467D01*
X320400Y296469D02*
X329062D01*
X320400Y290760D02*
X329062D01*
X320400D02*
Y296469D01*
X329062Y290760D02*
Y296469D01*
X307823Y306265D02*
X316484D01*
X307823Y300556D02*
X316484D01*
X307823D02*
Y306265D01*
X316484Y300556D02*
Y306265D01*
X320417Y306343D02*
X329079D01*
X320417Y300634D02*
X329079D01*
X320417D02*
Y306343D01*
X329079Y300634D02*
Y306343D01*
D81*
X537776Y284754D02*
G03*
X537776Y284754I-13400J0D01*
G01*
D82*
X733251Y71844D02*
Y123444D01*
X678751D02*
X733251D01*
X678751Y71844D02*
Y123444D01*
Y71844D02*
X733251D01*
X524376Y299154D02*
Y304154D01*
X521876Y301654D02*
X526876D01*
X317957Y242059D02*
Y248359D01*
Y242059D02*
X320910D01*
Y248359D01*
X317957D02*
X320910D01*
X311264Y242059D02*
Y248359D01*
X308312D02*
X311264D01*
X308312Y242059D02*
Y248359D01*
Y242059D02*
X311264D01*
X308312Y248359D02*
X320910D01*
X308312Y242059D02*
Y248359D01*
Y242059D02*
X320910D01*
Y248359D01*
M02*
