G04*
G04 #@! TF.GenerationSoftware,Altium Limited,Altium Designer,22.2.1 (43)*
G04*
G04 Layer_Color=32768*
%FSLAX25Y25*%
%MOIN*%
G70*
G04*
G04 #@! TF.SameCoordinates,A442F040-2D2B-445B-BC8B-0DACE6EA8BBB*
G04*
G04*
G04 #@! TF.FilePolarity,Positive*
G04*
G01*
G75*
%ADD14C,0.00787*%
%ADD15C,0.02000*%
%ADD17C,0.00300*%
%ADD80C,0.00394*%
%ADD81C,0.00000*%
%ADD82C,0.00100*%
D14*
X269983Y94932D02*
Y155561D01*
Y94932D02*
X299510D01*
Y155561D01*
X269983D02*
X299510D01*
X443228Y268567D02*
X449527D01*
Y257150D02*
Y268567D01*
X443228Y257150D02*
X449527D01*
X443228D02*
Y268567D01*
X622617Y87385D02*
X631081D01*
Y92503D01*
X622617D02*
X631081D01*
X622617Y87385D02*
Y92503D01*
X518659Y238440D02*
X530076D01*
Y243559D01*
X518659D02*
X530076D01*
X518659Y238440D02*
Y243559D01*
X133255Y382082D02*
X141720D01*
Y387200D01*
X133255D02*
X141720D01*
X133255Y382082D02*
Y387200D01*
X149061Y431545D02*
X160478D01*
Y436663D01*
X149061D02*
X160478D01*
X149061Y431545D02*
Y436663D01*
X133270Y136501D02*
X141735D01*
Y141619D01*
X133270D02*
X141735D01*
X133270Y136501D02*
Y141619D01*
X149075Y185963D02*
X160493D01*
Y191082D01*
X149075D02*
X160493D01*
X149075Y185963D02*
Y191082D01*
X149079Y308869D02*
X160497D01*
Y313987D01*
X149079D02*
X160497D01*
X149079Y308869D02*
Y313987D01*
X133274Y259406D02*
X141738D01*
Y264524D01*
X133274D02*
X141738D01*
X133274Y259406D02*
Y264524D01*
X235698Y277609D02*
Y283909D01*
X247116D01*
Y277609D02*
Y283909D01*
X235698Y277609D02*
X247116D01*
X368483Y281748D02*
Y293165D01*
X363365D02*
X368483D01*
X363365Y281748D02*
Y293165D01*
Y281748D02*
X368483D01*
D15*
X237559Y385558D02*
G03*
X237559Y385558I-1500J0D01*
G01*
D17*
X40603Y165838D02*
X43936Y162505D01*
X40603D02*
X43936Y165838D01*
X40603Y164172D02*
X43936D01*
X42270Y162505D02*
Y165838D01*
X614877Y196982D02*
X618209Y193650D01*
X614877D02*
X618209Y196982D01*
X614877Y195316D02*
X618209D01*
X616543Y193650D02*
Y196982D01*
X614956Y291755D02*
X618288Y288422D01*
X614956D02*
X618288Y291755D01*
X614956Y290089D02*
X618288D01*
X616622Y288422D02*
Y291755D01*
X535870Y93234D02*
X539202Y89902D01*
X535870D02*
X539202Y93234D01*
X535870Y91568D02*
X539202D01*
X537536Y89902D02*
Y93234D01*
X40589Y411419D02*
X43921Y408087D01*
X40589D02*
X43921Y411419D01*
X40589Y409753D02*
X43921D01*
X42255Y408087D02*
Y411419D01*
X40607Y288743D02*
X43940Y285411D01*
X40607D02*
X43940Y288743D01*
X40607Y287077D02*
X43940D01*
X42273Y285411D02*
Y288743D01*
X614929Y386689D02*
X618261Y383357D01*
X614929D02*
X618261Y386689D01*
X614929Y385023D02*
X618261D01*
X616595Y383357D02*
Y386689D01*
X309671Y262265D02*
X313003Y265597D01*
Y262265D02*
X309671Y265597D01*
X311337Y262265D02*
Y265597D01*
X313003Y263931D02*
X309671D01*
D80*
X647158Y89559D02*
X673733D01*
X647158Y114047D02*
X673733D01*
X647158Y89559D02*
Y114047D01*
X673733Y89559D02*
Y114047D01*
X154906Y135569D02*
X181481D01*
X154906Y160057D02*
X181481D01*
X154906Y135569D02*
Y160057D01*
X181481Y135569D02*
Y160057D01*
X154891Y381151D02*
X181466D01*
X154891Y405639D02*
X181466D01*
X154891Y381151D02*
Y405639D01*
X181466Y381151D02*
Y405639D01*
X154910Y258474D02*
X181484D01*
X154910Y282962D02*
X181484D01*
X154910Y258474D02*
Y282962D01*
X181484Y258474D02*
Y282962D01*
D81*
X86779Y428041D02*
G03*
X86779Y428041I-500J0D01*
G01*
X621277Y198117D02*
G03*
X623677Y198117I1200J0D01*
G01*
X675005Y188286D02*
G03*
X675005Y188286I-500J0D01*
G01*
X621356Y292889D02*
G03*
X623756Y292889I1200J0D01*
G01*
X675084Y283059D02*
G03*
X675084Y283059I-500J0D01*
G01*
X580335Y128184D02*
G03*
X580335Y128184I-500J0D01*
G01*
X542270Y94369D02*
G03*
X544670Y94369I1200J0D01*
G01*
X47003Y166972D02*
G03*
X49403Y166972I1200J0D01*
G01*
X46989Y412554D02*
G03*
X49389Y412554I1200J0D01*
G01*
X87063Y196045D02*
G03*
X87063Y196045I-500J0D01*
G01*
X87067Y318950D02*
G03*
X87067Y318950I-500J0D01*
G01*
X47007Y289878D02*
G03*
X49407Y289878I1200J0D01*
G01*
X621329Y387824D02*
G03*
X623729Y387824I1200J0D01*
G01*
X675057Y377994D02*
G03*
X675057Y377994I-500J0D01*
G01*
X308536Y266915D02*
G03*
X308536Y269315I0J1200D01*
G01*
D82*
X87279Y416013D02*
Y434513D01*
X45779Y416013D02*
X87279D01*
X45779D02*
Y434513D01*
X87279D01*
X45779Y421213D02*
X87279D01*
X645154Y233612D02*
Y238612D01*
X642654Y237612D02*
X647654D01*
X645154D02*
X647654Y234612D01*
X645154Y237612D02*
X647154Y234612D01*
X645154Y237612D02*
X646654Y234612D01*
X645154Y237612D02*
X646154Y234612D01*
X645154Y237612D02*
X645654Y234612D01*
X642654D02*
X645154Y237612D01*
X643154Y234612D02*
X645154Y237612D01*
X643654Y234612D02*
X645154Y237612D01*
X644154Y234612D02*
X645154Y237612D01*
X644654Y234612D02*
X645154Y237612D01*
X642654Y234612D02*
X647654D01*
X639406Y209604D02*
Y231612D01*
Y209604D02*
X650902D01*
Y231612D01*
X639406D02*
X650902D01*
X614627Y194867D02*
Y196767D01*
X610277D02*
X614627D01*
X610277Y194867D02*
Y196767D01*
Y194867D02*
X614627D01*
Y189867D02*
Y191767D01*
X610277D02*
X614627D01*
X610277Y189867D02*
Y191767D01*
Y189867D02*
X614627D01*
Y184867D02*
Y186767D01*
X610277D02*
X614627D01*
X610277Y184867D02*
Y186767D01*
Y184867D02*
X614627D01*
Y179867D02*
Y181767D01*
X610277D02*
X614627D01*
X610277Y179867D02*
Y181767D01*
Y179867D02*
X614627D01*
X630327D02*
Y181767D01*
Y179867D02*
X634677D01*
Y181767D01*
X630327D02*
X634677D01*
X630327Y184867D02*
Y186767D01*
Y184867D02*
X634677D01*
Y186767D01*
X630327D02*
X634677D01*
X630327Y189867D02*
Y191767D01*
Y189867D02*
X634677D01*
Y191767D01*
X630327D02*
X634677D01*
X630327Y194867D02*
Y196767D01*
Y194867D02*
X634677D01*
Y196767D01*
X630327D02*
X634677D01*
X614627Y178517D02*
X630327D01*
Y198117D01*
X614627D02*
X630327D01*
X614627Y178517D02*
Y198117D01*
X670255Y187286D02*
Y228786D01*
X683755Y187286D02*
Y228786D01*
X665255D02*
X683755D01*
X665255Y187286D02*
Y228786D01*
Y187286D02*
X683755D01*
X645233Y328385D02*
Y333385D01*
X642733Y332385D02*
X647733D01*
X645233D02*
X647733Y329385D01*
X645233Y332385D02*
X647233Y329385D01*
X645233Y332385D02*
X646733Y329385D01*
X645233Y332385D02*
X646233Y329385D01*
X645233Y332385D02*
X645733Y329385D01*
X642733D02*
X645233Y332385D01*
X643233Y329385D02*
X645233Y332385D01*
X643733Y329385D02*
X645233Y332385D01*
X644233Y329385D02*
X645233Y332385D01*
X644733Y329385D02*
X645233Y332385D01*
X642733Y329385D02*
X647733D01*
X639485Y304377D02*
Y326385D01*
Y304377D02*
X650981D01*
Y326385D01*
X639485D02*
X650981D01*
X614706Y289639D02*
Y291539D01*
X610356D02*
X614706D01*
X610356Y289639D02*
Y291539D01*
Y289639D02*
X614706D01*
Y284639D02*
Y286539D01*
X610356D02*
X614706D01*
X610356Y284639D02*
Y286539D01*
Y284639D02*
X614706D01*
Y279639D02*
Y281539D01*
X610356D02*
X614706D01*
X610356Y279639D02*
Y281539D01*
Y279639D02*
X614706D01*
Y274639D02*
Y276539D01*
X610356D02*
X614706D01*
X610356Y274639D02*
Y276539D01*
Y274639D02*
X614706D01*
X630406D02*
Y276539D01*
Y274639D02*
X634756D01*
Y276539D01*
X630406D02*
X634756D01*
X630406Y279639D02*
Y281539D01*
Y279639D02*
X634756D01*
Y281539D01*
X630406D02*
X634756D01*
X630406Y284639D02*
Y286539D01*
Y284639D02*
X634756D01*
Y286539D01*
X630406D02*
X634756D01*
X630406Y289639D02*
Y291539D01*
Y289639D02*
X634756D01*
Y291539D01*
X630406D02*
X634756D01*
X614706Y273289D02*
X630406D01*
Y292889D01*
X614706D02*
X630406D01*
X614706Y273289D02*
Y292889D01*
X670334Y282059D02*
Y323559D01*
X683834Y282059D02*
Y323559D01*
X665334D02*
X683834D01*
X665334Y282059D02*
Y323559D01*
Y282059D02*
X683834D01*
X464398Y294612D02*
Y297412D01*
Y294612D02*
X466198D01*
Y297412D01*
X464398D02*
X466198D01*
X453798Y294612D02*
Y297412D01*
X451998D02*
X453798D01*
X451998Y294612D02*
Y297412D01*
Y294612D02*
X453798D01*
X470098Y296012D02*
X475098D01*
X474098Y293512D02*
Y298512D01*
X471098Y293512D02*
X474098Y296012D01*
X471098Y294012D02*
X474098Y296012D01*
X471098Y294512D02*
X474098Y296012D01*
X471098Y295012D02*
X474098Y296012D01*
X471098Y295512D02*
X474098Y296012D01*
X471098Y298512D02*
X474098Y296012D01*
X471098Y298012D02*
X474098Y296012D01*
X471098Y297512D02*
X474098Y296012D01*
X471098Y297012D02*
X474098Y296012D01*
X471098Y296512D02*
X474098Y296012D01*
X471098Y293512D02*
Y298512D01*
X462723Y292662D02*
X464398Y294337D01*
X462723Y299362D02*
X464398Y297687D01*
X453798Y299362D02*
X464398D01*
X453798Y292662D02*
Y299362D01*
Y292662D02*
X464398D01*
Y299362D01*
X596493Y137373D02*
X607989D01*
Y115366D02*
Y137373D01*
X596493Y115366D02*
X607989D01*
X596493D02*
Y137373D01*
X599741Y140373D02*
X604741D01*
X601741D02*
X602241Y143373D01*
X601241Y140373D02*
X602241Y143373D01*
X600741Y140373D02*
X602241Y143373D01*
X600241Y140373D02*
X602241Y143373D01*
X599741Y140373D02*
X602241Y143373D01*
X602741Y140373D01*
X602241Y143373D02*
X603241Y140373D01*
X602241Y143373D02*
X603741Y140373D01*
X602241Y143373D02*
X604241Y140373D01*
X602241Y143373D02*
X604741Y140373D01*
X599741Y143373D02*
X604741D01*
X602241Y139373D02*
Y144373D01*
X442338Y275347D02*
Y296747D01*
X419738Y275347D02*
X442338D01*
X419738D02*
Y296747D01*
X442338D01*
X580835Y116156D02*
Y134656D01*
X539335Y116156D02*
X580835D01*
X539335D02*
Y134656D01*
X580835D01*
X539335Y121356D02*
X580835D01*
X535620Y74769D02*
Y94369D01*
X551320D01*
Y74769D02*
Y94369D01*
X535620Y74769D02*
X551320D01*
Y93019D02*
X555670D01*
Y91119D02*
Y93019D01*
X551320Y91119D02*
X555670D01*
X551320D02*
Y93019D01*
Y88019D02*
X555670D01*
Y86119D02*
Y88019D01*
X551320Y86119D02*
X555670D01*
X551320D02*
Y88019D01*
Y83019D02*
X555670D01*
Y81119D02*
Y83019D01*
X551320Y81119D02*
X555670D01*
X551320D02*
Y83019D01*
Y78019D02*
X555670D01*
Y76119D02*
Y78019D01*
X551320Y76119D02*
X555670D01*
X551320D02*
Y78019D01*
X531270Y76119D02*
X535620D01*
X531270D02*
Y78019D01*
X535620D01*
Y76119D02*
Y78019D01*
X531270Y81119D02*
X535620D01*
X531270D02*
Y83019D01*
X535620D01*
Y81119D02*
Y83019D01*
X531270Y86119D02*
X535620D01*
X531270D02*
Y88019D01*
X535620D01*
Y86119D02*
Y88019D01*
X531270Y91119D02*
X535620D01*
X531270D02*
Y93019D01*
X535620D01*
Y91119D02*
Y93019D01*
X40354Y147372D02*
Y166972D01*
X56054D01*
Y147372D02*
Y166972D01*
X40354Y147372D02*
X56054D01*
Y165622D02*
X60404D01*
Y163722D02*
Y165622D01*
X56054Y163722D02*
X60404D01*
X56054D02*
Y165622D01*
Y160622D02*
X60404D01*
Y158722D02*
Y160622D01*
X56054Y158722D02*
X60404D01*
X56054D02*
Y160622D01*
Y155622D02*
X60404D01*
Y153722D02*
Y155622D01*
X56054Y153722D02*
X60404D01*
X56054D02*
Y155622D01*
Y150622D02*
X60404D01*
Y148722D02*
Y150622D01*
X56054Y148722D02*
X60404D01*
X56054D02*
Y150622D01*
X36004Y148722D02*
X40354D01*
X36004D02*
Y150622D01*
X40354D01*
Y148722D02*
Y150622D01*
X36004Y153722D02*
X40354D01*
X36004D02*
Y155622D01*
X40354D01*
Y153722D02*
Y155622D01*
X36004Y158722D02*
X40354D01*
X36004D02*
Y160622D01*
X40354D01*
Y158722D02*
Y160622D01*
X36004Y163722D02*
X40354D01*
X36004D02*
Y165622D01*
X40354D01*
Y163722D02*
Y165622D01*
X105222Y447507D02*
X116718D01*
Y425500D02*
Y447507D01*
X105222Y425500D02*
X116718D01*
X105222D02*
Y447507D01*
X108470Y450507D02*
X113470D01*
X110470D02*
X110970Y453508D01*
X109970Y450507D02*
X110970Y453508D01*
X109470Y450507D02*
X110970Y453508D01*
X108970Y450507D02*
X110970Y453508D01*
X108470Y450507D02*
X110970Y453508D01*
X111470Y450507D01*
X110970Y453508D02*
X111970Y450507D01*
X110970Y453508D02*
X112470Y450507D01*
X110970Y453508D02*
X112970Y450507D01*
X110970Y453508D02*
X113470Y450507D01*
X108470Y453508D02*
X113470D01*
X110970Y449508D02*
Y454507D01*
X40339Y392954D02*
Y412554D01*
X56038D01*
Y392954D02*
Y412554D01*
X40339Y392954D02*
X56038D01*
Y411204D02*
X60388D01*
Y409304D02*
Y411204D01*
X56038Y409304D02*
X60388D01*
X56038D02*
Y411204D01*
Y406204D02*
X60388D01*
Y404304D02*
Y406204D01*
X56038Y404304D02*
X60388D01*
X56038D02*
Y406204D01*
Y401204D02*
X60388D01*
Y399304D02*
Y401204D01*
X56038Y399304D02*
X60388D01*
X56038D02*
Y401204D01*
Y396204D02*
X60388D01*
Y394304D02*
Y396204D01*
X56038Y394304D02*
X60388D01*
X56038D02*
Y396204D01*
X35989Y394304D02*
X40339D01*
X35989D02*
Y396204D01*
X40339D01*
Y394304D02*
Y396204D01*
X35989Y399304D02*
X40339D01*
X35989D02*
Y401204D01*
X40339D01*
Y399304D02*
Y401204D01*
X35989Y404304D02*
X40339D01*
X35989D02*
Y406204D01*
X40339D01*
Y404304D02*
Y406204D01*
X35989Y409304D02*
X40339D01*
X35989D02*
Y411204D01*
X40339D01*
Y409304D02*
Y411204D01*
X87563Y184017D02*
Y202517D01*
X46063Y184017D02*
X87563D01*
X46063D02*
Y202517D01*
X87563D01*
X46063Y189217D02*
X87563D01*
X105237Y201926D02*
X116733D01*
Y179918D02*
Y201926D01*
X105237Y179918D02*
X116733D01*
X105237D02*
Y201926D01*
X108485Y204926D02*
X113485D01*
X110485D02*
X110985Y207926D01*
X109985Y204926D02*
X110985Y207926D01*
X109485Y204926D02*
X110985Y207926D01*
X108985Y204926D02*
X110985Y207926D01*
X108485Y204926D02*
X110985Y207926D01*
X111485Y204926D01*
X110985Y207926D02*
X111985Y204926D01*
X110985Y207926D02*
X112485Y204926D01*
X110985Y207926D02*
X112985Y204926D01*
X110985Y207926D02*
X113485Y204926D01*
X108485Y207926D02*
X113485D01*
X110985Y203926D02*
Y208926D01*
X105241Y324831D02*
X116737D01*
Y302823D02*
Y324831D01*
X105241Y302823D02*
X116737D01*
X105241D02*
Y324831D01*
X108489Y327831D02*
X113489D01*
X110489D02*
X110989Y330831D01*
X109989Y327831D02*
X110989Y330831D01*
X109489Y327831D02*
X110989Y330831D01*
X108989Y327831D02*
X110989Y330831D01*
X108489Y327831D02*
X110989Y330831D01*
X111489Y327831D01*
X110989Y330831D02*
X111989Y327831D01*
X110989Y330831D02*
X112489Y327831D01*
X110989Y330831D02*
X112989Y327831D01*
X110989Y330831D02*
X113489Y327831D01*
X108489Y330831D02*
X113489D01*
X110989Y326831D02*
Y331831D01*
X87567Y306922D02*
Y325422D01*
X46066Y306922D02*
X87567D01*
X46066D02*
Y325422D01*
X87567D01*
X46066Y312122D02*
X87567D01*
X40357Y270278D02*
Y289878D01*
X56057D01*
Y270278D02*
Y289878D01*
X40357Y270278D02*
X56057D01*
Y288527D02*
X60407D01*
Y286628D02*
Y288527D01*
X56057Y286628D02*
X60407D01*
X56057D02*
Y288527D01*
Y283527D02*
X60407D01*
Y281627D02*
Y283527D01*
X56057Y281627D02*
X60407D01*
X56057D02*
Y283527D01*
Y278527D02*
X60407D01*
Y276627D02*
Y278527D01*
X56057Y276627D02*
X60407D01*
X56057D02*
Y278527D01*
Y273528D02*
X60407D01*
Y271627D02*
Y273528D01*
X56057Y271627D02*
X60407D01*
X56057D02*
Y273528D01*
X36007Y271627D02*
X40357D01*
X36007D02*
Y273528D01*
X40357D01*
Y271627D02*
Y273528D01*
X36007Y276627D02*
X40357D01*
X36007D02*
Y278527D01*
X40357D01*
Y276627D02*
Y278527D01*
X36007Y281627D02*
X40357D01*
X36007D02*
Y283527D01*
X40357D01*
Y281627D02*
Y283527D01*
X36007Y286628D02*
X40357D01*
X36007D02*
Y288527D01*
X40357D01*
Y286628D02*
Y288527D01*
X639458Y421319D02*
X650954D01*
Y399311D02*
Y421319D01*
X639458Y399311D02*
X650954D01*
X639458D02*
Y421319D01*
X642706Y424319D02*
X647706D01*
X644706D02*
X645206Y427319D01*
X644206Y424319D02*
X645206Y427319D01*
X643706Y424319D02*
X645206Y427319D01*
X643206Y424319D02*
X645206Y427319D01*
X642706Y424319D02*
X645206Y427319D01*
X645706Y424319D01*
X645206Y427319D02*
X646206Y424319D01*
X645206Y427319D02*
X646706Y424319D01*
X645206Y427319D02*
X647206Y424319D01*
X645206Y427319D02*
X647706Y424319D01*
X642706Y427319D02*
X647706D01*
X645206Y423319D02*
Y428319D01*
X614679Y368224D02*
Y387824D01*
X630379D01*
Y368224D02*
Y387824D01*
X614679Y368224D02*
X630379D01*
Y386474D02*
X634729D01*
Y384574D02*
Y386474D01*
X630379Y384574D02*
X634729D01*
X630379D02*
Y386474D01*
Y381474D02*
X634729D01*
Y379574D02*
Y381474D01*
X630379Y379574D02*
X634729D01*
X630379D02*
Y381474D01*
Y376474D02*
X634729D01*
Y374574D02*
Y376474D01*
X630379Y374574D02*
X634729D01*
X630379D02*
Y376474D01*
Y371474D02*
X634729D01*
Y369574D02*
Y371474D01*
X630379Y369574D02*
X634729D01*
X630379D02*
Y371474D01*
X610329Y369574D02*
X614679D01*
X610329D02*
Y371474D01*
X614679D01*
Y369574D02*
Y371474D01*
X610329Y374574D02*
X614679D01*
X610329D02*
Y376474D01*
X614679D01*
Y374574D02*
Y376474D01*
X610329Y379574D02*
X614679D01*
X610329D02*
Y381474D01*
X614679D01*
Y379574D02*
Y381474D01*
X610329Y384574D02*
X614679D01*
X610329D02*
Y386474D01*
X614679D01*
Y384574D02*
Y386474D01*
X665307Y376994D02*
X683807D01*
X665307D02*
Y418494D01*
X683807D01*
Y376994D02*
Y418494D01*
X670307Y376994D02*
Y418494D01*
X226109Y336407D02*
X530509D01*
Y418708D01*
X226109D02*
X530509D01*
X226109Y336407D02*
Y418708D01*
X310149Y262015D02*
X311249D01*
X310149Y258165D02*
Y262015D01*
Y258165D02*
X311249D01*
Y262015D01*
X312118D02*
X313218D01*
X312118Y258165D02*
Y262015D01*
Y258165D02*
X313218D01*
Y262015D01*
X314086D02*
X315186D01*
X314086Y258165D02*
Y262015D01*
Y258165D02*
X315186D01*
Y262015D01*
X316055D02*
X317155D01*
X316055Y258165D02*
Y262015D01*
Y258165D02*
X317155D01*
Y262015D01*
X318023D02*
X319123D01*
X318023Y258165D02*
Y262015D01*
Y258165D02*
X319123D01*
Y262015D01*
X318023Y274215D02*
X319123D01*
Y278065D01*
X318023D02*
X319123D01*
X318023Y274215D02*
Y278065D01*
X316055Y274215D02*
X317155D01*
Y278065D01*
X316055D02*
X317155D01*
X316055Y274215D02*
Y278065D01*
X314086Y274215D02*
X315186D01*
Y278065D01*
X314086D02*
X315186D01*
X314086Y274215D02*
Y278065D01*
X312118Y274215D02*
X313218D01*
Y278065D01*
X312118D02*
X313218D01*
X312118Y274215D02*
Y278065D01*
X310149Y274215D02*
X311249D01*
Y278065D01*
X310149D02*
X311249D01*
X310149Y274215D02*
Y278065D01*
X320736Y262015D02*
Y274215D01*
X308536D02*
X320736D01*
X308536Y262015D02*
Y274215D01*
Y262015D02*
X320736D01*
X68688Y185368D02*
X67022D01*
X67855D01*
Y187867D01*
X66189D02*
Y186201D01*
X65355Y185368D01*
X64522Y186201D01*
Y187867D01*
Y186617D01*
X66189D01*
X63689Y185368D02*
Y187867D01*
X62440D01*
X62023Y187450D01*
Y187034D01*
X62440Y186617D01*
X63689D01*
X62440D01*
X62023Y186201D01*
Y185784D01*
X62440Y185368D01*
X63689D01*
X68404Y417364D02*
X66738D01*
X67571D01*
Y419863D01*
X65905D02*
Y418197D01*
X65072Y417364D01*
X64239Y418197D01*
Y419863D01*
Y418613D01*
X65905D01*
X63406Y417364D02*
Y419863D01*
X62156D01*
X61739Y419447D01*
Y419030D01*
X62156Y418613D01*
X63406D01*
X62156D01*
X61739Y418197D01*
Y417780D01*
X62156Y417364D01*
X63406D01*
X666506Y206161D02*
Y207827D01*
Y206995D01*
X669005D01*
Y208661D02*
X667339D01*
X666506Y209494D01*
X667339Y210327D01*
X669005D01*
X667756D01*
Y208661D01*
X666506Y211160D02*
X669005D01*
Y212409D01*
X668589Y212826D01*
X668172D01*
X667756Y212409D01*
Y211160D01*
Y212409D01*
X667339Y212826D01*
X666923D01*
X666506Y212409D01*
Y211160D01*
X666585Y300934D02*
Y302600D01*
Y301767D01*
X669084D01*
Y303433D02*
X667418D01*
X666585Y304266D01*
X667418Y305099D01*
X669084D01*
X667834D01*
Y303433D01*
X666585Y305932D02*
X669084D01*
Y307182D01*
X668667Y307598D01*
X668251D01*
X667834Y307182D01*
Y305932D01*
Y307182D01*
X667418Y307598D01*
X667001D01*
X666585Y307182D01*
Y305932D01*
X561960Y117507D02*
X560294D01*
X561127D01*
Y120006D01*
X559461D02*
Y118340D01*
X558628Y117507D01*
X557795Y118340D01*
Y120006D01*
Y118756D01*
X559461D01*
X556962Y117507D02*
Y120006D01*
X555712D01*
X555296Y119589D01*
Y119173D01*
X555712Y118756D01*
X556962D01*
X555712D01*
X555296Y118340D01*
Y117923D01*
X555712Y117507D01*
X556962D01*
X68691Y308273D02*
X67025D01*
X67858D01*
Y310772D01*
X66192D02*
Y309106D01*
X65359Y308273D01*
X64526Y309106D01*
Y310772D01*
Y309523D01*
X66192D01*
X63693Y308273D02*
Y310772D01*
X62444D01*
X62027Y310356D01*
Y309939D01*
X62444Y309523D01*
X63693D01*
X62444D01*
X62027Y309106D01*
Y308689D01*
X62444Y308273D01*
X63693D01*
X666558Y395869D02*
Y397535D01*
Y396702D01*
X669057D01*
Y398368D02*
X667391D01*
X666558Y399201D01*
X667391Y400034D01*
X669057D01*
X667807D01*
Y398368D01*
X666558Y400867D02*
X669057D01*
Y402117D01*
X668641Y402533D01*
X668224D01*
X667807Y402117D01*
Y400867D01*
Y402117D01*
X667391Y402533D01*
X666974D01*
X666558Y402117D01*
Y400867D01*
M02*
