G04*
G04 #@! TF.GenerationSoftware,Altium Limited,Altium Designer,22.2.1 (43)*
G04*
G04 Layer_Color=65535*
%FSLAX25Y25*%
%MOIN*%
G70*
G04*
G04 #@! TF.SameCoordinates,A442F040-2D2B-445B-BC8B-0DACE6EA8BBB*
G04*
G04*
G04 #@! TF.FilePolarity,Positive*
G04*
G01*
G75*
%ADD10C,0.00600*%
%ADD11C,0.00984*%
%ADD12C,0.01000*%
%ADD13C,0.01968*%
%ADD14C,0.00787*%
%ADD15C,0.02000*%
%ADD16C,0.00500*%
%ADD17C,0.00300*%
%ADD18C,0.00591*%
G36*
X309949Y280465D02*
Y281465D01*
X311449D01*
Y280465D01*
X309949D01*
D02*
G37*
D10*
X95279Y428041D02*
G03*
X95279Y428041I-500J0D01*
G01*
X675005Y179786D02*
G03*
X675005Y179786I-500J0D01*
G01*
X675084Y274559D02*
G03*
X675084Y274559I-500J0D01*
G01*
X538276Y284754D02*
G03*
X538276Y284754I-13900J0D01*
G01*
X588835Y128184D02*
G03*
X588835Y128184I-500J0D01*
G01*
X95563Y196045D02*
G03*
X95563Y196045I-500J0D01*
G01*
X95566Y318950D02*
G03*
X95566Y318950I-500J0D01*
G01*
X675057Y369494D02*
G03*
X675057Y369494I-500J0D01*
G01*
X87779Y415513D02*
Y435013D01*
X45279Y415513D02*
X87779D01*
X45279D02*
Y435013D01*
X87779D01*
X45779Y420713D02*
X87279D01*
X678251Y85203D02*
Y92368D01*
Y95046D02*
Y100242D01*
Y102920D02*
Y110085D01*
X698650Y71344D02*
X733751D01*
X678251Y123944D02*
X686962D01*
X678251Y71344D02*
Y82525D01*
X733751Y71344D02*
Y123944D01*
X698650D02*
X733751D01*
X678251Y112763D02*
Y123944D01*
Y71344D02*
X686962D01*
X679251Y97144D02*
Y98144D01*
X678251D02*
X679251D01*
X678251Y97144D02*
Y98144D01*
Y97144D02*
X679251D01*
X649673Y209104D02*
X651402D01*
X645154Y233612D02*
Y238612D01*
X642654Y237612D02*
X647654D01*
X645154D02*
X647654Y234612D01*
X645154Y237612D02*
X647154Y234612D01*
X645154Y237612D02*
X646654Y234612D01*
X645154Y237612D02*
X646154Y234612D01*
X645154Y237612D02*
X645654Y234612D01*
X642654D02*
X645154Y237612D01*
X643154Y234612D02*
X645154Y237612D01*
X643654Y234612D02*
X645154Y237612D01*
X644154Y234612D02*
X645154Y237612D01*
X644654Y234612D02*
X645154Y237612D01*
X642654Y234612D02*
X647654D01*
X638906Y209104D02*
Y232112D01*
Y209104D02*
X640636D01*
X651402D02*
Y232112D01*
X649673D02*
X651402D01*
X638906D02*
X640636D01*
X614127Y178017D02*
X630827D01*
X614127Y198617D02*
X630827D01*
X669755Y187286D02*
Y228786D01*
X684255Y186786D02*
Y229287D01*
X664755D02*
X684255D01*
X664755Y186786D02*
Y229287D01*
Y186786D02*
X684255D01*
X649752Y303877D02*
X651481D01*
X645233Y328385D02*
Y333385D01*
X642733Y332385D02*
X647733D01*
X645233D02*
X647733Y329385D01*
X645233Y332385D02*
X647233Y329385D01*
X645233Y332385D02*
X646733Y329385D01*
X645233Y332385D02*
X646233Y329385D01*
X645233Y332385D02*
X645733Y329385D01*
X642733D02*
X645233Y332385D01*
X643233Y329385D02*
X645233Y332385D01*
X643733Y329385D02*
X645233Y332385D01*
X644233Y329385D02*
X645233Y332385D01*
X644733Y329385D02*
X645233Y332385D01*
X642733Y329385D02*
X647733D01*
X638985Y303877D02*
Y326885D01*
Y303877D02*
X640714D01*
X651481D02*
Y326885D01*
X649752D02*
X651481D01*
X638985D02*
X640714D01*
X614206Y272789D02*
X630906D01*
X614206Y293389D02*
X630906D01*
X669834Y282059D02*
Y323559D01*
X684334Y281559D02*
Y324059D01*
X664834D02*
X684334D01*
X664834Y281559D02*
Y324059D01*
Y281559D02*
X684334D01*
X524376Y299154D02*
Y304154D01*
X521876Y301654D02*
X526876D01*
X453298Y292162D02*
Y293202D01*
X470098Y296012D02*
X475098D01*
X474098Y293512D02*
Y298512D01*
X471098Y293512D02*
X474098Y296012D01*
X471098Y294012D02*
X474098Y296012D01*
X471098Y294512D02*
X474098Y296012D01*
X471098Y295012D02*
X474098Y296012D01*
X471098Y295512D02*
X474098Y296012D01*
X471098Y298512D02*
X474098Y296012D01*
X471098Y298012D02*
X474098Y296012D01*
X471098Y297512D02*
X474098Y296012D01*
X471098Y297012D02*
X474098Y296012D01*
X471098Y296512D02*
X474098Y296012D01*
X471098Y293512D02*
Y298512D01*
X453298Y299862D02*
X464898D01*
X453298Y298822D02*
Y299862D01*
Y292162D02*
X464898D01*
Y293202D01*
Y298822D02*
Y299862D01*
X595993Y137873D02*
X597722D01*
X606760D02*
X608489D01*
Y114866D02*
Y137873D01*
X595993Y114866D02*
X597722D01*
X595993D02*
Y137873D01*
X599741Y140373D02*
X604741D01*
X601741D02*
X602241Y143373D01*
X601241Y140373D02*
X602241Y143373D01*
X600741Y140373D02*
X602241Y143373D01*
X600241Y140373D02*
X602241Y143373D01*
X599741Y140373D02*
X602241Y143373D01*
X602741Y140373D01*
X602241Y143373D02*
X603241Y140373D01*
X602241Y143373D02*
X603741Y140373D01*
X602241Y143373D02*
X604241Y140373D01*
X602241Y143373D02*
X604741Y140373D01*
X599741Y143373D02*
X604741D01*
X602241Y139373D02*
Y144373D01*
X606760Y114866D02*
X608489D01*
X419238Y274847D02*
Y279237D01*
X442838Y292857D02*
Y297247D01*
Y274847D02*
Y279237D01*
X419238Y274847D02*
X442838D01*
X419238Y292857D02*
Y297247D01*
X442838D01*
X581335Y115656D02*
Y135156D01*
X538835Y115656D02*
X581335D01*
X538835D02*
Y135156D01*
X581335D01*
X539335Y120856D02*
X580835D01*
X535120Y94869D02*
X551820D01*
X535120Y74269D02*
X551820D01*
X39854Y167472D02*
X56554D01*
X39854Y146872D02*
X56554D01*
X104722Y448007D02*
X106452D01*
X115489D02*
X117218D01*
Y425000D02*
Y448007D01*
X104722Y425000D02*
X106452D01*
X104722D02*
Y448007D01*
X108470Y450507D02*
X113470D01*
X110470D02*
X110970Y453508D01*
X109970Y450507D02*
X110970Y453508D01*
X109470Y450507D02*
X110970Y453508D01*
X108970Y450507D02*
X110970Y453508D01*
X108470Y450507D02*
X110970Y453508D01*
X111470Y450507D01*
X110970Y453508D02*
X111970Y450507D01*
X110970Y453508D02*
X112470Y450507D01*
X110970Y453508D02*
X112970Y450507D01*
X110970Y453508D02*
X113470Y450507D01*
X108470Y453508D02*
X113470D01*
X110970Y449508D02*
Y454507D01*
X115489Y425000D02*
X117218D01*
X39838Y413054D02*
X56538D01*
X39838Y392454D02*
X56538D01*
X88063Y183517D02*
Y203017D01*
X45563Y183517D02*
X88063D01*
X45563D02*
Y203017D01*
X88063D01*
X46063Y188717D02*
X87563D01*
X104737Y202426D02*
X106466D01*
X115504D02*
X117233D01*
Y179418D02*
Y202426D01*
X104737Y179418D02*
X106466D01*
X104737D02*
Y202426D01*
X108485Y204926D02*
X113485D01*
X110485D02*
X110985Y207926D01*
X109985Y204926D02*
X110985Y207926D01*
X109485Y204926D02*
X110985Y207926D01*
X108985Y204926D02*
X110985Y207926D01*
X108485Y204926D02*
X110985Y207926D01*
X111485Y204926D01*
X110985Y207926D02*
X111985Y204926D01*
X110985Y207926D02*
X112485Y204926D01*
X110985Y207926D02*
X112985Y204926D01*
X110985Y207926D02*
X113485Y204926D01*
X108485Y207926D02*
X113485D01*
X110985Y203926D02*
Y208926D01*
X115504Y179418D02*
X117233D01*
X104741Y325331D02*
X106470D01*
X115508D02*
X117237D01*
Y302323D02*
Y325331D01*
X104741Y302323D02*
X106470D01*
X104741D02*
Y325331D01*
X108489Y327831D02*
X113489D01*
X110489D02*
X110989Y330831D01*
X109989Y327831D02*
X110989Y330831D01*
X109489Y327831D02*
X110989Y330831D01*
X108989Y327831D02*
X110989Y330831D01*
X108489Y327831D02*
X110989Y330831D01*
X111489Y327831D01*
X110989Y330831D02*
X111989Y327831D01*
X110989Y330831D02*
X112489Y327831D01*
X110989Y330831D02*
X112989Y327831D01*
X110989Y330831D02*
X113489Y327831D01*
X108489Y330831D02*
X113489D01*
X110989Y326831D02*
Y331831D01*
X115508Y302323D02*
X117237D01*
X88067Y306422D02*
Y325922D01*
X45566Y306422D02*
X88067D01*
X45566D02*
Y325922D01*
X88067D01*
X46066Y311622D02*
X87567D01*
X39857Y290377D02*
X56557D01*
X39857Y269777D02*
X56557D01*
X638958Y421819D02*
X640688D01*
X649725D02*
X651454D01*
Y398811D02*
Y421819D01*
X638958Y398811D02*
X640688D01*
X638958D02*
Y421819D01*
X642706Y424319D02*
X647706D01*
X644706D02*
X645206Y427319D01*
X644206Y424319D02*
X645206Y427319D01*
X643706Y424319D02*
X645206Y427319D01*
X643206Y424319D02*
X645206Y427319D01*
X642706Y424319D02*
X645206Y427319D01*
X645706Y424319D01*
X645206Y427319D02*
X646206Y424319D01*
X645206Y427319D02*
X646706Y424319D01*
X645206Y427319D02*
X647206Y424319D01*
X645206Y427319D02*
X647706Y424319D01*
X642706Y427319D02*
X647706D01*
X645206Y423319D02*
Y428319D01*
X649725Y398811D02*
X651454D01*
X614179Y388324D02*
X630879D01*
X614179Y367724D02*
X630879D01*
X664807Y376494D02*
X684307D01*
X664807D02*
Y418994D01*
X684307D01*
Y376494D02*
Y418994D01*
X669807Y376994D02*
Y418494D01*
X225609Y335908D02*
X531009D01*
Y419207D01*
X225609D02*
X531009D01*
X225609Y335908D02*
Y419207D01*
X312475Y248859D02*
X316746D01*
X312475Y241560D02*
X316746D01*
X321236Y261515D02*
Y274715D01*
X308036Y261515D02*
Y274715D01*
X30046Y167523D02*
Y170189D01*
X28047D01*
X28713Y168856D01*
Y168190D01*
X28047Y167523D01*
X26714D01*
X26047Y168190D01*
Y169523D01*
X26714Y170189D01*
X30046Y166191D02*
X27380D01*
X26047Y164858D01*
X27380Y163525D01*
X30046D01*
X29479Y129023D02*
X30146Y129690D01*
Y131023D01*
X29479Y131689D01*
X26814D01*
X26147Y131023D01*
Y129690D01*
X26814Y129023D01*
X28146D01*
Y130356D01*
X26147Y127690D02*
X30146D01*
X26147Y125025D01*
X30146D01*
Y123692D02*
X26147D01*
Y121692D01*
X26814Y121026D01*
X29479D01*
X30146Y121692D01*
Y123692D01*
X30906Y293878D02*
Y296544D01*
X28907D01*
X29573Y295211D01*
Y294544D01*
X28907Y293878D01*
X27574D01*
X26907Y294544D01*
Y295877D01*
X27574Y296544D01*
X30906Y292545D02*
X28240D01*
X26907Y291212D01*
X28240Y289879D01*
X30906D01*
X30340Y255378D02*
X31006Y256044D01*
Y257377D01*
X30340Y258044D01*
X27674D01*
X27007Y257377D01*
Y256044D01*
X27674Y255378D01*
X29007D01*
Y256711D01*
X27007Y254045D02*
X31006D01*
X27007Y251379D01*
X31006D01*
Y250046D02*
X27007D01*
Y248047D01*
X27674Y247380D01*
X30340D01*
X31006Y248047D01*
Y250046D01*
X29811Y416439D02*
Y419105D01*
X27812D01*
X28478Y417772D01*
Y417106D01*
X27812Y416439D01*
X26479D01*
X25813Y417106D01*
Y418439D01*
X26479Y419105D01*
X29811Y415106D02*
X27145D01*
X25813Y413773D01*
X27145Y412441D01*
X29811D01*
X29245Y377939D02*
X29911Y378606D01*
Y379939D01*
X29245Y380605D01*
X26579D01*
X25912Y379939D01*
Y378606D01*
X26579Y377939D01*
X27912D01*
Y379272D01*
X25912Y376606D02*
X29911D01*
X25912Y373941D01*
X29911D01*
Y372608D02*
X25912D01*
Y370608D01*
X26579Y369942D01*
X29245D01*
X29911Y370608D01*
Y372608D01*
X343753Y185181D02*
Y183848D01*
Y184514D01*
X347752D01*
X347085Y185181D01*
X343581Y77307D02*
Y75974D01*
Y76640D01*
X347580D01*
X346914Y77307D01*
X343581Y71309D02*
Y73975D01*
X346247Y71309D01*
X346914D01*
X347580Y71975D01*
Y73308D01*
X346914Y73975D01*
X243170Y77198D02*
Y75866D01*
Y76532D01*
X247169D01*
X246503Y77198D01*
X243170Y71201D02*
Y73866D01*
X245836Y71201D01*
X246503D01*
X247169Y71867D01*
Y73200D01*
X246503Y73866D01*
X242634Y185174D02*
Y183841D01*
Y184507D01*
X246633D01*
X245966Y185174D01*
X472178Y182652D02*
Y183985D01*
Y183318D01*
X468180D01*
X468846Y182652D01*
X468180Y188650D02*
X468846Y187317D01*
X470179Y185984D01*
X471512D01*
X472178Y186651D01*
Y187984D01*
X471512Y188650D01*
X470845D01*
X470179Y187984D01*
Y185984D01*
X472163Y34608D02*
Y35941D01*
Y35274D01*
X468165D01*
X468831Y34608D01*
X392044Y74645D02*
Y75978D01*
Y75311D01*
X388045D01*
X388711Y74645D01*
X391862Y182613D02*
Y183946D01*
Y183280D01*
X387863D01*
X388529Y182613D01*
X391862Y188611D02*
Y185945D01*
X389196Y188611D01*
X388529D01*
X387863Y187945D01*
Y186612D01*
X388529Y185945D01*
D11*
X574453Y197628D02*
G03*
X574453Y197628I-492J0D01*
G01*
X574532Y292401D02*
G03*
X574532Y292401I-492J0D01*
G01*
X258007Y152648D02*
G03*
X258007Y152648I-492J0D01*
G01*
X435440Y266697D02*
G03*
X435440Y266697I-492J0D01*
G01*
X647887Y80110D02*
G03*
X647887Y80110I-492J0D01*
G01*
X624782Y79487D02*
G03*
X624782Y79487I-492J0D01*
G01*
X155634Y126120D02*
G03*
X155634Y126120I-492J0D01*
G01*
X591942Y60406D02*
G03*
X591942Y60406I-492J0D01*
G01*
X155619Y371702D02*
G03*
X155619Y371702I-492J0D01*
G01*
X93499Y370980D02*
G03*
X93499Y370980I-492J0D01*
G01*
X135421Y374184D02*
G03*
X135421Y374184I-492J0D01*
G01*
X135435Y128603D02*
G03*
X135435Y128603I-492J0D01*
G01*
X93514Y125398D02*
G03*
X93514Y125398I-492J0D01*
G01*
X155638Y249025D02*
G03*
X155638Y249025I-492J0D01*
G01*
X93518Y248303D02*
G03*
X93518Y248303I-492J0D01*
G01*
X135439Y251508D02*
G03*
X135439Y251508I-492J0D01*
G01*
X574505Y387336D02*
G03*
X574505Y387336I-492J0D01*
G01*
X238159Y271762D02*
G03*
X238159Y271762I-492J0D01*
G01*
D12*
X19967Y75444D02*
G03*
X19967Y75444I-5000J0D01*
G01*
X304969Y232445D02*
G03*
X304969Y232445I-5000J0D01*
G01*
X548354Y241621D02*
G03*
X548354Y241621I-5000J0D01*
G01*
X30243Y437067D02*
G03*
X30243Y437067I-5000J0D01*
G01*
X33001Y197949D02*
G03*
X33001Y197949I-5000J0D01*
G01*
X31161Y320550D02*
G03*
X31161Y320550I-5000J0D01*
G01*
X221351Y233769D02*
G03*
X221351Y233769I-5000J0D01*
G01*
X199559Y386057D02*
X211559D01*
X205559Y379058D02*
Y392057D01*
X332855Y455725D02*
X328856D01*
Y449727D01*
X332855D01*
X328856Y452726D02*
X330855D01*
X338853Y455725D02*
X334854D01*
Y449727D01*
X338853D01*
X334854Y452726D02*
X336853D01*
X346850Y453725D02*
X348849Y449727D01*
X350849Y453725D01*
X352848Y449727D02*
X354848D01*
X353848D01*
Y455725D01*
X352848Y454725D01*
X357846Y449727D02*
Y450726D01*
X358846D01*
Y449727D01*
X357846D01*
X362845Y454725D02*
X363845Y455725D01*
X365844D01*
X366844Y454725D01*
Y450726D01*
X365844Y449727D01*
X363845D01*
X362845Y450726D01*
Y454725D01*
X12881Y109826D02*
Y115824D01*
X15880D01*
X16880Y114825D01*
Y112825D01*
X15880Y111826D01*
X12881D01*
X18879Y109826D02*
X20878D01*
X19879D01*
Y115824D01*
X18879Y114825D01*
X23878D02*
X24877Y115824D01*
X26877D01*
X27876Y114825D01*
Y110826D01*
X26877Y109826D01*
X24877D01*
X23878Y110826D01*
Y114825D01*
X33874Y109826D02*
X29876D01*
X33874Y113825D01*
Y114825D01*
X32875Y115824D01*
X30875D01*
X29876Y114825D01*
X12785Y236255D02*
Y242253D01*
X15784D01*
X16783Y241253D01*
Y239254D01*
X15784Y238254D01*
X12785D01*
X18783Y236255D02*
X20782D01*
X19782D01*
Y242253D01*
X18783Y241253D01*
X23781D02*
X24781Y242253D01*
X26780D01*
X27780Y241253D01*
Y237255D01*
X26780Y236255D01*
X24781D01*
X23781Y237255D01*
Y241253D01*
X29779Y236255D02*
X31778D01*
X30779D01*
Y242253D01*
X29779Y241253D01*
X10021Y358545D02*
Y364543D01*
X13020D01*
X14020Y363543D01*
Y361544D01*
X13020Y360544D01*
X10021D01*
X16019Y358545D02*
X18019D01*
X17019D01*
Y364543D01*
X16019Y363543D01*
X21018D02*
X22017Y364543D01*
X24017D01*
X25016Y363543D01*
Y359544D01*
X24017Y358545D01*
X22017D01*
X21018Y359544D01*
Y363543D01*
X27016D02*
X28016Y364543D01*
X30015D01*
X31015Y363543D01*
Y359544D01*
X30015Y358545D01*
X28016D01*
X27016Y359544D01*
Y363543D01*
X568725Y70822D02*
X564726D01*
Y72821D01*
X565393Y73488D01*
X566725D01*
X567392Y72821D01*
Y70822D01*
Y72155D02*
X568725Y73488D01*
X564726Y74821D02*
Y77487D01*
X565393D01*
X568058Y74821D01*
X568725D01*
X565393Y78820D02*
X564726Y79486D01*
Y80819D01*
X565393Y81485D01*
X568058D01*
X568725Y80819D01*
Y79486D01*
X568058Y78820D01*
X565393D01*
X568725Y82818D02*
Y84151D01*
Y83485D01*
X564726D01*
X565393Y82818D01*
X94754Y289415D02*
Y293413D01*
X96753D01*
X97420Y292747D01*
Y291414D01*
X96753Y290748D01*
X94754D01*
X96087D02*
X97420Y289415D01*
X101418D02*
X98752D01*
X101418Y292080D01*
Y292747D01*
X100752Y293413D01*
X99419D01*
X98752Y292747D01*
X102751D02*
X103418Y293413D01*
X104751D01*
X105417Y292747D01*
Y290081D01*
X104751Y289415D01*
X103418D01*
X102751Y290081D01*
Y292747D01*
X106750D02*
X107416Y293413D01*
X108749D01*
X109416Y292747D01*
Y290081D01*
X108749Y289415D01*
X107416D01*
X106750Y290081D01*
Y292747D01*
X110749Y293413D02*
Y289415D01*
X112748D01*
X113415Y290081D01*
Y290748D01*
X112748Y291414D01*
X110749D01*
X112748D01*
X113415Y292080D01*
Y292747D01*
X112748Y293413D01*
X110749D01*
X664003Y235737D02*
Y232405D01*
X664670Y231738D01*
X666003D01*
X666669Y232405D01*
Y235737D01*
X670668D02*
X669335Y235070D01*
X668002Y233737D01*
Y232405D01*
X668669Y231738D01*
X670001D01*
X670668Y232405D01*
Y233071D01*
X670001Y233737D01*
X668002D01*
X672001Y235070D02*
X672667Y235737D01*
X674000D01*
X674667Y235070D01*
Y232405D01*
X674000Y231738D01*
X672667D01*
X672001Y232405D01*
Y235070D01*
X678665Y231738D02*
X675999D01*
X678665Y234404D01*
Y235070D01*
X677999Y235737D01*
X676666D01*
X675999Y235070D01*
X682664D02*
X681997Y235737D01*
X680665D01*
X679998Y235070D01*
Y232405D01*
X680665Y231738D01*
X681997D01*
X682664Y232405D01*
X665265Y331120D02*
Y327787D01*
X665931Y327121D01*
X667264D01*
X667930Y327787D01*
Y331120D01*
X671929D02*
X670596Y330453D01*
X669263Y329120D01*
Y327787D01*
X669930Y327121D01*
X671263D01*
X671929Y327787D01*
Y328454D01*
X671263Y329120D01*
X669263D01*
X673262Y330453D02*
X673928Y331120D01*
X675261D01*
X675928Y330453D01*
Y327787D01*
X675261Y327121D01*
X673928D01*
X673262Y327787D01*
Y330453D01*
X679927Y327121D02*
X677261D01*
X679927Y329787D01*
Y330453D01*
X679260Y331120D01*
X677927D01*
X677261Y330453D01*
X681259Y331120D02*
Y327121D01*
X683259D01*
X683925Y327787D01*
Y328454D01*
X683259Y329120D01*
X681259D01*
X683259D01*
X683925Y329787D01*
Y330453D01*
X683259Y331120D01*
X681259D01*
X613203Y173186D02*
Y169854D01*
X613870Y169187D01*
X615203D01*
X615869Y169854D01*
Y173186D01*
X619868D02*
X618535Y172519D01*
X617202Y171186D01*
Y169854D01*
X617869Y169187D01*
X619201D01*
X619868Y169854D01*
Y170520D01*
X619201Y171186D01*
X617202D01*
X621201Y172519D02*
X621867Y173186D01*
X623200D01*
X623867Y172519D01*
Y169854D01*
X623200Y169187D01*
X621867D01*
X621201Y169854D01*
Y172519D01*
X625199Y169187D02*
X626532D01*
X625866D01*
Y173186D01*
X625199Y172519D01*
X631198D02*
X630531Y173186D01*
X629198D01*
X628532Y172519D01*
Y169854D01*
X629198Y169187D01*
X630531D01*
X631198Y169854D01*
X613282Y267958D02*
Y264626D01*
X613948Y263960D01*
X615281D01*
X615948Y264626D01*
Y267958D01*
X619946D02*
X618613Y267292D01*
X617280Y265959D01*
Y264626D01*
X617947Y263960D01*
X619280D01*
X619946Y264626D01*
Y265293D01*
X619280Y265959D01*
X617280D01*
X621279Y267292D02*
X621946Y267958D01*
X623279D01*
X623945Y267292D01*
Y264626D01*
X623279Y263960D01*
X621946D01*
X621279Y264626D01*
Y267292D01*
X625278Y263960D02*
X626611D01*
X625944D01*
Y267958D01*
X625278Y267292D01*
X628610Y267958D02*
Y263960D01*
X630610D01*
X631276Y264626D01*
Y265293D01*
X630610Y265959D01*
X628610D01*
X630610D01*
X631276Y266626D01*
Y267292D01*
X630610Y267958D01*
X628610D01*
X577919Y189820D02*
Y186487D01*
X578586Y185821D01*
X579918D01*
X580585Y186487D01*
Y189820D01*
X584584D02*
X583251Y189153D01*
X581918Y187820D01*
Y186487D01*
X582584Y185821D01*
X583917D01*
X584584Y186487D01*
Y187154D01*
X583917Y187820D01*
X581918D01*
X585917Y189153D02*
X586583Y189820D01*
X587916D01*
X588582Y189153D01*
Y186487D01*
X587916Y185821D01*
X586583D01*
X585917Y186487D01*
Y189153D01*
X589915D02*
X590582Y189820D01*
X591915D01*
X592581Y189153D01*
Y186487D01*
X591915Y185821D01*
X590582D01*
X589915Y186487D01*
Y189153D01*
X596580D02*
X595913Y189820D01*
X594580D01*
X593914Y189153D01*
Y186487D01*
X594580Y185821D01*
X595913D01*
X596580Y186487D01*
X577998Y284592D02*
Y281260D01*
X578664Y280594D01*
X579997D01*
X580663Y281260D01*
Y284592D01*
X584662D02*
X583329Y283926D01*
X581996Y282593D01*
Y281260D01*
X582663Y280594D01*
X583996D01*
X584662Y281260D01*
Y281926D01*
X583996Y282593D01*
X581996D01*
X585995Y283926D02*
X586661Y284592D01*
X587994D01*
X588661Y283926D01*
Y281260D01*
X587994Y280594D01*
X586661D01*
X585995Y281260D01*
Y283926D01*
X589994D02*
X590660Y284592D01*
X591993D01*
X592660Y283926D01*
Y281260D01*
X591993Y280594D01*
X590660D01*
X589994Y281260D01*
Y283926D01*
X593992Y284592D02*
Y280594D01*
X595992D01*
X596658Y281260D01*
Y281926D01*
X595992Y282593D01*
X593992D01*
X595992D01*
X596658Y283260D01*
Y283926D01*
X595992Y284592D01*
X593992D01*
X648092Y170875D02*
X644093D01*
Y172874D01*
X644759Y173541D01*
X646092D01*
X646759Y172874D01*
Y170875D01*
Y172208D02*
X648092Y173541D01*
X644093Y177540D02*
X644759Y176207D01*
X646092Y174874D01*
X647425D01*
X648092Y175540D01*
Y176873D01*
X647425Y177540D01*
X646759D01*
X646092Y176873D01*
Y174874D01*
X644759Y178873D02*
X644093Y179539D01*
Y180872D01*
X644759Y181538D01*
X647425D01*
X648092Y180872D01*
Y179539D01*
X647425Y178873D01*
X644759D01*
Y182871D02*
X644093Y183538D01*
Y184871D01*
X644759Y185537D01*
X645426D01*
X646092Y184871D01*
Y184204D01*
Y184871D01*
X646759Y185537D01*
X647425D01*
X648092Y184871D01*
Y183538D01*
X647425Y182871D01*
X644759Y189536D02*
X644093Y188869D01*
Y187536D01*
X644759Y186870D01*
X647425D01*
X648092Y187536D01*
Y188869D01*
X647425Y189536D01*
X648170Y265648D02*
X644171D01*
Y267647D01*
X644838Y268314D01*
X646171D01*
X646837Y267647D01*
Y265648D01*
Y266981D02*
X648170Y268314D01*
X644171Y272312D02*
X644838Y270979D01*
X646171Y269646D01*
X647504D01*
X648170Y270313D01*
Y271646D01*
X647504Y272312D01*
X646837D01*
X646171Y271646D01*
Y269646D01*
X644838Y273645D02*
X644171Y274312D01*
Y275644D01*
X644838Y276311D01*
X647504D01*
X648170Y275644D01*
Y274312D01*
X647504Y273645D01*
X644838D01*
Y277644D02*
X644171Y278310D01*
Y279643D01*
X644838Y280310D01*
X645504D01*
X646171Y279643D01*
Y278977D01*
Y279643D01*
X646837Y280310D01*
X647504D01*
X648170Y279643D01*
Y278310D01*
X647504Y277644D01*
X644171Y281643D02*
X648170D01*
Y283642D01*
X647504Y284308D01*
X646837D01*
X646171Y283642D01*
Y281643D01*
Y283642D01*
X645504Y284308D01*
X644838D01*
X644171Y283642D01*
Y281643D01*
X612814Y203064D02*
Y207063D01*
X614814D01*
X615480Y206397D01*
Y205064D01*
X614814Y204397D01*
X612814D01*
X614147D02*
X615480Y203064D01*
X619479Y207063D02*
X618146Y206397D01*
X616813Y205064D01*
Y203731D01*
X617479Y203064D01*
X618812D01*
X619479Y203731D01*
Y204397D01*
X618812Y205064D01*
X616813D01*
X620812Y206397D02*
X621478Y207063D01*
X622811D01*
X623478Y206397D01*
Y203731D01*
X622811Y203064D01*
X621478D01*
X620812Y203731D01*
Y206397D01*
X627476Y203064D02*
X624810D01*
X627476Y205730D01*
Y206397D01*
X626810Y207063D01*
X625477D01*
X624810Y206397D01*
X631475D02*
X630808Y207063D01*
X629475D01*
X628809Y206397D01*
Y203731D01*
X629475Y203064D01*
X630808D01*
X631475Y203731D01*
X612893Y297837D02*
Y301836D01*
X614892D01*
X615558Y301169D01*
Y299836D01*
X614892Y299170D01*
X612893D01*
X614226D02*
X615558Y297837D01*
X619557Y301836D02*
X618224Y301169D01*
X616891Y299836D01*
Y298504D01*
X617558Y297837D01*
X618891D01*
X619557Y298504D01*
Y299170D01*
X618891Y299836D01*
X616891D01*
X620890Y301169D02*
X621557Y301836D01*
X622890D01*
X623556Y301169D01*
Y298504D01*
X622890Y297837D01*
X621557D01*
X620890Y298504D01*
Y301169D01*
X627555Y297837D02*
X624889D01*
X627555Y300503D01*
Y301169D01*
X626888Y301836D01*
X625555D01*
X624889Y301169D01*
X628888Y301836D02*
Y297837D01*
X630887D01*
X631553Y298504D01*
Y299170D01*
X630887Y299836D01*
X628888D01*
X630887D01*
X631553Y300503D01*
Y301169D01*
X630887Y301836D01*
X628888D01*
X602344Y213834D02*
X598345D01*
Y215833D01*
X599012Y216499D01*
X600345D01*
X601011Y215833D01*
Y213834D01*
Y215167D02*
X602344Y216499D01*
X598345Y220498D02*
X599012Y219165D01*
X600345Y217832D01*
X601678D01*
X602344Y218499D01*
Y219832D01*
X601678Y220498D01*
X601011D01*
X600345Y219832D01*
Y217832D01*
X599012Y221831D02*
X598345Y222498D01*
Y223831D01*
X599012Y224497D01*
X601678D01*
X602344Y223831D01*
Y222498D01*
X601678Y221831D01*
X599012D01*
X602344Y225830D02*
Y227163D01*
Y226496D01*
X598345D01*
X599012Y225830D01*
Y231828D02*
X598345Y231161D01*
Y229829D01*
X599012Y229162D01*
X601678D01*
X602344Y229829D01*
Y231161D01*
X601678Y231828D01*
X602423Y308606D02*
X598424D01*
Y310606D01*
X599090Y311272D01*
X600423D01*
X601090Y310606D01*
Y308606D01*
Y309939D02*
X602423Y311272D01*
X598424Y315271D02*
X599090Y313938D01*
X600423Y312605D01*
X601756D01*
X602423Y313271D01*
Y314604D01*
X601756Y315271D01*
X601090D01*
X600423Y314604D01*
Y312605D01*
X599090Y316604D02*
X598424Y317270D01*
Y318603D01*
X599090Y319270D01*
X601756D01*
X602423Y318603D01*
Y317270D01*
X601756Y316604D01*
X599090D01*
X602423Y320602D02*
Y321935D01*
Y321269D01*
X598424D01*
X599090Y320602D01*
X598424Y323935D02*
X602423D01*
Y325934D01*
X601756Y326601D01*
X601090D01*
X600423Y325934D01*
Y323935D01*
Y325934D01*
X599757Y326601D01*
X599090D01*
X598424Y325934D01*
Y323935D01*
X576378Y240283D02*
Y244281D01*
X578377D01*
X579044Y243615D01*
Y242282D01*
X578377Y241615D01*
X576378D01*
X577711D02*
X579044Y240283D01*
X583042Y244281D02*
X581709Y243615D01*
X580376Y242282D01*
Y240949D01*
X581043Y240283D01*
X582376D01*
X583042Y240949D01*
Y241615D01*
X582376Y242282D01*
X580376D01*
X584375Y243615D02*
X585042Y244281D01*
X586375D01*
X587041Y243615D01*
Y240949D01*
X586375Y240283D01*
X585042D01*
X584375Y240949D01*
Y243615D01*
X588374D02*
X589040Y244281D01*
X590373D01*
X591040Y243615D01*
Y240949D01*
X590373Y240283D01*
X589040D01*
X588374Y240949D01*
Y243615D01*
X595038D02*
X594372Y244281D01*
X593039D01*
X592373Y243615D01*
Y240949D01*
X593039Y240283D01*
X594372D01*
X595038Y240949D01*
X576456Y335055D02*
Y339054D01*
X578456D01*
X579122Y338387D01*
Y337054D01*
X578456Y336388D01*
X576456D01*
X577789D02*
X579122Y335055D01*
X583121Y339054D02*
X581788Y338387D01*
X580455Y337054D01*
Y335722D01*
X581121Y335055D01*
X582454D01*
X583121Y335722D01*
Y336388D01*
X582454Y337054D01*
X580455D01*
X584454Y338387D02*
X585120Y339054D01*
X586453D01*
X587119Y338387D01*
Y335722D01*
X586453Y335055D01*
X585120D01*
X584454Y335722D01*
Y338387D01*
X588452D02*
X589119Y339054D01*
X590452D01*
X591118Y338387D01*
Y335722D01*
X590452Y335055D01*
X589119D01*
X588452Y335722D01*
Y338387D01*
X592451Y339054D02*
Y335055D01*
X594450D01*
X595117Y335722D01*
Y336388D01*
X594450Y337054D01*
X592451D01*
X594450D01*
X595117Y337721D01*
Y338387D01*
X594450Y339054D01*
X592451D01*
X610736Y244090D02*
Y240091D01*
X612736D01*
X613402Y240757D01*
Y243423D01*
X612736Y244090D01*
X610736D01*
X617401D02*
X616068Y243423D01*
X614735Y242090D01*
Y240757D01*
X615401Y240091D01*
X616734D01*
X617401Y240757D01*
Y241424D01*
X616734Y242090D01*
X614735D01*
X618734Y243423D02*
X619400Y244090D01*
X620733D01*
X621399Y243423D01*
Y240757D01*
X620733Y240091D01*
X619400D01*
X618734Y240757D01*
Y243423D01*
X622732Y240091D02*
X624065D01*
X623399D01*
Y244090D01*
X622732Y243423D01*
X628730D02*
X628064Y244090D01*
X626731D01*
X626065Y243423D01*
Y240757D01*
X626731Y240091D01*
X628064D01*
X628730Y240757D01*
X610815Y338862D02*
Y334863D01*
X612814D01*
X613481Y335530D01*
Y338196D01*
X612814Y338862D01*
X610815D01*
X617479D02*
X616146Y338196D01*
X614813Y336863D01*
Y335530D01*
X615480Y334863D01*
X616813D01*
X617479Y335530D01*
Y336196D01*
X616813Y336863D01*
X614813D01*
X618812Y338196D02*
X619479Y338862D01*
X620811D01*
X621478Y338196D01*
Y335530D01*
X620811Y334863D01*
X619479D01*
X618812Y335530D01*
Y338196D01*
X622811Y334863D02*
X624144D01*
X623477D01*
Y338862D01*
X622811Y338196D01*
X626143Y338862D02*
Y334863D01*
X628142D01*
X628809Y335530D01*
Y336196D01*
X628142Y336863D01*
X626143D01*
X628142D01*
X628809Y337529D01*
Y338196D01*
X628142Y338862D01*
X626143D01*
X643613Y246937D02*
Y242939D01*
X645613D01*
X646279Y243605D01*
Y246271D01*
X645613Y246937D01*
X643613D01*
X650278D02*
X648945Y246271D01*
X647612Y244938D01*
Y243605D01*
X648279Y242939D01*
X649612D01*
X650278Y243605D01*
Y244271D01*
X649612Y244938D01*
X647612D01*
X651611Y246271D02*
X652277Y246937D01*
X653610D01*
X654277Y246271D01*
Y243605D01*
X653610Y242939D01*
X652277D01*
X651611Y243605D01*
Y246271D01*
X655610D02*
X656276Y246937D01*
X657609D01*
X658275Y246271D01*
Y243605D01*
X657609Y242939D01*
X656276D01*
X655610Y243605D01*
Y246271D01*
X662274D02*
X661608Y246937D01*
X660275D01*
X659608Y246271D01*
Y243605D01*
X660275Y242939D01*
X661608D01*
X662274Y243605D01*
X643692Y341710D02*
Y337711D01*
X645691D01*
X646358Y338378D01*
Y341043D01*
X645691Y341710D01*
X643692D01*
X650356D02*
X649024Y341043D01*
X647691Y339711D01*
Y338378D01*
X648357Y337711D01*
X649690D01*
X650356Y338378D01*
Y339044D01*
X649690Y339711D01*
X647691D01*
X651689Y341043D02*
X652356Y341710D01*
X653689D01*
X654355Y341043D01*
Y338378D01*
X653689Y337711D01*
X652356D01*
X651689Y338378D01*
Y341043D01*
X655688D02*
X656355Y341710D01*
X657687D01*
X658354Y341043D01*
Y338378D01*
X657687Y337711D01*
X656355D01*
X655688Y338378D01*
Y341043D01*
X659687Y341710D02*
Y337711D01*
X661686D01*
X662353Y338378D01*
Y339044D01*
X661686Y339711D01*
X659687D01*
X661686D01*
X662353Y340377D01*
Y341043D01*
X661686Y341710D01*
X659687D01*
X228146Y60248D02*
Y64247D01*
X230145D01*
X230811Y63581D01*
Y62248D01*
X230145Y61581D01*
X228146D01*
X232144Y60248D02*
X233477D01*
X232811D01*
Y64247D01*
X232144Y63581D01*
X235477D02*
X236143Y64247D01*
X237476D01*
X238142Y63581D01*
Y60915D01*
X237476Y60248D01*
X236143D01*
X235477Y60915D01*
Y63581D01*
X239475D02*
X240142Y64247D01*
X241475D01*
X242141Y63581D01*
Y62914D01*
X241475Y62248D01*
X240808D01*
X241475D01*
X242141Y61581D01*
Y60915D01*
X241475Y60248D01*
X240142D01*
X239475Y60915D01*
X322681Y311792D02*
X322015Y312458D01*
X320682D01*
X320015Y311792D01*
Y309126D01*
X320682Y308460D01*
X322015D01*
X322681Y309126D01*
X326013Y308460D02*
Y312458D01*
X324014Y310459D01*
X326680D01*
X328013Y311792D02*
X328679Y312458D01*
X330012D01*
X330679Y311792D01*
Y309126D01*
X330012Y308460D01*
X328679D01*
X328013Y309126D01*
Y311792D01*
X332011Y308460D02*
X333344D01*
X332678D01*
Y312458D01*
X332011Y311792D01*
X303835D02*
X303168Y312458D01*
X301835D01*
X301169Y311792D01*
Y309126D01*
X301835Y308460D01*
X303168D01*
X303835Y309126D01*
X307167Y308460D02*
Y312458D01*
X305168Y310459D01*
X307834D01*
X309167Y311792D02*
X309833Y312458D01*
X311166D01*
X311832Y311792D01*
Y309126D01*
X311166Y308460D01*
X309833D01*
X309167Y309126D01*
Y311792D01*
X313165D02*
X313832Y312458D01*
X315164D01*
X315831Y311792D01*
Y309126D01*
X315164Y308460D01*
X313832D01*
X313165Y309126D01*
Y311792D01*
X320238Y285028D02*
Y289027D01*
X322237D01*
X322903Y288360D01*
Y287027D01*
X322237Y286361D01*
X320238D01*
X321570D02*
X322903Y285028D01*
X326236D02*
Y289027D01*
X324236Y287027D01*
X326902D01*
X328235Y288360D02*
X328902Y289027D01*
X330234D01*
X330901Y288360D01*
Y285694D01*
X330234Y285028D01*
X328902D01*
X328235Y285694D01*
Y288360D01*
X334899Y285028D02*
X332234D01*
X334899Y287694D01*
Y288360D01*
X334233Y289027D01*
X332900D01*
X332234Y288360D01*
X302886Y284866D02*
Y288865D01*
X304885D01*
X305552Y288199D01*
Y286866D01*
X304885Y286199D01*
X302886D01*
X304219D02*
X305552Y284866D01*
X308884D02*
Y288865D01*
X306885Y286866D01*
X309550D01*
X310883Y288199D02*
X311550Y288865D01*
X312883D01*
X313549Y288199D01*
Y285533D01*
X312883Y284866D01*
X311550D01*
X310883Y285533D01*
Y288199D01*
X314882Y284866D02*
X316215D01*
X315548D01*
Y288865D01*
X314882Y288199D01*
X594162Y52719D02*
Y49386D01*
X594828Y48720D01*
X596161D01*
X596827Y49386D01*
Y52719D01*
X598160D02*
X600826D01*
Y52052D01*
X598160Y49386D01*
Y48720D01*
X602159Y52052D02*
X602825Y52719D01*
X604158D01*
X604825Y52052D01*
Y49386D01*
X604158Y48720D01*
X602825D01*
X602159Y49386D01*
Y52052D01*
X608823Y48720D02*
X606158D01*
X608823Y51386D01*
Y52052D01*
X608157Y52719D01*
X606824D01*
X606158Y52052D01*
X577971Y379527D02*
Y376195D01*
X578637Y375528D01*
X579970D01*
X580637Y376195D01*
Y379527D01*
X584635D02*
X583302Y378860D01*
X581970Y377528D01*
Y376195D01*
X582636Y375528D01*
X583969D01*
X584635Y376195D01*
Y376861D01*
X583969Y377528D01*
X581970D01*
X585968Y378860D02*
X586635Y379527D01*
X587968D01*
X588634Y378860D01*
Y376195D01*
X587968Y375528D01*
X586635D01*
X585968Y376195D01*
Y378860D01*
X589967D02*
X590633Y379527D01*
X591966D01*
X592633Y378860D01*
Y376195D01*
X591966Y375528D01*
X590633D01*
X589967Y376195D01*
Y378860D01*
X593966Y375528D02*
Y378194D01*
X595299Y379527D01*
X596631Y378194D01*
Y375528D01*
Y377528D01*
X593966D01*
X326416Y260718D02*
X329749D01*
X330415Y261384D01*
Y262717D01*
X329749Y263384D01*
X326416D01*
X330415Y266716D02*
X326416D01*
X328416Y264717D01*
Y267382D01*
X327083Y268715D02*
X326416Y269382D01*
Y270715D01*
X327083Y271381D01*
X329749D01*
X330415Y270715D01*
Y269382D01*
X329749Y268715D01*
X327083D01*
Y272714D02*
X326416Y273380D01*
Y274713D01*
X327083Y275380D01*
X329749D01*
X330415Y274713D01*
Y273380D01*
X329749Y272714D01*
X327083D01*
X617349Y89788D02*
X613350D01*
Y91788D01*
X614016Y92454D01*
X615349D01*
X616016Y91788D01*
Y89788D01*
Y91121D02*
X617349Y92454D01*
X613350Y93787D02*
Y96453D01*
X614016D01*
X616682Y93787D01*
X617349D01*
X614016Y97786D02*
X613350Y98452D01*
Y99785D01*
X614016Y100452D01*
X616682D01*
X617349Y99785D01*
Y98452D01*
X616682Y97786D01*
X614016D01*
Y101784D02*
X613350Y102451D01*
Y103784D01*
X614016Y104450D01*
X616682D01*
X617349Y103784D01*
Y102451D01*
X616682Y101784D01*
X614016D01*
X576430Y429990D02*
Y433988D01*
X578429D01*
X579095Y433322D01*
Y431989D01*
X578429Y431323D01*
X576430D01*
X577762D02*
X579095Y429990D01*
X583094Y433988D02*
X581761Y433322D01*
X580428Y431989D01*
Y430656D01*
X581095Y429990D01*
X582428D01*
X583094Y430656D01*
Y431323D01*
X582428Y431989D01*
X580428D01*
X584427Y433322D02*
X585093Y433988D01*
X586426D01*
X587093Y433322D01*
Y430656D01*
X586426Y429990D01*
X585093D01*
X584427Y430656D01*
Y433322D01*
X588426D02*
X589092Y433988D01*
X590425D01*
X591091Y433322D01*
Y430656D01*
X590425Y429990D01*
X589092D01*
X588426Y430656D01*
Y433322D01*
X592424Y429990D02*
Y432655D01*
X593757Y433988D01*
X595090Y432655D01*
Y429990D01*
Y431989D01*
X592424D01*
X472936Y234841D02*
Y238839D01*
X474935D01*
X475601Y238173D01*
Y236840D01*
X474935Y236174D01*
X472936D01*
X474269D02*
X475601Y234841D01*
X479600Y238839D02*
X476934D01*
Y236840D01*
X478267Y237506D01*
X478934D01*
X479600Y236840D01*
Y235507D01*
X478934Y234841D01*
X477601D01*
X476934Y235507D01*
X480933Y238173D02*
X481600Y238839D01*
X482932D01*
X483599Y238173D01*
Y235507D01*
X482932Y234841D01*
X481600D01*
X480933Y235507D01*
Y238173D01*
X484932D02*
X485598Y238839D01*
X486931D01*
X487598Y238173D01*
Y237506D01*
X486931Y236840D01*
X486265D01*
X486931D01*
X487598Y236174D01*
Y235507D01*
X486931Y234841D01*
X485598D01*
X484932Y235507D01*
X495441Y259730D02*
X491442D01*
Y261729D01*
X492109Y262396D01*
X493441D01*
X494108Y261729D01*
Y259730D01*
Y261063D02*
X495441Y262396D01*
X491442Y266394D02*
Y263728D01*
X493441D01*
X492775Y265061D01*
Y265728D01*
X493441Y266394D01*
X494774D01*
X495441Y265728D01*
Y264395D01*
X494774Y263728D01*
X492109Y267727D02*
X491442Y268394D01*
Y269726D01*
X492109Y270393D01*
X494774D01*
X495441Y269726D01*
Y268394D01*
X494774Y267727D01*
X492109D01*
X495441Y271726D02*
Y273059D01*
Y272392D01*
X491442D01*
X492109Y271726D01*
X362220Y259183D02*
Y263181D01*
X364219D01*
X364886Y262515D01*
Y261182D01*
X364219Y260516D01*
X362220D01*
X363553D02*
X364886Y259183D01*
X368218D02*
Y263181D01*
X366219Y261182D01*
X368884D01*
X370217Y262515D02*
X370884Y263181D01*
X372217D01*
X372883Y262515D01*
Y259849D01*
X372217Y259183D01*
X370884D01*
X370217Y259849D01*
Y262515D01*
X376882Y263181D02*
X374216D01*
Y261182D01*
X375549Y261848D01*
X376215D01*
X376882Y261182D01*
Y259849D01*
X376215Y259183D01*
X374883D01*
X374216Y259849D01*
X338841Y259495D02*
Y263494D01*
X340841D01*
X341507Y262828D01*
Y261495D01*
X340841Y260828D01*
X338841D01*
X340174D02*
X341507Y259495D01*
X344839D02*
Y263494D01*
X342840Y261495D01*
X345506D01*
X346838Y262828D02*
X347505Y263494D01*
X348838D01*
X349504Y262828D01*
Y260162D01*
X348838Y259495D01*
X347505D01*
X346838Y260162D01*
Y262828D01*
X350837D02*
X351504Y263494D01*
X352837D01*
X353503Y262828D01*
Y262161D01*
X352837Y261495D01*
X352170D01*
X352837D01*
X353503Y260828D01*
Y260162D01*
X352837Y259495D01*
X351504D01*
X350837Y260162D01*
X329906Y238588D02*
X325907D01*
Y240587D01*
X326574Y241254D01*
X327907D01*
X328573Y240587D01*
Y238588D01*
Y239921D02*
X329906Y241254D01*
Y244586D02*
X325907D01*
X327907Y242587D01*
Y245253D01*
X326574Y246585D02*
X325907Y247252D01*
Y248585D01*
X326574Y249251D01*
X329240D01*
X329906Y248585D01*
Y247252D01*
X329240Y246585D01*
X326574D01*
Y250584D02*
X325907Y251251D01*
Y252584D01*
X326574Y253250D01*
X329240D01*
X329906Y252584D01*
Y251251D01*
X329240Y250584D01*
X326574D01*
X517144Y256218D02*
Y252219D01*
X519143D01*
X519810Y252886D01*
Y255552D01*
X519143Y256218D01*
X517144D01*
X523808D02*
X521143D01*
Y254219D01*
X522475Y254885D01*
X523142D01*
X523808Y254219D01*
Y252886D01*
X523142Y252219D01*
X521809D01*
X521143Y252886D01*
X525141Y255552D02*
X525808Y256218D01*
X527141D01*
X527807Y255552D01*
Y252886D01*
X527141Y252219D01*
X525808D01*
X525141Y252886D01*
Y255552D01*
X529140Y252219D02*
X530473D01*
X529807D01*
Y256218D01*
X529140Y255552D01*
X360807Y303480D02*
Y299481D01*
X362807D01*
X363473Y300148D01*
Y302814D01*
X362807Y303480D01*
X360807D01*
X366805Y299481D02*
Y303480D01*
X364806Y301481D01*
X367472D01*
X368805Y302814D02*
X369471Y303480D01*
X370804D01*
X371471Y302814D01*
Y300148D01*
X370804Y299481D01*
X369471D01*
X368805Y300148D01*
Y302814D01*
X372803Y299481D02*
X374136D01*
X373470D01*
Y303480D01*
X372803Y302814D01*
X511218Y236566D02*
X510552Y235900D01*
Y234567D01*
X511218Y233901D01*
X513884D01*
X514550Y234567D01*
Y235900D01*
X513884Y236566D01*
X510552Y240565D02*
Y237899D01*
X512551D01*
X511884Y239232D01*
Y239899D01*
X512551Y240565D01*
X513884D01*
X514550Y239899D01*
Y238566D01*
X513884Y237899D01*
X511218Y241898D02*
X510552Y242564D01*
Y243897D01*
X511218Y244564D01*
X513884D01*
X514550Y243897D01*
Y242564D01*
X513884Y241898D01*
X511218D01*
X510552Y248563D02*
X511218Y247230D01*
X512551Y245897D01*
X513884D01*
X514550Y246563D01*
Y247896D01*
X513884Y248563D01*
X513217D01*
X512551Y247896D01*
Y245897D01*
X510625Y254133D02*
X509958Y253466D01*
Y252133D01*
X510625Y251467D01*
X513290D01*
X513957Y252133D01*
Y253466D01*
X513290Y254133D01*
X509958Y258132D02*
Y255466D01*
X511958D01*
X511291Y256799D01*
Y257465D01*
X511958Y258132D01*
X513290D01*
X513957Y257465D01*
Y256132D01*
X513290Y255466D01*
X510625Y259465D02*
X509958Y260131D01*
Y261464D01*
X510625Y262130D01*
X513290D01*
X513957Y261464D01*
Y260131D01*
X513290Y259465D01*
X510625D01*
X513957Y266129D02*
Y263463D01*
X511291Y266129D01*
X510625D01*
X509958Y265462D01*
Y264130D01*
X510625Y263463D01*
X364691Y276268D02*
X364025Y276935D01*
X362692D01*
X362025Y276268D01*
Y273603D01*
X362692Y272936D01*
X364025D01*
X364691Y273603D01*
X368023Y272936D02*
Y276935D01*
X366024Y274936D01*
X368690D01*
X370023Y276268D02*
X370689Y276935D01*
X372022D01*
X372689Y276268D01*
Y273603D01*
X372022Y272936D01*
X370689D01*
X370023Y273603D01*
Y276268D01*
X374022D02*
X374688Y276935D01*
X376021D01*
X376687Y276268D01*
Y275602D01*
X376021Y274936D01*
X375354D01*
X376021D01*
X376687Y274269D01*
Y273603D01*
X376021Y272936D01*
X374688D01*
X374022Y273603D01*
X342180Y276333D02*
X341513Y277000D01*
X340180D01*
X339514Y276333D01*
Y273668D01*
X340180Y273001D01*
X341513D01*
X342180Y273668D01*
X345512Y273001D02*
Y277000D01*
X343513Y275000D01*
X346178D01*
X347511Y276333D02*
X348178Y277000D01*
X349511D01*
X350177Y276333D01*
Y273668D01*
X349511Y273001D01*
X348178D01*
X347511Y273668D01*
Y276333D01*
X354176Y273001D02*
X351510D01*
X354176Y275667D01*
Y276333D01*
X353509Y277000D01*
X352176D01*
X351510Y276333D01*
X32927Y143542D02*
Y140210D01*
X33593Y139543D01*
X34926D01*
X35593Y140210D01*
Y143542D01*
X39592Y139543D02*
X36926D01*
X39592Y142209D01*
Y142876D01*
X38925Y143542D01*
X37592D01*
X36926Y142876D01*
X40924D02*
X41591Y143542D01*
X42924D01*
X43590Y142876D01*
Y140210D01*
X42924Y139543D01*
X41591D01*
X40924Y140210D01*
Y142876D01*
X46922Y139543D02*
Y143542D01*
X44923Y141543D01*
X47589D01*
X51588Y142876D02*
X50921Y143542D01*
X49588D01*
X48922Y142876D01*
Y140210D01*
X49588Y139543D01*
X50921D01*
X51588Y140210D01*
X32931Y266447D02*
Y263115D01*
X33597Y262449D01*
X34930D01*
X35597Y263115D01*
Y266447D01*
X39595Y262449D02*
X36930D01*
X39595Y265114D01*
Y265781D01*
X38929Y266447D01*
X37596D01*
X36930Y265781D01*
X40928D02*
X41595Y266447D01*
X42928D01*
X43594Y265781D01*
Y263115D01*
X42928Y262449D01*
X41595D01*
X40928Y263115D01*
Y265781D01*
X46926Y262449D02*
Y266447D01*
X44927Y264448D01*
X47593D01*
X48926Y266447D02*
Y262449D01*
X50925D01*
X51591Y263115D01*
Y263782D01*
X50925Y264448D01*
X48926D01*
X50925D01*
X51591Y265114D01*
Y265781D01*
X50925Y266447D01*
X48926D01*
X32912Y389124D02*
Y385792D01*
X33579Y385125D01*
X34912D01*
X35578Y385792D01*
Y389124D01*
X39577Y385125D02*
X36911D01*
X39577Y387791D01*
Y388457D01*
X38910Y389124D01*
X37577D01*
X36911Y388457D01*
X40910D02*
X41576Y389124D01*
X42909D01*
X43575Y388457D01*
Y385792D01*
X42909Y385125D01*
X41576D01*
X40910Y385792D01*
Y388457D01*
X46908Y385125D02*
Y389124D01*
X44908Y387124D01*
X47574D01*
X48907Y385125D02*
Y387791D01*
X50240Y389124D01*
X51573Y387791D01*
Y385125D01*
Y387124D01*
X48907D01*
X125168Y126508D02*
X128500D01*
X129167Y127174D01*
Y128507D01*
X128500Y129174D01*
X125168D01*
X129167Y133172D02*
Y130507D01*
X126501Y133172D01*
X125835D01*
X125168Y132506D01*
Y131173D01*
X125835Y130507D01*
Y134505D02*
X125168Y135172D01*
Y136505D01*
X125835Y137171D01*
X128500D01*
X129167Y136505D01*
Y135172D01*
X128500Y134505D01*
X125835D01*
Y138504D02*
X125168Y139171D01*
Y140503D01*
X125835Y141170D01*
X126501D01*
X127167Y140503D01*
Y139837D01*
Y140503D01*
X127834Y141170D01*
X128500D01*
X129167Y140503D01*
Y139171D01*
X128500Y138504D01*
X125835Y145169D02*
X125168Y144502D01*
Y143169D01*
X125835Y142503D01*
X128500D01*
X129167Y143169D01*
Y144502D01*
X128500Y145169D01*
X125172Y249413D02*
X128504D01*
X129171Y250080D01*
Y251413D01*
X128504Y252079D01*
X125172D01*
X129171Y256078D02*
Y253412D01*
X126505Y256078D01*
X125838D01*
X125172Y255411D01*
Y254078D01*
X125838Y253412D01*
Y257411D02*
X125172Y258077D01*
Y259410D01*
X125838Y260076D01*
X128504D01*
X129171Y259410D01*
Y258077D01*
X128504Y257411D01*
X125838D01*
Y261409D02*
X125172Y262076D01*
Y263409D01*
X125838Y264075D01*
X126505D01*
X127171Y263409D01*
Y262742D01*
Y263409D01*
X127838Y264075D01*
X128504D01*
X129171Y263409D01*
Y262076D01*
X128504Y261409D01*
X125172Y265408D02*
X129171D01*
Y267407D01*
X128504Y268074D01*
X127838D01*
X127171Y267407D01*
Y265408D01*
Y267407D01*
X126505Y268074D01*
X125838D01*
X125172Y267407D01*
Y265408D01*
X125153Y372090D02*
X128486D01*
X129152Y372756D01*
Y374089D01*
X128486Y374755D01*
X125153D01*
X129152Y378754D02*
Y376088D01*
X126486Y378754D01*
X125820D01*
X125153Y378088D01*
Y376755D01*
X125820Y376088D01*
Y380087D02*
X125153Y380753D01*
Y382086D01*
X125820Y382753D01*
X128486D01*
X129152Y382086D01*
Y380753D01*
X128486Y380087D01*
X125820D01*
Y384086D02*
X125153Y384752D01*
Y386085D01*
X125820Y386752D01*
X126486D01*
X127153Y386085D01*
Y385419D01*
Y386085D01*
X127819Y386752D01*
X128486D01*
X129152Y386085D01*
Y384752D01*
X128486Y384086D01*
X129152Y388084D02*
X126486D01*
X125153Y389417D01*
X126486Y390750D01*
X129152D01*
X127153D01*
Y388084D01*
X94302Y118053D02*
Y114721D01*
X94968Y114055D01*
X96301D01*
X96968Y114721D01*
Y118053D01*
X100966Y114055D02*
X98300D01*
X100966Y116720D01*
Y117387D01*
X100300Y118053D01*
X98967D01*
X98300Y117387D01*
X102299D02*
X102966Y118053D01*
X104298D01*
X104965Y117387D01*
Y114721D01*
X104298Y114055D01*
X102966D01*
X102299Y114721D01*
Y117387D01*
X108964Y114055D02*
X106298D01*
X108964Y116720D01*
Y117387D01*
X108297Y118053D01*
X106964D01*
X106298Y117387D01*
X112962D02*
X112296Y118053D01*
X110963D01*
X110296Y117387D01*
Y114721D01*
X110963Y114055D01*
X112296D01*
X112962Y114721D01*
X94305Y240958D02*
Y237626D01*
X94972Y236960D01*
X96305D01*
X96971Y237626D01*
Y240958D01*
X100970Y236960D02*
X98304D01*
X100970Y239626D01*
Y240292D01*
X100304Y240958D01*
X98971D01*
X98304Y240292D01*
X102303D02*
X102969Y240958D01*
X104302D01*
X104969Y240292D01*
Y237626D01*
X104302Y236960D01*
X102969D01*
X102303Y237626D01*
Y240292D01*
X108967Y236960D02*
X106302D01*
X108967Y239626D01*
Y240292D01*
X108301Y240958D01*
X106968D01*
X106302Y240292D01*
X110300Y240958D02*
Y236960D01*
X112300D01*
X112966Y237626D01*
Y238293D01*
X112300Y238959D01*
X110300D01*
X112300D01*
X112966Y239626D01*
Y240292D01*
X112300Y240958D01*
X110300D01*
X94287Y363635D02*
Y360303D01*
X94953Y359636D01*
X96286D01*
X96953Y360303D01*
Y363635D01*
X100951Y359636D02*
X98286D01*
X100951Y362302D01*
Y362968D01*
X100285Y363635D01*
X98952D01*
X98286Y362968D01*
X102284D02*
X102951Y363635D01*
X104284D01*
X104950Y362968D01*
Y360303D01*
X104284Y359636D01*
X102951D01*
X102284Y360303D01*
Y362968D01*
X108949Y359636D02*
X106283D01*
X108949Y362302D01*
Y362968D01*
X108282Y363635D01*
X106949D01*
X106283Y362968D01*
X110282Y359636D02*
Y362302D01*
X111615Y363635D01*
X112947Y362302D01*
Y359636D01*
Y361635D01*
X110282D01*
X42208Y208975D02*
Y205642D01*
X42875Y204976D01*
X44208D01*
X44874Y205642D01*
Y208975D01*
X48873Y204976D02*
X46207D01*
X48873Y207642D01*
Y208308D01*
X48206Y208975D01*
X46873D01*
X46207Y208308D01*
X50206D02*
X50872Y208975D01*
X52205D01*
X52871Y208308D01*
Y205642D01*
X52205Y204976D01*
X50872D01*
X50206Y205642D01*
Y208308D01*
X54204Y204976D02*
X55537D01*
X54871D01*
Y208975D01*
X54204Y208308D01*
X60202D02*
X59536Y208975D01*
X58203D01*
X57537Y208308D01*
Y205642D01*
X58203Y204976D01*
X59536D01*
X60202Y205642D01*
X42212Y331880D02*
Y328548D01*
X42878Y327881D01*
X44211D01*
X44878Y328548D01*
Y331880D01*
X48877Y327881D02*
X46211D01*
X48877Y330547D01*
Y331213D01*
X48210Y331880D01*
X46877D01*
X46211Y331213D01*
X50209D02*
X50876Y331880D01*
X52209D01*
X52875Y331213D01*
Y328548D01*
X52209Y327881D01*
X50876D01*
X50209Y328548D01*
Y331213D01*
X54208Y327881D02*
X55541D01*
X54875D01*
Y331880D01*
X54208Y331213D01*
X57540Y331880D02*
Y327881D01*
X59540D01*
X60206Y328548D01*
Y329214D01*
X59540Y329880D01*
X57540D01*
X59540D01*
X60206Y330547D01*
Y331213D01*
X59540Y331880D01*
X57540D01*
X39028Y419188D02*
X42360D01*
X43026Y419854D01*
Y421187D01*
X42360Y421853D01*
X39028D01*
X43026Y425852D02*
Y423186D01*
X40360Y425852D01*
X39694D01*
X39028Y425186D01*
Y423853D01*
X39694Y423186D01*
Y427185D02*
X39028Y427851D01*
Y429184D01*
X39694Y429851D01*
X42360D01*
X43026Y429184D01*
Y427851D01*
X42360Y427185D01*
X39694D01*
X43026Y431184D02*
Y432517D01*
Y431850D01*
X39028D01*
X39694Y431184D01*
X43026Y434516D02*
X40360D01*
X39028Y435849D01*
X40360Y437182D01*
X43026D01*
X41027D01*
Y434516D01*
X157768Y171670D02*
Y168338D01*
X158434Y167671D01*
X159767D01*
X160433Y168338D01*
Y171670D01*
X164432Y167671D02*
X161766D01*
X164432Y170337D01*
Y171003D01*
X163766Y171670D01*
X162433D01*
X161766Y171003D01*
X165765D02*
X166431Y171670D01*
X167764D01*
X168431Y171003D01*
Y168338D01*
X167764Y167671D01*
X166431D01*
X165765Y168338D01*
Y171003D01*
X169764D02*
X170430Y171670D01*
X171763D01*
X172430Y171003D01*
Y168338D01*
X171763Y167671D01*
X170430D01*
X169764Y168338D01*
Y171003D01*
X176428D02*
X175762Y171670D01*
X174429D01*
X173762Y171003D01*
Y168338D01*
X174429Y167671D01*
X175762D01*
X176428Y168338D01*
X157771Y294575D02*
Y291243D01*
X158438Y290576D01*
X159771D01*
X160437Y291243D01*
Y294575D01*
X164436Y290576D02*
X161770D01*
X164436Y293242D01*
Y293909D01*
X163769Y294575D01*
X162437D01*
X161770Y293909D01*
X165769D02*
X166435Y294575D01*
X167768D01*
X168435Y293909D01*
Y291243D01*
X167768Y290576D01*
X166435D01*
X165769Y291243D01*
Y293909D01*
X169767D02*
X170434Y294575D01*
X171767D01*
X172433Y293909D01*
Y291243D01*
X171767Y290576D01*
X170434D01*
X169767Y291243D01*
Y293909D01*
X173766Y294575D02*
Y290576D01*
X175766D01*
X176432Y291243D01*
Y291909D01*
X175766Y292576D01*
X173766D01*
X175766D01*
X176432Y293242D01*
Y293909D01*
X175766Y294575D01*
X173766D01*
X157753Y417251D02*
Y413919D01*
X158419Y413253D01*
X159752D01*
X160419Y413919D01*
Y417251D01*
X164417Y413253D02*
X161751D01*
X164417Y415918D01*
Y416585D01*
X163751Y417251D01*
X162418D01*
X161751Y416585D01*
X165750D02*
X166417Y417251D01*
X167750D01*
X168416Y416585D01*
Y413919D01*
X167750Y413253D01*
X166417D01*
X165750Y413919D01*
Y416585D01*
X169749D02*
X170415Y417251D01*
X171748D01*
X172415Y416585D01*
Y413919D01*
X171748Y413253D01*
X170415D01*
X169749Y413919D01*
Y416585D01*
X173748Y413253D02*
Y415918D01*
X175081Y417251D01*
X176413Y415918D01*
Y413253D01*
Y415252D01*
X173748D01*
X535620Y100841D02*
Y97509D01*
X536286Y96843D01*
X537619D01*
X538285Y97509D01*
Y100841D01*
X539618D02*
X542284D01*
Y100175D01*
X539618Y97509D01*
Y96843D01*
X543617Y100175D02*
X544284Y100841D01*
X545616D01*
X546283Y100175D01*
Y97509D01*
X545616Y96843D01*
X544284D01*
X543617Y97509D01*
Y100175D01*
X549615Y96843D02*
Y100841D01*
X547616Y98842D01*
X550282D01*
X634537Y87034D02*
X637870D01*
X638536Y87700D01*
Y89033D01*
X637870Y89700D01*
X634537D01*
Y91033D02*
Y93699D01*
X635204D01*
X637870Y91033D01*
X638536D01*
X635204Y95031D02*
X634537Y95698D01*
Y97031D01*
X635204Y97697D01*
X637870D01*
X638536Y97031D01*
Y95698D01*
X637870Y95031D01*
X635204D01*
Y99030D02*
X634537Y99696D01*
Y101029D01*
X635204Y101696D01*
X635870D01*
X636537Y101029D01*
Y100363D01*
Y101029D01*
X637203Y101696D01*
X637870D01*
X638536Y101029D01*
Y99696D01*
X637870Y99030D01*
X530458Y143175D02*
Y139842D01*
X531125Y139176D01*
X532458D01*
X533124Y139842D01*
Y143175D01*
X534457D02*
X537123D01*
Y142508D01*
X534457Y139842D01*
Y139176D01*
X538456Y142508D02*
X539122Y143175D01*
X540455D01*
X541122Y142508D01*
Y139842D01*
X540455Y139176D01*
X539122D01*
X538456Y139842D01*
Y142508D01*
X542455Y139176D02*
X543787D01*
X543121D01*
Y143175D01*
X542455Y142508D01*
X651095Y128121D02*
Y124789D01*
X651761Y124123D01*
X653094D01*
X653761Y124789D01*
Y128121D01*
X655094D02*
X657760D01*
Y127455D01*
X655094Y124789D01*
Y124123D01*
X659092Y127455D02*
X659759Y128121D01*
X661092D01*
X661758Y127455D01*
Y124789D01*
X661092Y124123D01*
X659759D01*
X659092Y124789D01*
Y127455D01*
X663091D02*
X663758Y128121D01*
X665091D01*
X665757Y127455D01*
Y124789D01*
X665091Y124123D01*
X663758D01*
X663091Y124789D01*
Y127455D01*
X665653Y426302D02*
Y422969D01*
X666320Y422303D01*
X667653D01*
X668319Y422969D01*
Y426302D01*
X672318D02*
X670985Y425635D01*
X669652Y424302D01*
Y422969D01*
X670318Y422303D01*
X671651D01*
X672318Y422969D01*
Y423636D01*
X671651Y424302D01*
X669652D01*
X673651Y425635D02*
X674317Y426302D01*
X675650D01*
X676316Y425635D01*
Y422969D01*
X675650Y422303D01*
X674317D01*
X673651Y422969D01*
Y425635D01*
X680315Y422303D02*
X677649D01*
X680315Y424969D01*
Y425635D01*
X679649Y426302D01*
X678316D01*
X677649Y425635D01*
X681648Y422303D02*
Y424969D01*
X682981Y426302D01*
X684314Y424969D01*
Y422303D01*
Y424302D01*
X681648D01*
X613255Y362893D02*
Y359561D01*
X613921Y358894D01*
X615254D01*
X615921Y359561D01*
Y362893D01*
X619920D02*
X618587Y362227D01*
X617254Y360894D01*
Y359561D01*
X617920Y358894D01*
X619253D01*
X619920Y359561D01*
Y360227D01*
X619253Y360894D01*
X617254D01*
X621252Y362227D02*
X621919Y362893D01*
X623252D01*
X623918Y362227D01*
Y359561D01*
X623252Y358894D01*
X621919D01*
X621252Y359561D01*
Y362227D01*
X625251Y358894D02*
X626584D01*
X625918D01*
Y362893D01*
X625251Y362227D01*
X628583Y358894D02*
Y361560D01*
X629916Y362893D01*
X631249Y361560D01*
Y358894D01*
Y360894D01*
X628583D01*
X438659Y252361D02*
Y249029D01*
X439325Y248362D01*
X440658D01*
X441324Y249029D01*
Y252361D01*
X445323D02*
X442657D01*
Y250362D01*
X443990Y251028D01*
X444657D01*
X445323Y250362D01*
Y249029D01*
X444657Y248362D01*
X443324D01*
X442657Y249029D01*
X446656Y251694D02*
X447322Y252361D01*
X448655D01*
X449322Y251694D01*
Y249029D01*
X448655Y248362D01*
X447322D01*
X446656Y249029D01*
Y251694D01*
X450655D02*
X451321Y252361D01*
X452654D01*
X453320Y251694D01*
Y249029D01*
X452654Y248362D01*
X451321D01*
X450655Y249029D01*
Y251694D01*
X216820Y295707D02*
Y292375D01*
X217487Y291709D01*
X218819D01*
X219486Y292375D01*
Y295707D01*
X220819Y295041D02*
X221485Y295707D01*
X222818D01*
X223484Y295041D01*
Y294374D01*
X222818Y293708D01*
X222152D01*
X222818D01*
X223484Y293042D01*
Y292375D01*
X222818Y291709D01*
X221485D01*
X220819Y292375D01*
X224817Y295041D02*
X225484Y295707D01*
X226817D01*
X227483Y295041D01*
Y292375D01*
X226817Y291709D01*
X225484D01*
X224817Y292375D01*
Y295041D01*
X228816D02*
X229483Y295707D01*
X230816D01*
X231482Y295041D01*
Y292375D01*
X230816Y291709D01*
X229483D01*
X228816Y292375D01*
Y295041D01*
X261045Y165945D02*
Y162613D01*
X261712Y161946D01*
X263045D01*
X263711Y162613D01*
Y165945D01*
X265044Y161946D02*
X266377D01*
X265710D01*
Y165945D01*
X265044Y165278D01*
X268376D02*
X269043Y165945D01*
X270375D01*
X271042Y165278D01*
Y162613D01*
X270375Y161946D01*
X269043D01*
X268376Y162613D01*
Y165278D01*
X272375D02*
X273041Y165945D01*
X274374D01*
X275041Y165278D01*
Y162613D01*
X274374Y161946D01*
X273041D01*
X272375Y162613D01*
Y165278D01*
X26002Y208282D02*
X25335Y208948D01*
X24002D01*
X23336Y208282D01*
Y207616D01*
X24002Y206949D01*
X25335D01*
X26002Y206283D01*
Y205616D01*
X25335Y204950D01*
X24002D01*
X23336Y205616D01*
X29334Y208948D02*
X28001D01*
X27335Y208282D01*
Y205616D01*
X28001Y204950D01*
X29334D01*
X30000Y205616D01*
Y208282D01*
X29334Y208948D01*
X31333Y208282D02*
X32000Y208948D01*
X33333D01*
X33999Y208282D01*
Y207616D01*
X33333Y206949D01*
X32666D01*
X33333D01*
X33999Y206283D01*
Y205616D01*
X33333Y204950D01*
X32000D01*
X31333Y205616D01*
X24161Y330883D02*
X23495Y331549D01*
X22162D01*
X21496Y330883D01*
Y330216D01*
X22162Y329550D01*
X23495D01*
X24161Y328883D01*
Y328217D01*
X23495Y327551D01*
X22162D01*
X21496Y328217D01*
X27494Y331549D02*
X26161D01*
X25494Y330883D01*
Y328217D01*
X26161Y327551D01*
X27494D01*
X28160Y328217D01*
Y330883D01*
X27494Y331549D01*
X32159Y327551D02*
X29493D01*
X32159Y330216D01*
Y330883D01*
X31492Y331549D01*
X30160D01*
X29493Y330883D01*
X23244Y447400D02*
X22577Y448066D01*
X21244D01*
X20578Y447400D01*
Y446733D01*
X21244Y446067D01*
X22577D01*
X23244Y445400D01*
Y444734D01*
X22577Y444067D01*
X21244D01*
X20578Y444734D01*
X26576Y448066D02*
X25243D01*
X24576Y447400D01*
Y444734D01*
X25243Y444067D01*
X26576D01*
X27242Y444734D01*
Y447400D01*
X26576Y448066D01*
X28575Y444067D02*
X29908D01*
X29241D01*
Y448066D01*
X28575Y447400D01*
X119720Y177354D02*
Y181353D01*
X121720D01*
X122386Y180686D01*
Y179353D01*
X121720Y178687D01*
X119720D01*
X121053D02*
X122386Y177354D01*
X126385D02*
X123719D01*
X126385Y180020D01*
Y180686D01*
X125718Y181353D01*
X124386D01*
X123719Y180686D01*
X127718D02*
X128384Y181353D01*
X129717D01*
X130384Y180686D01*
Y178021D01*
X129717Y177354D01*
X128384D01*
X127718Y178021D01*
Y180686D01*
X131717Y181353D02*
X134382D01*
Y180686D01*
X131717Y178021D01*
Y177354D01*
X138381Y180686D02*
X137715Y181353D01*
X136382D01*
X135715Y180686D01*
Y178021D01*
X136382Y177354D01*
X137715D01*
X138381Y178021D01*
X120140Y301143D02*
Y305141D01*
X122139D01*
X122806Y304475D01*
Y303142D01*
X122139Y302476D01*
X120140D01*
X121473D02*
X122806Y301143D01*
X126804D02*
X124139D01*
X126804Y303808D01*
Y304475D01*
X126138Y305141D01*
X124805D01*
X124139Y304475D01*
X128137D02*
X128804Y305141D01*
X130137D01*
X130803Y304475D01*
Y301809D01*
X130137Y301143D01*
X128804D01*
X128137Y301809D01*
Y304475D01*
X132136Y305141D02*
X134802D01*
Y304475D01*
X132136Y301809D01*
Y301143D01*
X136135Y305141D02*
Y301143D01*
X138134D01*
X138801Y301809D01*
Y302476D01*
X138134Y303142D01*
X136135D01*
X138134D01*
X138801Y303808D01*
Y304475D01*
X138134Y305141D01*
X136135D01*
X119429Y422003D02*
Y426001D01*
X121428D01*
X122095Y425335D01*
Y424002D01*
X121428Y423336D01*
X119429D01*
X120762D02*
X122095Y422003D01*
X126094D02*
X123428D01*
X126094Y424668D01*
Y425335D01*
X125427Y426001D01*
X124094D01*
X123428Y425335D01*
X127427D02*
X128093Y426001D01*
X129426D01*
X130092Y425335D01*
Y422669D01*
X129426Y422003D01*
X128093D01*
X127427Y422669D01*
Y425335D01*
X131425Y426001D02*
X134091D01*
Y425335D01*
X131425Y422669D01*
Y422003D01*
X135424D02*
Y424668D01*
X136757Y426001D01*
X138090Y424668D01*
Y422003D01*
Y424002D01*
X135424D01*
X158178Y98535D02*
X154179D01*
Y100535D01*
X154845Y101201D01*
X156178D01*
X156845Y100535D01*
Y98535D01*
Y99868D02*
X158178Y101201D01*
Y105200D02*
Y102534D01*
X155512Y105200D01*
X154845D01*
X154179Y104533D01*
Y103200D01*
X154845Y102534D01*
Y106533D02*
X154179Y107199D01*
Y108532D01*
X154845Y109198D01*
X157511D01*
X158178Y108532D01*
Y107199D01*
X157511Y106533D01*
X154845D01*
X154179Y113197D02*
X154845Y111864D01*
X156178Y110531D01*
X157511D01*
X158178Y111198D01*
Y112531D01*
X157511Y113197D01*
X156845D01*
X156178Y112531D01*
Y110531D01*
X154845Y117196D02*
X154179Y116530D01*
Y115197D01*
X154845Y114530D01*
X157511D01*
X158178Y115197D01*
Y116530D01*
X157511Y117196D01*
X158413Y222217D02*
X154414D01*
Y224217D01*
X155081Y224883D01*
X156414D01*
X157080Y224217D01*
Y222217D01*
Y223550D02*
X158413Y224883D01*
Y228882D02*
Y226216D01*
X155747Y228882D01*
X155081D01*
X154414Y228216D01*
Y226883D01*
X155081Y226216D01*
Y230215D02*
X154414Y230881D01*
Y232214D01*
X155081Y232881D01*
X157747D01*
X158413Y232214D01*
Y230881D01*
X157747Y230215D01*
X155081D01*
X154414Y236879D02*
X155081Y235546D01*
X156414Y234214D01*
X157747D01*
X158413Y234880D01*
Y236213D01*
X157747Y236879D01*
X157080D01*
X156414Y236213D01*
Y234214D01*
X154414Y238212D02*
X158413D01*
Y240212D01*
X157747Y240878D01*
X157080D01*
X156414Y240212D01*
Y238212D01*
Y240212D01*
X155747Y240878D01*
X155081D01*
X154414Y240212D01*
Y238212D01*
X158535Y344857D02*
X154536D01*
Y346857D01*
X155202Y347523D01*
X156535D01*
X157202Y346857D01*
Y344857D01*
Y346190D02*
X158535Y347523D01*
Y351522D02*
Y348856D01*
X155869Y351522D01*
X155202D01*
X154536Y350855D01*
Y349522D01*
X155202Y348856D01*
Y352855D02*
X154536Y353521D01*
Y354854D01*
X155202Y355521D01*
X157868D01*
X158535Y354854D01*
Y353521D01*
X157868Y352855D01*
X155202D01*
X154536Y359519D02*
X155202Y358186D01*
X156535Y356853D01*
X157868D01*
X158535Y357520D01*
Y358853D01*
X157868Y359519D01*
X157202D01*
X156535Y358853D01*
Y356853D01*
X158535Y360852D02*
X155869D01*
X154536Y362185D01*
X155869Y363518D01*
X158535D01*
X156535D01*
Y360852D01*
X129748Y103856D02*
X125749D01*
Y105856D01*
X126415Y106522D01*
X127748D01*
X128415Y105856D01*
Y103856D01*
Y105189D02*
X129748Y106522D01*
Y110521D02*
Y107855D01*
X127082Y110521D01*
X126415D01*
X125749Y109854D01*
Y108522D01*
X126415Y107855D01*
Y111854D02*
X125749Y112520D01*
Y113853D01*
X126415Y114520D01*
X129081D01*
X129748Y113853D01*
Y112520D01*
X129081Y111854D01*
X126415D01*
X125749Y118518D02*
Y115853D01*
X127748D01*
X127082Y117185D01*
Y117852D01*
X127748Y118518D01*
X129081D01*
X129748Y117852D01*
Y116519D01*
X129081Y115853D01*
X126415Y122517D02*
X125749Y121851D01*
Y120518D01*
X126415Y119851D01*
X129081D01*
X129748Y120518D01*
Y121851D01*
X129081Y122517D01*
X129751Y226762D02*
X125753D01*
Y228761D01*
X126419Y229428D01*
X127752D01*
X128419Y228761D01*
Y226762D01*
Y228095D02*
X129751Y229428D01*
Y233426D02*
Y230760D01*
X127086Y233426D01*
X126419D01*
X125753Y232760D01*
Y231427D01*
X126419Y230760D01*
Y234759D02*
X125753Y235425D01*
Y236758D01*
X126419Y237425D01*
X129085D01*
X129751Y236758D01*
Y235425D01*
X129085Y234759D01*
X126419D01*
X125753Y241424D02*
Y238758D01*
X127752D01*
X127086Y240091D01*
Y240757D01*
X127752Y241424D01*
X129085D01*
X129751Y240757D01*
Y239424D01*
X129085Y238758D01*
X125753Y242757D02*
X129751D01*
Y244756D01*
X129085Y245422D01*
X128419D01*
X127752Y244756D01*
Y242757D01*
Y244756D01*
X127086Y245422D01*
X126419D01*
X125753Y244756D01*
Y242757D01*
X129733Y349438D02*
X125734D01*
Y351437D01*
X126400Y352104D01*
X127733D01*
X128400Y351437D01*
Y349438D01*
Y350771D02*
X129733Y352104D01*
Y356103D02*
Y353437D01*
X127067Y356103D01*
X126400D01*
X125734Y355436D01*
Y354103D01*
X126400Y353437D01*
Y357435D02*
X125734Y358102D01*
Y359435D01*
X126400Y360101D01*
X129066D01*
X129733Y359435D01*
Y358102D01*
X129066Y357435D01*
X126400D01*
X125734Y364100D02*
Y361434D01*
X127733D01*
X127067Y362767D01*
Y363434D01*
X127733Y364100D01*
X129066D01*
X129733Y363434D01*
Y362101D01*
X129066Y361434D01*
X129733Y365433D02*
X127067D01*
X125734Y366766D01*
X127067Y368099D01*
X129733D01*
X127733D01*
Y365433D01*
X111466Y210812D02*
Y214811D01*
X113466D01*
X114132Y214144D01*
Y212812D01*
X113466Y212145D01*
X111466D01*
X112799D02*
X114132Y210812D01*
X118131D02*
X115465D01*
X118131Y213478D01*
Y214144D01*
X117464Y214811D01*
X116131D01*
X115465Y214144D01*
X119464D02*
X120130Y214811D01*
X121463D01*
X122130Y214144D01*
Y211479D01*
X121463Y210812D01*
X120130D01*
X119464Y211479D01*
Y214144D01*
X125462Y210812D02*
Y214811D01*
X123462Y212812D01*
X126128D01*
X130127Y214144D02*
X129461Y214811D01*
X128128D01*
X127461Y214144D01*
Y211479D01*
X128128Y210812D01*
X129461D01*
X130127Y211479D01*
X110313Y333514D02*
Y337513D01*
X112312D01*
X112978Y336846D01*
Y335513D01*
X112312Y334847D01*
X110313D01*
X111645D02*
X112978Y333514D01*
X116977D02*
X114311D01*
X116977Y336180D01*
Y336846D01*
X116311Y337513D01*
X114978D01*
X114311Y336846D01*
X118310D02*
X118976Y337513D01*
X120309D01*
X120976Y336846D01*
Y334181D01*
X120309Y333514D01*
X118976D01*
X118310Y334181D01*
Y336846D01*
X124308Y333514D02*
Y337513D01*
X122309Y335513D01*
X124975D01*
X126307Y337513D02*
Y333514D01*
X128307D01*
X128973Y334181D01*
Y334847D01*
X128307Y335513D01*
X126307D01*
X128307D01*
X128973Y336180D01*
Y336846D01*
X128307Y337513D01*
X126307D01*
X110420Y456430D02*
Y460429D01*
X112420D01*
X113086Y459763D01*
Y458430D01*
X112420Y457763D01*
X110420D01*
X111753D02*
X113086Y456430D01*
X117085D02*
X114419D01*
X117085Y459096D01*
Y459763D01*
X116419Y460429D01*
X115086D01*
X114419Y459763D01*
X118418D02*
X119084Y460429D01*
X120417D01*
X121084Y459763D01*
Y457097D01*
X120417Y456430D01*
X119084D01*
X118418Y457097D01*
Y459763D01*
X124416Y456430D02*
Y460429D01*
X122417Y458430D01*
X125082D01*
X126415Y456430D02*
Y459096D01*
X127748Y460429D01*
X129081Y459096D01*
Y456430D01*
Y458430D01*
X126415D01*
X81316Y122809D02*
X77317D01*
Y124808D01*
X77984Y125475D01*
X79317D01*
X79983Y124808D01*
Y122809D01*
Y124142D02*
X81316Y125475D01*
Y129474D02*
Y126808D01*
X78650Y129474D01*
X77984D01*
X77317Y128807D01*
Y127474D01*
X77984Y126808D01*
Y130807D02*
X77317Y131473D01*
Y132806D01*
X77984Y133472D01*
X80650D01*
X81316Y132806D01*
Y131473D01*
X80650Y130807D01*
X77984D01*
Y134805D02*
X77317Y135472D01*
Y136804D01*
X77984Y137471D01*
X78650D01*
X79317Y136804D01*
Y136138D01*
Y136804D01*
X79983Y137471D01*
X80650D01*
X81316Y136804D01*
Y135472D01*
X80650Y134805D01*
X77984Y141470D02*
X77317Y140803D01*
Y139470D01*
X77984Y138804D01*
X80650D01*
X81316Y139470D01*
Y140803D01*
X80650Y141470D01*
X81320Y245714D02*
X77321D01*
Y247714D01*
X77988Y248380D01*
X79321D01*
X79987Y247714D01*
Y245714D01*
Y247047D02*
X81320Y248380D01*
Y252379D02*
Y249713D01*
X78654Y252379D01*
X77988D01*
X77321Y251712D01*
Y250379D01*
X77988Y249713D01*
Y253712D02*
X77321Y254378D01*
Y255711D01*
X77988Y256378D01*
X80653D01*
X81320Y255711D01*
Y254378D01*
X80653Y253712D01*
X77988D01*
Y257710D02*
X77321Y258377D01*
Y259710D01*
X77988Y260376D01*
X78654D01*
X79321Y259710D01*
Y259043D01*
Y259710D01*
X79987Y260376D01*
X80653D01*
X81320Y259710D01*
Y258377D01*
X80653Y257710D01*
X77321Y261709D02*
X81320D01*
Y263708D01*
X80653Y264375D01*
X79987D01*
X79321Y263708D01*
Y261709D01*
Y263708D01*
X78654Y264375D01*
X77988D01*
X77321Y263708D01*
Y261709D01*
X81301Y368391D02*
X77302D01*
Y370390D01*
X77969Y371057D01*
X79302D01*
X79968Y370390D01*
Y368391D01*
Y369724D02*
X81301Y371057D01*
Y375055D02*
Y372389D01*
X78636Y375055D01*
X77969D01*
X77302Y374389D01*
Y373056D01*
X77969Y372389D01*
Y376388D02*
X77302Y377055D01*
Y378387D01*
X77969Y379054D01*
X80635D01*
X81301Y378387D01*
Y377055D01*
X80635Y376388D01*
X77969D01*
Y380387D02*
X77302Y381053D01*
Y382386D01*
X77969Y383053D01*
X78636D01*
X79302Y382386D01*
Y381720D01*
Y382386D01*
X79968Y383053D01*
X80635D01*
X81301Y382386D01*
Y381053D01*
X80635Y380387D01*
X81301Y384385D02*
X78636D01*
X77302Y385718D01*
X78636Y387051D01*
X81301D01*
X79302D01*
Y384385D01*
X71590Y137024D02*
X67591D01*
Y139023D01*
X68258Y139690D01*
X69591D01*
X70257Y139023D01*
Y137024D01*
Y138357D02*
X71590Y139690D01*
Y143689D02*
Y141023D01*
X68924Y143689D01*
X68258D01*
X67591Y143022D01*
Y141689D01*
X68258Y141023D01*
Y145022D02*
X67591Y145688D01*
Y147021D01*
X68258Y147687D01*
X70924D01*
X71590Y147021D01*
Y145688D01*
X70924Y145022D01*
X68258D01*
X71590Y151686D02*
Y149020D01*
X68924Y151686D01*
X68258D01*
X67591Y151020D01*
Y149687D01*
X68258Y149020D01*
Y155685D02*
X67591Y155018D01*
Y153685D01*
X68258Y153019D01*
X70924D01*
X71590Y153685D01*
Y155018D01*
X70924Y155685D01*
X71594Y259929D02*
X67595D01*
Y261929D01*
X68261Y262595D01*
X69594D01*
X70261Y261929D01*
Y259929D01*
Y261262D02*
X71594Y262595D01*
Y266594D02*
Y263928D01*
X68928Y266594D01*
X68261D01*
X67595Y265927D01*
Y264595D01*
X68261Y263928D01*
Y267927D02*
X67595Y268593D01*
Y269926D01*
X68261Y270593D01*
X70927D01*
X71594Y269926D01*
Y268593D01*
X70927Y267927D01*
X68261D01*
X71594Y274591D02*
Y271925D01*
X68928Y274591D01*
X68261D01*
X67595Y273925D01*
Y272592D01*
X68261Y271925D01*
X67595Y275924D02*
X71594D01*
Y277923D01*
X70927Y278590D01*
X70261D01*
X69594Y277923D01*
Y275924D01*
Y277923D01*
X68928Y278590D01*
X68261D01*
X67595Y277923D01*
Y275924D01*
X71575Y382606D02*
X67576D01*
Y384605D01*
X68243Y385272D01*
X69576D01*
X70242Y384605D01*
Y382606D01*
Y383939D02*
X71575Y385272D01*
Y389270D02*
Y386604D01*
X68909Y389270D01*
X68243D01*
X67576Y388604D01*
Y387271D01*
X68243Y386604D01*
Y390603D02*
X67576Y391270D01*
Y392602D01*
X68243Y393269D01*
X70909D01*
X71575Y392602D01*
Y391270D01*
X70909Y390603D01*
X68243D01*
X71575Y397268D02*
Y394602D01*
X68909Y397268D01*
X68243D01*
X67576Y396601D01*
Y395268D01*
X68243Y394602D01*
X71575Y398601D02*
X68909D01*
X67576Y399934D01*
X68909Y401266D01*
X71575D01*
X69576D01*
Y398601D01*
X127028Y151844D02*
Y155843D01*
X129027D01*
X129693Y155176D01*
Y153843D01*
X129027Y153177D01*
X127028D01*
X128360D02*
X129693Y151844D01*
X133692D02*
X131026D01*
X133692Y154510D01*
Y155176D01*
X133026Y155843D01*
X131693D01*
X131026Y155176D01*
X135025D02*
X135691Y155843D01*
X137024D01*
X137691Y155176D01*
Y152510D01*
X137024Y151844D01*
X135691D01*
X135025Y152510D01*
Y155176D01*
X139024Y151844D02*
X140357D01*
X139690D01*
Y155843D01*
X139024Y155176D01*
X145022D02*
X144355Y155843D01*
X143023D01*
X142356Y155176D01*
Y152510D01*
X143023Y151844D01*
X144355D01*
X145022Y152510D01*
X127032Y274749D02*
Y278748D01*
X129031D01*
X129697Y278082D01*
Y276749D01*
X129031Y276082D01*
X127032D01*
X128364D02*
X129697Y274749D01*
X133696D02*
X131030D01*
X133696Y277415D01*
Y278082D01*
X133029Y278748D01*
X131697D01*
X131030Y278082D01*
X135029D02*
X135695Y278748D01*
X137028D01*
X137695Y278082D01*
Y275416D01*
X137028Y274749D01*
X135695D01*
X135029Y275416D01*
Y278082D01*
X139028Y274749D02*
X140360D01*
X139694D01*
Y278748D01*
X139028Y278082D01*
X142360Y278748D02*
Y274749D01*
X144359D01*
X145026Y275416D01*
Y276082D01*
X144359Y276749D01*
X142360D01*
X144359D01*
X145026Y277415D01*
Y278082D01*
X144359Y278748D01*
X142360D01*
X127013Y397426D02*
Y401424D01*
X129012D01*
X129679Y400758D01*
Y399425D01*
X129012Y398759D01*
X127013D01*
X128346D02*
X129679Y397426D01*
X133677D02*
X131011D01*
X133677Y400092D01*
Y400758D01*
X133011Y401424D01*
X131678D01*
X131011Y400758D01*
X135010D02*
X135677Y401424D01*
X137010D01*
X137676Y400758D01*
Y398092D01*
X137010Y397426D01*
X135677D01*
X135010Y398092D01*
Y400758D01*
X139009Y397426D02*
X140342D01*
X139675D01*
Y401424D01*
X139009Y400758D01*
X142341Y397426D02*
Y400092D01*
X143674Y401424D01*
X145007Y400092D01*
Y397426D01*
Y399425D01*
X142341D01*
X94750Y166509D02*
Y170508D01*
X96749D01*
X97416Y169842D01*
Y168509D01*
X96749Y167842D01*
X94750D01*
X96083D02*
X97416Y166509D01*
X101415D02*
X98749D01*
X101415Y169175D01*
Y169842D01*
X100748Y170508D01*
X99415D01*
X98749Y169842D01*
X102747D02*
X103414Y170508D01*
X104747D01*
X105413Y169842D01*
Y167176D01*
X104747Y166509D01*
X103414D01*
X102747Y167176D01*
Y169842D01*
X106746D02*
X107413Y170508D01*
X108746D01*
X109412Y169842D01*
Y167176D01*
X108746Y166509D01*
X107413D01*
X106746Y167176D01*
Y169842D01*
X113411D02*
X112744Y170508D01*
X111411D01*
X110745Y169842D01*
Y167176D01*
X111411Y166509D01*
X112744D01*
X113411Y167176D01*
X94735Y412091D02*
Y416090D01*
X96735D01*
X97401Y415423D01*
Y414090D01*
X96735Y413424D01*
X94735D01*
X96068D02*
X97401Y412091D01*
X101400D02*
X98734D01*
X101400Y414757D01*
Y415423D01*
X100733Y416090D01*
X99400D01*
X98734Y415423D01*
X102733D02*
X103399Y416090D01*
X104732D01*
X105398Y415423D01*
Y412757D01*
X104732Y412091D01*
X103399D01*
X102733Y412757D01*
Y415423D01*
X106731D02*
X107398Y416090D01*
X108731D01*
X109397Y415423D01*
Y412757D01*
X108731Y412091D01*
X107398D01*
X106731Y412757D01*
Y415423D01*
X110730Y412091D02*
Y414757D01*
X112063Y416090D01*
X113396Y414757D01*
Y412091D01*
Y414090D01*
X110730D01*
X641502Y66270D02*
X637503D01*
Y68270D01*
X638170Y68936D01*
X639503D01*
X640169Y68270D01*
Y66270D01*
Y67603D02*
X641502Y68936D01*
X637503Y70269D02*
Y72935D01*
X638170D01*
X640836Y70269D01*
X641502D01*
X638170Y74268D02*
X637503Y74934D01*
Y76267D01*
X638170Y76934D01*
X640836D01*
X641502Y76267D01*
Y74934D01*
X640836Y74268D01*
X638170D01*
X641502Y80266D02*
X637503D01*
X639503Y78267D01*
Y80932D01*
X618844Y65908D02*
X614845D01*
Y67907D01*
X615512Y68574D01*
X616845D01*
X617511Y67907D01*
Y65908D01*
Y67241D02*
X618844Y68574D01*
X614845Y69907D02*
Y72572D01*
X615512D01*
X618178Y69907D01*
X618844D01*
X615512Y73905D02*
X614845Y74572D01*
Y75905D01*
X615512Y76571D01*
X618178D01*
X618844Y75905D01*
Y74572D01*
X618178Y73905D01*
X615512D01*
Y77904D02*
X614845Y78570D01*
Y79903D01*
X615512Y80570D01*
X616178D01*
X616845Y79903D01*
Y79237D01*
Y79903D01*
X617511Y80570D01*
X618178D01*
X618844Y79903D01*
Y78570D01*
X618178Y77904D01*
X582732Y86419D02*
X586731D01*
Y84420D01*
X586064Y83753D01*
X584731D01*
X584065Y84420D01*
Y86419D01*
Y85086D02*
X582732Y83753D01*
X586731Y82420D02*
Y79755D01*
X586064D01*
X583399Y82420D01*
X582732D01*
X586064Y78422D02*
X586731Y77755D01*
Y76422D01*
X586064Y75756D01*
X583399D01*
X582732Y76422D01*
Y77755D01*
X583399Y78422D01*
X586064D01*
X582732Y71757D02*
Y74423D01*
X585398Y71757D01*
X586064D01*
X586731Y72423D01*
Y73756D01*
X586064Y74423D01*
X648143Y360582D02*
X644145D01*
Y362582D01*
X644811Y363248D01*
X646144D01*
X646810Y362582D01*
Y360582D01*
Y361915D02*
X648143Y363248D01*
X644145Y367247D02*
X644811Y365914D01*
X646144Y364581D01*
X647477D01*
X648143Y365247D01*
Y366580D01*
X647477Y367247D01*
X646810D01*
X646144Y366580D01*
Y364581D01*
X644811Y368580D02*
X644145Y369246D01*
Y370579D01*
X644811Y371246D01*
X647477D01*
X648143Y370579D01*
Y369246D01*
X647477Y368580D01*
X644811D01*
Y372578D02*
X644145Y373245D01*
Y374578D01*
X644811Y375244D01*
X645478D01*
X646144Y374578D01*
Y373911D01*
Y374578D01*
X646810Y375244D01*
X647477D01*
X648143Y374578D01*
Y373245D01*
X647477Y372578D01*
X648143Y376577D02*
X645478D01*
X644145Y377910D01*
X645478Y379243D01*
X648143D01*
X646144D01*
Y376577D01*
X612866Y392772D02*
Y396770D01*
X614865D01*
X615532Y396104D01*
Y394771D01*
X614865Y394105D01*
X612866D01*
X614199D02*
X615532Y392772D01*
X619530Y396770D02*
X618198Y396104D01*
X616865Y394771D01*
Y393438D01*
X617531Y392772D01*
X618864D01*
X619530Y393438D01*
Y394105D01*
X618864Y394771D01*
X616865D01*
X620863Y396104D02*
X621530Y396770D01*
X622863D01*
X623529Y396104D01*
Y393438D01*
X622863Y392772D01*
X621530D01*
X620863Y393438D01*
Y396104D01*
X627528Y392772D02*
X624862D01*
X627528Y395438D01*
Y396104D01*
X626861Y396770D01*
X625529D01*
X624862Y396104D01*
X628861Y392772D02*
Y395438D01*
X630194Y396770D01*
X631527Y395438D01*
Y392772D01*
Y394771D01*
X628861D01*
X602396Y403541D02*
X598397D01*
Y405540D01*
X599064Y406207D01*
X600396D01*
X601063Y405540D01*
Y403541D01*
Y404874D02*
X602396Y406207D01*
X598397Y410206D02*
X599064Y408873D01*
X600396Y407540D01*
X601729D01*
X602396Y408206D01*
Y409539D01*
X601729Y410206D01*
X601063D01*
X600396Y409539D01*
Y407540D01*
X599064Y411538D02*
X598397Y412205D01*
Y413538D01*
X599064Y414204D01*
X601729D01*
X602396Y413538D01*
Y412205D01*
X601729Y411538D01*
X599064D01*
X602396Y415537D02*
Y416870D01*
Y416203D01*
X598397D01*
X599064Y415537D01*
X602396Y418869D02*
X599730D01*
X598397Y420202D01*
X599730Y421535D01*
X602396D01*
X600396D01*
Y418869D01*
X364103Y233551D02*
Y237549D01*
X366102D01*
X366768Y236883D01*
Y235550D01*
X366102Y234883D01*
X364103D01*
X365435D02*
X366768Y233551D01*
X370101D02*
Y237549D01*
X368101Y235550D01*
X370767D01*
X372100Y236883D02*
X372766Y237549D01*
X374099D01*
X374766Y236883D01*
Y234217D01*
X374099Y233551D01*
X372766D01*
X372100Y234217D01*
Y236883D01*
X378098Y233551D02*
Y237549D01*
X376099Y235550D01*
X378765D01*
X464472Y242331D02*
X460473D01*
Y244330D01*
X461140Y244997D01*
X462473D01*
X463139Y244330D01*
Y242331D01*
Y243664D02*
X464472Y244997D01*
X460473Y248995D02*
Y246330D01*
X462473D01*
X461806Y247662D01*
Y248329D01*
X462473Y248995D01*
X463806D01*
X464472Y248329D01*
Y246996D01*
X463806Y246330D01*
X461140Y250328D02*
X460473Y250995D01*
Y252328D01*
X461140Y252994D01*
X463806D01*
X464472Y252328D01*
Y250995D01*
X463806Y250328D01*
X461140D01*
X464472Y256993D02*
Y254327D01*
X461806Y256993D01*
X461140D01*
X460473Y256326D01*
Y254994D01*
X461140Y254327D01*
X457409Y273475D02*
X453410D01*
Y275474D01*
X454077Y276140D01*
X455410D01*
X456076Y275474D01*
Y273475D01*
Y274807D02*
X457409Y276140D01*
X453410Y280139D02*
Y277473D01*
X455410D01*
X454743Y278806D01*
Y279473D01*
X455410Y280139D01*
X456743D01*
X457409Y279473D01*
Y278140D01*
X456743Y277473D01*
X454077Y281472D02*
X453410Y282138D01*
Y283471D01*
X454077Y284138D01*
X456743D01*
X457409Y283471D01*
Y282138D01*
X456743Y281472D01*
X454077D01*
Y285471D02*
X453410Y286137D01*
Y287470D01*
X454077Y288137D01*
X456743D01*
X457409Y287470D01*
Y286137D01*
X456743Y285471D01*
X454077D01*
X219747Y254639D02*
Y258638D01*
X221746D01*
X222413Y257972D01*
Y256639D01*
X221746Y255972D01*
X219747D01*
X221080D02*
X222413Y254639D01*
X223745Y257972D02*
X224412Y258638D01*
X225745D01*
X226411Y257972D01*
Y257305D01*
X225745Y256639D01*
X225078D01*
X225745D01*
X226411Y255972D01*
Y255306D01*
X225745Y254639D01*
X224412D01*
X223745Y255306D01*
X227744Y257972D02*
X228411Y258638D01*
X229744D01*
X230410Y257972D01*
Y255306D01*
X229744Y254639D01*
X228411D01*
X227744Y255306D01*
Y257972D01*
X231743Y254639D02*
X233076D01*
X232409D01*
Y258638D01*
X231743Y257972D01*
X223640Y268599D02*
X219641D01*
Y270598D01*
X220308Y271265D01*
X221641D01*
X222307Y270598D01*
Y268599D01*
Y269932D02*
X223640Y271265D01*
X220308Y272597D02*
X219641Y273264D01*
Y274597D01*
X220308Y275263D01*
X220974D01*
X221641Y274597D01*
Y273930D01*
Y274597D01*
X222307Y275263D01*
X222974D01*
X223640Y274597D01*
Y273264D01*
X222974Y272597D01*
X220308Y276596D02*
X219641Y277263D01*
Y278595D01*
X220308Y279262D01*
X222974D01*
X223640Y278595D01*
Y277263D01*
X222974Y276596D01*
X220308D01*
Y280595D02*
X219641Y281261D01*
Y282594D01*
X220308Y283261D01*
X222974D01*
X223640Y282594D01*
Y281261D01*
X222974Y280595D01*
X220308D01*
X668003Y64154D02*
Y68153D01*
X670002D01*
X670669Y67487D01*
Y66154D01*
X670002Y65487D01*
X668003D01*
X672002Y68153D02*
X674668D01*
Y67487D01*
X672002Y64821D01*
Y64154D01*
X676000Y67487D02*
X676667Y68153D01*
X678000D01*
X678666Y67487D01*
Y64821D01*
X678000Y64154D01*
X676667D01*
X676000Y64821D01*
Y67487D01*
X679999D02*
X680666Y68153D01*
X681998D01*
X682665Y67487D01*
Y64821D01*
X681998Y64154D01*
X680666D01*
X679999Y64821D01*
Y67487D01*
X211098Y360479D02*
X207099D01*
Y362478D01*
X207766Y363144D01*
X209099D01*
X209765Y362478D01*
Y360479D01*
X211098Y366477D02*
X207099D01*
X209099Y364477D01*
Y367143D01*
X207766Y368476D02*
X207099Y369143D01*
Y370476D01*
X207766Y371142D01*
X210432D01*
X211098Y370476D01*
Y369143D01*
X210432Y368476D01*
X207766D01*
Y372475D02*
X207099Y373141D01*
Y374474D01*
X207766Y375141D01*
X210432D01*
X211098Y374474D01*
Y373141D01*
X210432Y372475D01*
X207766D01*
X411983Y174000D02*
X407984D01*
Y176000D01*
X408650Y176666D01*
X409983D01*
X410650Y176000D01*
Y174000D01*
X411983Y177999D02*
Y179332D01*
Y178665D01*
X407984D01*
X408650Y177999D01*
Y181331D02*
X407984Y181998D01*
Y183331D01*
X408650Y183997D01*
X411316D01*
X411983Y183331D01*
Y181998D01*
X411316Y181331D01*
X408650D01*
X407984Y187996D02*
X408650Y186663D01*
X409983Y185330D01*
X411316D01*
X411983Y185996D01*
Y187329D01*
X411316Y187996D01*
X410650D01*
X409983Y187329D01*
Y185330D01*
X492021Y174939D02*
X488023D01*
Y176938D01*
X488689Y177605D01*
X490022D01*
X490689Y176938D01*
Y174939D01*
X492021Y178938D02*
Y180271D01*
Y179604D01*
X488023D01*
X488689Y178938D01*
Y182270D02*
X488023Y182937D01*
Y184269D01*
X488689Y184936D01*
X491355D01*
X492021Y184269D01*
Y182937D01*
X491355Y182270D01*
X488689D01*
X488023Y188935D02*
Y186269D01*
X490022D01*
X489356Y187602D01*
Y188268D01*
X490022Y188935D01*
X491355D01*
X492021Y188268D01*
Y186935D01*
X491355Y186269D01*
X328937Y60248D02*
Y64247D01*
X330936D01*
X331603Y63581D01*
Y62248D01*
X330936Y61581D01*
X328937D01*
X332936Y60248D02*
X334268D01*
X333602D01*
Y64247D01*
X332936Y63581D01*
X336268D02*
X336934Y64247D01*
X338267D01*
X338934Y63581D01*
Y60915D01*
X338267Y60248D01*
X336934D01*
X336268Y60915D01*
Y63581D01*
X342266Y60248D02*
Y64247D01*
X340267Y62248D01*
X342932D01*
X421256Y306243D02*
Y302245D01*
X423922D01*
X427920Y306243D02*
X425255D01*
Y304244D01*
X426588Y304910D01*
X427254D01*
X427920Y304244D01*
Y302911D01*
X427254Y302245D01*
X425921D01*
X425255Y302911D01*
X429253Y305577D02*
X429920Y306243D01*
X431253D01*
X431919Y305577D01*
Y302911D01*
X431253Y302245D01*
X429920D01*
X429253Y302911D01*
Y305577D01*
X433252D02*
X433919Y306243D01*
X435251D01*
X435918Y305577D01*
Y302911D01*
X435251Y302245D01*
X433919D01*
X433252Y302911D01*
Y305577D01*
X18631Y88276D02*
X17965Y88943D01*
X16632D01*
X15965Y88276D01*
Y85610D01*
X16632Y84944D01*
X17965D01*
X18631Y85610D01*
Y86943D01*
X17298D01*
X19964Y84944D02*
Y88943D01*
X22630Y84944D01*
Y88943D01*
X23963D02*
Y84944D01*
X25962D01*
X26628Y85610D01*
Y88276D01*
X25962Y88943D01*
X23963D01*
X27961Y84944D02*
X29294D01*
X28628D01*
Y88943D01*
X27961Y88276D01*
X31294D02*
X31960Y88943D01*
X33293D01*
X33959Y88276D01*
Y85610D01*
X33293Y84944D01*
X31960D01*
X31294Y85610D01*
Y88276D01*
X35292D02*
X35959Y88943D01*
X37292D01*
X37958Y88276D01*
Y85610D01*
X37292Y84944D01*
X35959D01*
X35292Y85610D01*
Y88276D01*
X147168Y203324D02*
Y199325D01*
X149167D01*
X149834Y199991D01*
Y202657D01*
X149167Y203324D01*
X147168D01*
X153832Y199325D02*
X151167D01*
X153832Y201991D01*
Y202657D01*
X153166Y203324D01*
X151833D01*
X151167Y202657D01*
X155165D02*
X155832Y203324D01*
X157165D01*
X157831Y202657D01*
Y199991D01*
X157165Y199325D01*
X155832D01*
X155165Y199991D01*
Y202657D01*
X161830Y199325D02*
X159164D01*
X161830Y201991D01*
Y202657D01*
X161163Y203324D01*
X159830D01*
X159164Y202657D01*
X165829D02*
X165162Y203324D01*
X163829D01*
X163163Y202657D01*
Y199991D01*
X163829Y199325D01*
X165162D01*
X165829Y199991D01*
X147172Y326229D02*
Y322230D01*
X149171D01*
X149838Y322897D01*
Y325562D01*
X149171Y326229D01*
X147172D01*
X153836Y322230D02*
X151170D01*
X153836Y324896D01*
Y325562D01*
X153170Y326229D01*
X151837D01*
X151170Y325562D01*
X155169D02*
X155835Y326229D01*
X157168D01*
X157835Y325562D01*
Y322897D01*
X157168Y322230D01*
X155835D01*
X155169Y322897D01*
Y325562D01*
X161834Y322230D02*
X159168D01*
X161834Y324896D01*
Y325562D01*
X161167Y326229D01*
X159834D01*
X159168Y325562D01*
X163166Y326229D02*
Y322230D01*
X165166D01*
X165832Y322897D01*
Y323563D01*
X165166Y324230D01*
X163166D01*
X165166D01*
X165832Y324896D01*
Y325562D01*
X165166Y326229D01*
X163166D01*
X147153Y448905D02*
Y444907D01*
X149152D01*
X149819Y445573D01*
Y448239D01*
X149152Y448905D01*
X147153D01*
X153817Y444907D02*
X151152D01*
X153817Y447572D01*
Y448239D01*
X153151Y448905D01*
X151818D01*
X151152Y448239D01*
X155150D02*
X155817Y448905D01*
X157150D01*
X157816Y448239D01*
Y445573D01*
X157150Y444907D01*
X155817D01*
X155150Y445573D01*
Y448239D01*
X161815Y444907D02*
X159149D01*
X161815Y447572D01*
Y448239D01*
X161149Y448905D01*
X159816D01*
X159149Y448239D01*
X163148Y444907D02*
Y447572D01*
X164481Y448905D01*
X165814Y447572D01*
Y444907D01*
Y446906D01*
X163148D01*
X98049Y182850D02*
X102048D01*
Y184849D01*
X101381Y185516D01*
X98715D01*
X98049Y184849D01*
Y182850D01*
X102048Y189514D02*
Y186849D01*
X99382Y189514D01*
X98715D01*
X98049Y188848D01*
Y187515D01*
X98715Y186849D01*
Y190847D02*
X98049Y191514D01*
Y192847D01*
X98715Y193513D01*
X101381D01*
X102048Y192847D01*
Y191514D01*
X101381Y190847D01*
X98715D01*
X102048Y194846D02*
Y196179D01*
Y195512D01*
X98049D01*
X98715Y194846D01*
Y200844D02*
X98049Y200178D01*
Y198845D01*
X98715Y198178D01*
X101381D01*
X102048Y198845D01*
Y200178D01*
X101381Y200844D01*
X97925Y305721D02*
X101924D01*
Y307720D01*
X101258Y308387D01*
X98592D01*
X97925Y307720D01*
Y305721D01*
X101924Y312386D02*
Y309720D01*
X99258Y312386D01*
X98592D01*
X97925Y311719D01*
Y310386D01*
X98592Y309720D01*
Y313719D02*
X97925Y314385D01*
Y315718D01*
X98592Y316384D01*
X101258D01*
X101924Y315718D01*
Y314385D01*
X101258Y313719D01*
X98592D01*
X101924Y317717D02*
Y319050D01*
Y318384D01*
X97925D01*
X98592Y317717D01*
X97925Y321049D02*
X101924D01*
Y323049D01*
X101258Y323715D01*
X100591D01*
X99925Y323049D01*
Y321049D01*
Y323049D01*
X99258Y323715D01*
X98592D01*
X97925Y323049D01*
Y321049D01*
X97983Y428445D02*
X101982D01*
Y430444D01*
X101315Y431111D01*
X98650D01*
X97983Y430444D01*
Y428445D01*
X101982Y435110D02*
Y432444D01*
X99316Y435110D01*
X98650D01*
X97983Y434443D01*
Y433110D01*
X98650Y432444D01*
Y436443D02*
X97983Y437109D01*
Y438442D01*
X98650Y439108D01*
X101315D01*
X101982Y438442D01*
Y437109D01*
X101315Y436443D01*
X98650D01*
X101982Y440441D02*
Y441774D01*
Y441108D01*
X97983D01*
X98650Y440441D01*
X101982Y443774D02*
X99316D01*
X97983Y445106D01*
X99316Y446439D01*
X101982D01*
X99983D01*
Y443774D01*
X85126Y161246D02*
X89124D01*
Y163246D01*
X88458Y163912D01*
X85792D01*
X85126Y163246D01*
Y161246D01*
X89124Y167911D02*
Y165245D01*
X86458Y167911D01*
X85792D01*
X85126Y167244D01*
Y165911D01*
X85792Y165245D01*
Y169244D02*
X85126Y169910D01*
Y171243D01*
X85792Y171910D01*
X88458D01*
X89124Y171243D01*
Y169910D01*
X88458Y169244D01*
X85792D01*
Y173242D02*
X85126Y173909D01*
Y175242D01*
X85792Y175908D01*
X88458D01*
X89124Y175242D01*
Y173909D01*
X88458Y173242D01*
X85792D01*
Y179907D02*
X85126Y179241D01*
Y177908D01*
X85792Y177241D01*
X88458D01*
X89124Y177908D01*
Y179241D01*
X88458Y179907D01*
X85129Y284152D02*
X89128D01*
Y286151D01*
X88462Y286817D01*
X85796D01*
X85129Y286151D01*
Y284152D01*
X89128Y290816D02*
Y288150D01*
X86462Y290816D01*
X85796D01*
X85129Y290150D01*
Y288817D01*
X85796Y288150D01*
Y292149D02*
X85129Y292815D01*
Y294148D01*
X85796Y294815D01*
X88462D01*
X89128Y294148D01*
Y292815D01*
X88462Y292149D01*
X85796D01*
Y296148D02*
X85129Y296814D01*
Y298147D01*
X85796Y298814D01*
X88462D01*
X89128Y298147D01*
Y296814D01*
X88462Y296148D01*
X85796D01*
X85129Y300146D02*
X89128D01*
Y302146D01*
X88462Y302812D01*
X87795D01*
X87129Y302146D01*
Y300146D01*
Y302146D01*
X86462Y302812D01*
X85796D01*
X85129Y302146D01*
Y300146D01*
X85138Y393702D02*
X89136D01*
Y395701D01*
X88470Y396368D01*
X85804D01*
X85138Y395701D01*
Y393702D01*
X89136Y400367D02*
Y397701D01*
X86471Y400367D01*
X85804D01*
X85138Y399700D01*
Y398367D01*
X85804Y397701D01*
Y401699D02*
X85138Y402366D01*
Y403699D01*
X85804Y404365D01*
X88470D01*
X89136Y403699D01*
Y402366D01*
X88470Y401699D01*
X85804D01*
Y405698D02*
X85138Y406365D01*
Y407698D01*
X85804Y408364D01*
X88470D01*
X89136Y407698D01*
Y406365D01*
X88470Y405698D01*
X85804D01*
X89136Y409697D02*
X86471D01*
X85138Y411030D01*
X86471Y412363D01*
X89136D01*
X87137D01*
Y409697D01*
X595597Y110521D02*
Y106523D01*
X597596D01*
X598263Y107189D01*
Y109855D01*
X597596Y110521D01*
X595597D01*
X599596D02*
X602261D01*
Y109855D01*
X599596Y107189D01*
Y106523D01*
X603594Y109855D02*
X604261Y110521D01*
X605594D01*
X606260Y109855D01*
Y107189D01*
X605594Y106523D01*
X604261D01*
X603594Y107189D01*
Y109855D01*
X607593Y106523D02*
X608926D01*
X608259D01*
Y110521D01*
X607593Y109855D01*
X571466Y102507D02*
Y98508D01*
X573465D01*
X574132Y99174D01*
Y101840D01*
X573465Y102507D01*
X571466D01*
X575464D02*
X578130D01*
Y101840D01*
X575464Y99174D01*
Y98508D01*
X579463Y101840D02*
X580130Y102507D01*
X581463D01*
X582129Y101840D01*
Y99174D01*
X581463Y98508D01*
X580130D01*
X579463Y99174D01*
Y101840D01*
X583462D02*
X584128Y102507D01*
X585461D01*
X586128Y101840D01*
Y99174D01*
X585461Y98508D01*
X584128D01*
X583462Y99174D01*
Y101840D01*
X610788Y433797D02*
Y429798D01*
X612787D01*
X613454Y430465D01*
Y433130D01*
X612787Y433797D01*
X610788D01*
X617452D02*
X616119Y433130D01*
X614787Y431797D01*
Y430465D01*
X615453Y429798D01*
X616786D01*
X617452Y430465D01*
Y431131D01*
X616786Y431797D01*
X614787D01*
X618785Y433130D02*
X619452Y433797D01*
X620785D01*
X621451Y433130D01*
Y430465D01*
X620785Y429798D01*
X619452D01*
X618785Y430465D01*
Y433130D01*
X622784Y429798D02*
X624117D01*
X623451D01*
Y433797D01*
X622784Y433130D01*
X626116Y429798D02*
Y432464D01*
X627449Y433797D01*
X628782Y432464D01*
Y429798D01*
Y431797D01*
X626116D01*
X643665Y436645D02*
Y432646D01*
X645665D01*
X646331Y433312D01*
Y435978D01*
X645665Y436645D01*
X643665D01*
X650330D02*
X648997Y435978D01*
X647664Y434645D01*
Y433312D01*
X648330Y432646D01*
X649663D01*
X650330Y433312D01*
Y433979D01*
X649663Y434645D01*
X647664D01*
X651663Y435978D02*
X652329Y436645D01*
X653662D01*
X654328Y435978D01*
Y433312D01*
X653662Y432646D01*
X652329D01*
X651663Y433312D01*
Y435978D01*
X655661D02*
X656328Y436645D01*
X657661D01*
X658327Y435978D01*
Y433312D01*
X657661Y432646D01*
X656328D01*
X655661Y433312D01*
Y435978D01*
X659660Y432646D02*
Y435312D01*
X660993Y436645D01*
X662326Y435312D01*
Y432646D01*
Y434645D01*
X659660D01*
X335237Y238212D02*
Y234213D01*
X337236D01*
X337903Y234879D01*
Y237545D01*
X337236Y238212D01*
X335237D01*
X341235Y234213D02*
Y238212D01*
X339236Y236212D01*
X341902D01*
X343234Y237545D02*
X343901Y238212D01*
X345234D01*
X345900Y237545D01*
Y234879D01*
X345234Y234213D01*
X343901D01*
X343234Y234879D01*
Y237545D01*
X347233D02*
X347900Y238212D01*
X349233D01*
X349899Y237545D01*
Y234879D01*
X349233Y234213D01*
X347900D01*
X347233Y234879D01*
Y237545D01*
X453936Y308669D02*
Y304670D01*
X455935D01*
X456602Y305336D01*
Y308002D01*
X455935Y308669D01*
X453936D01*
X460601D02*
X457935D01*
Y306669D01*
X459268Y307336D01*
X459934D01*
X460601Y306669D01*
Y305336D01*
X459934Y304670D01*
X458601D01*
X457935Y305336D01*
X461934Y308002D02*
X462600Y308669D01*
X463933D01*
X464599Y308002D01*
Y305336D01*
X463933Y304670D01*
X462600D01*
X461934Y305336D01*
Y308002D01*
X465932D02*
X466599Y308669D01*
X467932D01*
X468598Y308002D01*
Y305336D01*
X467932Y304670D01*
X466599D01*
X465932Y305336D01*
Y308002D01*
X255347Y265060D02*
X259346D01*
Y267059D01*
X258679Y267726D01*
X256013D01*
X255347Y267059D01*
Y265060D01*
X256013Y269059D02*
X255347Y269725D01*
Y271058D01*
X256013Y271725D01*
X256680D01*
X257346Y271058D01*
Y270392D01*
Y271058D01*
X258013Y271725D01*
X258679D01*
X259346Y271058D01*
Y269725D01*
X258679Y269059D01*
X256013Y273058D02*
X255347Y273724D01*
Y275057D01*
X256013Y275723D01*
X258679D01*
X259346Y275057D01*
Y273724D01*
X258679Y273058D01*
X256013D01*
Y277056D02*
X255347Y277723D01*
Y279056D01*
X256013Y279722D01*
X258679D01*
X259346Y279056D01*
Y277723D01*
X258679Y277056D01*
X256013D01*
X218972Y246551D02*
X218306Y247217D01*
X216973D01*
X216306Y246551D01*
Y243885D01*
X216973Y243219D01*
X218306D01*
X218972Y243885D01*
X220305Y247217D02*
Y243219D01*
Y245218D01*
X222971D01*
Y247217D01*
Y243219D01*
X224304D02*
X225637D01*
X224970D01*
Y247217D01*
X224304Y246551D01*
X227636D02*
X228302Y247217D01*
X229635D01*
X230302Y246551D01*
Y243885D01*
X229635Y243219D01*
X228302D01*
X227636Y243885D01*
Y246551D01*
X231635D02*
X232301Y247217D01*
X233634D01*
X234300Y246551D01*
Y243885D01*
X233634Y243219D01*
X232301D01*
X231635Y243885D01*
Y246551D01*
X311577Y232529D02*
X310911Y233195D01*
X309578D01*
X308911Y232529D01*
Y229863D01*
X309578Y229197D01*
X310911D01*
X311577Y229863D01*
X315576Y233195D02*
X312910D01*
Y229197D01*
X315576D01*
X312910Y231196D02*
X314243D01*
X316909Y229197D02*
X318242D01*
X317575D01*
Y233195D01*
X316909Y232529D01*
X320241D02*
X320908Y233195D01*
X322240D01*
X322907Y232529D01*
Y229863D01*
X322240Y229197D01*
X320908D01*
X320241Y229863D01*
Y232529D01*
X324240D02*
X324906Y233195D01*
X326239D01*
X326906Y232529D01*
Y229863D01*
X326239Y229197D01*
X324906D01*
X324240Y229863D01*
Y232529D01*
X141138Y181969D02*
X140471Y181302D01*
Y179969D01*
X141138Y179303D01*
X143803D01*
X144470Y179969D01*
Y181302D01*
X143803Y181969D01*
X144470Y185967D02*
Y183301D01*
X141804Y185967D01*
X141138D01*
X140471Y185301D01*
Y183968D01*
X141138Y183301D01*
Y187300D02*
X140471Y187967D01*
Y189300D01*
X141138Y189966D01*
X143803D01*
X144470Y189300D01*
Y187967D01*
X143803Y187300D01*
X141138D01*
X144470Y191299D02*
Y192632D01*
Y191965D01*
X140471D01*
X141138Y191299D01*
Y197297D02*
X140471Y196631D01*
Y195298D01*
X141138Y194631D01*
X143803D01*
X144470Y195298D01*
Y196631D01*
X143803Y197297D01*
X142181Y304162D02*
X141514Y303496D01*
Y302163D01*
X142181Y301496D01*
X144846D01*
X145513Y302163D01*
Y303496D01*
X144846Y304162D01*
X145513Y308161D02*
Y305495D01*
X142847Y308161D01*
X142181D01*
X141514Y307494D01*
Y306161D01*
X142181Y305495D01*
Y309494D02*
X141514Y310160D01*
Y311493D01*
X142181Y312159D01*
X144846D01*
X145513Y311493D01*
Y310160D01*
X144846Y309494D01*
X142181D01*
X145513Y313492D02*
Y314825D01*
Y314159D01*
X141514D01*
X142181Y313492D01*
X141514Y316825D02*
X145513D01*
Y318824D01*
X144846Y319491D01*
X144180D01*
X143513Y318824D01*
Y316825D01*
Y318824D01*
X142847Y319491D01*
X142181D01*
X141514Y318824D01*
Y316825D01*
X141814Y424368D02*
X141148Y423702D01*
Y422369D01*
X141814Y421703D01*
X144480D01*
X145147Y422369D01*
Y423702D01*
X144480Y424368D01*
X145147Y428367D02*
Y425701D01*
X142481Y428367D01*
X141814D01*
X141148Y427701D01*
Y426368D01*
X141814Y425701D01*
Y429700D02*
X141148Y430367D01*
Y431700D01*
X141814Y432366D01*
X144480D01*
X145147Y431700D01*
Y430367D01*
X144480Y429700D01*
X141814D01*
X145147Y433699D02*
Y435032D01*
Y434365D01*
X141148D01*
X141814Y433699D01*
X145147Y437031D02*
X142481D01*
X141148Y438364D01*
X142481Y439697D01*
X145147D01*
X143147D01*
Y437031D01*
X136475Y213692D02*
X135809Y214359D01*
X134476D01*
X133809Y213692D01*
Y211027D01*
X134476Y210360D01*
X135809D01*
X136475Y211027D01*
X140474Y210360D02*
X137808D01*
X140474Y213026D01*
Y213692D01*
X139807Y214359D01*
X138474D01*
X137808Y213692D01*
X141807D02*
X142473Y214359D01*
X143806D01*
X144473Y213692D01*
Y211027D01*
X143806Y210360D01*
X142473D01*
X141807Y211027D01*
Y213692D01*
X145805D02*
X146472Y214359D01*
X147805D01*
X148471Y213692D01*
Y211027D01*
X147805Y210360D01*
X146472D01*
X145805Y211027D01*
Y213692D01*
X152470D02*
X151804Y214359D01*
X150471D01*
X149804Y213692D01*
Y211027D01*
X150471Y210360D01*
X151804D01*
X152470Y211027D01*
X136479Y336598D02*
X135812Y337264D01*
X134479D01*
X133813Y336598D01*
Y333932D01*
X134479Y333265D01*
X135812D01*
X136479Y333932D01*
X140478Y333265D02*
X137812D01*
X140478Y335931D01*
Y336598D01*
X139811Y337264D01*
X138478D01*
X137812Y336598D01*
X141811D02*
X142477Y337264D01*
X143810D01*
X144476Y336598D01*
Y333932D01*
X143810Y333265D01*
X142477D01*
X141811Y333932D01*
Y336598D01*
X145809D02*
X146476Y337264D01*
X147809D01*
X148475Y336598D01*
Y333932D01*
X147809Y333265D01*
X146476D01*
X145809Y333932D01*
Y336598D01*
X149808Y337264D02*
Y333265D01*
X151807D01*
X152474Y333932D01*
Y334598D01*
X151807Y335265D01*
X149808D01*
X151807D01*
X152474Y335931D01*
Y336598D01*
X151807Y337264D01*
X149808D01*
X136460Y459274D02*
X135794Y459941D01*
X134461D01*
X133794Y459274D01*
Y456608D01*
X134461Y455942D01*
X135794D01*
X136460Y456608D01*
X140459Y455942D02*
X137793D01*
X140459Y458608D01*
Y459274D01*
X139793Y459941D01*
X138460D01*
X137793Y459274D01*
X141792D02*
X142458Y459941D01*
X143791D01*
X144458Y459274D01*
Y456608D01*
X143791Y455942D01*
X142458D01*
X141792Y456608D01*
Y459274D01*
X145791D02*
X146457Y459941D01*
X147790D01*
X148456Y459274D01*
Y456608D01*
X147790Y455942D01*
X146457D01*
X145791Y456608D01*
Y459274D01*
X149789Y455942D02*
Y458608D01*
X151122Y459941D01*
X152455Y458608D01*
Y455942D01*
Y457941D01*
X149789D01*
X479989Y244997D02*
X479323Y244330D01*
Y242997D01*
X479989Y242331D01*
X482655D01*
X483321Y242997D01*
Y244330D01*
X482655Y244997D01*
X479323Y248995D02*
Y246330D01*
X481322D01*
X480656Y247662D01*
Y248329D01*
X481322Y248995D01*
X482655D01*
X483321Y248329D01*
Y246996D01*
X482655Y246330D01*
X479989Y250328D02*
X479323Y250995D01*
Y252328D01*
X479989Y252994D01*
X482655D01*
X483321Y252328D01*
Y250995D01*
X482655Y250328D01*
X479989D01*
X479323Y256993D02*
Y254327D01*
X481322D01*
X480656Y255660D01*
Y256326D01*
X481322Y256993D01*
X482655D01*
X483321Y256326D01*
Y254994D01*
X482655Y254327D01*
X470838Y244480D02*
X470171Y243814D01*
Y242481D01*
X470838Y241815D01*
X473503D01*
X474170Y242481D01*
Y243814D01*
X473503Y244480D01*
X470171Y248479D02*
Y245813D01*
X472171D01*
X471504Y247146D01*
Y247813D01*
X472171Y248479D01*
X473503D01*
X474170Y247813D01*
Y246480D01*
X473503Y245813D01*
X470838Y249812D02*
X470171Y250479D01*
Y251811D01*
X470838Y252478D01*
X473503D01*
X474170Y251811D01*
Y250479D01*
X473503Y249812D01*
X470838D01*
X474170Y255810D02*
X470171D01*
X472171Y253811D01*
Y256477D01*
X419908Y258135D02*
X419242Y257469D01*
Y256136D01*
X419908Y255469D01*
X422574D01*
X423241Y256136D01*
Y257469D01*
X422574Y258135D01*
X419242Y262134D02*
Y259468D01*
X421241D01*
X420575Y260801D01*
Y261467D01*
X421241Y262134D01*
X422574D01*
X423241Y261467D01*
Y260134D01*
X422574Y259468D01*
X419908Y263467D02*
X419242Y264133D01*
Y265466D01*
X419908Y266132D01*
X422574D01*
X423241Y265466D01*
Y264133D01*
X422574Y263467D01*
X419908D01*
Y267465D02*
X419242Y268132D01*
Y269465D01*
X419908Y270131D01*
X420575D01*
X421241Y269465D01*
Y268798D01*
Y269465D01*
X421908Y270131D01*
X422574D01*
X423241Y269465D01*
Y268132D01*
X422574Y267465D01*
X503423Y303884D02*
X502757Y304551D01*
X501424D01*
X500758Y303884D01*
Y301219D01*
X501424Y300552D01*
X502757D01*
X503423Y301219D01*
X507422Y304551D02*
X504756D01*
Y302551D01*
X506089Y303218D01*
X506756D01*
X507422Y302551D01*
Y301219D01*
X506756Y300552D01*
X505423D01*
X504756Y301219D01*
X508755Y303884D02*
X509421Y304551D01*
X510754D01*
X511421Y303884D01*
Y301219D01*
X510754Y300552D01*
X509421D01*
X508755Y301219D01*
Y303884D01*
X512754Y300552D02*
X514087D01*
X513420D01*
Y304551D01*
X512754Y303884D01*
X483117Y275823D02*
X482450Y275157D01*
Y273824D01*
X483117Y273158D01*
X485782D01*
X486449Y273824D01*
Y275157D01*
X485782Y275823D01*
X482450Y279822D02*
Y277156D01*
X484450D01*
X483783Y278489D01*
Y279156D01*
X484450Y279822D01*
X485782D01*
X486449Y279156D01*
Y277823D01*
X485782Y277156D01*
X483117Y281155D02*
X482450Y281822D01*
Y283155D01*
X483117Y283821D01*
X485782D01*
X486449Y283155D01*
Y281822D01*
X485782Y281155D01*
X483117D01*
Y285154D02*
X482450Y285820D01*
Y287153D01*
X483117Y287820D01*
X485782D01*
X486449Y287153D01*
Y285820D01*
X485782Y285154D01*
X483117D01*
X242190Y232282D02*
X241524Y232949D01*
X240191D01*
X239524Y232282D01*
Y229616D01*
X240191Y228950D01*
X241524D01*
X242190Y229616D01*
X243523Y232282D02*
X244189Y232949D01*
X245522D01*
X246189Y232282D01*
Y231616D01*
X245522Y230949D01*
X244856D01*
X245522D01*
X246189Y230283D01*
Y229616D01*
X245522Y228950D01*
X244189D01*
X243523Y229616D01*
X247522Y232282D02*
X248188Y232949D01*
X249521D01*
X250187Y232282D01*
Y229616D01*
X249521Y228950D01*
X248188D01*
X247522Y229616D01*
Y232282D01*
X251520Y228950D02*
X252853D01*
X252187D01*
Y232949D01*
X251520Y232282D01*
X240507Y317870D02*
X239840Y318537D01*
X238508D01*
X237841Y317870D01*
Y315205D01*
X238508Y314538D01*
X239840D01*
X240507Y315205D01*
X241840Y317870D02*
X242506Y318537D01*
X243839D01*
X244506Y317870D01*
Y317204D01*
X243839Y316537D01*
X243173D01*
X243839D01*
X244506Y315871D01*
Y315205D01*
X243839Y314538D01*
X242506D01*
X241840Y315205D01*
X245838Y317870D02*
X246505Y318537D01*
X247838D01*
X248504Y317870D01*
Y315205D01*
X247838Y314538D01*
X246505D01*
X245838Y315205D01*
Y317870D01*
X249837D02*
X250504Y318537D01*
X251837D01*
X252503Y317870D01*
Y315205D01*
X251837Y314538D01*
X250504D01*
X249837Y315205D01*
Y317870D01*
X535853Y234443D02*
Y230445D01*
X537853D01*
X538519Y231111D01*
Y231777D01*
X537853Y232444D01*
X535853D01*
X537853D01*
X538519Y233110D01*
Y233777D01*
X537853Y234443D01*
X535853D01*
X542518Y233777D02*
X541851Y234443D01*
X540519D01*
X539852Y233777D01*
Y231111D01*
X540519Y230445D01*
X541851D01*
X542518Y231111D01*
X543851Y230445D02*
X545184D01*
X544517D01*
Y234443D01*
X543851Y233777D01*
X547183D02*
X547850Y234443D01*
X549182D01*
X549849Y233777D01*
Y231111D01*
X549182Y230445D01*
X547850D01*
X547183Y231111D01*
Y233777D01*
X551182D02*
X551848Y234443D01*
X553181D01*
X553848Y233777D01*
Y231111D01*
X553181Y230445D01*
X551848D01*
X551182Y231111D01*
Y233777D01*
D13*
X277801Y152609D02*
G03*
X277801Y152609I-984J0D01*
G01*
D14*
X254797Y301352D02*
G03*
X254797Y301352I-9843J0D01*
G01*
X256577Y246291D02*
G03*
X256577Y246291I-9843J0D01*
G01*
X13597Y120289D02*
X24187D01*
Y172899D01*
X13597D02*
X24187D01*
X13597Y120289D02*
Y172899D01*
X14457Y246644D02*
X25047D01*
Y299254D01*
X14457D02*
X25047D01*
X14457Y246644D02*
Y299254D01*
X13362Y369205D02*
X23953D01*
Y421815D01*
X13362D02*
X23953D01*
X13362Y369205D02*
Y421815D01*
X564462Y91075D02*
Y91862D01*
X568989Y91075D02*
Y91862D01*
X101295Y286743D02*
X104445D01*
X101295Y276507D02*
X104445D01*
X582597Y225059D02*
X585747D01*
X582597Y235295D02*
X585747D01*
X616964Y215079D02*
Y230827D01*
X604956Y215079D02*
Y230827D01*
X629870Y214327D02*
Y215114D01*
X625342Y214327D02*
Y215114D01*
X646148Y198610D02*
X646935D01*
X646148Y203137D02*
X646935D01*
X574965Y203534D02*
X594650D01*
X574965Y210621D02*
X594650D01*
X574965Y203534D02*
Y210621D01*
X594650Y203534D02*
Y210621D01*
X582676Y319831D02*
X585825D01*
X582676Y330067D02*
X585825D01*
X617042Y309852D02*
Y325600D01*
X605034Y309852D02*
Y325600D01*
X629949Y309100D02*
Y309887D01*
X625421Y309100D02*
Y309887D01*
X646226Y293382D02*
X647014D01*
X646226Y297910D02*
X647014D01*
X575043Y298307D02*
X594729D01*
X575043Y305393D02*
X594729D01*
X575043Y298307D02*
Y305393D01*
X594729Y298307D02*
Y305393D01*
X330881Y69176D02*
Y190357D01*
X341472D01*
Y69176D02*
Y190357D01*
X330881Y69176D02*
X341472D01*
X230090D02*
X240680D01*
Y190357D01*
X230090D02*
X240680D01*
X230090Y69176D02*
Y190357D01*
X474370Y190688D02*
X484961D01*
X474370Y29506D02*
Y190688D01*
Y29506D02*
X484961D01*
Y190688D01*
X405013Y69507D02*
Y190688D01*
X394422Y69507D02*
X405013D01*
X394422D02*
Y190688D01*
X405013D01*
X273864Y94932D02*
Y155561D01*
Y94932D02*
X295629D01*
Y155561D01*
X273864D02*
X295629D01*
X474899Y278220D02*
Y279007D01*
X479427Y278220D02*
Y279007D01*
X426745Y264293D02*
Y265080D01*
X431273Y264293D02*
Y265080D01*
X469770Y264187D02*
Y264974D01*
X474298Y264187D02*
Y264974D01*
X479195Y264156D02*
Y264944D01*
X483722Y264156D02*
Y264944D01*
X460749Y278325D02*
Y279113D01*
X465277Y278325D02*
Y279113D01*
X460619Y264293D02*
Y265080D01*
X465146Y264293D02*
Y265080D01*
X575227Y77848D02*
Y78636D01*
X579755Y77848D02*
Y78636D01*
X621655Y71856D02*
Y72643D01*
X626182Y71856D02*
Y72643D01*
X629396Y71855D02*
Y72643D01*
X633924Y71855D02*
Y72643D01*
X101292Y163838D02*
X104441D01*
X101292Y153602D02*
X104441D01*
X440866Y256166D02*
X451889D01*
X440866Y269551D02*
X451889D01*
X647257Y89559D02*
Y91133D01*
Y89559D02*
X673634D01*
Y91133D01*
X621633Y85810D02*
Y94078D01*
X632066Y85810D02*
Y94078D01*
X155004Y135569D02*
Y137144D01*
Y135569D02*
X181382D01*
Y137144D01*
X502691Y251876D02*
Y252664D01*
X507219Y251876D02*
Y252664D01*
X503047Y238583D02*
Y239370D01*
X507575Y238583D02*
Y239370D01*
X523309Y238440D02*
X525426D01*
X530076Y242407D02*
Y243559D01*
X518659D02*
X521686D01*
X527049D02*
X530076D01*
X518659Y242407D02*
Y243559D01*
X491284Y252000D02*
Y252787D01*
X495812Y252000D02*
Y252787D01*
X491296Y238820D02*
Y239608D01*
X495824Y238820D02*
Y239608D01*
X599979Y98424D02*
X603129D01*
X599979Y88187D02*
X603129D01*
X612139Y66312D02*
Y73398D01*
X592454Y66312D02*
Y73398D01*
X612139D01*
X592454Y66312D02*
X612139D01*
X133116Y447345D02*
Y448132D01*
X137644Y447345D02*
Y448132D01*
X101277Y409420D02*
X104426D01*
X101277Y399184D02*
X104426D01*
X67535Y407995D02*
Y408783D01*
X72062Y407995D02*
Y408783D01*
X76960Y394877D02*
Y395664D01*
X81488Y394877D02*
Y395664D01*
X123027Y447345D02*
Y448132D01*
X127554Y447345D02*
Y448132D01*
X132844Y358345D02*
Y359132D01*
X137372Y358345D02*
Y359132D01*
X146818Y358478D02*
Y359265D01*
X151345Y358478D02*
Y359265D01*
X154989Y381151D02*
Y382725D01*
Y381151D02*
X181367D01*
Y382725D01*
X113696Y376885D02*
Y383972D01*
X94011Y376885D02*
Y383972D01*
X113696D01*
X94011Y376885D02*
X113696D01*
X132271Y380507D02*
Y388775D01*
X142704Y380507D02*
Y388775D01*
X128259Y403569D02*
X144007D01*
X128259Y415577D02*
X144007D01*
X123027Y434243D02*
Y435030D01*
X127554Y434243D02*
Y435030D01*
X133418Y433791D02*
Y434579D01*
X137945Y433791D02*
Y434579D01*
X153711Y431545D02*
X155828D01*
X160478Y435512D02*
Y436663D01*
X149061D02*
X152088D01*
X157451D02*
X160478D01*
X149061Y435512D02*
Y436663D01*
X132286Y134926D02*
Y143193D01*
X142719Y134926D02*
Y143193D01*
X113710Y131304D02*
Y138390D01*
X94025Y131304D02*
Y138390D01*
X113710D01*
X94025Y131304D02*
X113710D01*
X123041Y188661D02*
Y189449D01*
X127569Y188661D02*
Y189449D01*
X146832Y112897D02*
Y113684D01*
X151360Y112897D02*
Y113684D01*
X132859Y112763D02*
Y113550D01*
X137387Y112763D02*
Y113550D01*
X123041Y201763D02*
Y202551D01*
X127569Y201763D02*
Y202551D01*
X76975Y149295D02*
Y150083D01*
X81503Y149295D02*
Y150083D01*
X67549Y162414D02*
Y163201D01*
X72077Y162414D02*
Y163201D01*
X128274Y157987D02*
X144022D01*
X128274Y169995D02*
X144022D01*
X153726Y185963D02*
X155843D01*
X160493Y189931D02*
Y191082D01*
X149075D02*
X152103D01*
X157466D02*
X160493D01*
X149075Y189931D02*
Y191082D01*
X133432Y188209D02*
Y188997D01*
X137960Y188209D02*
Y188997D01*
X133131Y201763D02*
Y202551D01*
X137659Y201763D02*
Y202551D01*
X133135Y324668D02*
Y325456D01*
X137663Y324668D02*
Y325456D01*
X133436Y311115D02*
Y311902D01*
X137964Y311115D02*
Y311902D01*
X153729Y308869D02*
X155847D01*
X160497Y312836D02*
Y313987D01*
X149079D02*
X152107D01*
X157469D02*
X160497D01*
X149079Y312836D02*
Y313987D01*
X128278Y280892D02*
X144026D01*
X128278Y292900D02*
X144026D01*
X67553Y285319D02*
Y286106D01*
X72081Y285319D02*
Y286106D01*
X76979Y272200D02*
Y272988D01*
X81507Y272200D02*
Y272988D01*
X123045Y324668D02*
Y325456D01*
X127573Y324668D02*
Y325456D01*
X132863Y235668D02*
Y236456D01*
X137390Y235668D02*
Y236456D01*
X146836Y235802D02*
Y236589D01*
X151364Y235802D02*
Y236589D01*
X123045Y311566D02*
Y312354D01*
X127573Y311566D02*
Y312354D01*
X155008Y258474D02*
Y260049D01*
Y258474D02*
X181386D01*
Y260049D01*
X113714Y254209D02*
Y261296D01*
X94029Y254209D02*
Y261296D01*
X113714D01*
X94029Y254209D02*
X113714D01*
X132290Y257831D02*
Y266099D01*
X142723Y257831D02*
Y266099D01*
X625394Y404034D02*
Y404821D01*
X629922Y404034D02*
Y404821D01*
X617016Y404786D02*
Y420534D01*
X605008Y404786D02*
Y420534D01*
X582649Y425002D02*
X585799D01*
X582649Y414766D02*
X585799D01*
X594702Y393241D02*
Y400328D01*
X575017Y393241D02*
Y400328D01*
X594702D01*
X575017Y393241D02*
X594702D01*
X646200Y392845D02*
X646987D01*
X646200Y388317D02*
X646987D01*
X227513Y280000D02*
Y280788D01*
X232041Y280000D02*
Y280788D01*
X234647Y262496D02*
X235435D01*
X234647Y267023D02*
X235435D01*
X235698Y280551D02*
Y280967D01*
Y280551D02*
X247116D01*
Y280967D01*
X235698D02*
X247116D01*
X366735Y242945D02*
X367522D01*
X366735Y247473D02*
X367522D01*
X348462Y265665D02*
X349250D01*
X348462Y270193D02*
X349250D01*
X366108Y265730D02*
X366896D01*
X366108Y270258D02*
X366896D01*
X368483Y286398D02*
Y288515D01*
X363365Y293165D02*
X364516D01*
X363365Y281748D02*
Y284775D01*
Y290138D02*
Y293165D01*
Y281748D02*
X364516D01*
X348546Y251764D02*
X349333D01*
X348546Y256291D02*
X349333D01*
X366476Y252031D02*
X367264D01*
X366476Y256559D02*
X367264D01*
X311814Y295877D02*
X312602D01*
X311814Y291349D02*
X312602D01*
X324337Y295879D02*
X325125D01*
X324337Y291351D02*
X325125D01*
X311760Y305674D02*
X312547D01*
X311760Y301147D02*
X312547D01*
X324354Y305752D02*
X325142D01*
X324354Y301224D02*
X325142D01*
D15*
X224609Y378058D02*
G03*
X224609Y378058I-1500J0D01*
G01*
D16*
X625082Y223285D02*
X630082D01*
X625161Y318058D02*
X630161D01*
X575031Y85376D02*
X580031D01*
X76821Y402583D02*
X81821D01*
X76836Y157002D02*
X81836D01*
X76840Y279907D02*
X81840D01*
X625134Y412992D02*
X630134D01*
X241783Y262320D02*
Y267320D01*
X355111Y242709D02*
Y247709D01*
D17*
X35145Y170427D02*
X37811Y167761D01*
X35145D02*
X37811Y170427D01*
X35145Y169094D02*
X37811D01*
X36478Y167761D02*
Y170427D01*
X681069Y73553D02*
X683735Y76218D01*
Y73553D02*
X681069Y76218D01*
X682402Y73553D02*
Y76218D01*
X683735Y74885D02*
X681069D01*
X609502Y200749D02*
X612168Y198083D01*
X609502D02*
X612168Y200749D01*
X609502Y199416D02*
X612168D01*
X610835Y198083D02*
Y200749D01*
X609581Y295522D02*
X612246Y292856D01*
X609581D02*
X612246Y295522D01*
X609581Y294189D02*
X612246D01*
X610914Y292856D02*
Y295522D01*
X530495Y97001D02*
X533160Y94335D01*
X530495D02*
X533160Y97001D01*
X530495Y95668D02*
X533160D01*
X531828Y94335D02*
Y97001D01*
X35410Y415768D02*
X38075Y413102D01*
X35410D02*
X38075Y415768D01*
X35410Y414435D02*
X38075D01*
X36742Y413102D02*
Y415768D01*
X35970Y293844D02*
X38636Y291178D01*
X35970D02*
X38636Y293844D01*
X35970Y292511D02*
X38636D01*
X37303Y291178D02*
Y293844D01*
X609554Y390456D02*
X612220Y387790D01*
X609554D02*
X612220Y390456D01*
X609554Y389123D02*
X612220D01*
X610887Y387790D02*
Y390456D01*
X304420Y257656D02*
X307086Y260322D01*
Y257656D02*
X304420Y260322D01*
X305753Y257656D02*
Y260322D01*
X307086Y258989D02*
X304420D01*
D18*
X261764Y301354D02*
X257828D01*
X259796Y299386D02*
Y303321D01*
X263649Y246339D02*
X259713D01*
X261681Y244371D02*
Y248307D01*
M02*
