G04*
G04 #@! TF.GenerationSoftware,Altium Limited,Altium Designer,22.2.1 (43)*
G04*
G04 Layer_Color=0*
%FSLAX25Y25*%
%MOIN*%
G70*
G04*
G04 #@! TF.SameCoordinates,A442F040-2D2B-445B-BC8B-0DACE6EA8BBB*
G04*
G04*
G04 #@! TF.FilePolarity,Positive*
G04*
G01*
G75*
%ADD80C,0.00394*%
D80*
X284746Y123278D02*
Y127215D01*
X282778Y125247D02*
X286715D01*
X444409Y262859D02*
X448346D01*
X446378Y260890D02*
Y264827D01*
X624881Y89944D02*
X628818D01*
X626849Y87976D02*
Y91913D01*
X522399Y240999D02*
X526336D01*
X524368Y239031D02*
Y242968D01*
X135519Y384641D02*
X139456D01*
X137487Y382673D02*
Y386610D01*
X152801Y434104D02*
X156738D01*
X154770Y432136D02*
Y436073D01*
X135534Y139059D02*
X139471D01*
X137502Y137091D02*
Y141028D01*
X152816Y188523D02*
X156753D01*
X154784Y186554D02*
Y190491D01*
X152820Y311428D02*
X156756D01*
X154788Y309459D02*
Y313396D01*
X135538Y261965D02*
X139475D01*
X137506Y259996D02*
Y263933D01*
X241407Y278791D02*
Y282728D01*
X239439Y280759D02*
X243375D01*
X365924Y285488D02*
Y289425D01*
X363955Y287456D02*
X367892D01*
M02*
